<?xml version="1.0" encoding="UTF-8" standalone="no"?>
<!-- Created with Inkscape (http://www.inkscape.org/) -->

<svg
   xmlns:dc="http://purl.org/dc/elements/1.1/"
   xmlns:cc="http://creativecommons.org/ns#"
   xmlns:rdf="http://www.w3.org/1999/02/22-rdf-syntax-ns#"
   xmlns:svg="http://www.w3.org/2000/svg"
   xmlns="http://www.w3.org/2000/svg"
   xmlns:sodipodi="http://sodipodi.sourceforge.net/DTD/sodipodi-0.dtd"
   xmlns:inkscape="http://www.inkscape.org/namespaces/inkscape"
   version="1.1"
   id="svg1018"
   width="150"
   height="150"
   viewBox="0 0 150 150"
   sodipodi:docname="ilustratii_vector.svg"
   inkscape:export-filename="/Users/ionut/Documents/_temp_Documente_QGIS_pe_Intelesul_tuturor/analiza_vector/union.png"
   inkscape:export-xdpi="300"
   inkscape:export-ydpi="300"
   inkscape:version="0.92.2 5c3e80d, 2017-08-06">
  <metadata
     id="metadata1024">
    <rdf:RDF>
      <cc:Work
         rdf:about="">
        <dc:format>image/svg+xml</dc:format>
        <dc:type
           rdf:resource="http://purl.org/dc/dcmitype/StillImage" />
        <dc:title></dc:title>
      </cc:Work>
    </rdf:RDF>
  </metadata>
  <defs
     id="defs1022">
    <inkscape:path-effect
       effect="spiro"
       id="path-effect5610"
       is_visible="true" />
    <inkscape:path-effect
       effect="spiro"
       id="path-effect5606"
       is_visible="true" />
    <inkscape:path-effect
       effect="spiro"
       id="path-effect5548"
       is_visible="true" />
    <inkscape:path-effect
       effect="spiro"
       id="path-effect5544"
       is_visible="true" />
    <inkscape:path-effect
       effect="spiro"
       id="path-effect5540"
       is_visible="true" />
    <inkscape:path-effect
       effect="spiro"
       id="path-effect5536"
       is_visible="true" />
    <inkscape:path-effect
       effect="spiro"
       id="path-effect5532"
       is_visible="true" />
    <inkscape:path-effect
       effect="spiro"
       id="path-effect5528"
       is_visible="true" />
    <inkscape:path-effect
       effect="spiro"
       id="path-effect5524"
       is_visible="true" />
    <inkscape:path-effect
       effect="spiro"
       id="path-effect5386"
       is_visible="true" />
    <inkscape:path-effect
       effect="spiro"
       id="path-effect5382"
       is_visible="true" />
    <inkscape:path-effect
       effect="spiro"
       id="path-effect5366"
       is_visible="true" />
    <inkscape:path-effect
       effect="spiro"
       id="path-effect5386-3"
       is_visible="true" />
    <inkscape:path-effect
       effect="spiro"
       id="path-effect5382-5"
       is_visible="true" />
    <inkscape:path-effect
       effect="spiro"
       id="path-effect5386-6"
       is_visible="true" />
    <inkscape:path-effect
       effect="spiro"
       id="path-effect5382-3"
       is_visible="true" />
    <inkscape:path-effect
       effect="spiro"
       id="path-effect5544-4"
       is_visible="true" />
    <inkscape:path-effect
       effect="spiro"
       id="path-effect5548-5"
       is_visible="true" />
    <inkscape:path-effect
       effect="spiro"
       id="path-effect5540-9"
       is_visible="true" />
    <inkscape:path-effect
       effect="spiro"
       id="path-effect5536-6"
       is_visible="true" />
    <inkscape:path-effect
       effect="spiro"
       id="path-effect5532-4"
       is_visible="true" />
    <inkscape:path-effect
       effect="spiro"
       id="path-effect5524-8"
       is_visible="true" />
    <inkscape:path-effect
       effect="spiro"
       id="path-effect5528-7"
       is_visible="true" />
  </defs>
  <sodipodi:namedview
     pagecolor="#ffffff"
     bordercolor="#666666"
     borderopacity="1"
     objecttolerance="10"
     gridtolerance="10"
     guidetolerance="10"
     inkscape:pageopacity="0"
     inkscape:pageshadow="2"
     inkscape:window-width="1441"
     inkscape:window-height="788"
     id="namedview1020"
     showgrid="true"
     showguides="false"
     inkscape:showpageshadow="true"
     showborder="true"
     inkscape:zoom="2.9436119"
     inkscape:cx="43.374956"
     inkscape:cy="75.865706"
     inkscape:window-x="0"
     inkscape:window-y="0"
     inkscape:window-maximized="0"
     inkscape:current-layer="svg1018" />
  <path
     style="fill:#dbdee3;stroke:#000000;stroke-width:1.02378142px;stroke-linecap:butt;stroke-linejoin:miter;stroke-opacity:1"
     d="m -97.080619,209.87399 c -1.786704,1.32252 -3.029761,3.27212 -3.858411,5.33481 -0.82865,2.06269 -1.27572,4.25476 -1.73502,6.42971 -1.42344,6.74049 -3.00597,13.46349 -3.79419,20.3074 -0.78822,6.84391 -0.76381,13.86218 0.99747,20.52238 1.10376,4.17382 2.88088,8.18329 3.4959,12.45655 0.93573,6.50157 -0.87939,13.03599 -1.83203,19.53511 -0.47632,3.24955 -0.73743,6.55803 -0.32947,9.81688 0.40795,3.25884 1.51823,6.4831 3.55986,9.05569 2.422021,3.05191 5.969459,4.99663 8.685963,7.78964 1.358252,1.39651 2.518541,3.03641 3.072662,4.90403 0.27706,0.93382 0.398417,1.91759 0.314289,2.888 -0.08413,0.97041 -0.376699,1.92687 -0.886056,2.75713 -0.835887,1.3625 -2.213127,2.32395 -3.685998,2.94505 -1.472872,0.6211 -3.053692,0.93409 -4.619376,1.2562 -1.565685,0.3221 -3.143774,0.662 -4.595394,1.33126 -1.45162,0.66926 -2.78554,1.70331 -3.52994,3.11787 -0.64508,1.22583 -0.80799,2.66852 -0.62652,4.04178 0.18146,1.37327 0.69082,2.68542 1.3257,3.91657 1.34542,2.60903 3.31561,4.9449 5.852958,6.42107 2.537346,1.47617 5.667061,2.02994 8.480213,1.19126 1.754736,-0.52314 3.326302,-1.5555 4.673282,-2.79583 1.34698,-1.24033 2.484893,-2.68836 3.574339,-4.16005 2.178891,-2.94338 4.300284,-6.11289 7.483905,-7.92276 2.439538,-1.38686 5.291106,-1.84299 8.086305,-2.09117 2.7952,-0.24818 5.628603,-0.31643 8.344397,-1.02297 2.286999,-0.59498 4.431294,-1.62772 6.590473,-2.58809 2.159178,-0.96038 4.379359,-1.86234 6.722399,-2.1698 2.34304,-0.30746 4.850021,0.0338 6.787518,1.38675 0.968749,0.67648 1.774764,1.59823 2.258366,2.67629 0.483601,1.07807 0.63493,2.31276 0.364559,3.46297 -0.201712,0.85813 -0.627856,1.6499 -1.137906,2.36887 -0.51005,0.71897 -1.105125,1.37265 -1.684712,2.03684 -0.579587,0.66419 -1.14796,1.34467 -1.595312,2.10424 -0.447352,0.75957 -0.771866,1.60659 -0.825912,2.48645 -0.06432,1.04707 0.265105,2.10458 0.866184,2.96434 0.60108,0.85976 1.464371,1.52379 2.427726,1.93904 1.926708,0.8305 4.171938,0.65423 6.145007,-0.0592 3.470957,-1.25499 6.155444,-3.98889 9.089325,-6.22828 4.007586,-3.05894 8.680872,-5.2878 13.633988,-6.22827 2.7844036,-0.52869 5.7321303,-0.63754 8.39014702,0.34601 1.50066078,0.55529 2.85389228,1.43698 4.25158728,2.21594 1.3976949,0.77896 2.8924567,1.47156 4.4881527,1.59023 1.7994334,0.13383 3.57264,-0.47366 5.210521,-1.23077 1.637881,-0.75711 3.210294,-1.67545 4.927569,-2.22938 2.749534,-0.8869 5.791461,-0.81381 8.39015,-2.07609 1.488174,-0.72286 2.756366,-1.85907 3.740916,-3.18867 0.984549,-1.32961 1.693461,-2.84934 2.202094,-4.42366 1.716338,-5.31241 1.156825,-11.05733 1.74796,-16.60873 0.784277,-7.36522 3.6049,-14.41565 4.19506,-21.79896 0.445516,-5.57371 -0.397444,-11.18278 -1.74794,-16.60872 -1.370444,-5.50609 -3.265251,-10.88704 -4.272226,-16.47104 -1.006974,-5.58401 -1.075128,-11.51665 1.125916,-16.74642 1.890547,-4.49202 5.353173,-8.23964 6.878018,-12.8686 0.762423,-2.31448 1.002135,-4.86844 0.239758,-7.18293 -0.381188,-1.15725 -1.01156,-2.23859 -1.87319,-3.10005 -0.86163,-0.86147 -1.957635,-1.49726 -3.147046,-1.76151 -0.995126,-0.22108 -2.037684,-0.18138 -3.034472,0.0321 -0.996788,0.21347 -1.950933,0.59706 -2.860571,1.05718 -1.819276,0.92024 -3.470654,2.14642 -5.291817,3.06292 -5.06739,2.55016 -11.108496,2.51057 -16.6271975,1.19691 C 2.43061,223.94385 -2.72134,221.45164 -7.935311,219.2164 c -3.899931,-1.67191 -7.994109,-3.23349 -12.235629,-3.11414 -2.98049,0.0839 -5.866673,0.99575 -8.720836,1.85837 -2.854164,0.86261 -5.778315,1.69142 -8.758637,1.60178 -4.401875,-0.1324 -8.475256,-2.24193 -12.320761,-4.38812 -3.845504,-2.14619 -7.778457,-4.42582 -12.1505,-4.95428 -4.05689,-0.49037 -8.155696,0.5761 -12.235631,0.34601 -3.898667,-0.21987 -7.62636,-1.61104 -11.463478,-2.33525 -1.918559,-0.3621 -3.884183,-0.55746 -5.825639,-0.35073 -1.941455,0.20674 -3.8649,0.83236 -5.434197,1.99395 z"
     id="path5526"
     inkscape:connector-curvature="0"
     inkscape:path-effect="#path-effect5528"
     inkscape:original-d="m -97.080619,209.87399 c -7.575471,-0.22966 -3.727921,7.84199 -5.593431,11.76452 -1.86551,3.92252 -1.86345,27.21884 -2.79672,40.82978 -0.93326,13.61095 2.33163,8.30335 3.4959,12.45655 1.16427,4.1532 0.93327,25.6041 1.39836,38.40768 0.46509,12.80358 7.458934,12.22486 11.186858,18.3388 3.727925,6.11396 -10.952778,5.7659 -16.430708,8.65038 -5.47793,2.88448 0.46715,5.30455 0.69918,7.95835 0.23203,2.6538 9.556477,5.07387 14.333171,7.61233 4.776694,2.53847 10.488712,-9.92011 15.731526,-14.87864 5.242811,-4.95853 10.954831,-2.07711 16.430702,-3.11414 5.475874,-1.03703 15.149907,1.84439 22.723315,2.76812 7.57341,0.92373 -3.494866,5.99658 -5.243842,8.9964 -1.748975,2.99981 6.293639,3.22845 9.438917,4.84421 3.145275,1.61575 6.060578,-4.15321 9.089325,-6.22828 3.028745,-2.07507 9.090355,-4.15319 13.633988,-6.22827 4.543627,-2.07507 5.594457,0.22965 8.39014702,0.34601 2.79568998,0.11636 5.82751998,2.53643 8.73973998,3.80617 2.9122,1.26974 6.75975,-2.30778 10.13809,-3.46015 3.37834,-1.15236 5.59446,-1.38508 8.39015,-2.07609 2.79568,-0.69101 3.96304,-5.07591 5.94301,-7.61233 1.97999,-2.53643 1.16634,-11.07351 1.74796,-16.60873 0.58162,-5.53523 2.79774,-14.53366 4.19506,-21.79896 1.39734,-7.2653 -1.16426,-11.0735 -1.74794,-16.60872 -0.58368,-5.53523 -2.0965,-22.14599 -3.14631,-33.21746 -1.0498,-11.07147 1.39939,-16.60975 2.09754,-24.91309 0.69815,-8.30335 -7.45688,2.7671 -11.18686,4.15218 -3.72998,1.38508 -21.67351,-3.23049 -32.51182,-4.84421 -10.8383,-1.61372 -8.156057,-2.07711 -12.235629,-3.11414 -4.079573,-1.03702 -11.651953,2.30575 -17.479473,3.46015 -5.827519,1.15441 -16.313145,-6.22929 -24.471261,-9.3424 -8.158116,-3.11312 -8.156058,0.22965 -12.235631,0.34601 -4.079573,0.11636 -15.147847,-0.46237 -22.723314,-0.69203 z" />
  <path
     style="fill:#37483e;stroke:#ff0000;stroke-width:5.30000019;stroke-linecap:butt;stroke-linejoin:miter;stroke-miterlimit:4;stroke-dasharray:none;stroke-opacity:1"
     d="m 519.61524,-150 519.61526,-300 519.6152,300 -519.6152,300 -519.61526,-300"
     id="path1597"
     inkscape:connector-curvature="0"
     inkscape:export-filename="/Users/ionut/Documents/_temp_Documente_QGIS_pe_Intelesul_tuturor/exemplificare_piramide.png"
     inkscape:export-xdpi="300"
     inkscape:export-ydpi="300" />
  <path
     style="fill:#93ac9d;stroke:#ff0000;stroke-width:5.30000019;stroke-linecap:butt;stroke-linejoin:miter;stroke-miterlimit:4;stroke-dasharray:none;stroke-opacity:1"
     d="M 519.61524,-550 779.42286,-700 1039.2305,-550 779.42286,-400 519.61524,-550"
     id="path1599"
     inkscape:connector-curvature="0"
     inkscape:export-filename="/Users/ionut/Documents/_temp_Documente_QGIS_pe_Intelesul_tuturor/exemplificare_piramide.png"
     inkscape:export-xdpi="300"
     inkscape:export-ydpi="300" />
  <path
     style="fill:#93ac9d;fill-opacity:1;stroke:#ff0000;stroke-width:5.30000019;stroke-linecap:butt;stroke-linejoin:miter;stroke-miterlimit:4;stroke-dasharray:none;stroke-opacity:1"
     d="m 1039.2305,-550 259.8076,150 -259.8076,150 -259.80764,-150"
     id="path1601"
     inkscape:connector-curvature="0"
     inkscape:export-filename="/Users/ionut/Documents/_temp_Documente_QGIS_pe_Intelesul_tuturor/exemplificare_piramide.png"
     inkscape:export-xdpi="300"
     inkscape:export-ydpi="300" />
  <path
     style="fill:#93ac9d;fill-opacity:1;stroke:#ff0000;stroke-width:5.30000019;stroke-linecap:butt;stroke-linejoin:miter;stroke-miterlimit:4;stroke-dasharray:none;stroke-opacity:1"
     d="m 1039.2305,-550 259.8076,-150 -259.8076,-150 -259.80764,150 z"
     id="path1603"
     inkscape:connector-curvature="0"
     inkscape:export-filename="/Users/ionut/Documents/_temp_Documente_QGIS_pe_Intelesul_tuturor/exemplificare_piramide.png"
     inkscape:export-xdpi="300"
     inkscape:export-ydpi="300" />
  <path
     style="fill:#93ac9d;fill-opacity:1;stroke:#ff0000;stroke-width:5.30000019;stroke-linecap:butt;stroke-linejoin:miter;stroke-miterlimit:4;stroke-dasharray:none;stroke-opacity:1"
     d="m 1299.0381,-700 259.8076,150 -259.8076,150 -259.8076,-150"
     id="path1605"
     inkscape:connector-curvature="0"
     inkscape:export-filename="/Users/ionut/Documents/_temp_Documente_QGIS_pe_Intelesul_tuturor/exemplificare_piramide.png"
     inkscape:export-xdpi="300"
     inkscape:export-ydpi="300" />
  <path
     style="fill:#dbe3de;stroke:#ff0000;stroke-width:5.30000019;stroke-linecap:butt;stroke-linejoin:miter;stroke-miterlimit:4;stroke-dasharray:none;stroke-opacity:1"
     d="M 519.61522,-950 692.8203,-1050 866.02538,-950 692.8203,-850 519.61522,-950"
     id="path1607"
     inkscape:connector-curvature="0"
     inkscape:export-filename="/Users/ionut/Documents/_temp_Documente_QGIS_pe_Intelesul_tuturor/exemplificare_piramide.png"
     inkscape:export-xdpi="300"
     inkscape:export-ydpi="300" />
  <path
     style="fill:#dbe3de;fill-opacity:1;stroke:#ff0000;stroke-width:5.30000019;stroke-linecap:butt;stroke-linejoin:miter;stroke-miterlimit:4;stroke-dasharray:none;stroke-opacity:1"
     d="M 866.02538,-950 1039.2305,-850 866.02538,-750 692.8203,-850 866.02538,-950"
     id="path1609"
     inkscape:connector-curvature="0"
     inkscape:export-filename="/Users/ionut/Documents/_temp_Documente_QGIS_pe_Intelesul_tuturor/exemplificare_piramide.png"
     inkscape:export-xdpi="300"
     inkscape:export-ydpi="300" />
  <path
     style="fill:#dbe3de;fill-opacity:1;stroke:#ff0000;stroke-width:5.30000019;stroke-linecap:butt;stroke-linejoin:miter;stroke-miterlimit:4;stroke-dasharray:none;stroke-opacity:1"
     d="m 1039.2305,-850 173.2051,100 -173.2051,100 -173.20512,-100 173.20512,-100"
     id="path1611"
     inkscape:connector-curvature="0"
     inkscape:export-filename="/Users/ionut/Documents/_temp_Documente_QGIS_pe_Intelesul_tuturor/exemplificare_piramide.png"
     inkscape:export-xdpi="300"
     inkscape:export-ydpi="300" />
  <path
     style="fill:#dbe3de;fill-opacity:1;stroke:#ff0000;stroke-width:5.30000019;stroke-linecap:butt;stroke-linejoin:miter;stroke-miterlimit:4;stroke-dasharray:none;stroke-opacity:1"
     d="m 692.8203,-1050 173.20508,-100 173.20512,100 -173.20512,100 z"
     id="path1613"
     inkscape:connector-curvature="0"
     inkscape:export-filename="/Users/ionut/Documents/_temp_Documente_QGIS_pe_Intelesul_tuturor/exemplificare_piramide.png"
     inkscape:export-xdpi="300"
     inkscape:export-ydpi="300" />
  <path
     style="fill:#dbe3de;fill-opacity:1;stroke:#ff0000;stroke-width:5.30000019;stroke-linecap:butt;stroke-linejoin:miter;stroke-miterlimit:4;stroke-dasharray:none;stroke-opacity:1"
     d="m 1039.2305,-1050 173.2051,100 -173.2051,100 -173.20512,-100 173.20512,-100"
     id="path1615"
     inkscape:connector-curvature="0"
     inkscape:export-filename="/Users/ionut/Documents/_temp_Documente_QGIS_pe_Intelesul_tuturor/exemplificare_piramide.png"
     inkscape:export-xdpi="300"
     inkscape:export-ydpi="300" />
  <path
     style="fill:#dbe3de;fill-opacity:1;stroke:#ff0000;stroke-width:5.30000019;stroke-linecap:butt;stroke-linejoin:miter;stroke-miterlimit:4;stroke-dasharray:none;stroke-opacity:1"
     d="m 1212.4356,-950 173.205,100 -173.205,100 -173.2051,-100 z"
     id="path1617"
     inkscape:connector-curvature="0"
     inkscape:export-filename="/Users/ionut/Documents/_temp_Documente_QGIS_pe_Intelesul_tuturor/exemplificare_piramide.png"
     inkscape:export-xdpi="300"
     inkscape:export-ydpi="300" />
  <path
     style="fill:#dbe3de;fill-opacity:1;stroke:#ff0000;stroke-width:5.30000019;stroke-linecap:butt;stroke-linejoin:miter;stroke-miterlimit:4;stroke-dasharray:none;stroke-opacity:1"
     d="m 866.02538,-1150 173.20512,-100 173.2051,100 -173.2051,100 z"
     id="path1619"
     inkscape:connector-curvature="0"
     inkscape:export-filename="/Users/ionut/Documents/_temp_Documente_QGIS_pe_Intelesul_tuturor/exemplificare_piramide.png"
     inkscape:export-xdpi="300"
     inkscape:export-ydpi="300" />
  <path
     style="fill:#dbe3de;fill-opacity:1;stroke:#ff0000;stroke-width:5.30000019;stroke-linecap:butt;stroke-linejoin:miter;stroke-miterlimit:4;stroke-dasharray:none;stroke-opacity:1"
     d="m 1212.4356,-1150 173.205,100 -173.205,100 -173.2051,-100 173.2051,-100"
     id="path1621"
     inkscape:connector-curvature="0"
     inkscape:export-filename="/Users/ionut/Documents/_temp_Documente_QGIS_pe_Intelesul_tuturor/exemplificare_piramide.png"
     inkscape:export-xdpi="300"
     inkscape:export-ydpi="300" />
  <path
     style="fill:#dbe3de;fill-opacity:1;stroke:#ff0000;stroke-width:5.30000019;stroke-linecap:butt;stroke-linejoin:miter;stroke-miterlimit:4;stroke-dasharray:none;stroke-opacity:1"
     d="m 1385.6406,-1050 173.2051,100 -173.2051,100 -173.205,-100 173.205,-100"
     id="path1623"
     inkscape:connector-curvature="0"
     inkscape:export-filename="/Users/ionut/Documents/_temp_Documente_QGIS_pe_Intelesul_tuturor/exemplificare_piramide.png"
     inkscape:export-xdpi="300"
     inkscape:export-ydpi="300" />
  <text
     xml:space="preserve"
     style="font-style:normal;font-variant:normal;font-weight:normal;font-stretch:normal;font-size:53.33333206px;line-height:1.25;font-family:'Helvetica Neue';-inkscape-font-specification:'Helvetica Neue, Normal';font-variant-ligatures:normal;font-variant-caps:normal;font-variant-numeric:normal;font-feature-settings:normal;text-align:start;letter-spacing:0px;word-spacing:0px;writing-mode:lr-tb;text-anchor:start;fill:#000000;fill-opacity:1;stroke:none"
     x="157.26402"
     y="-137.49182"
     id="text1627"
     inkscape:export-filename="/Users/ionut/Documents/_temp_Documente_QGIS_pe_Intelesul_tuturor/exemplificare_piramide.png"
     inkscape:export-xdpi="300"
     inkscape:export-ydpi="300"><tspan
       sodipodi:role="line"
       id="tspan1625"
       x="157.26402"
       y="-137.49182">1 : 50 000</tspan></text>
  <text
     xml:space="preserve"
     style="font-style:normal;font-variant:normal;font-weight:normal;font-stretch:normal;font-size:53.33333206px;line-height:1.25;font-family:'Helvetica Neue';-inkscape-font-specification:'Helvetica Neue, Normal';font-variant-ligatures:normal;font-variant-caps:normal;font-variant-numeric:normal;font-feature-settings:normal;text-align:start;letter-spacing:0px;word-spacing:0px;writing-mode:lr-tb;text-anchor:start;fill:#000000;fill-opacity:1;stroke:none"
     x="165.00372"
     y="-541.02795"
     id="text1627-6"
     inkscape:export-filename="/Users/ionut/Documents/_temp_Documente_QGIS_pe_Intelesul_tuturor/exemplificare_piramide.png"
     inkscape:export-xdpi="300"
     inkscape:export-ydpi="300"><tspan
       sodipodi:role="line"
       id="tspan1647"
       x="165.00372"
       y="-541.02795">1 : 25 000</tspan></text>
  <text
     xml:space="preserve"
     style="font-style:normal;font-variant:normal;font-weight:normal;font-stretch:normal;font-size:53.33333206px;line-height:1.25;font-family:'Helvetica Neue';-inkscape-font-specification:'Helvetica Neue, Normal';font-variant-ligatures:normal;font-variant-caps:normal;font-variant-numeric:normal;font-feature-settings:normal;text-align:start;letter-spacing:0px;word-spacing:0px;writing-mode:lr-tb;text-anchor:start;fill:#000000;fill-opacity:1;stroke:none"
     x="171.00755"
     y="-938.37952"
     id="text1627-6-9"
     inkscape:export-filename="/Users/ionut/Documents/_temp_Documente_QGIS_pe_Intelesul_tuturor/exemplificare_piramide.png"
     inkscape:export-xdpi="300"
     inkscape:export-ydpi="300"><tspan
       sodipodi:role="line"
       id="tspan1667"
       x="171.00755"
       y="-938.37952">1 : 10 000</tspan></text>
  <path
     style="fill:none;fill-opacity:0.63768119;stroke:#000000;stroke-width:1.40597451;stroke-miterlimit:4;stroke-dasharray:none;stroke-opacity:1"
     d="m 287.74105,1.1532037 c -7.30988,-0.044331 -13.02691,7.3763472 -10.80147,13.8776833 0.96746,4.645586 7.04927,6.981075 6.66852,12.028299 -0.23505,5.889798 -6.77985,8.844477 -12.14029,9.904859 -11.98037,2.215164 -24.69441,2.94071 -35.41635,8.997721 -10.49163,5.437808 -19.10479,13.77652 -24.79249,23.659332 -8.9853,14.381447 -13.03331,31.565202 -25.62108,43.850122 -5.72384,5.89983 -12.75209,10.50763 -20.12948,14.38898 -6.02708,3.54952 -7.38538,12.32368 -2.17049,17.02662 3.91328,4.10651 10.76565,4.24184 15.51385,1.34766 17.07084,-8.72999 31.24202,-22.42382 39.63004,-38.91527 6.16813,-11.225883 9.83716,-23.868908 18.56087,-33.719921 6.3243,-7.053037 15.56102,-11.580265 25.31405,-12.587401 11.1669,-1.565615 22.97266,-3.240834 32.15304,-9.940245 9.9061,-6.911276 14.68795,-19.377359 12.03659,-30.660649 C 304.6897,13.233548 300.39364,5.9901786 293.33323,2.3166443 291.59847,1.4881365 289.67254,1.1785641 287.74105,1.1532037 Z"
     id="path5372"
     inkscape:connector-curvature="0" />
  <path
     style="fill:none;stroke:#005beb;stroke-width:1.40597451;stroke-linecap:butt;stroke-linejoin:miter;stroke-miterlimit:4;stroke-dasharray:none;stroke-opacity:1"
     d="m 171.16997,137.42579 c 13.94002,-6.28126 25.91098,-16.85335 33.86747,-29.90987 8.07713,-13.254487 12.15818,-29.00649 22.41229,-40.658727 6.64299,-7.548746 15.6555,-12.943168 25.4006,-15.422274 7.18497,-1.827823 14.68292,-2.103947 21.91426,-3.738734 5.96133,-1.347678 11.94734,-3.78275 15.93763,-8.41215 3.38405,-3.92606 5.05102,-9.282361 4.49255,-14.435401 -0.55847,-5.15304 -3.33427,-10.027846 -7.48085,-13.137758"
     id="path5364"
     inkscape:connector-curvature="0"
     inkscape:path-effect="#path-effect5366"
     inkscape:original-d="m 171.16997,137.42579 c 11.29063,-9.97135 22.57978,-19.9413 33.86747,-29.90987 11.28769,-9.96858 14.94299,-27.107193 22.41229,-40.658727 7.4693,-13.551532 16.9352,-10.282892 25.4006,-15.422274 8.46541,-5.139384 14.61097,-2.493866 21.91426,-3.738734 7.30326,-1.244869 10.62653,-5.609476 15.93763,-8.41215 5.31106,-2.802674 -1.99075,-18.383481 -2.9883,-27.573159" />
  <path
     style="fill:none;stroke:#000000;stroke-width:1.29999995;stroke-linecap:butt;stroke-linejoin:miter;stroke-miterlimit:4;stroke-dasharray:none;stroke-opacity:1"
     d="m -192.41082,9.6920629 c -3.62695,0.5353021 -7.39163,-0.3325396 -10.59166,-2.1217062 -3.20003,-1.7891665 -5.85515,-4.4614566 -7.91317,-7.49556915 -4.11605,-6.06822505 -5.84138,-13.39319555 -7.58544,-20.51523455 -2.52359,-10.305291 -5.27967,-20.647947 -10.03471,-30.132521 -4.10563,-8.189242 -9.64061,-15.612 -13.54687,-23.898196 -1.9426,-4.120759 -3.47732,-8.460476 -4.19659,-12.959029 -0.71928,-4.498553 -0.60485,-9.167359 0.68444,-13.536807 1.22744,-4.15985 3.48319,-7.95316 6.09572,-11.4152 2.61253,-3.46203 5.59098,-6.62798 8.45462,-9.88537 2.58801,-2.94386 5.10193,-5.98287 8.10365,-8.50353 3.00173,-2.52066 6.57036,-4.52427 10.46058,-5.00415 2.01419,-0.24846 4.08183,-0.0796 6.02083,0.51953 2.12869,0.65778 4.06305,1.81255 5.98864,2.93331 1.92559,1.12077 3.8944,2.2298 6.05302,2.78148 2.05795,0.52595 4.2284,0.52418 6.32437,0.17963 2.09597,-0.34455 4.12449,-1.02471 6.08614,-1.8394 3.9233,-1.62937 7.62415,-3.80743 11.67282,-5.09407 6.43092,-2.0437 13.33086,-1.72439 20.06943,-2.07811 4.73294,-0.24844 9.49978,-0.83715 14.19001,-0.1559 2.34512,0.34062 4.65968,1.00488 6.74114,2.13762 2.08146,1.13275 3.92509,2.74906 5.15912,4.77212 1.28369,2.10447 1.87407,4.60943 1.75556,7.07166 -0.11852,2.46223 -0.93418,4.87565 -2.2573,6.95555 -1.58766,2.49575 -3.85233,4.47642 -6.12611,6.36834 -2.27378,1.89192 -4.61297,3.75638 -6.41729,6.10028 -2.22888,2.89542 -3.55519,6.457544 -3.87035,10.097878 -0.31516,3.640335 0.36893,7.34882 1.86341,10.683172 2.18161,4.867421 6.01817,8.856036 10.38449,11.919768 4.36633,3.063731 9.26907,5.270117 14.20058,7.302702 3.00181,1.237236 6.04993,2.428982 8.77179,4.199052 2.72185,1.77007 5.13323,4.193107 6.280292,7.230522 1.274509,3.374892 0.831493,7.313317 -1.013492,10.413363 -1.84499,3.100046 -5.01906,5.339105 -8.51952,6.211476 -2.52289,0.628744 -5.17721,0.577576 -7.74609,0.176156 -2.56889,-0.401419 -5.07022,-1.144973 -7.5599,-1.894485 -2.48969,-0.749513 -4.98507,-1.509042 -7.54852,-1.94376 -2.56346,-0.434718 -5.213,-0.537662 -7.75136,0.0254 -3.50021,0.776428 -6.68492,2.835379 -8.90716,5.648917 -2.22223,2.813537 -3.48256,6.354871 -3.63624,9.936868 -0.11338,2.642781 0.35469,5.273243 0.48752,7.915118 0.13283,2.641874 -0.10712,5.416331 -1.49099,7.6706719 -1.03504,1.6860931 -2.64807,2.9621802 -4.4147,3.8528167 -1.76663,0.8906365 -3.69136,1.4209336 -5.62002,1.8619433 -2.69752,0.6168181 -5.44883,1.0750669 -8.02778,2.07811 -3.75276,1.45957898 -6.96391,3.9996466 -10.25133,6.3248211 -3.28742,2.3251745 -6.83812,4.5168395 -10.82158,5.1047589 z"
     id="path5380"
     inkscape:connector-curvature="0"
     inkscape:path-effect="#path-effect5382"
     inkscape:original-d="m -192.41082,9.6920629 c -7.02577,3.8114001 -17.39203,-20.0898699 -26.09027,-30.1325099 -8.69823,-10.04265 -6.68833,-20.089871 -10.03471,-30.132521 -3.34639,-10.042635 -9.02977,-15.933657 -13.54687,-23.898196 -4.5171,-7.964536 -2.33996,-17.665418 -3.51215,-26.495836 -1.1722,-8.83041 9.7017,-14.20191 14.55034,-21.30057 4.84863,-7.09866 12.37763,-9.00664 18.56423,-13.50768 6.1866,-4.50103 4.01536,0.34483 6.02083,0.51953 2.00547,0.1747 8.02925,3.80833 12.04166,5.71479 4.01241,1.90645 16.05703,-4.50409 24.08333,-6.75384 8.02629,-2.24975 13.3811,-1.38693 20.06943,-2.07811 6.68834,-0.69117 17.39499,4.50103 26.09027,6.75384 8.69529,2.25281 -0.33302,9.34994 -0.50174,14.02721 -0.16872,4.67726 -8.36079,8.31089 -12.5434,12.46862 -4.18259,4.15774 -1.33648,13.852506 -2.00694,20.78105 -0.67046,6.928544 16.39153,12.813448 24.58507,19.22247 8.19355,6.409018 10.03618,7.618187 15.052082,11.429574 5.01587,3.811386 -6.353852,11.081684 -9.533012,16.624839 -3.17912,5.54313 -20.40244,-2.426007 -30.60587,-3.636685 -10.20344,-1.210708 -8.36079,10.388985 -12.5434,15.585785 -4.18261,5.1968 -0.66751,10.38899 -1.00347,15.5857899 -0.33597,5.19678 -6.68834,3.80831 -10.03472,5.71476 -3.34639,1.90647 -5.35037,1.38389 -8.02778,2.07811 -2.6774,0.69424 -14.04713,7.61819 -21.07291,11.42958 z"
     clip-path="none" />
  <path
     style="fill:none;stroke:#000000;stroke-width:1.29999995;stroke-linecap:butt;stroke-linejoin:miter;stroke-miterlimit:4;stroke-dasharray:none;stroke-opacity:1"
     d="m -178.94146,-116.7206 c 4.8896,-0.18776 9.77491,-0.59364 14.60791,-1.35887 3.72549,-0.58988 7.58703,-1.38671 11.21071,-0.33972 0.83081,0.24005 1.63565,0.57561 2.37804,1.01916 1.66205,0.99302 2.96159,2.49383 4.07662,4.07662 0.86313,1.22521 1.64921,2.55403 1.90686,4.03043 0.12882,0.7382 0.12018,1.50572 -0.0768,2.22873 -0.19696,0.72301 -0.58754,1.39966 -1.15063,1.89409 -0.73215,0.64288 -1.72316,0.94774 -2.69747,0.95356 -0.97432,0.006 -1.93419,-0.26969 -2.82012,-0.67523 -1.77186,-0.81106 -3.2691,-2.12792 -5.01369,-2.99608 -1.2596,-0.62682 -2.6771,-1.01428 -4.07413,-0.84755 -0.69851,0.0834 -1.38369,0.30647 -1.97989,0.67985 -0.59621,0.37338 -1.10104,0.89946 -1.41979,1.52657 -0.41815,0.82266 -0.50143,1.79705 -0.29707,2.69697 0.20436,0.89991 0.68521,1.72543 1.31622,2.39881 1.01209,1.08003 2.38494,1.765043 3.80123,2.19504 1.4163,0.429998 2.89115,0.624432 4.35202,0.862433 1.45828,0.237579 2.92605,0.525314 4.26787,1.143829 1.34181,0.618515 2.56238,1.602815 3.20594,2.932796 0.63549,1.313308 0.6497,2.905034 0.0656,4.242006 -0.58407,1.336972 -1.74909,2.401484 -3.12311,2.892086 -1.16113,0.414588 -2.44305,0.428029 -3.64678,0.161325 -1.20374,-0.266704 -2.33489,-0.803548 -3.37867,-1.459775 -2.08756,-1.312454 -3.84091,-3.095909 -5.88386,-4.476768 -1.0299,-0.696122 -2.16218,-1.297952 -3.3947,-1.459704 -0.61626,-0.08088 -1.25129,-0.04807 -1.84558,0.133952 -0.5943,0.182024 -1.14642,0.51686 -1.55409,0.986034 -0.32968,0.379423 -0.56078,0.841438 -0.68194,1.329263 -0.12116,0.487826 -0.13347,1.00074 -0.0514,1.496646 0.16409,0.991811 0.70212,1.898568 1.4128,2.60959 1.00841,1.008897 2.33186,1.632705 3.64765,2.183554 1.3158,0.550849 2.66984,1.057794 3.82616,1.89307 0.80412,0.580865 1.50457,1.323199 1.95297,2.208051 0.44839,0.884852 0.63278,1.917742 0.42506,2.887726 -0.23926,1.117243 -0.99347,2.094828 -1.96659,2.693598 -0.97311,0.59877 -2.14824,0.832365 -3.28786,0.75027 -1.13962,-0.08209 -2.24471,-0.468261 -3.24148,-1.026752 -0.99678,-0.558491 -1.8904,-1.286285 -2.71479,-2.077396 -1.7546,-1.68377 -3.21077,-3.663279 -4.41634,-5.775216 -1.26586,-2.217538 -2.2922,-4.628261 -4.07662,-6.454655 -1.72281,-1.763332 -4.05038,-2.85237 -6.45466,-3.397187 -3.39283,-0.768825 -7.05449,-0.484602 -10.19155,1.019156 -1.53692,0.736729 -2.92406,1.745191 -4.3353,2.700855 -1.41125,0.955664 -2.87491,1.872951 -4.49739,2.394926 -2.55506,0.821999 -5.45416,0.576786 -7.78845,-0.748017 -2.33428,-1.324804 -4.04748,-3.731117 -4.44142,-6.386076 -0.21978,-1.481188 -0.0351,-3.03281 0.60807,-4.385059 0.64316,-1.352251 1.75549,-2.491961 3.12883,-3.088751 1.27058,-0.55214 2.70403,-0.62864 4.08126,-0.47876 1.37724,0.14987 2.72021,0.51531 4.07199,0.81848 2.68959,0.6032 5.56583,0.95026 8.15325,0 1.73918,-0.63874 3.29291,-1.90336 4.03592,-3.60061 0.3715,-0.84862 0.53432,-1.79241 0.43365,-2.7133 -0.10067,-0.92089 -0.46898,-1.81587 -1.07238,-2.51878 -0.72393,-0.84332 -1.7503,-1.38066 -2.81329,-1.70518 -1.063,-0.32451 -2.1739,-0.45351 -3.275,-0.60472 -1.10109,-0.15122 -2.21008,-0.32901 -3.24141,-0.74329 -1.03133,-0.41429 -1.99093,-1.08817 -2.56046,-2.04259 -0.60679,-1.01687 -0.71966,-2.28666 -0.43064,-3.435 0.28901,-1.14835 0.95537,-2.17917 1.78952,-3.01965 1.40547,-1.41612 3.32312,-2.32485 5.3133,-2.46587 1.99019,-0.14103 4.03411,0.49825 5.5577,1.78643 1.40978,1.19195 2.3402,2.86936 3.73689,4.07662 1.39567,1.20637 3.19113,1.87751 5.01049,2.18266 1.81937,0.30515 3.67737,0.26616 5.52079,0.19537 z"
     id="path5384"
     inkscape:connector-curvature="0"
     inkscape:path-effect="#path-effect5386"
     inkscape:original-d="m -178.94146,-116.7206 c 3.50943,0.79368 9.73961,-0.90691 14.60791,-1.35887 4.8683,-0.45196 7.47481,-0.22748 11.21071,-0.33972 3.73591,-0.11224 1.58636,0.67844 2.37804,1.01916 0.79167,0.34071 2.71875,2.71674 4.07662,4.07662 1.35787,1.35987 0.45396,5.4345 0.67944,8.15325 0.22548,2.71875 -7.01986,-1.81284 -10.53128,-2.71775 -3.51143,-0.90492 -4.98154,0.90491 -7.47381,1.35887 -2.49227,0.45396 0.68043,3.39619 1.01915,5.09578 0.33872,1.699598 5.4365,2.037317 8.15325,3.057473 2.71675,1.020156 4.98354,2.71675 7.47381,4.076625 2.49027,1.359874 -2.03731,4.755061 -3.05747,7.134092 -1.02015,2.379031 -8.6052,-3.851145 -12.90931,-5.775218 -4.3041,-1.924072 -4.52858,-0.227479 -6.79437,-0.339718 -2.26579,-0.11224 0.45396,3.622666 0.67944,5.435499 0.22548,1.812833 4.98354,2.716749 7.47381,4.076624 2.49027,1.359875 1.58635,3.396187 2.37803,5.095777 0.79168,1.6996 -7.47281,0.22548 -11.21072,0.33972 -3.7379,0.11424 -2.94323,-3.851143 -4.41634,-5.775216 -1.47311,-1.924072 -2.71675,-4.304103 -4.07662,-6.454655 -1.35988,-2.150552 -4.30211,-2.265791 -6.45466,-3.397187 -2.15256,-1.131395 -6.79337,0.678438 -10.19155,1.019156 -3.39819,0.340719 -5.88746,3.396187 -8.83269,5.095781 -2.94523,1.699593 -8.15225,-4.757062 -12.22987,-7.134093 -4.07763,-2.377031 2.49227,-4.983541 3.7369,-7.47381 1.24464,-2.49027 5.4365,0.22548 8.15325,0.33972 2.71675,0.11424 5.4365,-0.001 8.15325,0 2.71675,0.001 2.26579,-5.88946 3.39719,-8.83269 1.13139,-2.94323 -7.92577,-3.39819 -11.89016,-5.09578 -3.96438,-1.69759 0.90692,-4.3041 1.35888,-6.45465 0.45196,-2.15056 7.24833,-0.45396 10.871,-0.67944 3.62265,-0.22548 2.49226,2.71675 3.73689,4.07662 1.24464,1.35988 7.02185,1.58436 10.53128,2.37803 z"
     clip-path="none" />
  <g
     id="g5496">
    <path
       clip-path="none"
       inkscape:original-d="m -166.63318,175.18731 c -7.02578,3.8114 -17.39204,-20.08987 -26.09027,-30.13251 -8.69823,-10.04265 -6.68833,-20.08987 -10.03472,-30.13252 -3.34638,-10.04263 -9.02977,-15.933656 -13.54687,-23.898195 -4.5171,-7.964536 -2.33996,-17.665418 -3.51215,-26.495833 -1.17219,-8.830415 9.7017,-14.201909 14.55034,-21.300571 4.84864,-7.098659 12.37763,-9.006646 18.56423,-13.507677 6.1866,-4.501031 4.01536,0.344821 6.02083,0.519526 2.00547,0.174703 8.02925,3.808328 12.04166,5.714787 4.01242,1.906456 16.05703,-4.50409 24.08333,-6.753839 8.0263,-2.249751 13.3811,-1.386933 20.06944,-2.078105 6.68834,-0.691173 17.39499,4.501031 26.090266,6.753839 8.69529,2.25281 -0.33302,9.349941 -0.50174,14.027205 -0.16872,4.677264 -8.360786,8.310889 -12.543396,12.468627 -4.18259,4.157738 -1.33648,13.852501 -2.00694,20.781045 -0.67046,6.928544 16.391526,12.813448 24.585066,19.222471 8.19355,6.40902 10.03618,7.61819 15.05208,11.42957 5.01587,3.81139 -6.35385,11.08169 -9.53301,16.62484 -3.17912,5.54313 -20.402436,-2.426 -30.605866,-3.63668 -10.20344,-1.21071 -8.36079,10.38898 -12.54341,15.58578 -4.18261,5.1968 -0.6675,10.38899 -1.00347,15.58579 -0.33597,5.19678 -6.68833,3.80831 -10.03472,5.71476 -3.34638,1.90647 -5.35037,1.38389 -8.02777,2.07811 -2.6774,0.69424 -14.04713,7.61819 -21.07291,11.42958 z"
       inkscape:path-effect="#path-effect5382-3"
       inkscape:connector-curvature="0"
       id="path5380-3"
       d="m -166.63318,175.18731 c -3.62695,0.5353 -7.39163,-0.33254 -10.59166,-2.12171 -3.20003,-1.78916 -5.85515,-4.46145 -7.91317,-7.49557 -4.11605,-6.06822 -5.84137,-13.39319 -7.58544,-20.51523 -2.52359,-10.30529 -5.27968,-20.64795 -10.03472,-30.13252 -4.10563,-8.18924 -9.64061,-15.611999 -13.54687,-23.898195 -1.9426,-4.120758 -3.47731,-8.460475 -4.19659,-12.959028 -0.71928,-4.498552 -0.60485,-9.167358 0.68444,-13.536805 1.22744,-4.159855 3.48318,-7.953162 6.09571,-11.415198 2.61254,-3.462036 5.59099,-6.627984 8.45463,-9.885373 2.58801,-2.943857 5.10193,-5.982865 8.10365,-8.503523 3.00173,-2.520659 6.57036,-4.524275 10.46058,-5.004154 2.01419,-0.248461 4.08183,-0.07963 6.02083,0.519526 2.12869,0.657776 4.06305,1.812546 5.98864,2.933311 1.92559,1.120765 3.8944,2.229793 6.05302,2.781476 2.05795,0.525955 4.2284,0.524183 6.32437,0.179631 2.09597,-0.344551 4.12449,-1.024708 6.08614,-1.839396 3.9233,-1.629376 7.62415,-3.807436 11.67282,-5.094074 6.43092,-2.043701 13.33087,-1.724387 20.06944,-2.078105 4.73294,-0.248439 9.49978,-0.837146 14.19001,-0.155899 2.34512,0.340623 4.65968,1.004874 6.74114,2.137622 2.08146,1.132748 3.925084,2.749058 5.159116,4.772116 1.283689,2.104465 1.874065,4.609427 1.755554,7.071658 -0.118512,2.462232 -0.934178,4.875645 -2.257294,6.955547 -1.587656,2.495754 -3.852326,4.47642 -6.126106,6.36834 -2.27378,1.891921 -4.61297,3.756388 -6.41729,6.100287 -2.22888,2.895418 -3.55518,6.457542 -3.87035,10.097876 -0.31516,3.640334 0.36893,7.348818 1.86341,10.683169 2.18161,4.867421 6.01817,8.856037 10.38449,11.919769 4.366322,3.063731 9.269065,5.270117 14.200576,7.302702 3.001814,1.23724 6.049933,2.42898 8.771788,4.19905 2.721855,1.77007 5.133229,4.19311 6.280292,7.23052 1.274509,3.37489 0.831494,7.31332 -1.013495,10.41336 -1.844988,3.10005 -5.019052,5.33911 -8.519515,6.21148 -2.522889,0.62874 -5.177212,0.57758 -7.746093,0.17616 -2.568881,-0.40142 -5.070216,-1.14497 -7.559899,-1.89448 -2.489684,-0.74952 -4.985064,-1.50904 -7.548524,-1.94376 -2.56345,-0.43472 -5.213,-0.53767 -7.75135,0.0254 -3.50021,0.77643 -6.68492,2.83538 -8.90716,5.64891 -2.22224,2.81354 -3.48257,6.35487 -3.63625,9.93687 -0.11338,2.64278 0.35469,5.27324 0.48752,7.91512 0.13283,2.64187 -0.10712,5.41633 -1.49099,7.67067 -1.03504,1.68609 -2.64807,2.96218 -4.4147,3.85282 -1.76663,0.89063 -3.69136,1.42093 -5.62002,1.86194 -2.69751,0.61682 -5.44883,1.07507 -8.02777,2.07811 -3.75276,1.45958 -6.9639,3.99965 -10.25132,6.32482 -3.28742,2.32518 -6.83813,4.51684 -10.82159,5.10476 z"
       style="fill:none;stroke:#000000;stroke-width:1.29999995;stroke-linecap:butt;stroke-linejoin:miter;stroke-miterlimit:4;stroke-dasharray:none;stroke-opacity:1" />
    <path
       inkscape:original-d="m -153.16382,48.774652 c 3.50943,0.793677 9.73961,-0.906917 14.60791,-1.358875 4.8683,-0.451958 7.47481,-0.227479 11.21071,-0.339719 3.73591,-0.112239 1.58636,0.678438 2.37804,1.019157 0.79167,0.340718 2.71875,2.716749 4.07662,4.076624 1.35787,1.359875 0.45396,5.434499 0.67944,8.153248 0.22548,2.718751 -7.01986,-1.812833 -10.53128,-2.717749 -3.51143,-0.904917 -4.98154,0.904916 -7.47381,1.358875 -2.49227,0.453958 0.68043,3.396188 1.01915,5.095781 0.33872,1.699593 5.4365,2.037312 8.15325,3.057468 2.71675,1.020156 4.98354,2.71675 7.47381,4.076625 2.49027,1.359874 -2.03731,4.755061 -3.05747,7.134092 -1.02015,2.379031 -8.6052,-3.851145 -12.90931,-5.775218 -4.3041,-1.924072 -4.52858,-0.227479 -6.79437,-0.339718 -2.26579,-0.11224 0.45396,3.622666 0.67944,5.435499 0.22548,1.812833 4.98354,2.716749 7.47381,4.076624 2.49027,1.359875 1.58635,3.396187 2.37803,5.095777 0.79168,1.6996 -7.47281,0.22548 -11.21072,0.33972 -3.7379,0.11424 -2.94323,-3.851143 -4.41634,-5.775216 -1.47311,-1.924072 -2.71675,-4.304103 -4.07662,-6.454655 -1.35988,-2.150552 -4.30211,-2.265791 -6.45466,-3.397187 -2.15256,-1.131395 -6.79338,0.678438 -10.19156,1.019156 -3.39819,0.340719 -5.88746,3.396187 -8.83269,5.095781 -2.94523,1.699593 -8.15225,-4.757062 -12.22987,-7.134093 -4.07763,-2.377031 2.49227,-4.983541 3.7369,-7.473811 1.24464,-2.490271 5.4365,0.225479 8.15325,0.339719 2.71675,0.114239 5.4365,-10e-4 8.15325,0 2.71675,0.001 2.26579,-5.889459 3.39719,-8.832687 1.13139,-2.943229 -7.92577,-3.398187 -11.89016,-5.095781 -3.96438,-1.697593 0.90692,-4.304103 1.35888,-6.454654 0.45196,-2.150552 7.24833,-0.453959 10.871,-0.679438 3.62266,-0.225479 2.49227,2.716749 3.7369,4.076624 1.24464,1.359875 7.02185,1.584354 10.53128,2.378031 z"
       inkscape:path-effect="#path-effect5386-6"
       inkscape:connector-curvature="0"
       id="path5384-5"
       d="m -153.16382,48.774652 c 4.8896,-0.187764 9.77491,-0.593641 14.60791,-1.358875 3.72549,-0.589876 7.58703,-1.386701 11.21071,-0.339719 0.83081,0.240045 1.63566,0.575609 2.37804,1.019157 1.66205,0.993018 2.96159,2.493835 4.07662,4.076624 0.86313,1.225214 1.64921,2.554034 1.90685,4.030434 0.12883,0.7382 0.12019,1.505719 -0.0768,2.228725 -0.19696,0.723007 -0.58754,1.399656 -1.15063,1.894089 -0.73215,0.642876 -1.72315,0.947739 -2.69747,0.953558 -0.97432,0.0058 -1.93419,-0.26969 -2.82012,-0.675223 -1.77186,-0.811066 -3.2691,-2.12792 -5.01369,-2.996084 -1.2596,-0.626817 -2.6771,-1.014282 -4.07413,-0.847548 -0.69851,0.08337 -1.38369,0.306467 -1.97989,0.679851 -0.59621,0.373383 -1.10104,0.89946 -1.41979,1.526572 -0.41815,0.822657 -0.50143,1.797052 -0.29707,2.696968 0.20436,0.899917 0.68521,1.725438 1.31622,2.398813 1.01209,1.080033 2.38494,1.765042 3.80123,2.195038 1.4163,0.429996 2.89115,0.624429 4.35202,0.86243 1.45828,0.237578 2.92605,0.525313 4.26787,1.143828 1.34181,0.618515 2.56238,1.602816 3.20594,2.932797 0.63549,1.313308 0.6497,2.905034 0.0656,4.242006 -0.58407,1.336972 -1.74909,2.401484 -3.12311,2.892086 -1.16113,0.414588 -2.44305,0.42803 -3.64678,0.161326 -1.20374,-0.266704 -2.33489,-0.803549 -3.37867,-1.459776 -2.08756,-1.312454 -3.84091,-3.095909 -5.88386,-4.476768 -1.0299,-0.696122 -2.16218,-1.297952 -3.3947,-1.459704 -0.61626,-0.08088 -1.25129,-0.04807 -1.84558,0.133952 -0.5943,0.182024 -1.14642,0.51686 -1.55409,0.986034 -0.32968,0.379423 -0.56078,0.841438 -0.68194,1.329263 -0.12116,0.487826 -0.13347,1.00074 -0.0514,1.496646 0.16409,0.991811 0.70212,1.898568 1.4128,2.60959 1.00841,1.008897 2.33186,1.632705 3.64765,2.183554 1.3158,0.550849 2.66984,1.057794 3.82616,1.89307 0.80412,0.580865 1.50457,1.323199 1.95297,2.208051 0.44839,0.884852 0.63278,1.917742 0.42506,2.887726 -0.23926,1.117243 -0.99347,2.094828 -1.96659,2.693598 -0.97311,0.59877 -2.14824,0.832365 -3.28786,0.75027 -1.13962,-0.08209 -2.24471,-0.468261 -3.24148,-1.026752 -0.99678,-0.558491 -1.8904,-1.286285 -2.71479,-2.077396 -1.7546,-1.68377 -3.21077,-3.663279 -4.41634,-5.775216 -1.26586,-2.217538 -2.2922,-4.628261 -4.07662,-6.454655 -1.72281,-1.763332 -4.05038,-2.85237 -6.45466,-3.397187 -3.39284,-0.768826 -7.0545,-0.484603 -10.19156,1.019156 -1.53692,0.736729 -2.92406,1.745191 -4.3353,2.700855 -1.41125,0.955664 -2.87491,1.872951 -4.49739,2.394926 -2.55506,0.821999 -5.45416,0.576785 -7.78845,-0.748018 -2.33428,-1.324803 -4.04748,-3.731116 -4.44142,-6.386075 -0.21978,-1.481188 -0.0351,-3.03281 0.60807,-4.385059 0.64315,-1.352249 1.75549,-2.491959 3.12883,-3.088752 1.27058,-0.552138 2.70403,-0.628641 4.08126,-0.478764 1.37724,0.149876 2.72021,0.515315 4.07199,0.818483 2.68959,0.603202 5.56583,0.950264 8.15325,0 1.73918,-0.638735 3.29291,-1.903359 4.03591,-3.600608 0.37151,-0.848625 0.53433,-1.792409 0.43366,-2.713301 -0.10067,-0.920893 -0.46898,-1.815866 -1.07238,-2.518778 -0.72393,-0.843323 -1.7503,-1.380665 -2.81329,-1.705178 -1.063,-0.324512 -2.1739,-0.453516 -3.275,-0.604729 -1.10109,-0.151212 -2.21008,-0.329002 -3.24141,-0.743289 -1.03133,-0.414287 -1.99093,-1.088168 -2.56046,-2.042585 -0.60679,-1.016867 -0.71966,-2.286665 -0.43065,-3.435007 0.28901,-1.148342 0.95537,-2.179169 1.78953,-3.019647 1.40547,-1.416119 3.32312,-2.324845 5.3133,-2.46587 1.99019,-0.141025 4.03411,0.498254 5.5577,1.786432 1.40978,1.191953 2.34021,2.869366 3.7369,4.076624 1.39567,1.206369 3.19113,1.87751 5.01049,2.18266 1.81937,0.305149 3.67737,0.266159 5.52079,0.195371 z"
       style="fill:#ff8080;stroke:#000000;stroke-width:1.29999995;stroke-linecap:butt;stroke-linejoin:miter;stroke-miterlimit:4;stroke-dasharray:none;stroke-opacity:1" />
    <text
       id="text5390-0"
       y="148.91876"
       x="-179.32468"
       style="font-style:normal;font-variant:normal;font-weight:normal;font-stretch:normal;font-size:20px;line-height:1.25;font-family:'Helvetica Neue';-inkscape-font-specification:'Helvetica Neue, Normal';font-variant-ligatures:normal;font-variant-caps:normal;font-variant-numeric:normal;font-feature-settings:normal;text-align:start;letter-spacing:0px;word-spacing:0px;writing-mode:lr-tb;text-anchor:start;fill:#000000;fill-opacity:1;stroke:none"
       xml:space="preserve"><tspan
         y="148.91876"
         x="-179.32468"
         id="tspan5388-2"
         sodipodi:role="line">A</tspan></text>
    <text
       id="text5390-4-6"
       y="68.53862"
       x="-162.27934"
       style="font-style:normal;font-variant:normal;font-weight:normal;font-stretch:normal;font-size:20px;line-height:1.25;font-family:'Helvetica Neue';-inkscape-font-specification:'Helvetica Neue, Normal';font-variant-ligatures:normal;font-variant-caps:normal;font-variant-numeric:normal;font-feature-settings:normal;text-align:start;letter-spacing:0px;word-spacing:0px;writing-mode:lr-tb;text-anchor:start;fill:#000000;fill-opacity:1;stroke:none"
       xml:space="preserve"><tspan
         y="68.53862"
         x="-162.27934"
         id="tspan5410-6"
         sodipodi:role="line">B</tspan></text>
  </g>
  <path
     style="fill:#dbdee3;stroke:#000000;stroke-width:1.02378142px;stroke-linecap:butt;stroke-linejoin:miter;stroke-opacity:1"
     d="m -268.88845,201.78506 c -1.78671,1.32251 -3.02976,3.27211 -3.85841,5.33481 -0.82866,2.06269 -1.27573,4.25476 -1.73503,6.42971 -1.42344,6.74049 -3.00596,13.46349 -3.79418,20.3074 -0.78822,6.84391 -0.76381,13.86218 0.99747,20.52238 1.10376,4.17382 2.88087,8.18329 3.49589,12.45655 0.93573,6.50157 -0.87939,13.03599 -1.83203,19.53511 -0.47632,3.24956 -0.73743,6.55803 -0.32948,9.81688 0.40796,3.25885 1.51824,6.4831 3.55987,9.05569 2.42202,3.05191 5.96946,4.99663 8.68596,7.78964 1.35826,1.39651 2.51855,3.03641 3.07267,4.90403 0.27706,0.93382 0.39841,1.91759 0.31429,2.888 -0.0841,0.97041 -0.3767,1.92687 -0.88606,2.75713 -0.83589,1.3625 -2.21313,2.32395 -3.686,2.94505 -1.47287,0.6211 -3.05369,0.93409 -4.61937,1.2562 -1.56568,0.3221 -3.14377,0.662 -4.59539,1.33126 -1.45162,0.66926 -2.78554,1.70331 -3.52994,3.11787 -0.64508,1.22583 -0.80799,2.66852 -0.62652,4.04178 0.18146,1.37327 0.69082,2.68542 1.3257,3.91657 1.34542,2.60903 3.31561,4.9449 5.85296,6.42107 2.53734,1.47617 5.66706,2.02994 8.48021,1.19126 1.75474,-0.52314 3.3263,-1.5555 4.67328,-2.79583 1.34698,-1.24033 2.48489,-2.68836 3.57434,-4.16005 2.17889,-2.94338 4.30028,-6.11289 7.4839,-7.92276 2.43954,-1.38686 5.29111,-1.84299 8.0863,-2.09117 2.7952,-0.24818 5.62861,-0.31643 8.3444,-1.02297 2.287,-0.59498 4.43129,-1.62772 6.59047,-2.58809 2.15918,-0.96038 4.37936,-1.86234 6.7224,-2.1698 2.34305,-0.30746 4.85003,0.0338 6.78752,1.38675 0.96875,0.67648 1.77477,1.59823 2.25837,2.67629 0.4836,1.07807 0.63493,2.31276 0.36456,3.46297 -0.20171,0.85813 -0.62786,1.6499 -1.13791,2.36887 -0.51005,0.71897 -1.10512,1.37265 -1.68471,2.03684 -0.57958,0.66419 -1.14796,1.34467 -1.59531,2.10424 -0.44735,0.75957 -0.77186,1.60659 -0.82591,2.48645 -0.0643,1.04707 0.2651,2.10458 0.86618,2.96434 0.60108,0.85976 1.46437,1.52379 2.42773,1.93904 1.9267,0.8305 4.17193,0.65423 6.145,-0.0592 3.47096,-1.25499 6.15545,-3.98889 9.08933,-6.22828 4.00759,-3.05894 8.68087,-5.2878 13.63399,-6.22827 2.7844,-0.52869 5.73213,-0.63753 8.39014,0.34601 1.50066,0.55529 2.85389,1.43698 4.25159,2.21594 1.39769,0.77896 2.89245,1.47156 4.48815,1.59023 1.79943,0.13383 3.57264,-0.47366 5.21052,-1.23077 1.63788,-0.75711 3.21029,-1.67545 4.92757,-2.22938 2.74953,-0.8869 5.79146,-0.81381 8.39015,-2.07609 1.48817,-0.72286 2.75637,-1.85907 3.74092,-3.18867 0.98454,-1.32961 1.69346,-2.84934 2.20209,-4.42366 1.71634,-5.31241 1.15683,-11.05733 1.74796,-16.60873 0.78428,-7.36522 3.6049,-14.41565 4.19506,-21.79896 0.44552,-5.57371 -0.39744,-11.18278 -1.74794,-16.60872 -1.37044,-5.50609 -3.26525,-10.88704 -4.27223,-16.47104 -1.00697,-5.58401 -1.07512,-11.51665 1.12592,-16.74642 1.89055,-4.49202 5.35317,-8.23964 6.87802,-12.8686 0.76242,-2.31448 1.00213,-4.86844 0.23976,-7.18293 -0.38119,-1.15725 -1.01156,-2.23859 -1.87319,-3.10005 -0.86163,-0.86147 -1.95764,-1.49726 -3.14705,-1.76151 -0.99513,-0.22108 -2.03768,-0.18138 -3.03447,0.0321 -0.99679,0.21347 -1.95093,0.59706 -2.86057,1.05718 -1.81928,0.92024 -3.47066,2.14642 -5.29182,3.06292 -5.06739,2.55016 -11.1085,2.51057 -16.6272,1.19691 -5.5187,-1.31367 -10.67065,-3.80588 -15.88462,-6.04112 -3.89993,-1.67191 -7.9941,-3.23349 -12.23562,-3.11414 -2.98049,0.0839 -5.86668,0.99575 -8.72084,1.85837 -2.85416,0.86261 -5.77832,1.69143 -8.75864,1.60178 -4.40188,-0.13241 -8.47526,-2.24193 -12.32076,-4.38813 -3.8455,-2.14619 -7.77846,-4.42582 -12.1505,-4.95428 -4.05689,-0.49037 -8.15569,0.57611 -12.23563,0.34602 -3.89867,-0.21986 -7.62636,-1.61104 -11.46348,-2.33524 -1.91855,-0.36211 -3.88418,-0.55747 -5.82563,-0.35073 -1.94146,0.20673 -3.8649,0.83235 -5.4342,1.99394 z"
     id="path5526-5"
     inkscape:connector-curvature="0"
     inkscape:path-effect="#path-effect5528-7"
     inkscape:original-d="m -268.88845,201.78506 c -7.57547,-0.22966 -3.72793,7.84199 -5.59344,11.76452 -1.8655,3.92252 -1.86344,27.21884 -2.79671,40.82978 -0.93327,13.61095 2.33162,8.30335 3.49589,12.45655 1.16427,4.1532 0.93327,25.6041 1.39836,38.40768 0.46509,12.80358 7.45894,12.22486 11.18686,18.3388 3.72793,6.11396 -10.95277,5.7659 -16.4307,8.65038 -5.47793,2.88448 0.46715,5.30455 0.69918,7.95835 0.23203,2.6538 9.55647,5.07387 14.33317,7.61233 4.77669,2.53847 10.48871,-9.92011 15.73152,-14.87864 5.24281,-4.95853 10.95483,-2.07711 16.4307,-3.11414 5.47588,-1.03703 15.14991,1.84439 22.72332,2.76812 7.57341,0.92373 -3.49487,5.99658 -5.24384,8.9964 -1.74898,2.99981 6.29364,3.22845 9.43891,4.84421 3.14528,1.61575 6.06058,-4.15321 9.08933,-6.22828 3.02874,-2.07507 9.09035,-4.15319 13.63399,-6.22827 4.54362,-2.07507 5.59445,0.22965 8.39014,0.34601 2.79569,0.11636 5.82752,2.53643 8.73974,3.80617 2.9122,1.26974 6.75975,-2.30778 10.13809,-3.46015 3.37834,-1.15236 5.59446,-1.38508 8.39015,-2.07609 2.79568,-0.69101 3.96304,-5.07591 5.94301,-7.61233 1.97999,-2.53643 1.16634,-11.07351 1.74796,-16.60873 0.58162,-5.53523 2.79774,-14.53366 4.19506,-21.79896 1.39734,-7.2653 -1.16426,-11.0735 -1.74794,-16.60872 -0.58368,-5.53523 -2.0965,-22.14599 -3.14631,-33.21746 -1.0498,-11.07147 1.39939,-16.60975 2.09754,-24.91309 0.69815,-8.30335 -7.45688,2.7671 -11.18686,4.15218 -3.72998,1.38508 -21.67351,-3.23049 -32.51182,-4.84421 -10.8383,-1.61372 -8.15605,-2.07711 -12.23562,-3.11414 -4.07958,-1.03702 -11.65196,2.30575 -17.47948,3.46015 -5.82752,1.15441 -16.31314,-6.22929 -24.47126,-9.34241 -8.15811,-3.11311 -8.15606,0.22966 -12.23563,0.34602 -4.07957,0.11636 -15.14785,-0.46237 -22.72331,-0.69203 z" />
  <path
     style="fill:#939dac;stroke:#000000;stroke-width:1.02378142px;stroke-linecap:butt;stroke-linejoin:miter;stroke-opacity:1"
     d="m -246.86432,212.16552 c -2.07347,1.3857 -3.75258,3.30387 -5.09442,5.40598 -1.34185,2.10211 -2.36177,4.39215 -3.29573,6.70454 -0.82274,2.03702 -1.58589,4.10929 -2.02675,6.2615 -0.44087,2.1522 -0.55167,4.39745 -0.0708,6.54107 0.67823,3.02325 2.47324,5.65483 4.18334,8.23854 1.71011,2.58371 3.41109,5.30408 3.85722,8.37018 0.27185,1.86836 0.0582,3.78661 -0.44977,5.60502 -0.50802,1.8184 -1.3046,3.54465 -2.20425,5.20457 -1.79929,3.31984 -4.03126,6.42684 -5.38654,9.95132 -2.19525,5.70887 -1.90415,12.18034 0,17.99279 1.24528,3.80125 3.22672,7.4653 6.29261,10.03444 3.89607,3.26482 9.34923,4.45955 14.33317,3.46015 4.28645,-0.85954 8.11275,-3.18474 11.85489,-5.44502 3.74213,-2.26028 7.60922,-4.53724 11.91719,-5.28145 3.18989,-0.55106 6.48009,-0.22782 9.63329,0.50458 3.15319,0.7324 6.19626,1.86606 9.24454,2.95558 4.80034,1.71574 9.69633,3.34173 14.77685,3.76061 5.08051,0.41887 10.42639,-0.47137 14.58866,-3.4146 2.8992,-2.05008 5.08626,-4.99542 6.6232,-8.19636 1.53695,-3.20093 2.45675,-6.66306 3.1653,-10.14245 1.67372,-8.2189 2.23769,-16.73669 5.24384,-24.56707 1.57801,-4.11039 3.82936,-8.03948 4.42972,-12.40124 0.30018,-2.18089 0.16255,-4.45651 -0.67244,-6.49345 -0.83498,-2.03695 -2.41369,-3.81368 -4.45645,-4.63434 -1.2383,-0.49747 -2.61026,-0.63387 -3.93287,-0.45623 -1.32261,0.17763 -2.59587,0.66338 -3.73746,1.3545 -2.28317,1.38223 -4.0028,3.54424 -5.32573,5.86228 -1.32292,2.31803 -2.29131,4.81735 -3.4024,7.24406 -1.11108,2.4267 -2.39112,4.81936 -4.22733,6.7563 -3.20415,3.37992 -7.95088,5.0993 -12.60787,5.04469 -4.65698,-0.0546 -9.20392,-1.77996 -13.03887,-4.42263 -7.66989,-5.28534 -12.34723,-13.81562 -16.65357,-22.075 -1.91533,-3.67352 -3.82017,-7.36971 -6.20321,-10.75856 -2.38305,-3.38885 -5.27822,-6.48424 -8.82914,-8.61829 -2.7941,-1.67922 -5.98624,-2.73725 -9.24368,-2.86314 -3.25744,-0.1259 -6.57423,0.70581 -9.28456,2.51713 z"
     id="path5522-7"
     inkscape:connector-curvature="0"
     inkscape:path-effect="#path-effect5524-8"
     inkscape:original-d="m -246.86432,212.16552 c -6.17711,-0.11433 -5.5924,8.07266 -8.39015,12.11052 -2.79774,4.03787 -1.39732,8.53403 -2.09753,12.80257 -0.70021,4.26853 5.3614,11.07146 8.04056,16.60872 2.67915,5.53726 -5.35935,13.83959 -8.04056,20.76091 -2.68122,6.92132 10e-4,11.99417 0,17.99279 -0.001,5.99861 4.1961,6.68861 6.29261,10.03444 2.09651,3.34583 9.55647,2.30576 14.33317,3.46015 4.77669,1.15441 15.84908,-7.15199 23.77208,-10.72647 7.923,-3.57447 12.58625,2.30575 18.87783,3.46016 6.29158,1.15439 19.57803,0.22966 29.36551,0.34601 9.78747,0.11636 6.52671,-12.22689 9.7885,-18.33881 3.26181,-6.11191 3.49693,-16.37906 5.24384,-24.56707 1.74692,-8.18801 -0.46508,-15.68704 -0.69917,-23.52903 -0.23409,-7.84199 -13.74949,13.83959 -20.62579,20.76091 -6.87628,6.92132 -28.19917,-14.30298 -42.30031,-21.45294 -14.10114,-7.14996 -10.02054,-12.91892 -15.03235,-19.37685 -5.01181,-6.45793 -12.35113,-0.2317 -18.52824,-0.34601 z" />
  <path
     style="fill:#b7bec8;stroke:#000000;stroke-width:1.02378142px;stroke-linecap:butt;stroke-linejoin:miter;stroke-opacity:1"
     d="m -268.18928,219.08582 c -1.24633,4.49327 -3.35823,8.8337 -3.49589,13.49459 -0.0831,2.81378 0.56399,5.59357 1.254,8.3227 0.69001,2.72913 1.43134,5.47323 1.54272,8.28603 0.0642,1.62206 -0.0818,3.25751 0.15601,4.86333 0.11892,0.80291 0.33569,1.59698 0.70783,2.31831 0.37214,0.72133 0.90505,1.36887 1.58328,1.81475 0.6945,0.45658 1.52842,0.68994 2.35956,0.69037 0.83115,4.4e-4 1.65752,-0.22843 2.38529,-0.62987 1.45554,-0.80286 2.47565,-2.27235 2.94612,-3.86667 0.71759,-2.43174 0.23165,-5.0765 -0.71223,-7.42967 -0.94389,-2.35317 -2.32449,-4.50161 -3.48284,-6.75695 -1.38557,-2.69774 -2.46474,-5.59728 -2.73481,-8.61798 -0.27008,-3.0207 0.32082,-6.18138 2.03563,-8.68278 1.277,-1.86276 3.12096,-3.30206 4.27423,-5.24385 0.57664,-0.97089 0.97121,-2.07677 0.95326,-3.20585 -0.009,-0.56454 -0.12214,-1.12957 -0.35321,-1.64474 -0.23108,-0.51516 -0.58167,-0.9793 -1.0288,-1.32406 -0.44673,-0.34445 -0.98465,-0.56553 -1.54172,-0.65432 -0.55708,-0.0888 -1.13245,-0.0469 -1.6764,0.10258 -1.0879,0.29889 -2.02925,1.02019 -2.72823,1.90579 -1.39796,1.77121 -1.84069,4.08396 -2.4438,6.25829 z"
     id="path5530-3"
     inkscape:connector-curvature="0"
     inkscape:path-effect="#path-effect5532-4"
     inkscape:original-d="m -268.18928,219.08582 c -2.79774,2.53846 -2.32956,8.99537 -3.49589,13.49459 -1.16633,4.49921 1.86551,11.07146 2.79672,16.60873 0.93121,5.53726 1.63244,5.99657 2.44712,8.99639 0.81468,2.99982 5.12834,-2.53846 7.69097,-3.80617 2.56263,-1.2677 -2.79569,-9.45876 -4.19507,-14.18662 -1.39939,-4.72785 -0.46509,-11.53485 -0.69918,-17.30076 -0.23409,-5.7659 2.56468,-7.61335 3.84548,-11.4185 1.2808,-3.80514 -5.5924,5.07387 -8.39015,7.61234 z" />
  <path
     style="fill:#b7bec8;stroke:#000000;stroke-width:1.02378142px;stroke-linecap:butt;stroke-linejoin:miter;stroke-opacity:1"
     d="m -207.01112,304.20555 c -1.06027,-0.77061 -2.17888,-1.47743 -3.40054,-1.95236 -1.22167,-0.47493 -2.55654,-0.71071 -3.85348,-0.52102 -1.29693,0.18969 -2.55081,0.83161 -3.34538,1.87405 -0.39728,0.52122 -0.6753,1.13573 -0.78441,1.78195 -0.10911,0.64622 -0.0469,1.32322 0.19695,1.93152 0.34465,0.85961 1.02952,1.54405 1.78841,2.07489 0.75889,0.53084 1.60056,0.92929 2.40666,1.38525 2.73665,1.54794 5.03861,3.74201 7.42454,5.78963 2.38593,2.04761 4.95422,4.0061 7.9574,4.93684 2.12785,0.65946 4.38369,0.77327 6.61132,0.7908 2.22762,0.0175 4.46608,-0.0557 6.67308,0.24725 2.75921,0.37878 5.49896,1.34411 8.26112,0.98743 1.38107,-0.17834 2.74839,-0.7119 3.74083,-1.68876 0.49621,-0.48843 0.89196,-1.08292 1.1239,-1.73943 0.23194,-0.65651 0.29702,-1.37507 0.15855,-2.05744 -0.1248,-0.61499 -0.41273,-1.19302 -0.80883,-1.67973 -0.39611,-0.48671 -0.89858,-0.88307 -1.45241,-1.17814 -1.10765,-0.59013 -2.39858,-0.76867 -3.65191,-0.7029 -2.50664,0.13153 -4.87889,1.18677 -7.37125,1.48468 -2.2475,0.26864 -4.5451,-0.0915 -6.67388,-0.8607 -2.12878,-0.76923 -4.09673,-1.93848 -5.91134,-3.29148 -3.1695,-2.36323 -5.89123,-5.28794 -9.08933,-7.61233 z"
     id="path5534-6"
     inkscape:connector-curvature="0"
     inkscape:path-effect="#path-effect5536-6"
     inkscape:original-d="m -207.01112,304.20555 c -3.03081,-2.53642 -7.45688,2.07507 -11.18686,3.11414 -3.72999,1.03906 2.79774,2.30575 4.19507,3.46014 1.39733,1.15441 10.25565,7.14997 15.38194,10.72647 5.12628,3.57652 8.85729,0.69102 13.2844,1.03805 4.4271,0.34704 8.85728,-2.99982 13.2844,-4.4982 4.4271,-1.49838 -8.85524,-1.38508 -13.2844,-2.07609 -4.42917,-0.691 -8.38912,-2.76914 -12.58522,-4.15218 -4.19611,-1.38304 -6.05853,-5.0759 -9.08933,-7.61233 z" />
  <path
     style="fill:#b7bec8;stroke:#000000;stroke-width:1.02378142px;stroke-linecap:butt;stroke-linejoin:miter;stroke-opacity:1"
     d="m -154.22312,302.47547 c -0.64845,1.31615 -1.36814,2.61364 -1.74827,4.03077 -0.19006,0.70856 -0.29278,1.44468 -0.25057,2.17707 0.0422,0.7324 0.23274,1.46173 0.60048,2.09652 0.66628,1.15014 1.84061,1.89595 2.9704,2.5962 1.12979,0.70024 2.30453,1.44493 2.97262,2.59403 0.38672,0.66514 0.57888,1.43646 0.58745,2.2058 0.009,0.76934 -0.16309,1.53619 -0.46374,2.24441 -0.60131,1.41643 -1.69794,2.5736 -2.92043,3.50814 -1.33157,1.01793 -2.87964,1.82116 -4.54689,1.993 -0.83363,0.0859 -1.68807,0.0102 -2.48067,-0.26196 -0.79261,-0.27219 -1.52133,-0.7445 -2.06175,-1.38502 -0.53169,-0.63017 -0.87005,-1.40512 -1.08205,-2.20191 -0.212,-0.79679 -0.30357,-1.62001 -0.38798,-2.44018 -0.0844,-0.82018 -0.16275,-1.64384 -0.34939,-2.44694 -0.18664,-0.80311 -0.4866,-1.59079 -0.9773,-2.25338 -0.47057,-0.63541 -1.10081,-1.13574 -1.76196,-1.56939 -0.66115,-0.43366 -1.3597,-0.80794 -2.0218,-1.24014 -0.6621,-0.4322 -1.29432,-0.92953 -1.76908,-1.56182 -0.47475,-0.63228 -0.78324,-1.41346 -0.73977,-2.20294 0.0419,-0.76131 0.41063,-1.48367 0.94018,-2.03225 0.52954,-0.54858 1.21117,-0.93335 1.9271,-1.19566 1.43185,-0.52464 2.98938,-0.57632 4.47409,-0.92427 3.38003,-0.79214 6.27911,-3.1394 8.14803,-6.06501 1.86892,-2.92562 2.77223,-6.39033 3.03884,-9.85169 0.18417,-2.39111 0.0887,-4.85904 0.93033,-7.1047 0.42082,-1.12282 1.08405,-2.17402 2.01792,-2.92618 0.93386,-0.75215 2.15365,-1.18319 3.34436,-1.04161 0.95548,0.11361 1.85409,0.59111 2.52446,1.28137 0.67037,0.69026 1.1164,1.58459 1.32101,2.5248 0.29806,1.36964 0.0929,2.80953 -0.34647,4.14059 -0.43935,1.33106 -1.10491,2.57388 -1.75105,3.81776 -0.42036,0.80924 -0.83564,1.62635 -1.1159,2.49412 -0.28026,0.86777 -0.42207,1.79495 -0.28246,2.6961 0.20374,1.3151 0.98025,2.46303 1.77845,3.52786 0.7982,1.06483 1.65524,2.12698 2.06703,3.39245 0.17476,0.53706 0.26486,1.1046 0.23258,1.66846 -0.0323,0.56386 -0.18935,1.12394 -0.48278,1.60652 -0.29343,0.48257 -0.72596,0.88474 -1.24212,1.114 -0.51615,0.22926 -1.11541,0.27928 -1.65398,0.10922 -0.68727,-0.21701 -1.22887,-0.76941 -1.58268,-1.3973 -0.35382,-0.62789 -0.54298,-1.33289 -0.72468,-2.03032 -0.18171,-0.69744 -0.36234,-1.40363 -0.7016,-2.0395 -0.33926,-0.63588 -0.85916,-1.20475 -1.53571,-1.45318 -0.53491,-0.19642 -1.1364,-0.17805 -1.67764,1.9e-4 -0.54124,0.17823 -1.02436,0.50937 -1.4272,0.91239 -0.80568,0.80604 -1.28573,1.87127 -1.78941,2.89358 z"
     id="path5538-3"
     inkscape:connector-curvature="0"
     inkscape:path-effect="#path-effect5540-9"
     inkscape:original-d="m -154.22312,302.47547 c -1.63244,1.26974 -0.93122,5.53522 -1.39836,8.30436 -0.46714,2.76914 3.96305,3.45914 5.94302,5.19023 1.97999,1.7311 -1.86344,5.30455 -2.79672,7.95835 -0.93325,2.6538 -6.05851,0.22966 -9.08931,0.34602 -3.03081,0.11635 -1.86346,-6.2293 -2.79672,-9.34241 -0.93327,-3.11312 -4.19405,-4.38388 -6.29261,-6.57429 -2.09857,-2.19041 4.89527,-2.76914 7.34137,-4.15218 2.44611,-1.38305 7.45895,-10.61216 11.18687,-15.9167 3.72793,-5.30455 4.1961,-7.38268 6.29261,-11.07249 2.09651,-3.68981 2.56468,2.53643 3.84547,3.80617 1.28082,1.26974 -1.39732,5.30455 -2.09752,7.95835 -0.70021,2.6538 -0.93121,3.45913 -1.39836,5.19022 -0.46715,1.7311 2.56469,4.61253 3.84548,6.92031 1.2808,2.30779 -2.0965,2.99778 -3.1463,4.4982 -1.0498,1.50042 -3.02874,-4.61455 -4.54467,-6.9203 -1.51591,-2.30576 -3.2618,2.53642 -4.89425,3.80616 z" />
  <path
     style="fill:#535d6c;stroke:#000000;stroke-width:1.02378142px;stroke-linecap:butt;stroke-linejoin:miter;stroke-opacity:1"
     d="m -233.92951,230.50432 c -0.96992,0.17047 -1.84904,0.7493 -2.44564,1.5328 -0.59659,0.7835 -0.91795,1.76003 -0.9747,2.74318 -0.0568,0.98315 0.14328,1.97204 0.51089,2.88564 0.36761,0.9136 0.89966,1.75482 1.51109,2.5268 1.07518,1.3575 2.39856,2.50872 3.84549,3.46015 2.69879,1.77459 5.78661,2.84386 8.73973,4.15218 2.40066,1.06356 4.74782,2.30691 6.75475,4 2.00693,1.6931 3.66748,3.86855 4.43212,6.38046 0.45031,1.47931 0.57858,3.08856 0.13831,4.5709 -0.22013,0.74116 -0.58146,1.44324 -1.08013,2.0341 -0.49867,0.59086 -1.13615,1.06842 -1.8549,1.35335 -1.13985,0.45187 -2.44478,0.39925 -3.59891,-0.0148 -1.15413,-0.41404 -2.16487,-1.16981 -3.00025,-2.06735 -1.67075,-1.79508 -2.64653,-4.10772 -3.88852,-6.22224 -1.54862,-2.63655 -3.5531,-5.01298 -5.94302,-6.9203 -1.08911,-0.86919 -2.27374,-1.64899 -3.59661,-2.0868 -1.32287,-0.43781 -2.80215,-0.51069 -4.09436,0.0107 -1.34902,0.54433 -2.38339,1.68334 -3.11984,2.93784 -0.73644,1.25451 -1.21582,2.63929 -1.77441,3.98246 -0.62561,1.50431 -1.35658,2.9699 -1.83456,4.52742 -0.47797,1.55752 -0.69305,3.24357 -0.26298,4.81499 0.3846,1.40526 1.25267,2.62049 2.10289,3.80362 0.85022,1.18313 1.71526,2.40138 2.09218,3.80872 0.42685,1.59376 0.18535,3.30372 -0.3486,4.86487 -0.53394,1.56115 -1.34803,3.00817 -2.09852,4.47754 -0.94058,1.84154 -1.80499,3.8152 -1.74795,5.88225 0.0438,1.5864 0.65029,3.14519 1.65864,4.37068 1.00834,1.22549 2.40824,2.11578 3.93479,2.54963 1.87945,0.53415 3.91469,0.37975 5.7709,-0.23027 1.85621,-0.61002 3.54517,-1.65766 5.06637,-2.88387 1.94093,-1.56455 3.67773,-3.45729 5.94302,-4.4982 1.94642,-0.89439 4.1555,-1.08828 6.28973,-0.9052 2.13424,0.18309 4.21883,0.72591 6.29549,1.25122 5.9771,1.51197 12.06855,2.92699 17.47948,5.88226 2.90406,1.5861 5.59205,3.60631 8.68682,4.77753 1.54738,0.58561 3.19505,0.95076 4.84874,0.8994 1.65369,-0.0514 3.31577,-0.53704 4.64308,-1.52476 0.92889,-0.69124 1.67384,-1.60975 2.25157,-2.61318 0.57772,-1.00344 0.99371,-2.09248 1.33532,-3.1988 0.68322,-2.21264 1.08153,-4.52161 2.00655,-6.64456 0.99922,-2.29325 2.57361,-4.2802 3.86675,-6.42152 0.64658,-1.07065 1.22674,-2.18867 1.61721,-3.3769 0.39048,-1.18823 0.58755,-2.45204 0.45905,-3.69617 -0.17715,-1.71517 -0.97476,-3.33646 -2.11349,-4.63125 -1.13873,-1.29479 -2.60585,-2.27536 -4.17911,-2.98108 -2.8185,-1.26429 -5.969,-1.66325 -9.05522,-1.5305 -3.08622,0.13274 -6.12717,0.77897 -9.12343,1.5305 -1.90729,0.47839 -3.81429,1.00232 -5.77188,1.18794 -1.95759,0.18561 -3.99444,0.0144 -5.76457,-0.84193 -1.27756,-0.61802 -2.37241,-1.57221 -3.28163,-2.66191 -0.90921,-1.0897 -1.64161,-2.31537 -2.3118,-3.56636 -1.39554,-2.60495 -2.53935,-5.34485 -4.06048,-7.87852 -1.52114,-2.53367 -3.47961,-4.89967 -6.07762,-6.3081 -1.59012,-0.86204 -3.35612,-1.33305 -5.06795,-1.9172 -1.71183,-0.58414 -3.42764,-1.3161 -4.72055,-2.581 -1.61709,-1.58206 -2.39366,-3.81028 -3.601,-5.72346 -0.60367,-0.95658 -1.33511,-1.85406 -2.27259,-2.48698 -0.93749,-0.63292 -2.10168,-0.98175 -3.21574,-0.78595 z"
     id="path5546-6"
     inkscape:connector-curvature="0"
     inkscape:path-effect="#path-effect5548-5"
     inkscape:original-d="m -233.92951,230.50432 c -3.0308,-2.99778 -0.93121,6.45793 -1.39836,9.68842 -0.46715,3.2305 2.56469,2.30575 3.84549,3.46015 1.2808,1.15441 5.82752,2.76711 8.73973,4.15218 2.91222,1.38508 7.45894,6.91929 11.18687,10.38046 3.72792,3.46117 -1.86345,5.30455 -2.79672,7.95835 -0.93327,2.6538 -6.99076,-5.53726 -10.48768,-8.30437 -3.49693,-2.7671 -3.96099,-4.61455 -5.94302,-6.9203 -1.98204,-2.30575 -5.12629,-1.38508 -7.69097,-2.07609 -2.56469,-0.69101 -3.26181,4.61252 -4.89425,6.9203 -1.63245,2.30779 -1.39733,6.22726 -2.09754,9.34241 -0.70021,3.11516 2.79774,5.07387 4.19507,7.61234 1.39733,2.53846 -1.63039,6.22725 -2.44712,9.34241 -0.81674,3.11515 -1.16427,3.92048 -1.74795,5.88225 -0.58368,1.96177 3.72998,4.61252 5.59343,6.92031 1.86345,2.30778 7.22588,-2.07711 10.83727,-3.11414 3.6114,-1.03703 3.96305,-2.99982 5.94302,-4.4982 1.97998,-1.49838 8.39118,0.22966 12.58522,0.34602 4.19405,0.11635 11.65402,3.92048 17.47948,5.88226 5.82546,1.96177 12.12013,2.7671 18.17864,4.15217 6.05852,1.38509 3.72998,-8.30538 5.59344,-12.45654 1.86344,-4.15116 3.96304,-8.99741 5.94301,-13.49459 1.97999,-4.49718 -4.19404,-5.07591 -6.2926,-7.61233 -2.09856,-2.53643 -12.11807,-10e-4 -18.17865,0 -6.06058,10e-4 -7.68994,0.22966 -11.53645,0.34601 -3.84652,0.11636 -3.72793,-4.1532 -5.59343,-6.22827 -1.86551,-2.07507 -6.75771,-9.45877 -10.1381,-14.18662 -3.38039,-4.72786 -6.52464,-2.99982 -9.7885,-4.4982 -3.26387,-1.49838 -6.05852,-5.99861 -9.08933,-8.99639 z" />
  <path
     style="fill:#1c1f24;stroke:#000000;stroke-width:1.02378142px;stroke-linecap:butt;stroke-linejoin:miter;stroke-opacity:1"
     d="m -229.03526,256.80147 c -0.52838,-0.83671 -1.33576,-1.48863 -2.25455,-1.85618 -0.91879,-0.36756 -1.94391,-0.45325 -2.9168,-0.27229 -0.9729,0.18096 -1.89192,0.62479 -2.65778,1.25147 -0.76586,0.62668 -1.37928,1.43332 -1.80587,2.32624 -0.85318,1.78582 -0.94094,3.88166 -0.46032,5.80158 0.48063,1.91992 1.50017,3.67434 2.75395,5.20572 1.02386,1.25055 2.21145,2.37267 3.10267,3.72096 0.44561,0.67415 0.815,1.40506 1.02529,2.18532 0.2103,0.78027 0.25717,1.61265 0.0671,2.39809 -0.22119,0.9141 -0.74963,1.72531 -1.34895,2.45009 -0.59932,0.72479 -1.27707,1.3824 -1.86603,2.11563 -0.58895,0.73323 -1.09536,1.56196 -1.27739,2.48465 -0.091,0.46135 -0.0983,0.94179 0.005,1.40053 0.10334,0.45874 0.3196,0.89502 0.6418,1.23752 0.30264,0.3217 0.69414,0.55577 1.11566,0.68769 0.42151,0.13192 0.87215,0.16315 1.3105,0.109 0.8767,-0.10829 1.68658,-0.5523 2.35295,-1.1322 1.33274,-1.15979 2.11651,-2.81717 3.26145,-4.16269 1.68793,-1.98363 4.14408,-3.23258 6.70379,-3.71407 2.5597,-0.48148 5.2188,-0.23352 7.73801,0.4279 5.03842,1.32284 9.49104,4.22555 14.22454,6.40031 2.91758,1.34045 5.98569,2.41629 9.171,2.81988 3.18531,0.4036 6.50378,0.10881 9.43862,-1.1934 2.93485,-1.30221 5.45296,-3.66805 6.61565,-6.66091 0.58135,-1.49643 0.81919,-3.1308 0.64231,-4.72642 -0.17687,-1.59561 -0.77295,-3.14881 -1.74591,-4.42577 -0.98661,-1.29487 -2.34292,-2.28737 -3.83503,-2.93828 -1.49211,-0.65092 -3.11729,-0.96853 -4.74366,-1.03927 -3.25274,-0.14147 -6.4629,0.6841 -9.59996,1.55544 -8.3898,2.33034 -16.8136,5.05865 -25.52003,5.19023 -2.0069,0.0303 -4.05612,-0.0868 -5.92846,-0.80992 -0.93617,-0.36157 -1.81935,-0.87478 -2.55758,-1.5546 -0.73823,-0.67983 -1.32844,-1.52974 -1.65206,-2.47969 -0.35172,-1.03244 -0.38166,-2.15132 -0.25862,-3.23507 0.12303,-1.08375 0.39398,-2.14425 0.63308,-3.20843 0.23911,-1.06418 0.44783,-2.14406 0.44301,-3.23476 -0.005,-1.0907 -0.23509,-2.20208 -0.81747,-3.1243 z"
     id="path5542-7"
     inkscape:connector-curvature="0"
     inkscape:path-effect="#path-effect5544-4"
     inkscape:original-d="m -229.03526,256.80147 c -0.001,-4.2665 -4.89322,8.30334 -7.34137,12.45654 -2.44816,4.15321 2.79774,5.53523 4.19507,8.30437 1.39733,2.76914 -2.56263,6.45793 -3.84549,9.68842 -1.28285,3.2305 5.36141,-2.99981 8.04056,-4.4982 2.67916,-1.49838 19.11192,2.07508 28.66634,3.11414 9.55441,1.03907 16.08214,-9.45876 24.12167,-14.18662 8.03952,-4.72785 -12.11807,-1.61576 -18.17865,-2.42211 -6.06058,-0.80635 -17.01233,3.45914 -25.52003,5.19023 -8.50771,1.7311 -6.7577,-3.23049 -10.1381,-4.84421 -3.38039,-1.61372 0.001,-8.53606 0,-12.80256 z" />
  <g
     id="g5626"
     style="fill:#00d400">
    <path
       clip-path="none"
       inkscape:original-d="m 9.4681173,145.81587 c -5.4522061,-0.75924 1.9579937,-9.88574 2.9351397,-14.82692 0.977144,-4.94121 5.591974,-19.51692 8.386109,-29.27369 C 23.583502,91.958484 12.40449,81.69145 8.2102008,71.681223 4.0159112,61.670997 4.0183797,46.588378 1.9206184,34.043633 -0.17714417,21.498891 10.307963,17.568149 14.499783,9.3320855 c 4.191821,-8.236063 18.171141,-4.3097991 27.25486,-6.4630194 9.083718,-2.15322154 8.107808,12.4180169 12.15986,18.6287049 4.052052,6.210687 6.98966,16.219795 10.482638,24.331371 3.492978,8.111576 13.698548,16.219794 20.545971,24.331371 6.847423,8.111576 19.009748,3.800657 28.512778,5.702665 9.50302,1.902006 13.97808,9.123144 20.96527,13.686396 6.98719,4.563251 9.22597,10.136952 13.83709,15.207116 4.61112,5.07015 -10.90071,4.0541 -16.35292,6.08284 -5.4522,2.02873 -10.62117,7.60242 -15.93361,11.40532 -5.31244,3.80289 -5.86905,5.57483 -8.80542,8.36392 -2.93637,2.78908 -5.30996,5.06791 -7.966806,7.60354 -2.65683,2.53564 -10.621166,0.50579 -15.933604,0.76036 -5.312438,0.25457 -16.770987,2.78685 -25.158332,4.18195 -8.387344,1.39511 -9.782561,1.77305 -14.675693,2.66125 -4.893131,0.88819 -11.73932,1.51959 -17.610832,2.28107 -5.871513,0.76146 -10.90071,-1.52183 -16.3529157,-2.28107 z"
       inkscape:path-effect="#path-effect5606"
       inkscape:connector-curvature="0"
       id="path5604"
       d="m 9.4681173,145.81587 c -0.7418351,-1.11026 -1.1353306,-2.43427 -1.2229638,-3.76668 -0.087633,-1.33241 0.122204,-2.67394 0.5135565,-3.95059 0.7827051,-2.55331 2.264638,-4.8232 3.644547,-7.10965 2.66983,-4.4238 5.028013,-9.06457 6.596593,-13.98773 1.568579,-4.92317 2.332694,-10.14758 1.789516,-15.28596 C 20.215251,96.284224 18.207499,91.101368 15.799497,86.199604 13.391495,81.297841 10.568325,76.607176 8.2102008,71.681223 2.6293095,60.02314 -0.27716023,46.78047 1.9206184,34.043633 3.5174072,24.789726 7.8519644,15.96466 14.499783,9.3320855 18.056264,5.7837603 22.327633,2.8350203 27.156064,1.4474244 31.984495,0.05982848 37.406201,0.35307346 41.754643,2.8690661 c 3.277345,1.8962597 5.779164,4.9240432 7.648149,8.2170189 1.868984,3.292975 3.16126,6.874304 4.511711,10.411686 3.150593,8.25269 6.66395,16.365773 10.482638,24.331371 2.347007,4.895743 4.828595,9.767073 8.11503,14.088657 3.286435,4.321584 7.442014,8.100904 12.430941,10.242714 4.470567,1.919271 9.394934,2.45004 14.236182,2.931593 4.841246,0.481553 9.763496,0.954062 14.276596,2.771072 7.76207,3.125072 13.51193,9.883298 20.96527,13.686396 3.40358,1.736692 7.16593,2.860188 10.183,5.204917 1.50854,1.172365 2.81119,2.658474 3.5451,4.422414 0.73391,1.763945 0.85747,3.821975 0.10899,5.579785 -0.59731,1.40279 -1.71355,2.54705 -3.01378,3.34331 -1.30022,0.79625 -2.77932,1.26353 -4.27677,1.5503 -2.99492,0.57352 -6.10343,0.45226 -9.06237,1.18923 -3.2083,0.79908 -6.09814,2.5767 -8.66578,4.65971 -2.56764,2.08302 -4.85736,4.48256 -7.26783,6.74561 -2.95262,2.77204 -6.09891,5.35112 -8.80542,8.36392 -1.2351,1.37488 -2.37401,2.83522 -3.6404,4.18133 -1.2664,1.3461 -2.67727,2.58788 -4.326406,3.42221 -2.405106,1.21678 -5.181155,1.49889 -7.875119,1.41146 -2.693965,-0.0874 -5.366195,-0.52202 -8.058485,-0.6511 -8.52342,-0.40866 -16.849884,2.23634 -25.158332,4.18195 -4.84292,1.13408 -9.741029,2.03747 -14.675693,2.66125 -5.874752,0.74261 -11.810217,1.09067 -17.610832,2.28107 -2.876475,0.59031 -5.751215,1.39066 -8.686915,1.32558 -1.46785,-0.0325 -2.942565,-0.28754 -4.289041,-0.8729 -1.346477,-0.58535 -2.56128,-1.51297 -3.3769597,-2.73375 z"
       style="fill:#00d400;stroke:none;stroke-width:1.17527413px;stroke-linecap:butt;stroke-linejoin:miter;stroke-opacity:1" />
    <path
       clip-path="none"
       inkscape:original-d="m 71.94464,7.0510197 c -3.495446,1.2683783 -2.794135,6.0817233 -4.193054,9.1242643 -1.39892,3.04254 -8.384876,4.307561 -12.579167,6.463021 -4.194289,2.155458 -6.98719,7.348981 -10.482638,11.025152 -3.495447,3.676169 0.280773,10.390404 0.419306,15.587283 0.138535,5.196881 3.635216,13.178374 5.450972,19.769239 1.815756,6.590867 2.517066,4.814466 3.773749,7.223376 1.256683,2.408911 10.064567,2.5334 15.094999,3.801777 5.030433,1.268378 7.828271,-5.070155 11.740556,-7.603554 3.912284,-2.533399 20.407437,-8.87193 30.609307,-13.306218 10.20186,-4.434287 11.1827,-5.83051 16.77222,-8.744086 5.58951,-2.913577 -4.47136,-15.461678 -6.7089,-23.190837 C 119.60447,19.471276 115.13433,15.793986 111.77867,10.092441 108.423,4.3908949 92.212308,5.5291897 82.427279,3.249243 72.642248,0.96929619 75.440088,5.7826424 71.94464,7.0510197 Z"
       inkscape:path-effect="#path-effect5610"
       inkscape:connector-curvature="0"
       id="path5608"
       d="m 71.94464,7.0510197 c -1.066435,1.3008056 -1.645811,2.9237357 -2.1765,4.5199023 -0.530689,1.596167 -1.046488,3.230189 -2.016554,4.604362 -1.382489,1.958402 -3.563748,3.206551 -5.795499,4.08171 -2.231751,0.875158 -4.578991,1.440027 -6.783668,2.381311 -4.809339,2.053342 -8.87941,6.047641 -10.482638,11.025152 -1.612714,5.006961 -0.680463,10.443256 0.419306,15.587283 1.430254,6.689826 3.125569,13.335585 5.450972,19.769239 0.928791,2.569672 1.988223,5.155101 3.773749,7.223376 1.797365,2.081988 4.283182,3.541459 6.95758,4.183949 2.674397,0.642491 5.524888,0.477988 8.137419,-0.382172 4.452312,-1.465897 7.994716,-4.785644 11.740556,-7.603554 8.959239,-6.739831 19.661007,-10.892093 30.609307,-13.306218 3.19138,-0.703707 6.43963,-1.274332 9.45673,-2.53021 3.0171,-1.255879 5.84237,-3.29668 7.31549,-6.213876 0.95007,-1.881415 1.28792,-4.038223 1.15142,-6.141489 -0.1365,-2.103267 -0.73228,-4.158176 -1.56325,-6.095149 -1.66192,-3.873946 -4.23857,-7.275607 -6.29707,-10.954199 -1.62327,-2.900833 -2.92206,-5.970298 -4.43182,-8.931799 -1.50975,-2.961501 -3.2576,-5.849296 -5.6315,-8.176197 C 108.0767,6.4637547 103.04623,4.4178183 97.936938,3.5419584 92.82765,2.6660984 87.597963,2.8804769 82.427279,3.249243 80.518403,3.3853814 78.595111,3.5450332 76.758714,4.08354 74.922318,4.6220468 73.15794,5.5710723 71.94464,7.0510197 Z"
       style="opacity:1;fill:#00d400;stroke:none;stroke-width:1.17527413px;stroke-linecap:butt;stroke-linejoin:miter;stroke-opacity:1;fill-opacity:1" />
  </g>
</svg>
