<?xml version="1.0" encoding="iso-8859-1"?>
<!-- Generator: Adobe Illustrator 16.0.0, SVG Export Plug-In . SVG Version: 6.00 Build 0)  -->
<!DOCTYPE svg PUBLIC "-//W3C//DTD SVG 1.1//EN" "http://www.w3.org/Graphics/SVG/1.1/DTD/svg11.dtd">
<svg version="1.1" id="Capa_1" xmlns="http://www.w3.org/2000/svg" xmlns:xlink="http://www.w3.org/1999/xlink" x="0px" y="0px"
	 width="485.641px" height="485.641px" viewBox="0 0 485.641 485.641" style="enable-background:new 0 0 485.641 485.641;"
	 xml:space="preserve">
<g>
	<g>
		<path d="M467.44,109.264c-25.459-13.141-71.192-23.554-159.117,45.681c-19.059,15.009-107.356,81.918-125.079,98.352
			c-17.015,15.779-33.936,31.674-50.548,47.877c-3.772,3.681-7.544,7.362-11.305,11.056l-93.623-44.961
			c-8.075-3.884-18.044-1.745-23.735,5.635c-6.535,8.476-4.963,20.645,3.513,27.18l99.087,76.411
			c0.309,0.235,20.145,17.165,41.042,5.167c17.429-10.007,34.815-20.109,52.005-30.521c20.242-12.258,40.359-24.715,60.4-37.299
			c17.423-10.941,34.736-22.061,51.993-33.264l-4.554,54.834c-1,12.608,7.632,24.328,20.343,26.733
			c13.617,2.576,26.746-6.373,29.323-19.99l19.738-104.292c1.603-1.07,3.211-2.127,4.812-3.198
			c18.932-12.664,36.955-26.428,54.75-40.682C462.924,172.807,512.506,131.232,467.44,109.264z"/>
		<path d="M173.896,216.962l34.464,1.797c23.886-18.829,54.341-42.175,74.378-57.595l-108.842,5.676
			c-12.628,0.704-23.079,10.836-23.753,23.755C149.421,204.435,160.055,216.24,173.896,216.962z"/>
	</g>
</g>
<g>
</g>
<g>
</g>
<g>
</g>
<g>
</g>
<g>
</g>
<g>
</g>
<g>
</g>
<g>
</g>
<g>
</g>
<g>
</g>
<g>
</g>
<g>
</g>
<g>
</g>
<g>
</g>
<g>
</g>
</svg>
