<?xml version="1.0" standalone="no"?>
<!DOCTYPE svg PUBLIC "-//W3C//DTD SVG 1.1//EN" "http://www.w3.org/Graphics/SVG/1.1/DTD/svg11.dtd" >
<svg xmlns="http://www.w3.org/2000/svg" xmlns:xlink="http://www.w3.org/1999/xlink" version="1.1">
<metadata></metadata>
<defs>
<font id="wavepoolregular" horiz-adv-x="1468" >
<font-face units-per-em="2048" ascent="1638" descent="-410" />
<missing-glyph horiz-adv-x="500" />
<glyph horiz-adv-x="0" />
<glyph horiz-adv-x="682" />
<glyph unicode="&#x9;" horiz-adv-x="733" />
<glyph unicode="&#xd;" horiz-adv-x="733" />
<glyph unicode="!" horiz-adv-x="399" d="M-8 553q2 95 6 285.5t6 285.5h12v602q0 41 16.5 57t59.5 21q13 1 37.5 5.5t36.5 5.5q65 5 94.5 -24t28.5 -93q-1 -46 -6.5 -138.5t-6.5 -138.5l-6 -2q-6 -219 -14 -657q-1 -39 -1 -83.5t0.5 -99.5t0.5 -85q0 -67 -24.5 -95.5t-84.5 -31.5t-103.5 30.5t-49.5 87.5 q-2 23 -2 68zM41 86q-18 70 43 166q20 32 66 14h2q37 -15 65.5 -59t26.5 -82q-1 -57 -40.5 -89t-92.5 -20q-54 15 -70 70z" />
<glyph unicode="&#x22;" horiz-adv-x="692" d="M82 1413q0 50 35 94q8 9 21.5 15.5t28 11.5t17.5 6q61 0 86 -19t31 -67h-2q7 -57 20.5 -172t20.5 -172q13 -106 -57 -131q-39 -14 -91 5.5t-71 55.5q-23 47 -25 78q-14 172 -14 295zM410 1450q1 63 28.5 90t83.5 27q61 0 88.5 -26.5t30.5 -88.5q8 -184 14 -276l-2 4 q1 -8 17 -56v-104q-59 -70 -164 -57q-85 13 -88 81q-12 270 -8 406z" />
<glyph unicode="#" horiz-adv-x="1548" d="M-4 508q-15 86 67 106q67 17 189 33q39 5 44.5 10.5t2.5 40.5q-2 27 -5 81t-5 81q-3 38 -12 45.5t-46 7.5q-79 0 -108 5q-59 12 -86.5 64.5t-9.5 113.5q13 45 41.5 65t76.5 25q10 1 28 2q75 7 87.5 16t10.5 47q0 4 -1 11l-2 61q0 25 -4 77t-4 77q0 56 16.5 76.5 t69.5 29.5q74 15 117.5 6.5t61 -43.5t18.5 -114v-179q0 -21 9.5 -30t31.5 -9q102 3 202 3q24 0 34.5 10.5t10.5 34.5q-2 37 -2 110h-6l-14 -6q4 94 8 141q3 66 66 78q68 14 116 14q41 0 61 -19.5t23 -61.5q9 -114 15 -228q2 -46 9.5 -53.5t51.5 -7.5l67 1q68 0 68 -1 q49 -1 73 -21.5t36 -68.5q1 -6 4 -18.5t4 -18.5q8 -67 -15.5 -97t-88.5 -36q-53 -6 -164 -6q-41 0 -41 -39q0 -139 -2 -209q0 -42 41 -39q102 4 153 4q71 0 98 -25.5t33 -97.5q3 -25 0 -51q-3 -45 -22.5 -66.5t-63.5 -27.5q-45 -6 -184 -15q-39 -3 -46 -10.5t-7 -46.5 l6 -135q4 -41 2 -62q-6 -71 -64.5 -101t-121.5 5q-43 22 -47 88q-2 38 -17 191q-3 32 -9 37t-40 2q-33 -3 -98.5 -9.5t-98.5 -9.5q-16 -2 -23.5 -7.5t-6.5 -21.5t-7.5 -22t-25.5 -6q-90 0 -135 -2q-4 0 -8 -3t-9 -8.5t-8 -7.5q2 -1 7.5 -4.5t9.5 -5.5t8 -2q98 0 147 2 q19 2 26.5 -3.5t6.5 -23.5v-12q5 -94 -33 -131t-133 -33q-70 3 -84 68q-7 32 -16 145q-3 49 -11.5 57.5t-56.5 8.5h-141q-72 0 -96 65q-21 63 -29 109zM117 530q0 -4 18.5 -10t30.5 -6q84 4 252 13.5t252 13.5q59 3 178 8t178 8q106 4 326 16q10 0 12 2q6 7 10 17 q0 2 -3.5 5t-6.5 3q-24 4 -37 4q-185 -4 -547 -16h-6q-70 -6 -209.5 -18.5t-208.5 -18.5l-6 4v12q-21 -1 -59.5 -3t-70.5 -4t-60 -5q-2 0 -13 -0.5t-16 -2t-10 -7t-4 -15.5zM172 416q0 -2 3.5 -5t6.5 -3q30 -5 37 -5h227l-4 3l126 -2q126 -1 126 2q156 6 473 26q6 0 22 -1 t25.5 -0.5t17.5 7.5t7 21q-1 10 -6 15.5t-14.5 6.5t-17.5 0.5t-21 -2.5t-19 -2q-28 -2 -155 -13t-197 -13q-149 -6 -590 -15q-25 0 -37 -4q-6 -3 -10 -16zM391 174q3 -2 8.5 -7.5t10 -9t8.5 -3.5q76 3 153 12q5 1 16.5 9t18.5 11q-5 4 -12 11t-11 10.5t-8 3.5 q-79 -3 -159 -12q-4 -1 -8 -5t-9 -10.5t-8 -9.5zM543 899q2 -19 4 -56t4 -55t5 -38.5t7 -45t6 -38.5h123l8 4h111q38 0 35 35q-2 37 -6 110.5t-6 110.5q-3 35 -39 32q-35 -2 -104.5 -6t-104.5 -6q-46 -3 -43 -47z" />
<glyph unicode="$" horiz-adv-x="1527" d="M37 798.5q12 31.5 47 35.5q99 10 301 18q58 3 82 -61q15 -41 27 -84q29 -107 95 -140t185 -6q102 22 158 137q28 58 4.5 113t-84.5 74q-18 5 -36.5 8t-49 5t-37.5 3q-29 3 -85.5 8t-101 10t-83.5 13q-150 32 -251.5 144t-123.5 267q-34 238 81.5 427.5t350.5 281.5 q14 7 29 10q52 8 49 68q0 44 6 88q9 74 78 74q72 0 133 -17q29 -7 44.5 -31.5t12.5 -54.5q-6 -60 19.5 -90.5t87.5 -42.5q22 -4 48.5 -13.5t38.5 -15t49 -23.5t40 -19q195 -92 235 -330q1 -3 4 -24.5t3.5 -27t3 -24t2.5 -26.5t0.5 -24.5t-0.5 -27t-3 -24.5t-5 -27 q-11 -42 -32.5 -63t-62.5 -25q-94 -8 -141 -10q-42 -1 -71 23.5t-37 66.5q-14 87 -29 145q-12 49 -33 96q-41 90 -114 115t-162 -20q-185 -97 -197 -295q-5 -80 37.5 -134t120.5 -67q36 -6 75 -9.5t91.5 -6t76.5 -4.5v12l7 -2q169 -13 227 -21q131 -20 188 -159 q42 -104 47.5 -214t-22.5 -211t-95 -191.5t-165 -153.5q-19 -12 -43 -24.5t-40 -19.5t-48.5 -20.5t-42.5 -17.5q-41 -18 -48 -27.5t-4 -52.5q1 -7 3.5 -21.5t3.5 -21.5q6 -98 -70 -113q-56 -11 -99.5 8t-56.5 60q-4 11 -7.5 32.5t-4.5 24.5q-12 53 -22.5 63.5t-59.5 16.5 q-145 18 -264 108q-146 111 -215 330q-7 22 -39 88q-18 32 -6 63.5zM113 743q3 -2 9.5 -8.5t11.5 -10t9 -3.5t185 12q36 0 43 2q4 1 7 4t7 8t6 7q-3 1 -7.5 4.5t-8.5 5.5t-8 2q-37 2 -111 2l-2 -6l-58 1q-59 1 -59 -1q-4 0 -8 -3.5t-8.5 -8.5t-7.5 -7zM156 590 q0 -3 4.5 -7.5t7.5 -4.5q56 -3 111 -3h2h86q11 2 25 8.5t14 10.5q0 18 -11 22t-33 2t-68.5 -5t-68.5 -5q-10 -1 -30 -2t-29 -2q-3 0 -6.5 -5.5t-3.5 -8.5zM291 461q34 -7 67 -17l2 2q94 7 132 11q4 0 8.5 2t10 5.5t7.5 4.5q-2 2 -6 7t-6.5 8.5t-6.5 6.5t-7 3q-65 3 -119 -5 q-16 -3 -30.5 -0.5t-29.5 -3.5t-22 -24zM440 348q9 -19 39 -19.5t35 -2.5h2q93 16 113 18q58 5 174.5 15.5t175.5 15.5q20 0 22 2q15 15 13 22q-2 6 -8 12.5t-11 6.5q-8 0 -22.5 -4.5t-20.5 -5.5q-39 -3 -116.5 -8.5t-116.5 -8.5q-140 -12 -213 -20q-10 -1 -21 -4.5 t-24 -9.5t-21 -9zM905 537q4 -15 14.5 -20t23 -3t24.5 0h6v-2q98 12 147 20q3 0 5.5 2t5.5 6t4 5q-16 16 -19 16q-102 4 -153 0q-14 -1 -36 -11t-22 -13zM995 643q2 -1 8 -6.5t10.5 -8.5t8.5 -3q81 3 160 12q2 0 28 16q-2 2 -6 5.5t-6.5 5.5t-6.5 4t-7 2q0 2 -37 1l-37 -1 l2 -4q-11 0 -31 0.5t-35.5 0.5t-29.5 -1q-4 0 -7.5 -3.5t-8 -11t-5.5 -8.5zM1034 797q0 -2 6.5 -7.5t10.5 -5.5q33 -2 98 -2l-6 2q69 0 104 2q3 0 6 3t7 8.5t6 7.5q-15 10 -19 10q-66 2 -196 2q-7 0 -17 -20z" />
<glyph unicode="%" horiz-adv-x="1746" d="M158 1436q19 39 90 94q38 31 94 37.5t110.5 -8.5t103.5 -51t73 -85q63 -132 63 -247q0 -179 -94 -316l-2 2q-61 -87 -170 -127q-68 -25 -139.5 1t-110.5 93q-177 293 -18 607zM297 1157q27 -123 37 -160q12 -45 49 -47l-6 -4q21 -1 32.5 9t22.5 32q102 187 12 383 q-9 19 -14 25q-25 39 -51 2q-3 -5 -12 -18t-13 -20t-9.5 -18t-8.5 -20q-12 -38 -39 -164zM412.5 93.5q-21.5 34.5 3.5 92.5q33 77 94 203q79 165 164.5 370t137 339t142.5 379q17 46 53 134t40 99q23 59 51.5 79t91.5 21h74q10 0 28 0.5t32.5 0.5t27.5 -1q59 -3 88 -41.5 t0 -101.5l-4 2q-51 -115 -301 -692q-11 -26 -54.5 -128.5t-68.5 -156.5q-44 -98 -244 -538q-37 -81 -119 -84q-21 -1 -73 -6t-80 -5q-62 0 -83.5 34.5zM522 166q0 -4 3 -8t7 -6l3 -2q106 5 120 6q24 4 35 18l2 6q3 3 4 8t1 13t1 12l-15 1q-15 0 -15 -1q-10 -2 -30 -9t-30 -9 q-12 -2 -34 -2.5t-33 -2.5q-6 -1 -12.5 -9.5t-6.5 -14.5zM580 348l22 -22q109 8 137 12l-2 -2q6 2 13.5 10t7.5 14t-8.5 13.5t-14.5 7.5q-61 -3 -123 -12q-7 -1 -18.5 -10.5t-13.5 -10.5zM680 498q9 -22 20 -25q10 -2 66 -2q73 6 74 6l-2 -2q4 1 7 4t7 8t6 7q-2 2 -7.5 8.5 t-9 10t-7.5 3.5q-69 3 -138 0q-4 0 -11 -7.5t-5 -10.5zM729 645q1 -8 3.5 -13t8 -6.5t9 -1.5t12.5 1.5t12 1.5q27 4 80 4q2 0 9.5 -3.5t10.5 -2.5l-2 -2q8 4 35 22q-2 2 -6 6.5t-6.5 7.5t-6.5 5.5t-7 3.5q-10 2 -66 2h-43h-5.5h-6h-6t-6 -0.5t-5.5 -1t-5 -2t-4 -3.5t-3 -4.5 t-1.5 -6t-0.5 -7.5zM1141 442q0 124 57 244q70 139 184 139q199 0 265 -141h4q68 -145 32 -311q-4 -21 -12.5 -45t-15.5 -40t-20.5 -45.5t-18.5 -41.5q-6 -15 -29 -43q-48 -58 -106 -81.5t-111 -14t-100 43.5t-76 87q-31 56 -42.5 110t-10.5 139zM1241 659q-1 -12 5.5 -17.5 t13.5 -6t20 -0.5h18h7h73q-1 -3 -12 -29.5t-18 -40.5q-63 -114 -27 -219q9 -29 28 -49.5t31 -13.5q7 4 14.5 11.5t12.5 13.5t13.5 17t11.5 15q1 2 2 7t2 7q41 118 -6 232q-3 8 -9.5 24.5t-9.5 24.5q8 1 24.5 4t24.5 4q15 2 43.5 6t42.5 6l15 -4q3 0 5.5 2t5.5 5t5 4 q-2 2 -5.5 7t-6.5 8t-6 3q-47 2 -142 2l-55 1q-55 1 -55 -1q-2 0 -15.5 0.5t-18.5 0t-14.5 -2.5t-13 -7.5t-4.5 -13.5zM1292 164q0 -3 5 -8.5t8 -5.5q43 -3 86 -3h86h-4l2 3q4 0 9 8t7 16q0 3 -7 9.5t-11 6.5q-120 -8 -173 -14q-8 -8 -8 -12z" />
<glyph unicode="&#x26;" horiz-adv-x="1374" d="M-6 1214q-8 115 18.5 226.5t99 214t183.5 162.5q165 89 315 92q139 3 235.5 -95t94.5 -219q0 -8 1 -19.5t1 -12.5l-4 2q0 -169 -78 -310q-44 -79 -246 -432l-18 -30q-23 -40 -22 -52.5t30 -44.5q4 -4 13.5 -12t13.5 -12q6 -6 15 -16q33 -34 43 -35t34 26q0 1 2 3 q12 14 20 22q127 137 201 266q11 19 21 31q24 31 54 35.5t60 -19.5q24 -18 60 -65q41 -56 42.5 -89t-36.5 -92q-78 -122 -195 -288q-21 -30 -24.5 -41t3.5 -22t36 -34q35 -28 102 -79t86 -66q37 -28 45 -37q34 -38 25 -77.5t-58 -51.5q-84 -21 -239 -37q-32 -3 -68 25 q-46 33 -115 94q-40 34 -53.5 34.5t-54.5 -28.5q-126 -87 -244 -100q-165 -20 -274 66.5t-123 234.5q-21 220 123 393q24 29 25.5 54t-17.5 55q-120 194 -133 380zM59 463q0 -3 2.5 -5.5t6.5 -5.5l4 -3h-6v-5q38 5 200 31q4 1 7.5 4.5t7.5 9t6 7.5q-22 22 -27 22 q-18 -2 -38.5 -5t-45.5 -7t-39 -6q-55 -9 -71 -13l-4 -9q-3 -10 -3 -15zM72 299q3 -2 9.5 -6.5t10.5 -7t8 -2.5q64 6 129 18q4 0 15 16q-16 16 -21 17q-6 1 -37 -4h-2v6q-43 -8 -92 -21q-5 -1 -20 -16zM135 623q4 -15 21 -19q5 -1 14.5 0.5t13.5 1.5q45 3 156.5 12t173.5 13 l-6 2q2 0 16.5 -1.5t22.5 -0.5q4 0 7 2t7.5 7.5t5.5 6.5q-2 2 -7.5 8.5t-8.5 8.5h-14q-62 -3 -187 -9.5t-188 -9.5q-10 0 -12 -2q-16 -16 -15 -20zM205 109q21 -21 26 -23q4 -1 8.5 0t11 3t9.5 3v4v-6q37 6 111.5 17.5t111.5 17.5q21 4 123 29q1 0 15 14q-17 18 -19 18 q-22 3 -45 0q-45 -7 -332 -59q-4 -1 -7 -4t-7 -7.5t-6 -6.5zM238 1331q-1 -42 6.5 -80.5t29.5 -84.5t33.5 -66t44.5 -74q15 -27 35 -4q6 8 26.5 33t28 35t25.5 33t27 36t24 34.5t24.5 37.5t20 36.5t19.5 39.5q20 44 32 127q11 74 -71 116q-47 24 -98 19t-94.5 -27t-74 -64 t-36.5 -92v-61zM262 328q-6 -61 46 -96.5t114 -0.5q37 21 94 82q23 23 23 37.5t-25 36.5q-19 18 -94 70q-47 32 -73 26t-52 -57q-12 -26 -33 -96v-2zM461 506q15 -12 24 -21l-2 4q26 2 53.5 4t57.5 5t47 4q41 3 123 8t123 8q10 0 14 2q4 3 11.5 9.5t11.5 9.5q-2 2 -7 8 t-9.5 10t-8.5 6q-11 4 -37 0q-55 -5 -165.5 -15.5t-166.5 -15.5q-5 -1 -19 -0.5t-17 -1.5q-5 -2 -33 -24zM637 383q27 -16 31 -16q16 0 46.5 3t35.5 3l-7 2q68 0 103 2q3 0 5.5 2.5t6.5 7t6 6.5q-2 1 -8.5 8t-9.5 7q-123 0 -184 -2q-4 0 -8 -3.5t-9.5 -10.5t-7.5 -9z M778 180q2 -13 11 -15.5t25.5 1.5t21.5 4h6v-4q19 2 52.5 5t61.5 6t52 7q8 2 17 10.5t9 14.5q1 9 -3.5 14t-12 5t-14.5 -1q-28 -4 -86.5 -12t-86.5 -12q-8 0 -17 -0.5t-17.5 -1t-14 -6t-4.5 -15.5zM836 684q7 -15 18.5 -18.5t28 -1t24.5 1.5q4 -1 9.5 -1t12 0.5t9.5 0.5 l-2 -4q56 0 68 2t25 8t13 12q1 14 -9.5 19.5t-26.5 5.5q-11 0 -31 1t-36 1t-30 -2q-15 -2 -41 -12.5t-32 -12.5zM913 76q3 -1 14 -8t17 -7q32 2 172 17q3 0 5.5 2t6 5.5t5.5 4.5q-2 2 -6 7.5t-7 8.5t-6 3q0 1 -40 1l-40 -1h2q-73 0 -96 -3q-4 -1 -9 -5.5t-10.5 -13.5 t-7.5 -11z" />
<glyph unicode="(" horiz-adv-x="729" d="M-8 997v2q0 492 319 912q70 90 181 76q24 -3 45 -15t32 -24t29 -33q4 -5 6.5 -11t3.5 -10t-0.5 -10.5t-2 -9.5t-4.5 -10.5t-4.5 -9t-6.5 -10t-6 -9.5q-4 -7 -52.5 -84t-70.5 -119q-180 -341 -144 -745q13 -159 67 -314t144 -327q32 -62 39 -82q23 -69 -41 -109 q-52 -32 -119.5 -19t-101.5 62q-238 340 -297 719q-4 30 -7 64t-5.5 68.5t-3.5 47.5zM166 496q3 -2 7.5 -7t8.5 -8.5t8 -3.5q24 0 74 8q7 1 23.5 -1t28 1.5t18.5 18.5q-12 3 -36.5 9t-37.5 9l2 6v-6q-62 0 -74 -2q-4 -1 -7.5 -5t-7.5 -10t-7 -9zM201 397q0 -6 5 -14t9 -8 q9 -1 74 -6h2l-2 4q18 2 65 6q4 6 4 10q0 3 -2 7.5t-4 4.5q-112 15 -135 17q-5 0 -10.5 -7.5t-5.5 -13.5zM332 137q0 -3 8 -9.5t12 -6.5q10 1 21.5 3t25 5t21.5 4q12 3 36.5 9.5t37.5 9.5q-8 15 -22 18t-26.5 -1t-25.5 1l-4 2q-63 -5 -68 -6q-11 -3 -16 -29z" />
<glyph unicode=")" horiz-adv-x="600" d="M29 131q4 19 32 82q115 239 156 612q55 503 -149 1045q-14 38 -17 49q-18 77 62 86q97 10 147 -61q75 -110 141 -324q109 -352 101 -678l2 2q6 -321 -109 -602q-28 -66 -127 -233q-38 -66 -123 -89q-57 -17 -93.5 17.5t-22.5 93.5zM203 342q6 -23 14 -23q8 -1 17.5 -1 t21.5 0.5t18 0.5v-4q6 0 18 -0.5t22 -0.5t18 1q5 0 10.5 7.5t5.5 13.5q0 5 -6 12.5t-10 7.5q-58 3 -117 0q-3 0 -7.5 -5.5t-4.5 -8.5zM207 446q0 -3 4.5 -7.5t7.5 -4.5q54 -4 80 -2q14 1 29 3t33.5 5t29.5 4q-9 20 -24.5 23t-33 -1t-24.5 -1h-4l-2 -2q-61 0 -88 -2 q-8 -11 -8 -15zM246 571q0 -12 2 -12q14 -5 40 -15.5t40 -15.5v2v7h37l24 12q-3 2 -10 9t-12 9q-22 13 -35 13q-21 0 -86 -9z" />
<glyph unicode="*" horiz-adv-x="970" d="M0 1833q0 50 59 68q136 40 185 53q27 6 40 20t17 43q4 28 10.5 58.5t16.5 71t14 57.5q15 67 66 69q50 2 79 -57q16 -35 48 -109q22 -50 33.5 -55t64.5 12q93 32 104 35q13 4 43 8q58 7 76 -32q22 -47 -12 -84q-11 -12 -24 -25t-29 -28.5t-25 -24.5q-8 -8 -34 -30 t-40 -38.5t-18 -34.5q-4 -17 3 -38t21 -49.5t19 -41.5q3 -9 11 -26.5t11 -26.5q16 -60 -14 -90q-33 -33 -90 -14q-10 3 -94 41q-66 31 -86 27t-72 -58q-5 -5 -16.5 -15.5t-16.5 -15.5q-44 -51 -90 -30q-26 12 -33.5 35.5t-5.5 62.5h-2q2 10 8 36.5t9 41.5q7 43 1 52.5 t-51 24.5q-89 30 -127 41q-59 18 -59 66z" />
<glyph unicode="+" horiz-adv-x="1271" d="M27 555q-8 46 22.5 86.5t79.5 44.5q43 4 91 11.5t105 17t89 14.5q37 6 44 15t7 47q0 25 1 74t1 73q0 58 53 88q63 37 156 27q58 -6 69 -74q12 -78 15 -162q1 -25 11.5 -34t35.5 -7q120 10 215 10q97 0 128.5 -32.5t31.5 -130.5v-9v-36q-2 -45 -18.5 -67t-59.5 -32 q-40 -9 -131 -22q-25 -3 -74.5 -8.5t-73.5 -8.5q-43 -5 -51 -14t-8 -53v-221q0 -41 -8 -72q-20 -74 -96 -80q-31 -3 -62 0q-48 6 -73 31.5t-29 74.5q-3 41 -8.5 123t-8.5 123q-3 43 -13 52t-54 8q-242 -11 -264 -11q-52 0 -73.5 18t-35.5 70q-6 20 -14 66z" />
<glyph unicode="," horiz-adv-x="430" d="M12 -100q2 22 6.5 48.5t8.5 44t11.5 49.5t10.5 46q2 9 13.5 44.5t13.5 55.5q5 53 45 80.5t91.5 25t90.5 -31.5q8 -6 13.5 -17t10.5 -25t7 -19v-2q-9 -45 -17 -70q-14 -44 -40 -132l-39 -132q-1 -2 -2.5 -6t-2.5 -6q-35 -104 -106 -89q-52 11 -85.5 50t-29.5 86z" />
<glyph unicode="-" horiz-adv-x="1120" d="M129 731q-6 53 14.5 78.5t73.5 28.5q41 3 87 5t102.5 4t87.5 3q73 3 220.5 9t221.5 9q59 4 88 0q44 -5 69.5 -30.5t28.5 -69.5q4 -61 -10 -92q-15 -30 -59 -49q-30 -11 -86 -15q-198 -12 -578 -32q-21 -1 -63 -4.5t-64 -4.5l-2 -6q-54 -3 -78.5 15.5t-36.5 70.5 q-12 56 -16 80z" />
<glyph unicode="." horiz-adv-x="417" d="M31 82q-37 98 28 156q7 6 19.5 19.5t15.5 16.5q73 70 154 13q38 -28 54 -82.5t1 -104.5q-14 -43 -54 -71.5t-87 -28.5l-2 2q-100 0 -129 80z" />
<glyph unicode="/" horiz-adv-x="868" d="M35 1620q-31 123 92 145q82 15 103 13q48 -5 77 -64q13 -28 25 -69q21 -74 69.5 -256t77.5 -279q44 -150 130 -427t106 -343q41 -132 53 -223q9 -65 -15.5 -90t-93.5 -27l3 -2q-56 12 -80 16q-94 17 -125 113q-20 64 -62 190.5t-63 190.5q-35 104 -67 213t-65 236 t-53.5 209t-58.5 237.5t-53 216.5zM379 575q0 -3 4.5 -8.5t7.5 -5.5q52 0 154 4q3 0 6.5 6t3.5 11q0 3 -4.5 7.5t-7.5 4.5q-23 2 -68 2v-2v6q-56 -4 -86 -8q-3 0 -6.5 -6t-3.5 -11zM430 412q9 -1 33 -5.5t33 -5.5l2 -2q67 4 90 7q11 3 16 28q0 2 -8 8.5t-12 6.5 q-49 -4 -78 -13q-14 -4 -27.5 -0.5t-28 -1t-20.5 -22.5zM487 238q3 -2 7.5 -6.5t8 -7.5t7.5 -3q59 -4 88 0q10 1 30.5 -1.5t36 0t27.5 16.5q-12 16 -28.5 19t-34.5 -0.5t-27 -0.5h-2h-88q-4 0 -25 -16zM545 113q3 -3 8 -9.5t8.5 -10t7.5 -3.5q47 0 78 10q14 4 27.5 0.5t27 1 t19.5 21.5q-13 3 -40 9t-40 9v4v-6q-61 0 -74 -2q-4 -1 -7.5 -5t-7.5 -10t-7 -9z" />
<glyph unicode="0" horiz-adv-x="1073" d="M-12 874l4 5q7 344 82 555q65 180 207 272q68 46 122 41q15 -2 58 8q228 44 373 -156q64 -90 98 -268q33 -171 -10 -450q-30 -191 -80 -385q-48 -191 -187 -324q-38 -33 -57 -47q-114 -83 -244 -61.5t-213 137.5q-77 109 -112 286q-22 100 -29 168q-3 33 -5 70t-4 80.5 t-3 68.5zM78 471q1 -1 5.5 -6.5t7.5 -7.5t7 -2q0 -1 37 -1l37 1l-2 2l-6 -2h6h37q5 0 11 -1l7 -1q3 1 25 18q-2 2 -7.5 9t-9.5 10.5t-8 3.5q-54 0 -129 -7q-3 0 -5.5 -2.5t-6.5 -7t-6 -6.5zM115 338q8 -1 21.5 -5t24.5 -6t21 -1q39 2 83 5t98 7t83 6v-4v-6q103 0 154 2 q3 0 13.5 -1t15.5 -0.5t10.5 5.5t5.5 16q0 12 -8.5 18.5t-16.5 7.5t-22 1q-8 0 -24.5 -1t-24.5 -1q-133 -8 -197 -10q-28 -1 -85.5 -1t-86.5 -1q-52 0 -65 -31zM240 199q15 -12 26 -23q13 2 52 8.5t59 8.5q173 18 176 18q4 1 9 5t10.5 10.5t9.5 9.5q-4 2 -11.5 7t-13.5 8 t-10 3q-14 -1 -29 -3t-33.5 -5t-29.5 -4q-161 -16 -185 -19q-4 -1 -9 -5t-11.5 -10t-9.5 -9zM322 786v5q0 -67 2 -80q2 -12 5.5 -45.5t6 -50t8 -43t13.5 -48t20 -41.5q22 -37 44.5 -37t39.5 39q56 135 69 215q32 203 56 484q10 119 -31 217q-8 20 -19.5 23t-23.5 -13 q-5 -6 -18.5 -23.5t-20 -27t-17 -24t-17.5 -28t-13 -26.5q-104 -235 -104 -496zM547 463q15 -10 18 -10q120 -15 148 -17q14 0 20 4q12 12 15 23q0 3 -5.5 8.5t-9.5 5.5q-58 8 -86 8h-2v-6h-80q-3 0 -5.5 -2.5t-6.5 -7t-6 -6.5zM575 590q0 -10 9 -19q16 -12 26 -12 q60 0 178 4q4 0 10.5 6t6.5 9q-5 20 -14 20l-105 6l2 8v-6q-65 0 -98 -2q-5 0 -10 -5t-5 -9z" />
<glyph unicode="1" horiz-adv-x="538" d="M8 1563q-3 74 39 124t115 60q58 7 100 2q59 -7 82.5 -33.5t26.5 -87.5q2 -28 6 -85.5t6 -86.5q30 -470 35 -571q4 -63 7 -133.5t6 -157t5 -133.5h-6v6v-283q0 -38 -12 -116q-9 -49 -32 -67.5t-75 -20.5h-12q-113 0 -147 29t-46 141q-6 60 -26 337q-35 444 -41 541 q-3 49 -9.5 147.5t-9.5 147.5zM121 600q5 -16 10 -16q172 -15 203 -17q3 0 6 2.5t6.5 7.5t5.5 7q-15 15 -20 16q-44 8 -115 18l2 -4q-36 -2 -88 -6q-3 0 -6.5 -3t-3.5 -5zM154 481q15 -10 18 -10q113 -8 172 -10q4 0 8 3t9.5 8t7.5 7q-2 2 -6 6.5t-6.5 7t-6 5t-6.5 2.5 q0 2 -43 1l-43 -1h-86q-3 0 -6 -3.5t-6.5 -8.5t-5.5 -7zM168 346q-1 -3 3 -8.5t9 -7.5q33 -11 56 -11q0 -1 58 -1l58 1l-4 -4v-12q5 3 15.5 9.5t15.5 9.5q-3 3 -7.5 10.5t-8 12t-7.5 5.5q-54 10 -129 17q-24 3 -43 -2q-12 -4 -16 -19z" />
<glyph unicode="2" horiz-adv-x="1134" d="M-10 1124q1 9 4 60t5 70t7 55.5t12 64.5q56 217 277 320q88 41 165.5 31.5t137 -57t98.5 -126.5q34 -66 45 -176q25 -245 -82 -508q-33 -81 -97 -231t-81 -191q-3 -8 -10 -23.5t-10 -23.5q-6 -13 -1 -21t19 -8q15 -1 44.5 -2t43.5 -2q56 -3 170 -8t172 -8q118 -6 97 -123 q-11 -69 -23 -115q-24 -85 -117 -88h-80h-79l4 -6q-88 -1 -264.5 -3t-264.5 -3h-30q-65 2 -94.5 38.5t-12.5 98.5q35 120 88 252q56 139 195 463q76 176 135 461q5 30 2 37q-3 10 -29 57q-5 -3 -16 -8.5t-19.5 -11t-13.5 -11.5q-71 -81 -88 -223q-6 -60 -30 -82t-83 -22 q-86 0 -127 4q-36 3 -54 21t-15 48zM135 133q7 -17 21 -24q4 -2 9 -2t11.5 1t9.5 1q70 3 212 9t212 9l-4 -4v-6h215h37q11 0 16 0.5t13.5 2.5t12 7.5t3.5 15.5q0 12 -39 23q-7 2 -45 2l-639 -12q-24 0 -28 -2q-6 -3 -12 -10.5t-5 -10.5zM141 256q21 -16 27 -16 q368 -9 731 -15q25 0 37 2q12 4 12 17q0 3 -5 7.5t-9 4.5q-96 14 -123 14h-295l4 4q-233 0 -350 -2q-4 0 -9 -2.5t-11 -7t-9 -6.5zM215 397q2 -5 10.5 -9t12.5 -3q27 4 159 29q2 1 7 7t6 7l-4 4q-8 12 -11 12q-17 3 -33.5 4t-37.5 -2.5t-31 -5.5t-36.5 -9.5t-31.5 -8.5 q-4 -1 -8 -10.5t-2 -14.5zM293 559q2 -1 13.5 -7.5t17.5 -6.5q61 3 108 14q5 1 10.5 5t11.5 10.5t9 9.5q-15 12 -27 20v2q-99 -13 -125 -18q-4 -1 -7 -5.5t-6 -12.5t-5 -11z" />
<glyph unicode="3" horiz-adv-x="1062" d="M18 1389q12 146 127 241q84 70 196.5 101.5t234.5 11t212 -100.5q115 -103 121 -245q13 -248 -141 -410q-18 -21 -16.5 -32.5t22.5 -30.5q195 -168 195 -422q0 -211 -82 -332q-108 -159 -297 -168h-49l-6 6q-208 -9 -326 154q-61 85 -98 153q-22 38 -17 67t39 58 q54 48 121 84q101 55 141 -51q32 -84 117 -137q57 -35 106 -17.5t72 80.5q33 94 -24 160q-61 70 -120.5 105.5t-137.5 27.5q-70 -9 -97 66q-5 14 -14 49q-11 40 -0.5 65.5t45.5 45.5q16 9 46 20.5t42 17.5q216 117 213 344q0 98 -94 138q-85 36 -148 -37q-56 -67 -108 -148 q-37 -57 -70.5 -67.5t-95.5 16.5q-69 31 -92 70.5t-17 116.5zM172 383l23 -23h2q118 22 155 29q3 1 9 10t8 11q-16 16 -21 16q-76 -6 -153 -18q-4 -1 -7.5 -5.5t-8 -10.5t-7.5 -9zM279 231q5 0 27 -4.5t34 -3.5q38 4 113.5 14.5t113.5 14.5q44 5 132 14.5t132 14.5 q12 2 25.5 5t29.5 7t25 6q-9 17 -25 20t-30.5 -0.5t-30.5 3.5v-3q-27 -3 -83 -9t-83 -9q-31 -3 -95 -9t-95 -9q-96 -9 -131 -17q-2 -1 -20.5 -3.5t-27 -9t-11.5 -22.5zM410 119q3 -1 7.5 -4.5t8.5 -6t8 -2.5q30 3 203 23q15 2 43.5 6t42.5 6q3 0 6.5 5.5t3.5 9.5 q0 3 -4.5 7.5t-7.5 4.5q-20 2 -62 2l7 -2v6q-40 -6 -120 -18.5t-120 -18.5q-3 -1 -8.5 -8.5t-7.5 -9.5zM727 561q2 -1 8 -6.5t10.5 -8.5t8.5 -3q37 2 116 14q5 1 31 16l-2 -2q-6 4 -14 11.5t-13.5 11.5t-9.5 4q-58 -3 -117 -12q-4 -1 -7 -5t-6 -10.5t-5 -9.5z" />
<glyph unicode="4" horiz-adv-x="1159" d="M20 1642q0 53 16 72t68 23q73 6 156 -4q35 -4 51 -23t21 -57v-74q0 -101 -1 -304t-1 -304q0 -51 9 -59.5t62 -10.5q35 -1 100.5 -1.5t119 -1.5t100.5 -3q22 0 31 8t8 29q-10 88 -10 104q-2 195 -2 584q0 65 25 90.5t91 26.5q38 1 58 0t45 -6t37.5 -16t25.5 -31 t18.5 -50.5t6.5 -74.5q4 -121 14 -719h2l10 2v-701q0 -82 -63 -130.5t-141 -26.5q-64 16 -74 84q-15 86 -17 141l-6 387q-2 43 -10 50.5t-51 4.5q-64 -4 -192 -14t-193 -14q-60 -3 -135 4q-71 6 -107.5 40.5t-40.5 102.5q-12 197 -28 584q-3 72 -3 288zM819 616q3 -2 8 -7.5 t9 -9t8 -3.5q94 4 139 10q4 1 9.5 5t12 10.5l9.5 9.5q-5 4 -12.5 11t-8.5 9v-2q-15 -2 -70.5 -7.5t-84.5 -8.5q-3 0 -6 -2.5t-7 -7.5t-6 -7zM834 469q16 -12 18 -14l2 2q104 13 131 18q4 1 7.5 5t8 11t5.5 9q-21 16 -23 16q-65 -6 -129 -18q-4 -1 -7 -5.5t-7.5 -13 t-5.5 -10.5z" />
<glyph unicode="5" horiz-adv-x="1062" d="M51 493.5q1 33.5 10 59.5q18 44 65.5 75t90.5 25q59 -6 82 -57q4 -9 18 -42.5t23 -51.5q44 -82 66 -107q40 -48 95 -52t101 38q56 53 84 119q91 212 31 426q-8 29 -29 65q-36 62 -94 81t-121 -13q-33 -18 -119 -86q-1 -1 -11.5 -9.5t-12 -9.5t-11.5 -8.5t-13 -8.5 t-12 -6.5t-13.5 -6t-13 -3t-14.5 -1.5t-14 2t-16 4q-63 24 -71 121q-11 129 -21 276h6q23 266 23 270q4 45 30.5 74.5t69.5 38.5q123 27 246 45q50 8 162 16q44 3 64.5 -10t27.5 -53q10 -57 6 -148q0 -29 -17.5 -47.5t-46.5 -21.5q-55 -6 -170 -10h-51q-46 0 -53 -8.5 t-5 -61.5q1 -28 1 -47v-31q0 -23 9.5 -27.5t31.5 5.5q63 29 123.5 32.5t111 -16.5t92.5 -53t76 -80q93 -128 111 -279q42 -340 -76 -587q-113 -230 -346 -275q-180 -34 -319.5 61t-174.5 275q-7 41 -10 58t-2 50.5zM90 377q15 -9 27 -17q104 21 139 29q4 1 7 5t7 11t6 9 q-3 1 -7.5 4.5t-8.5 5.5t-8 2q-59 -7 -141 -25q-4 -1 -21 -24zM150 260l24 -12h31q51 3 153.5 9t153.5 9l4 6v-6h227q18 0 28 1t20.5 8.5t9.5 21.5q-1 10 -7.5 14t-14 4t-19 -2t-15.5 -2q-180 -4 -540 -16q-27 0 -37 -6q-4 -3 -6.5 -7.5t-6 -11.5t-5.5 -10zM328 156 q2 -1 8.5 -8t9.5 -7q49 -2 148 -2l4 2l36 -1q36 0 37 1q65 4 109 11q4 1 9 5t11 10l9 9q-3 1 -9.5 4.5t-12 5.5t-9.5 2q-108 -4 -332 -16q-3 0 -5.5 -2.5t-6.5 -7t-6 -6.5zM705 426q12 -4 34 -12.5t33 -12.5l10 -2v7q64 6 66 6q8 2 18 26q0 2 -8.5 8.5t-13.5 6.5 q-45 4 -68 2q-6 0 -20.5 1t-22 0t-16 -8t-12.5 -22z" />
<glyph unicode="6" horiz-adv-x="1077" d="M14 549v178v2q0 370 117 657q66 162 203 302q104 107 280 53q35 -10 48.5 -42t-0.5 -67q-2 -5 -31 -51q-237 -341 -303 -772q-4 -20 -4 -31q0 -18 1 -52t1 -52q13 11 37 33t36 34q137 130 285 125q180 -6 246 -170q72 -176 -29 -370q-78 -147 -197 -219.5t-258 -51.5 q-187 28 -284.5 125.5t-132.5 272.5q-13 69 -15 96zM78 573q2 -2 4.5 -5t4.5 -5t4.5 -4t4.5 -2q39 -2 117 -2l4 6v-6q22 2 62 6t73 7t62 5q45 3 135 8.5t135 8.5q121 8 178 14q4 0 23 14q-2 2 -6 7t-7 8t-6 4q-16 2 -51 2q-41 -2 -123 -7t-123 -7q-44 -3 -132 -8.5 t-132 -8.5q-30 -2 -91.5 -7t-92.5 -7q-21 0 -29 -4q-3 -1 -14 -17zM113 436q2 -1 6 -4.5t7 -5.5t7 -2q45 -2 135 -2l-2 2h135q4 0 8 3.5t9.5 10t7.5 8.5q-17 17 -25 23h-14q-143 0 -215 -2q-21 0 -41 -10q-5 -2 -10.5 -10.5t-7.5 -10.5zM156 305q0 -3 4.5 -7.5t7.5 -4.5 q25 -2 74 -2v-2q60 0 73 2q4 1 7.5 5t8 10t7.5 9q-3 2 -8 7.5t-9 9.5t-8 4q-24 -2 -147 -17q-3 0 -6.5 -5t-3.5 -9zM248 174q3 -2 7.5 -7t8.5 -8t8 -3h111v-6q172 12 258 20q3 0 5.5 2.5t6.5 7t6 6.5q-2 2 -5.5 7t-6.5 7.5t-6 2.5q-67 3 -135 0q-39 -2 -234 -17q-4 0 -8 -2 t-8.5 -5.5t-7.5 -4.5zM446 385q-43 -79 50 -88q27 -3 63 8q51 19 87 75t36 120v6q0 42 -16 53.5t-56 -2.5q-55 -21 -86 -55q-34 -38 -78 -117z" />
<glyph unicode="7" horiz-adv-x="933" d="M12 1483v49l2 -4q0 82 2 98q4 44 33.5 70.5t75.5 29.5q3 0 9.5 0.5t12 0.5t9.5 -1q50 -11 109 -12t103 3t111 11.5t105 10.5q82 7 141 2q51 -5 83 -35.5t28 -87.5q-10 -151 -23 -258q-4 -33 -31 -231.5t-39 -303.5q-10 -88 -55 -528q-2 -20 -5 -56t-6 -66t-7 -56 q-4 -38 -17 -49.5t-53 -16.5q-70 -9 -94 -6q-50 6 -68.5 27.5t-17.5 70.5q6 160 18 314q7 84 16 179t20.5 210.5t17.5 179.5q6 66 17 199t17 200q5 41 -2.5 49t-50.5 5q-24 -2 -71 -7.5t-70 -7.5q-22 -2 -32 -10t-9 -29q5 -82 -33 -109.5t-129 3.5q-34 13 -50.5 21.5t-36 26 t-26 45t-4.5 69.5zM504 590q2 -2 6 -5.5t6.5 -5.5t6.5 -4t7 -2q33 -4 58 2q3 1 19 1t23 5t7 19q0 4 -8 8t-19.5 8t-13.5 5l2 -3q-12 -1 -28 -1t-26 -0.5t-18 -2.5q-4 -1 -7.5 -5t-7.5 -10t-7 -9z" />
<glyph unicode="8" horiz-adv-x="1239" d="M51 416q60 233 230 446q3 4 9 11.5t9 11.5q6 8 22 25t25 30.5t10 26.5q1 9 -9 19.5t-28 24t-26 21.5q-144 154 -133 328q14 225 217 362q108 74 217 90q170 26 317 -75q113 -75 129 -224q25 -260 -157 -487q-5 -6 -15.5 -17.5t-15.5 -17.5q-24 -27 -23.5 -37t29.5 -34 q175 -143 242 -398q85 -323 -117 -547q-78 -86 -170 -132t-186 -42l2 -4q-177 2 -303 62.5t-215 187.5q-115 165 -60 369zM82 246q1 -2 5.5 -9t7.5 -10.5t7 -3.5q67 -6 140 -6q4 0 11 6.5t7 9.5q-5 24 -18 27q-11 2 -35 2.5t-31 1.5l2 -6l-37 1q-37 1 -37 -1 q-5 0 -12.5 -5.5t-9.5 -6.5zM100 424q0 -6 5.5 -14.5t9.5 -8.5q35 -4 63 2q16 2 44 9.5t36 9.5q-9 17 -23.5 19.5t-30.5 -1t-22 -0.5h-65q-5 0 -11 -6t-6 -10zM145 582q5 -14 14.5 -21t17.5 -7t23 1.5t21 1.5h10.5h11t9.5 0.5t9.5 2.5t7 5.5t4.5 9t1 13.5q0 4 -8 7.5 t-24.5 8.5t-24.5 8h-4q-11 -5 -33.5 -15t-34.5 -15zM172 63q1 -7 3 -11.5t7.5 -6.5t8 -2.5t11 0t9.5 0.5h37h246l2 -4q72 2 217.5 6t218.5 6q4 0 9.5 3.5t12 10.5t9.5 9q-27 16 -31 16q-25 0 -74 0.5t-79.5 0.5t-72.5 -1t-77 -4q-180 -14 -318 2q-17 2 -104 2q-11 0 -17 -1 t-12.5 -7.5t-5.5 -18.5zM416 233q35 -75 118.5 -102.5t151.5 14.5q171 110 160 265h-2q3 125 -50 219t-153 174q-25 20 -49 -8q-123 -142 -172 -246q-78 -165 -4 -316zM452 -65.5q0 -10.5 1 -10.5q36 -8 55 -8q35 2 110 10q58 6 117 15q7 2 21 16q-14 14 -21 16h-43v-2 q-37 -2 -110.5 -6t-110.5 -6q-14 0 -18 -8q-1 -6 -1 -16.5zM500 1415q-3 -56 18 -123q24 -71 105 -131q58 43 90 137q5 13 14 70v31q0 58 -23.5 83.5t-80.5 28.5q-55 3 -87.5 -21.5t-35.5 -74.5zM901 467q1 -3 8 -5t19 -5l16 -4h14q39 0 46 2q5 1 9 4t10 10t7 8q-3 2 -8 6.5 t-8 7.5t-8 5.5t-9 3.5q-19 4 -57 0q-19 -2 -30.5 -9t-8.5 -24z" />
<glyph unicode="9" horiz-adv-x="1036" d="M53 1159q-18 185 79 331.5t255 209.5q59 24 93 36t86.5 22t99.5 5q133 -14 209.5 -93t80.5 -212q2 -42 2 -252l3 -8q5 -342 -56 -813q-6 -48 -16.5 -144.5t-16.5 -144.5q-7 -59 -33 -80t-85 -18q-67 3 -99.5 31t-33.5 86q-3 93 4 209q6 139 22 417q2 25 7.5 76.5 t7.5 77.5q2 33 -4.5 37.5t-34.5 -10.5q-116 -68 -271 -58q-124 7 -205.5 88t-93.5 207zM348 1221q5 -56 43 -82t90 -9q74 23 140.5 115.5t64.5 161.5h4q-3 7 -12.5 31t-16.5 39t-16 28q-37 55 -104 27q-77 -31 -138 -129.5t-55 -181.5zM674 358l7.5 -5t8 -5.5t8.5 -4.5t9 -3 q8 -2 51 -2v-4q50 0 59 2q4 1 25 22q-2 2 -7.5 9t-9.5 10.5t-8 3.5q-55 3 -110 0q-5 0 -10.5 -3.5t-13 -10.5t-9.5 -9zM692 496q0 -2 9.5 -4.5t22.5 -6t17 -4.5h4q49 0 76 8q12 3 17 27q0 2 -8.5 8t-12.5 6q-47 0 -67 -8q-11 -4 -23.5 -1.5t-23 -2.5t-11.5 -22zM692 621 q4 -2 16 -9.5t19 -9.5q5 -1 11.5 -1t14 0.5t11.5 0.5l-4 4l33 -1q33 -1 34 1q6 0 13.5 6t9.5 11q0 5 -6 12.5t-10 7.5q-58 3 -117 0q-4 0 -8 -3.5t-9.5 -10t-7.5 -8.5z" />
<glyph unicode=":" horiz-adv-x="432" d="M4 797q0 61 41.5 100t106.5 39q66 0 107.5 -42t41.5 -108v5q0 -72 -47 -123t-111 -50q-58 1 -98.5 54t-40.5 125zM61 158q2 41 29 104q19 38 52.5 57.5t72.5 14.5q37 -5 69 -32.5t42 -65.5l2 2q2 -9 3.5 -25.5t2.5 -19.5q0 -110 -92 -152q-66 -29 -125 9t-56 108z" />
<glyph unicode="&#x3c;" horiz-adv-x="1259" d="M119 783q1 44 67 81q17 10 54 27q51 27 153.5 80.5t153.5 79.5l540 282q29 17 46 23q41 17 69.5 0.5t36.5 -62.5q4 -23 14 -141l-4 2q0 -56 -16 -81t-68 -48q-83 -38 -247.5 -114.5t-247.5 -114.5q-33 -15 0 -33q26 -14 153 -76q233 -114 279 -135q92 -42 100 -133 q7 -40 4 -87.5t-24 -84.5q-18 -30 -34.5 -37.5t-49.5 2.5q-7 2 -39 18q-510 265 -676 353q-90 46 -199 114q-66 41 -65 85z" />
<glyph unicode="=" horiz-adv-x="1120" d="M121 930q-6 53 14.5 78t73.5 28q46 3 276 13l222 9t221 9q59 4 88 0q44 -5 69.5 -30.5t28.5 -69.5q4 -62 -10 -93q-15 -29 -60 -49q-27 -10 -86 -14q-300 -19 -577 -33q-21 -1 -63.5 -4t-63.5 -4l-2 -6q-54 -3 -78.5 15.5t-36.5 70.5q-12 56 -16 80zM133 557 q2 36 16.5 53t49.5 23q47 9 96 12q305 12 602 21q59 3 117 0q45 -3 68.5 -24.5t31.5 -66.5l-10 -2q24 -149 -121 -163q-149 -15 -307 -27q-51 -4 -153.5 -12.5t-153.5 -12.5q-104 -5 -125 -4q-51 1 -76.5 25t-30.5 74q-7 58 -4 104z" />
<glyph unicode="&#x3e;" horiz-adv-x="1130" d="M74 1180q4 110 12 163t35.5 66.5t73.5 -12.5q58 -33 346 -203q80 -47 239.5 -141.5t239.5 -141.5q41 -25 57 -45q19 -25 11 -56.5t-37 -53.5q-101 -74 -185 -123q-104 -61 -311 -180.5t-311 -180.5q-22 -15 -39 -22q-50 -20 -68 26q-6 16 -11.5 35.5t-10 37.5t-6.5 24 l-5 -2q11 118 19 142q12 35 55 61q17 11 68 38q65 35 188.5 103.5t143.5 79.5q28 15 28 25.5t-26 23.5q-286 152 -433 225q-76 39 -73 111z" />
<glyph unicode="?" horiz-adv-x="1128" d="M18 1298q39 171 150 308t283 184q157 41 281 -11t204 -192l2 6q48 -86 60.5 -213.5t-20.5 -259.5t-108 -211q-115 -121 -266 -170q-42 -14 -60.5 -38t-17.5 -66q2 -49 -2 -148q-1 -43 -18 -61.5t-60 -26.5q-52 -10 -96 -10q-52 -1 -75.5 20t-28.5 74v13v147q0 99 -2 148 q-3 84 80 120q9 4 82 31q143 60 163 70q186 95 203 338q8 119 -80 161q-86 43 -180 -24q-40 -28 -67 -67t-56 -99q-14 -29 -24 -61q-9 -31 -22 -52t-26.5 -32t-34.5 -16.5t-38 -6.5t-47 0q-13 0 -80 10q-44 8 -76 50.5t-23 84.5zM285 135q-4 63 23 90.5t98 32.5l2 2 q56 13 94 -19t41 -87q5 -59 -27 -100.5t-86 -45.5t-97 33.5t-48 93.5zM324 614q-9 -12 21 -22q26 -8 63 -8l-5 -2q8 4 20 1t23 1t11 20q0 15 -8.5 19t-24.5 2.5t-21 -0.5q-2 1 -11.5 3t-13 2.5t-11.5 1.5t-12.5 0.5t-10.5 -2.5t-11 -6t-9 -10z" />
<glyph unicode="@" horiz-adv-x="1462" d="M2 868q8 197 152 389q186 244 456 299q110 23 228 -14q411 -124 491 -528q4 -24 4 -37q1 -15 3 -43.5t3 -42.5l7 -12q8 -91 -24 -173t-95 -169q-60 -83 -150.5 -85t-154.5 76q-18 22 -23 31q-11 23 -20 25.5t-29 -19.5q-81 -97 -193 -92q-85 3 -141 68 q-100 120 -75 281.5t159 250.5q110 73 240 14q20 -9 33 -7.5t32 14.5q54 40 125 0q28 -15 33.5 -40.5t1.5 -64.5q-16 -126 -18 -190q-2 -51 12 -125q4 -23 19.5 -30t35.5 5q42 25 47 51q94 373 -192 539q-88 51 -181 65t-175.5 -9t-153 -72.5t-120 -128t-69.5 -174.5 q-56 -264 101 -486q53 -74 133 -104q221 -80 399 53q5 4 14.5 12.5t14.5 12.5q43 34 98.5 26.5t87.5 -51.5q32 -45 17 -84q-19 -48 -29 -59q-226 -265 -514 -220q-235 37 -393 234q-212 264 -197 614zM180 381q11 -3 33.5 -9.5t34.5 -9.5v-2v7h37q3 1 43 18q-36 26 -45 29 q-20 8 -37 -2q-3 -2 -31.5 -6t-34.5 -25zM311 240q0 -4 4 -9.5t9 -7.5q14 -4 43 -4h172q235 8 356 14q24 2 92 19q4 1 7 4.5t7 9.5t5 8q-23 18 -27 19q-2 1 -8.5 -2.5t-9.5 -3.5q-154 -18 -203 -21q-26 -2 -154 -2h-6l-6 -2h-246q-17 0 -29 -6l-3 -6q-3 -6 -3 -10zM508 117 q2 -2 5.5 -7t6.5 -7.5t6 -2.5q45 -2 136 -2l-5 2h142q3 0 6 4.5t6.5 11t5.5 9.5q-2 2 -7.5 6.5t-9 7t-7.5 2.5q-19 -1 -58 -5t-59 -5q-25 -1 -74 -1t-74 -1q-4 0 -7 -2t-7 -5.5t-6 -4.5zM637 766l2 -2q7 -41 10 -51q25 -82 84 -23q47 47 66 152q4 23 -11.5 45t-37.5 28 q-55 13 -72 -32q-7 -19 -41 -117z" />
<glyph unicode="A" d="M8 72v43l6 -4q5 14 15.5 38t18.5 44t13 38q27 91 74.5 254.5t87.5 298t78 252.5q92 292 279 633q24 42 52 60q23 15 57 15q8 0 16 -1q28 -3 60 -3t71.5 1.5t60.5 1.5q49 0 60 -8t28 -54q15 -42 73.5 -203t86.5 -249q86 -273 131 -572q10 -65 98 -573q2 -9 2 -16 q0 -37 -43 -37q-56 -1 -107 -1q-85 0 -159 3q-34 1 -50.5 20t-21.5 58q-3 21 -5 44.5t-4 52t-3 44.5q-5 53 -16.5 64.5t-63.5 11.5h-381q-30 0 -45 -11.5t-22 -40.5q-10 -38 -58 -174q-14 -41 -24.5 -49.5t-46.5 -7.5q-95 2 -283 14q-7 0 -19.5 6t-15.5 7zM80 137 q2 -2 7.5 -8.5t9 -10t7.5 -3.5h111v2h80q29 0 41 6q12 4 12 22q0 5 -6 11t-10 6q-152 0 -228 -2q-4 0 -7.5 -3.5t-8.5 -10t-8 -9.5zM115 264q0 -4 6.5 -9t11.5 -5q37 -2 111 -2h49q55 0 67 2q6 1 16 9.5t13 10.5q-5 4 -15.5 12.5t-15.5 12.5q-2 2 -8 2h-196q-19 0 -27 -8 q-12 -12 -12 -25zM174 410q0 -6 7.5 -14.5t13.5 -8.5q18 -2 36.5 -2t36.5 2q11 1 63 7.5t79 6.5q180 -4 540 -16q20 -1 61 -6t62 -6q38 -1 77 -1l77 1q8 0 18.5 8.5t11.5 15.5q3 17 -6.5 22t-25.5 5q-59 4 -185 8q-78 3 -233.5 9.5t-233.5 9.5l-2 2v-7h-209q-57 -2 -167 -14 q-6 -2 -13.5 -9t-7.5 -13zM254 551q7 -18 25 -25q4 -2 9 -2t11.5 1t9.5 1q159 6 160 6h670q42 0 49 3q4 2 8.5 6.5t7.5 8.5l7.5 10t7.5 9q-1 0 -15.5 6.5t-21.5 6.5h-430h-4h-406q-28 0 -74 -11q-5 -2 -10 -9.5t-4 -10.5zM577.5 646.5q5.5 -9.5 26.5 -9.5h111v-4 q117 5 141 8q35 4 43 14.5t0 42.5q-31 146 -45 195q-19 73 -70 233q-1 3 -22 29q-2 -4 -7 -12.5t-7 -12.5q-62 -171 -168 -454q-8 -20 -2.5 -29.5zM1018 268q2 -2 7.5 -8t9 -9.5t7.5 -4.5q81 -9 166 -15q25 0 29 2q7 3 27 23q-1 1 -7.5 8t-10.5 10.5t-9 4.5q-20 4 -43 7 t-50.5 6t-43.5 5l4 2v-6q-51 0 -60 -2q-4 -1 -8.5 -4.5t-10 -10t-7.5 -8.5zM1057 131q2 -2 6 -5t6.5 -5.5t6.5 -4.5t7 -3q78 -9 160 -15q26 -4 43 2q12 6 17 29q0 3 -7.5 10t-13.5 8q-70 12 -141 21h8v-6q-56 0 -66 -2q-4 -1 -8.5 -5.5t-10 -12.5t-7.5 -11z" />
<glyph unicode="B" horiz-adv-x="1126" d="M-6 1702q-1 36 9 50t46 26q35 10 43 10q15 0 80.5 2t87.5 2q6 0 14 1q22 1 64 -1q56 -2 88 -6t76.5 -13t83.5 -22q287 -99 368 -412q21 -79 21 -154q-1 -93 -33 -179q-58 -156 -211 -273q-16 -12 -34 -24.5t-40.5 -26.5t-35.5 -23q8 -6 46.5 -31.5t57.5 -41.5 q80 -63 111 -149q17 -48 17 -97q0 -40 -11 -82q-26 -96 -104.5 -159t-180.5 -72q-67 -6 -194 -11t-146 -6q-80 -5 -96 -8q-15 -3 -29 -3q-79 0 -84 93q0 28 1 86t1 86v37h6h-2l-2 -6q1 79 2.5 222.5t2.5 261t1 222.5q0 177 -12 529q-1 29 -6 86.5t-6 85.5zM66 221 q-1 -3 4 -10.5t10 -9.5q29 -9 55 -13l2 5q110 9 133 12q4 0 9.5 6t7.5 12q2 3 -2.5 9.5t-8.5 7.5q-24 12 -40 12q-74 0 -148 -6q-12 0 -22 -25zM66 399q0 -3 8 -8.5t14 -5.5h68l-4 2v-6q98 12 145 20q5 1 9 4.5t10.5 10.5t7.5 8q-3 3 -9.5 10t-12 11t-9.5 4q-31 -2 -203 -17 q-6 0 -8 -2q-15 -24 -16 -31zM70 571q0 -5 6 -10.5t10 -5.5q24 -1 49 -1l49 1q39 2 117 7t117 7q0 1 55 1l55 -1q31 0 43 6q6 3 11 13t4 16t-11 12.5t-18 6.5q-31 0 -89 -3.5t-71 -3.5l4 -6v6l-288 -18q-23 0 -31 -4q-12 -8 -12 -23zM109 82q2 -2 6 -5.5t6.5 -6.5t6.5 -5 t7 -2h78l6 3q55 2 328 12h6q37 4 29 31q-1 6 -13 11t-22 5q-138 -4 -406 -16q-5 0 -8 -3zM367 467q1 -19 1.5 -79t2.5 -91q3 -67 27 -81q9 -6 25 -5q24 0 62 14q5 2 19 11q40 22 61 66q14 29 14 54q0 14 -4 27q-12 46 -64 85.5t-103 39.5l-2 4q-22 1 -31.5 -9.5t-7.5 -35.5z M379 1092q1 -82 17 -91q3 -2 7 -2q22 0 82 33q10 5 37 23q46 35 66 83q11 28 12 56q0 20 -6 39q-20 67 -64.5 107.5t-103.5 45.5q-36 3 -45 -7.5t0 -45.5l-2 4v-245zM590 246q-1 -1 2 -5.5t7.5 -9.5t8.5 -6q12 -2 37 -4t27 -2l-4 -2q70 5 75 6q6 1 12.5 11t6.5 16t-8.5 13 t-14.5 7q-63 0 -125 -6q-10 0 -24 -18zM606 424q3 -3 9.5 -10t12.5 -11.5t11 -5.5q37 -4 111 -4q5 0 11.5 6.5t6.5 10.5q0 6 -5 14.5t-9 9.5q-5 1 -78 12l-2 5v-7q-4 0 -11.5 1t-13.5 1t-10 -2q-5 -2 -11 -5.5t-12.5 -8t-9.5 -6.5z" />
<glyph unicode="C" horiz-adv-x="1220" d="M10 774q-6 58 -6 116q0 217 86 433q127 323 434 395q73 18 148 18q90 0 180 -26q57 -15 63 -74q14 -149 15 -196v-6q0 -58 -46 -58q-15 0 -34 6q-106 31 -141 39q-30 6 -57 6q-110 0 -181 -100q-84 -118 -90 -248l-12 -264v-12q0 -112 51 -254q12 -40 49 -90 q34 -42 63 -48l12 -2q27 0 66 21q45 22 113 82q25 23 71.5 71t71.5 70q39 36 63 36q1 -1 3 -1q24 -2 59 -47q72 -93 88 -111q21 -24 21 -43q0 -15 -13 -28q-23 -23 -66 -68t-69.5 -73t-65.5 -64.5t-73 -65.5q-116 -99 -264 -99q-12 0 -25 1l-2 4q-287 14 -418 295 q-70 153 -94 385zM102 621q0 -4 8.5 -7.5t23 -7t16.5 -4.5q99 11 141 19q4 1 8.5 4t7.5 6t7.5 8t7.5 8q-3 2 -10 7.5t-13 8.5t-10 3q-26 -1 -73.5 -6.5t-59.5 -6.5q-2 0 -14.5 -0.5t-16.5 -1.5t-11.5 -4t-10 -9.5t-1.5 -16.5zM154 502q3 -2 7.5 -7t8.5 -8.5t8 -3.5h86l4 -4 q72 0 86 2q4 1 9 5t10.5 10.5t9.5 9.5q-3 2 -9.5 8.5t-12 10t-9.5 3.5h-159q-11 0 -15 -2zM215 328q4 -2 11.5 -7t14 -8.5t11.5 -3.5q80 -2 240 -2l-9 2v-6q179 9 357 21q4 0 16.5 -1t19.5 0t12.5 8t4.5 21q-1 12 -7.5 17.5t-12.5 5.5t-18 -1t-15 -1q-79 -1 -226 -6.5 t-180 -6.5q-20 -1 -84.5 -1.5t-99.5 -2.5q-5 0 -11 -4.5t-13 -12.5t-11 -11zM360 193q-2 -3 5.5 -11.5t13.5 -9.5q40 -9 110 -20l-6 6v6q152 8 228 14q5 0 11 3t15 9.5t11 8.5q-6 4 -18.5 12t-18.5 12h-9q-12 1 -28 1q-46 0 -126 -6q-47 -3 -81 -3q-48 0 -72 6q-10 0 -12 -2 q-21 -21 -23 -26zM807 502q2 -9 7.5 -18t10.5 -9q37 -2 74 -2l74 2q4 0 9 8.5t7 16.5q1 3 -5 9.5t-11 6.5q0 2 -37 1l-37 -1v2h-74q-6 0 -13 -6.5t-5 -9.5z" />
<glyph unicode="D" horiz-adv-x="1273" d="M-29 1589v43q2 54 26.5 83t78.5 38q86 16 133 16q103 0 159.5 -2t141.5 -15t152 -40q413 -167 466 -622q9 -84 9 -160q0 -126 -25 -230q-74 -314 -317 -514q-116 -95 -293 -118q-33 -5 -57 -9t-42 -6t-57 -6q-187 0 -242 6q-54 6 -79 28t-25 71q-2 284 -14 854 q-2 97 -7.5 291.5t-7.5 291.5zM53 422q4 -2 11.5 -7t13.5 -8.5t10 -3.5q34 2 184 17q6 1 27 22q-26 21 -33 23q-4 2 -37 2h-4q-108 -11 -143 -16q-4 -1 -9 -5.5t-11 -12.5t-9 -11zM72 598q10 -25 20 -25q95 7 160 17q4 1 9 6t10.5 13.5t7.5 11.5q-26 16 -33 18q-4 1 -29 -4 l-2 -2v6q-65 -9 -129 -21q-5 -2 -10 -9.5t-4 -10.5zM94 270q8 -19 21 -26q7 -3 37 2q69 8 96 10q37 3 110.5 8t110.5 8q43 4 258 29q3 0 19.5 -1.5t24.5 3t9 19.5q1 18 -7.5 23t-23 2.5t-18.5 -1.5l-8 4q-35 -3 -108 -8t-111 -8q-50 -4 -271 -29q-38 -4 -122 -16 q-5 -2 -11.5 -9t-5.5 -10zM178 145q-1 -17 11.5 -21.5t33.5 -4.5h74v2q44 3 132 8t132 8q27 3 49 19q11 7 6 30q0 3 -9 6.5t-15 2.5q-200 -27 -334 -27h-18h-13h-4q-14 0 -21 -0.5t-15 -6t-9 -16.5zM358 1296q2 -66 6.5 -196.5t6.5 -196.5l-2 -4q0 -98 2 -147q2 -98 10 -289 q2 -33 10 -38t37 11q124 71 199 127q84 63 116 209q11 49 11 115q0 81 -17 188q-18 115 -123.5 200t-218.5 93q-20 2 -28.5 -4t-8.5 -25v-43zM641 432q-1 -19 11 -25t27 -2.5t26 -1.5l2 -2q11 1 81.5 7t106.5 10q5 0 10.5 6t5.5 10q0 6 -5 15t-9 10q-24 5 -47 5 q-10 0 -19 -1q-39 -2 -122 -10q-6 -1 -20.5 0t-23.5 1t-16.5 -5t-7.5 -17zM778 618q-2 -3 5.5 -9.5t13.5 -6.5q117 -16 178 -20q8 0 18 7.5t13 14.5q5 11 -1.5 19.5t-19.5 9.5q-38 3 -137 16v-2q-5 -1 -23.5 -1.5t-27.5 -2.5q-15 -4 -19 -25z" />
<glyph unicode="E" horiz-adv-x="1161" d="M0 1098v536v62q2 50 19.5 71t66.5 27q105 13 190 16q74 4 482 19q90 4 135 8q11 1 20 1q46 0 70 -20q29 -24 33 -83q3 -48 3 -103q0 -33 -1 -69q-2 -47 -20.5 -71t-63.5 -34q-70 -17 -176 -28q-110 -10 -264 -17q-48 -3 -57 -11t-9 -52q-2 -123 -2 -369q0 -37 9.5 -45.5 t47.5 -7.5q39 1 108 7t93 7q90 8 135 8q44 0 64 -20t22 -64q2 -32 1.5 -64t-1.5 -63q-3 -53 -25.5 -75t-76.5 -25q-53 -2 -160 -6t-160 -6q-42 -1 -49.5 -9t-9.5 -51l-6 -135q0 -37 35 -37q19 0 58 -1t58 -1q40 1 114 2.5t134.5 2.5t114.5 1q72 0 96 -28q18 -21 18 -68 q0 -15 -2 -33q-2 -23 -5 -68t-5 -67q-5 -55 -27 -76.5t-75 -21.5q-88 -1 -264.5 -1t-264.5 -1q-38 0 -81 -1t-95.5 -2.5t-81.5 -2.5q-7 0 -21.5 -1t-21.5 -1q-39 3 -55.5 19t-19.5 54q-16 274 -17 303q-1 0 -1 132v166l1 298zM61 604q2 -2 7.5 -7t9.5 -8t8 -3q0 -2 43 -1 l43 1l4 -4v-7q81 10 146 21q4 1 7.5 4.5t7.5 9t7 8.5q-3 2 -9.5 9t-12 10.5t-9.5 3.5q-62 -2 -196 -10q-27 0 -31 -2q-4 -3 -8.5 -7t-9 -9.5t-7.5 -8.5zM74 266q2 -3 5.5 -10.5t6 -12t6.5 -5.5q41 -9 80 -9q43 2 129 7.5t129 7.5q70 2 209 2h246q55 0 67 2q6 1 27 22 q-2 2 -6 7t-7 8t-7 5.5t-7 2.5q-126 8 -190 8q-35 0 -215 -10l-6 2l-105 1q-104 0 -104 -1q-78 -2 -234 -14q-4 0 -8 -2.5t-8.5 -6t-7.5 -4.5zM74 432q3 -1 9.5 -4.5t11.5 -5.5t9 -2q10 0 21.5 1t25 2.5t21.5 2.5v-2v-6q106 12 154 20q4 0 9 5t5 8q-4 17 -12 22q-8 4 -31 4 q-98 -4 -147 -8q-33 -4 -58 -12q-4 -2 -7 -6t-6 -10t-5 -9zM119 131q3 -2 7.5 -6.5t7.5 -7t7.5 -5t8.5 -3.5q12 -3 51 -3h307v5q35 0 98.5 -0.5t116 -0.5t98.5 1q18 0 86 14q4 1 10.5 9.5t4.5 10.5q-16 21 -25 21q-17 0 -49 -4t-49 -4q-199 -2 -596 -2q-43 0 -51 -2 q-5 -1 -10.5 -4.5t-13 -10t-9.5 -8.5z" />
<glyph unicode="F" horiz-adv-x="1169" d="M29 127q0 127 4 381q2 61 10 178q39 569 41 621q5 87 5 181q0 70 -3 144v17q0 70 22.5 98.5t95.5 28.5h19q0 -2 92 -2h71l163 2h6q96 0 430 14h12q50 0 75 -22q28 -26 28 -85q0 -110 -6 -163t-27 -73.5t-72 -23.5q-235 -18 -460 -30q-27 -2 -40 -11t-16 -34 q-3 -30 -17 -151t-20 -187q-3 -39 5 -47.5t47 -8.5q44 0 132 1t132 1q52 0 65 -4q62 -18 64 -71q1 -15 4.5 -62.5t3.5 -73.5v-5q-1 -56 -21 -76q-22 -20 -83 -23q-104 -2 -302 -10q-49 -3 -58.5 -13t-12.5 -61q-12 -185 -21 -362q0 -51 -2 -60q-9 -63 -73 -69 q-162 -14 -216 -15q-41 -1 -59 17t-18 59zM74 352q3 -3 9.5 -11t12 -13t10.5 -6q81 -11 183 -21q25 0 28 2q14 10 17 27q0 3 -7.5 9.5t-11.5 6.5q-31 3 -90 8t-86 8v3h-26q-6 -1 -13 -3t-14.5 -5.5t-11.5 -4.5zM88 578q2 -3 5 -11t6 -12.5t7 -5.5q36 -8 80 -8q103 0 154 2 q4 0 7.5 3.5t10 12.5t7.5 10q-2 1 -8 6.5t-10 8t-9 2.5q0 2 -56 1l-55 -1l2 6q-77 0 -116 -2q-4 0 -8 -2t-9.5 -5.5t-7.5 -4.5zM90 209q3 -3 7.5 -9t8 -10.5t7.5 -5.5q25 -3 67.5 -7.5t55.5 -6.5l4 -2q12 0 25.5 -1t21 -1t12.5 2q6 3 12.5 8t13.5 12.5t11 10.5 q-4 2 -11.5 6.5t-14 7.5t-11.5 4q-45 6 -139 14q-30 4 -45 0q-4 -1 -8.5 -4.5t-9.5 -9.5t-7 -8zM111 438q0 -2 8.5 -7t13.5 -5q101 -8 154 -10q21 0 53 16q3 1 3.5 11t-1.5 16q0 3 -5 7.5t-9 4.5h-148l6 -4v6q-50 -5 -59 -8q-11 -3 -16 -27z" />
<glyph unicode="G" horiz-adv-x="1505" d="M45 999q31 231 127 383q248 394 696 394q28 0 58 -2q21 -1 47 -6t42.5 -9.5t47.5 -13.5t43 -12q39 -11 39 -64v-10q-2 -34 -6 -101.5t-6 -101.5q-3 -60 -27 -82q-21 -20 -70 -20h-14q-31 2 -92 10t-92 10q-11 1 -22 1q-168 0 -269 -158q-101 -157 -101 -361q0 -59 9 -123 q18 -142 71 -231q32 -52 68 -76q50 -32 102 -32t98.5 33t67.5 87q10 29 -22 35q-9 1 -29.5 2t-30.5 2q-44 3 -66.5 23.5t-25.5 62.5q-3 43 -3 86t3 86q6 80 92 80h6q68 -2 209 -10l2 -4q40 4 62 4q146 -3 289 -9q28 -2 47 -22.5t20 -52.5q3 -49 3 -107q0 -34 -1 -72 q-2 -30 -21.5 -47.5t-54.5 -17.5q-18 0 -30.5 -4.5t-20.5 -14.5t-13 -19t-11 -26q-58 -136 -88 -186q-163 -274 -471 -311q-27 -3 -53 -3q-56 0 -101 15q-307 102 -420 350q-100 219 -100 469q0 86 12 176zM96 582q2 -5 9.5 -10t13.5 -5q35 -2 119 -2h-2q8 1 46 2.5t62 3.5 q4 1 9.5 5.5t11.5 11.5t10 10q-32 16 -37 16q-48 2 -96 2t-95 -2q-21 0 -41 -10q-5 -3 -8 -10.5t-2 -11.5zM184 418q2 -2 6 -7.5t7 -8.5t6 -3q45 -2 135 -2v4q16 0 44.5 -0.5t52 -0.5t44.5 1q4 0 8 3.5t9.5 10.5t7.5 9q-21 21 -27 22q-11 3 -45 3q-32 -2 -95 -6.5t-95 -6.5 q-31 0 -37 -2q-7 -2 -21 -16zM332 252q3 -2 9.5 -6.5t11.5 -7t9 -2.5h105v-7q15 1 84 9t106 10q115 6 349 14h22q5 3 14.5 10.5t14.5 10.5l-9.5 9.5t-12 10.5t-9.5 4q-43 1 -86 1l-86 -1q-75 -4 -224 -13t-224 -13q-5 0 -14.5 1t-17 1t-12.5 -2t-10 -6.5t-11 -12t-9 -10.5z M526 127q3 -2 9.5 -9t12 -10.5t9.5 -3.5h127l-4 -2v-6q107 9 221 21q4 1 9 5.5t10.5 11.5t7.5 9q-2 2 -7.5 7t-10.5 8t-9 4q-6 2 -37 2l-153 -12q-26 -1 -77.5 -1t-76.5 -1q-4 0 -9.5 -3.5t-12 -10.5t-9.5 -9zM911 602q0 -6 7.5 -13t13.5 -7q0 -1 30 -1h38l67 1l4 -2l43 -1 q43 -1 43 1q45 3 92 12q6 2 12 11t5 15t-10 12.5t-15 6.5q-88 -2 -264 -10q-38 0 -45 -2q-6 -2 -13.5 -9.5t-7.5 -13.5zM918 467q0 -15 10 -25q12 -12 24 -12q63 -2 191 -2q14 0 24 10q11 11 11 25q0 3 -6 6.5t-11 3.5h-110v4h-117q-5 0 -10.5 -3.5t-5.5 -6.5z" />
<glyph unicode="H" horiz-adv-x="1460" d="M8 201l6 1413v37q3 43 21.5 64t58.5 22q48 3 93 3q70 0 130 -7q108 -12 111 -134q4 -296 8 -448q1 -53 10 -61t60 -7q61 3 181 9.5t181 9.5q42 2 51 10t9 49q0 108 -4 326q0 31 -2 92t-2 92q0 40 14 57t53 23q145 23 227 25q19 0 37.5 -4t48 -14.5t35.5 -12.5 q16 -6 25 -33q2 -1 2 -85v-48q0 -132 -2 -277t-3 -277t-1 -134l-2 -182q0 -125 5 -282t5 -282v-61q-6 -44 -38 -70q-30 -25 -71 -24h-6q-139 4 -209 10q-69 4 -94.5 32t-25.5 97q0 179 4 535v49q0 35 -37 35h-6q-107 -9 -209 -15q-30 -2 -92.5 -5t-92.5 -5 q-39 -2 -47.5 -9.5t-9.5 -45.5q-2 -72 -2 -215q0 -221 -2 -332q0 -51 -12 -64.5t-62 -21.5h-59h-74l-119 4q-46 0 -63 14.5t-23 59.5q-6 43 -6 88zM59 449q0 -25 39 -25h13q129 8 190 14q26 4 41 19q10 10 6 32q0 3 -8 7t-14 4q-38 -4 -114 -13.5t-114 -13.5q-39 -4 -39 -24 zM68 616q35 -25 45 -26q6 -1 18 -1q20 0 55 3q13 1 40 4t40 4h18.5t18 1t14.5 7.5t7 18.5q0 4 -9 8.5t-20.5 8.5t-13.5 5v2q-136 -12 -170 -16q-8 -1 -25 -9.5t-18 -9.5zM80 152q2 -1 10.5 -8t13.5 -7q35 0 105 4v-2h37h67q15 0 25.5 7.5t7.5 21.5q-1 6 -13.5 12t-21.5 6 q-36 2 -73 2t-74 -2q-33 0 -66 -10q-4 -1 -7 -5t-6 -10t-5 -9zM80 295q0 -14 14 -23q4 -2 25 -2l2 -2q95 14 205 33q5 1 13.5 10t10.5 11q-4 3 -9.5 9.5t-10 10.5t-8.5 4q-3 0 -148 -18q-37 -6 -80 -15q-5 -2 -9.5 -8t-4.5 -10zM987 297q27 -16 31 -16h110h-2q78 0 117 2 q4 0 8 2t9.5 5.5t7.5 4.5q-15 25 -19 29q-6 6 -20 6q-214 -6 -215 -6q-5 0 -9 -3.5t-10.5 -13t-7.5 -10.5zM987 629q2 -3 6 -8.5t7 -9.5t7 -7.5t7 -3.5q56 -6 103 -6q78 0 132 16q6 1 12.5 8.5t4.5 10.5q-3 11 -21 20q-4 2 -28 2l-117 -12l-2 -4v6l-40 1q-40 0 -40 -1 q-4 0 -9.5 -2t-12 -5.5t-9.5 -4.5zM995 461q3 -2 8 -7t9 -8.5t8 -3.5q0 -2 52 -1l52 1v-4v-6q80 9 154 21q3 0 5.5 3t5.5 8t5 7q-2 2 -4.5 5t-4.5 5t-4.5 4t-4.5 2q-168 0 -252 -2q-4 0 -9 -4t-11 -10.5t-9 -9.5zM997 127q3 -3 7.5 -9t8 -9.5t7.5 -4.5q9 -2 59 -2 q115 0 170 4q4 0 9.5 4t12 11t9.5 10q-3 2 -9.5 7t-12 8.5t-9.5 3.5h-110h-117q-4 0 -8 -3.5t-9.5 -10.5t-7.5 -9z" />
<glyph unicode="I" horiz-adv-x="536" d="M39 1675q-1 8 -1 16q0 31 16 57q20 32 57 40q92 16 177 16h27q43 -1 64.5 -22t30.5 -66q6 -27 6 -80q15 -574 33 -1149q2 -52 7 -156.5t7 -156.5v-12q0 -62 -28 -91q-29 -30 -84 -30h-7q-127 0 -162 4q-42 6 -69 36.5t-33 76.5q-15 111 -17 184q-6 207 -14 621 q0 62 -3.5 374.5t-6.5 337.5zM115 508q3 -2 11 -8t11 -6q106 9 217 24q3 0 6 2.5t7 7.5t6 7q-14 14 -21 14h-59l2 -2v6q-84 -9 -160 -21q-4 -1 -7 -5t-7 -10.5t-6 -8.5zM121 647q0 -2 8 -5t14 -3q30 3 203 23q8 0 31 10v2q-5 4 -11.5 9.5t-10 8t-7.5 2.5q-35 3 -67 3 q-84 0 -152 -19q-8 -3 -8 -31zM143 354q3 -1 9.5 -4.5t12 -5.5t9.5 -2q10 1 31 5t31 5q22 3 67.5 8.5t67.5 8.5q3 1 6 4t6.5 7.5t5.5 6.5q-2 1 -6 4.5t-7 5.5t-7 2q0 1 -34 1l-34 -1h4h-51q-44 -6 -92 -18q-4 -1 -7 -5t-7 -12zM174 188q16 -16 19 -16q1 -2 34 -1l33 1h2v-6 q16 3 44.5 7.5t52 8.5t44.5 8q4 1 7 5t6.5 10.5t5.5 9.5q-3 1 -9.5 4.5t-11 5.5t-8.5 2q-43 -2 -129 -10q-48 -4 -74 -8q-3 -1 -8.5 -10t-7.5 -11z" />
<glyph unicode="J" horiz-adv-x="1079" d="M16 584q0 59 26 89t87 42q14 2 43 2q18 1 34 1q65 0 94 -20q37 -25 60 -110q18 -69 54 -137q25 -47 69 -53q7 -1 13 -1q37 0 71 31q54 51 54 143l8 404q-6 109 -18.5 326t-18.5 325q-4 41 0 60q11 61 59 69q128 21 185 21q106 0 122 -113q14 -106 15 -141q2 -68 6.5 -236 t7 -290t2.5 -236q0 -273 -108 -486q-84 -166 -275 -221q-57 -16 -113 -16q-142 0 -278 104q-199 154 -199 443zM78 565q7 -17 21 -20.5t27 0.5t26 -2v2q76 5 81 6q5 0 10.5 5.5t4.5 8.5q-2 6 -7.5 13.5t-9.5 7.5q-38 0 -79 -6q-13 -2 -37.5 -7.5t-36.5 -7.5zM104 428 q0 -5 6.5 -11.5t10.5 -6.5q33 -2 57 -2t39 2t31 6t34.5 9.5t30.5 8.5q-13 16 -30 19t-34.5 -0.5t-23.5 -1.5l-4 -2h-100q-5 0 -11 -7.5t-6 -13.5zM242 266q15 -10 18 -10h154l10 -4q52 3 156.5 9t156.5 9q21 0 29 4q4 2 39 25q-37 16 -43 16q-24 -1 -73.5 -6t-74.5 -6 q-115 -6 -331 -14q-17 0 -23 -4q-5 -2 -11 -10t-7 -9zM378.5 161q-0.5 -3 0.5 -7q11 -15 31 -15q30 1 172 11q14 1 21.5 3t15 8.5t6.5 18.5q0 4 -6.5 8.5t-19.5 9.5t-17 7l-7 2v-12q-30 -2 -92 -6.5t-92 -6.5h-6l-3.5 -10.5t-3 -10.5zM668 430q3 -1 7.5 -4.5t8.5 -5.5t8 -2 q58 4 166 16q3 0 6.5 6t3.5 9t-4.5 7.5t-7.5 4.5q-23 2 -68 2v4v6q-62 -11 -98 -20q-4 -1 -7.5 -4.5t-7.5 -9.5t-7 -9zM709 655q0 -4 4.5 -9t7.5 -5q27 -2 80 -2h-4l4 2h80q5 0 26 16q-3 3 -9 9.5t-11.5 11t-9.5 4.5q-55 -2 -160 -14q-8 -9 -8 -13z" />
<glyph unicode="K" horiz-adv-x="1275" d="M4 797q30 544 49 856q3 55 25 79t76 33q61 12 125 15h11q105 0 105 -111q-1 -116 -4 -349.5t-4 -350.5q0 -2 6 -56q5 4 21.5 15.5t23.5 19.5q299 350 350 740q8 49 21 69q29 42 59 47q82 15 170 15q122 0 131 -129q2 -25 2 -50q0 -126 -53 -276q-131 -378 -387 -625 l-20 -20q-14 -11 -14 -24q0 -14 16 -31q160 -160 227 -418q19 -72 25 -140v-10q0 -65 -74 -71q-49 -5 -117 -5q-73 0 -102.5 24t-46.5 95q-16 68 -54 176q-35 96 -114 181q-20 20 -33 14q-25 -7 -35 -31q-3 -6 -3.5 -14t0.5 -19.5t1 -15.5v-270q0 -45 -2 -68q-6 -59 -34 -84 q-27 -24 -83 -24h-4q-49 0 -139 24q-95 23 -98 129q-2 107 -8 322t-9 327zM51 283q3 -7 10 -13t13 -6q0 -2 40 -1l40 1l2 -6q109 6 110 6q4 0 10.5 7t6.5 12q0 6 -7 13t-12 7q-49 1 -98 1l-98 -1q-4 0 -11.5 -8.5t-5.5 -11.5zM84 145q10 -19 27 -21t30 3.5t25 -0.5l2 4h82 q4 0 7.5 2.5t9 7t7.5 6.5q-2 1 -13 7t-17 6q-18 2 -37 2l-37 -2q-9 -1 -28 1t-33 -0.5t-25 -15.5zM88 621q4 -2 18.5 -9.5t22.5 -9.5h37q57 2 171.5 6t172.5 6q26 0 80 -8q30 -5 35 -4q6 2 12 8.5t6 12.5q0 4 -5.5 11t-10.5 9q-16 4 -52 4h-202l10 2h-166q-73 0 -88 -2 q-6 -1 -12.5 -4.5t-16 -11.5t-12.5 -10zM94 492q6 -17 10 -17h185q3 0 6.5 3t3.5 5q-6 17 -10 17q-15 1 -44 2t-44 2v2q-31 -2 -97 -6q-3 0 -6.5 -3t-3.5 -5zM586 492q-2 -3 5 -11t11 -8h60l-5 -2q42 0 62 2q7 0 12 14q1 1 -0.5 6t-3.5 5q-82 16 -123 20q-4 0 -10 -9t-8 -17 zM717 152q9 -23 22 -23q59 3 103 14q5 1 19.5 -0.5t23 2.5t12.5 19q-10 2 -30.5 7t-30.5 7h-23q-79 -6 -80 -6q-5 -2 -11 -9.5t-5 -10.5z" />
<glyph unicode="L" horiz-adv-x="1071" d="M0 1165l6 6v463q0 51 31 86t82 39q24 2 78.5 6.5t83.5 6.5q9 1 18 1q58 0 90 -29q36 -33 39 -106v-19q0 -58 -4 -233l-12 -774q0 -86 2 -129q1 -35 9 -41.5t44 -3.5q110 8 199 8q118 0 200 -14q58 -9 78 -29t23 -75q2 -34 2 -70q0 -59 -6 -123q-4 -45 -27.5 -67 t-69.5 -25q-244 -12 -362 -16q-20 0 -51 -0.5t-72 0.5t-72 1t-51 -1q-9 0 -111 -11q-11 -1 -20 -1q-27 0 -43 10q-22 14 -29 53q-22 124 -28 235q-4 100 -27 852zM96 608q5 -3 13.5 -7.5t13.5 -7.5t8 -5l2 -2q158 15 166 16q10 0 18 8q6 10 2 23q-5 10 -14 10 q-110 -4 -162 -10q-9 -1 -26.5 -12.5t-20.5 -12.5zM98 471q2 -6 7.5 -13t9.5 -7q94 4 139 10q12 2 80 22q-10 16 -26 19t-30.5 0t-31.5 4h-4q-69 -10 -133 -21q-3 0 -7.5 -5.5t-3.5 -8.5zM121 307q2 -1 9.5 -6.5t12.5 -5.5q27 -2 74 -2h4q65 0 180.5 6.5t135.5 7.5 q12 0 30.5 0.5t43.5 -0.5t43 -1t30 1q63 2 160 17q6 2 13 10t7 14q0 25 -30 14q-21 -6 -43 -6q-85 -3 -255 -8t-255 -8q-25 -1 -142 -16q-3 0 -6 -2.5t-6.5 -7.5t-5.5 -7zM143 166q1 -1 7.5 -8t10.5 -10.5t9 -4.5q0 -1 40 -1l40 1v2v-5q140 17 153 16q71 3 212 8t212 8 q6 1 18 -0.5t20 -1.5t16.5 5.5t13.5 17.5q-8 1 -21.5 4.5t-25 5.5t-21.5 2q-91 -2 -273 -7.5t-273 -7.5q-74 0 -111 -4q-7 0 -27 -20z" />
<glyph unicode="M" horiz-adv-x="1806" d="M0 1231h6l-4 -4v399q0 51 20 76.5t68 32.5q101 15 197 24q7 1 14 1q65 0 98 -54q123 -195 195 -299q45 -67 174 -242q26 -35 36 -35t36 35q62 85 185.5 255t186.5 255q6 9 18.5 28t18.5 28q49 67 126 67h7q121 -3 238 -18q80 -9 80 -99v-17q0 -55 -4 -222q0 -12 -2 -37 t-2 -37q-20 -877 -23 -1057q0 -25 1 -76.5t1 -76.5q0 -51 -14 -69.5t-64 -27.5q-75 -14 -160 -14h-30q-32 1 -53 24.5t-29 59.5q-11 49 -14 111q-35 522 -41 628q-3 41 -4 87t-1 102.5t-1 87.5q0 4 -1 9t-3 10t-3 8q-18 -9 -24 -15q-21 -23 -62 -68.5t-61 -68.5 q-164 -180 -246 -268q-47 -51 -88 -52h-2q-40 0 -92 48q-24 23 -49 49.5t-56 61.5t-47 52q-47 54 -92 101q-1 -15 -2.5 -42.5t-2.5 -50t-1 -42.5q2 -168 10 -504q3 -79 3 -132q0 -26 -1 -46q-2 -47 -27.5 -79t-68.5 -36q-11 -1 -31 -1q-50 0 -159 7q-72 5 -82 90 q-2 22 -13.5 106t-13.5 130q-24 401 -45 817zM88 477q28 -23 31 -24q4 -2 9 -2t12 1t10 1v-2q110 8 165 14q4 0 7.5 2t8 5.5t7.5 4.5q-2 2 -7.5 9t-9.5 10.5t-8 3.5q-64 0 -196 -4q-4 0 -9 -3.5t-10.5 -8.5t-9.5 -7zM106 623q3 -1 8 -4.5t9 -6t8 -2.5q31 2 203 17 q3 0 7.5 5.5t4.5 8.5q0 4 -3.5 9t-6.5 5q-27 2 -80 2h-4v7q-102 -15 -123 -19q-4 -1 -7.5 -4.5t-8 -9t-7.5 -8.5zM119 322q5 -15 10 -15q14 -4 39 -4l2 -2q129 15 149 18q5 1 10.5 5.5t13 13t9.5 10.5q-4 2 -11.5 7t-14 8t-11.5 2q-27 -4 -165 -29q-4 -1 -12 -2t-11 -2 q-8 -4 -8 -10zM145 170l21 -16v2q57 2 143 6q19 0 23 4q13 13 10 22q-2 4 -9 9.5t-11 5.5q-63 -3 -148 -13q-6 -1 -16 -9.5t-13 -10.5zM1368 492q0 -4 4.5 -9.5t7.5 -5.5q29 -2 86 -2l9 4v-6q85 6 86 6q5 0 10.5 7.5t5.5 13.5q0 4 -5.5 12t-8.5 8q-94 -3 -185 -12 q-3 0 -6.5 -5.5t-3.5 -10.5zM1368 645q23 -17 27 -18h67l-2 4l43 -1q43 0 43 1q11 0 21 24q1 1 -2.5 5t-8.5 8t-8 4q-106 0 -159 -2q-4 0 -7.5 -4t-7.5 -11.5t-6 -9.5zM1401 188q4 -16 14.5 -19t22 0t22.5 -1q88 9 174 18q4 0 9.5 8t5.5 13q0 4 -7 10t-12 6 q-119 -4 -174 -10q-14 -1 -34.5 -11.5t-20.5 -13.5zM1425 342q3 -2 9.5 -7t11 -8t8.5 -3q50 2 148 14q3 0 7.5 4.5t4.5 7.5t-3.5 9t-6.5 6q-25 2 -74 2l-2 2q-62 0 -74 -2q-4 -1 -9 -5t-10.5 -10.5t-9.5 -9.5z" />
<glyph unicode="N" horiz-adv-x="1300" d="M20 1655q0 70 28 100.5t99 38.5h25q26 1 47 1q51 -1 79 -7q40 -10 66 -39.5t62 -108.5q225 -487 334 -718q5 -13 12.5 -26.5t19 -31t15.5 -24.5q1 11 4.5 42.5t3.5 49.5v350l-12 395q0 76 47 113q26 20 132 26q26 1 47 1q66 0 87 -13q38 -22 41 -73q12 -140 12 -142 q30 -870 35 -1052q3 -90 3 -181t-3 -182q-2 -59 -21 -81.5t-77 -31.5q-53 -9 -213 -18h-6q-49 0 -78 51q-53 87 -88 156q-88 166 -260 498q-3 5 -8.5 16t-8.5 16q-2 5 -16 23q-6 -24 -6 -25q0 -34 4 -104q25 -436 29 -529v-14q1 -46 -17 -68q-20 -25 -78 -32 q-111 -12 -221 -15q-42 0 -56.5 17t-16.5 61q-5 127 -17.5 381t-17.5 381q-3 66 -8 393q-3 203 -3 406zM80 457q0 -5 3.5 -11t6.5 -6q23 -2 68 -2h-4v6v-6q64 9 129 21q4 1 8 4t8.5 7.5t7.5 6.5q-3 1 -7.5 4.5t-8.5 5.5t-8 2q-63 -4 -197 -16q-6 -10 -6 -16zM84 598l18 -12 h2q97 18 158 32q3 1 9 9t8 10q-21 11 -23 10q-35 -5 -156 -29q-3 -1 -8.5 -9.5t-7.5 -10.5zM111 297l24 -16l2 4q29 2 94 6.5t97 7.5q4 1 9.5 5t11.5 10.5t9 9.5q-2 1 -15.5 10.5t-20.5 9.5q-18 -1 -50.5 -7t-42.5 -7q-9 -1 -25 -1t-29 -1t-25 -4q-6 -1 -12 -4.5t-16 -13 t-11 -9.5zM123 160q10 -2 30.5 -6.5t30.5 -6.5q3 -1 6.5 -1t8.5 0.5t8 0.5v-2v-6q118 19 145 25q3 1 5.5 4.5t6 9t5.5 8.5q-3 1 -8 4.5t-9 6t-8 2.5q-68 -5 -160 -19q-6 -1 -21.5 1.5t-25.5 -1t-14 -20.5zM610 637q16 -16 19 -16q67 -3 135 -3q56 3 168.5 9.5t169.5 9.5h20 t22.5 0.5t14.5 7.5t6 21q-1 19 -23.5 21t-39.5 -3q-38 -2 -114 -7t-114 -7q-41 -3 -122.5 -8.5t-122.5 -8.5q-3 0 -19 -16zM666 508q2 -2 4.5 -5t4.5 -5t4.5 -4t4.5 -2q53 -3 104 -3l3 -2q50 3 150.5 8.5t150.5 8.5q25 2 71 18q6 3 6 19q0 2 -3.5 5t-6.5 3q-30 3 -50 3 q-10 0 -17 -1q-168 -8 -252 -14q-30 -2 -160 -17q-3 0 -5 -2t-5 -5.5t-4 -4.5zM756 365q2 -2 5.5 -7t6.5 -7.5t6 -2.5q0 -2 43 -1l43 1l4 -8q45 3 135.5 9t135.5 9q10 0 12 2q4 4 7.5 8.5t7 10t5.5 8.5q-2 2 -8 7.5t-10 8.5t-8 3q-16 -1 -46.5 -6.5t-45.5 -6.5 q-14 0 -34 -0.5t-47.5 0.5t-47.5 1t-33 -1q-20 -1 -117 -16q-3 0 -5 -2t-5 -5.5t-4 -4.5zM836 193l16 -21l2 4q90 2 242 6q26 0 30 2t8.5 5.5t9.5 9.5t7 8q-3 2 -9.5 7t-12 8t-9.5 3q-15 0 -42 -4.5t-38 -5.5q-28 -1 -85.5 -2t-86.5 -2q-5 0 -10.5 -3t-12 -8t-9.5 -7z" />
<glyph unicode="O" horiz-adv-x="1372" d="M16 879q17 368 138 604q51 102 129 196q102 122 274 144q82 11 141 11q47 0 80 -7q360 -77 455 -428q46 -169 46 -340q0 -58 -5 -117q-27 -275 -68 -416q-51 -184 -166 -319q-147 -177 -360 -197q-24 -2 -48 -2q-129 0 -245 68q-250 148 -319 461q-9 39 -16.5 86 t-11.5 79.5t-10.5 89t-9.5 82.5zM115 616q0 -4 8.5 -8t23.5 -8.5t21 -7.5v-2v6q145 8 221 14q11 2 24.5 11t14.5 16q1 9 -3.5 13.5t-9 5t-14 1t-12.5 0.5h-24q-33 -2 -98.5 -6t-98.5 -6q-3 0 -17 -0.5t-19 -1.5t-11 -8t-6 -19zM166 434l24 -24l-4 2q88 10 95 10q27 3 82 8 t83 8q14 2 20.5 9.5t2.5 19.5q-1 6 -10 11t-15 5q-15 -1 -43 -5t-43 -5q-27 -3 -82 -8t-83 -8q-5 -1 -9 -4.5t-10.5 -10.5t-7.5 -8zM299 266q29 -12 31 -12h30v2q12 1 37 3t37 3q40 4 120 12.5t120 12.5q49 5 147.5 15t147.5 15q14 2 35 15q10 9 6 20q-3 5 -17 10 q-9 3 -22 3q-44 -5 -132 -16.5t-132 -16.5t-132.5 -14.5t-132.5 -14.5q-75 -8 -116 -14q-5 -1 -9 -4.5t-10.5 -10.5t-7.5 -8zM483 139q35 -12 37 -12h37l2 10v-6q94 11 197 27q34 4 49 8q10 5 10 14q0 8 -14 13q-10 2 -31 2q-26 -3 -79.5 -9.5t-80.5 -9.5q-65 -8 -94 -14 q-5 -1 -10.5 -4.5t-13 -10t-9.5 -8.5zM512 723q26 -142 90 -242q31 -49 73 -52h5q39 0 74 40q31 39 49 82q76 184 76 388v30h4l1 55q2 55 -1 55q-15 155 -90 230q-40 39 -99.5 39t-95.5 -39q-51 -53 -78 -140q-31 -102 -31 -223q0 -104 23 -223zM860 461q25 -20 29 -23l2 2 q102 15 147 25q4 1 21 24q-3 1 -8 4.5t-9 6t-8 2.5q-87 -7 -145 -17q-4 -1 -9 -5t-11 -10zM905 623q8 -15 22.5 -18.5t28.5 -1t31 -3.5l6 -4q88 17 101 20q3 1 14 23q-15 10 -18 10q-74 0 -111 -4q-10 -2 -74 -22z" />
<glyph unicode="P" horiz-adv-x="1144" d="M-4 924l10 751q0 42 32.5 75t82.5 40q105 17 201 17q212 0 376 -85q295 -153 322 -481q3 -35 3 -68q0 -296 -204 -540q-69 -82 -161.5 -133.5t-211.5 -85.5q-63 -19 -73.5 -33t-10.5 -80v-166q-1 -51 -25 -73.5t-75 -24.5q-34 -2 -68 -1.5t-67 1.5q-57 3 -87 30.5 t-34 82.5q-8 107 -8 239q-2 178 -2 535zM72 303q21 -16 26 -16q89 4 131 12q5 1 21 -1t26.5 3t14.5 21q-12 2 -34.5 6t-33.5 6h-6v6q-59 -9 -117 -21q-2 0 -28 -16zM76 479q4 -16 16 -22q8 -4 29 -4q121 8 176 14q25 2 80 14q3 2 6 9t2 10q-7 11 -20 14h-29v6v-6 q-38 -2 -113.5 -6t-113.5 -6q-12 0 -21 -6q-15 -10 -12 -17zM80 618q2 -2 7.5 -6.5t9 -7t7.5 -2.5h117v-2l228 18q37 3 110.5 8.5t110.5 8.5q8 0 17 8.5t9 15.5q1 13 -8.5 15.5t-21.5 -0.5q-20 -2 -106.5 -12t-133.5 -13q-96 -6 -309 -14h-15q-5 -2 -12.5 -9t-9.5 -8z M102 158q0 -3 5 -8t8 -5q25 -2 73 -2h-4l2 -3h68q4 1 7.5 4t7.5 9t7 9q-2 2 -7.5 8.5t-9 10t-7.5 3.5q-47 -2 -141 -14q-9 -8 -9 -12zM362 995h7q0 -127 2 -190q0 -29 7.5 -34.5t35.5 3.5q67 23 120 74.5t78.5 116.5t27.5 138q0 5 1 10q0 67 -31 128q-53 112 -184 131 q-26 5 -35 -2t-10 -35q-6 -115 -14 -338z" />
<glyph unicode="Q" horiz-adv-x="1607" d="M84 1313q41 188 162 329q122 142 312 142h15q180 -7 301 -70q287 -148 349 -463q22 -101 31 -193q7 -66 7 -125q0 -25 -1 -49q-4 -82 -9 -131t-18.5 -122t-15.5 -88q-3 -15 -3 -28q0 -41 23 -66q81 -97 186 -232q52 -68 76 -108q19 -35 19 -62q0 -19 -9 -35 q-22 -37 -88 -37q-81 0 -127 9q-38 8 -77 39q-31 24 -97 90q-21 21 -28 27.5t-18 6.5t-17.5 -6.5t-24.5 -27.5q-128 -149 -310 -149q-50 0 -104 11q-163 34 -303 181q-141 151 -213 428q-51 205 -51 406q0 163 33 323zM154 573q0 -3 6 -8.5t10 -5.5q35 -2 104 -2l-6 2h86 q5 0 21 16q-15 15 -19 15q-53 6 -166 14q-15 0 -26 -8q-10 -7 -10 -23zM283 317q1 -1 5.5 -6.5t7.5 -7.5t7 -2q54 -1 107.5 -1t107.5 1q3 0 19 16q-2 2 -7.5 9t-9.5 10.5t-8 3.5q-16 0 -33 -1t-38 -2.5t-33 -2.5h4h-105q-4 0 -7.5 -2.5t-9 -7.5t-7.5 -7zM463 129 q1 -4 9.5 -8t14.5 -4q57 2 166 10h2l7 -4v-6q164 12 251 20q5 0 9 2.5t10 8t8 6.5q-5 2 -14.5 7t-14.5 7h-61q-3 0 -11 -1t-12 -1h-36t-34 0.5t-27.5 1t-19.5 0.5h-8q-32 -1 -68 -3t-79.5 -5t-67.5 -4q-32 -4 -24 -27zM471 1042q9 -259 82 -481q20 -64 80 -166 q37 -63 72 -63q6 0 12 2q12 4 21.5 14t24 36.5t15.5 27.5q14 20 14 39q0 27 -26 53q-14 14 -43 47.5t-47 50.5q-42 39 -42 79q0 29 21 58q47 67 109 129q9 9 28.5 14t32.5 1q21 -6 31 -1t10 17v27v39h4q-9 109 -28 191.5t-64 156.5q-47 77 -119 108q-36 16 -64 16 q-16 0 -29 -6q-36 -15 -56 -75q-40 -116 -40 -267q0 -23 1 -47zM743 328q1 -2 4 -7.5t5.5 -9t5.5 -4.5q63 -12 92 -14h141l2 -6q119 0 178 2q4 0 31 16q-2 2 -6 5.5t-6.5 6t-6.5 4.5t-7 3q-8 2 -52 2q-149 8 -221 10q-47 2 -141 2q-4 0 -19 -10zM819 571q-9 -17 24 -25 q23 -5 62 -5l-2 4q132 12 152 14q4 0 7 2t7 5.5t6 4.5q-2 2 -7.5 7t-9 7.5t-7.5 2.5q-69 3 -114 3q-23 0 -40 -1q-6 0 -26.5 2.5t-32.5 -1.5t-19 -20zM881 442q5 -18 16 -18q0 -2 43 -1l43 1v-2q65 0 98 2q4 0 19 10q-2 2 -6 7t-7 7.5t-6 2.5q-98 12 -147 16q-15 0 -43 -8 q-4 -1 -8 -7.5t-2 -9.5zM1190 156q0 -3 5 -8t9 -5q25 -3 45.5 -1.5t45.5 -2t44 -14.5q4 -3 13 0t14 8q12 12 16 31q0 2 -8.5 7t-13.5 5q0 2 -37 1l-37 -1l-4 -4q-53 0 -80 -2q-3 0 -7.5 -5.5t-4.5 -8.5z" />
<glyph unicode="R" horiz-adv-x="1212" d="M-61 956v664q0 77 32.5 111.5t108.5 37.5q37 2 104 6t110 6t102 2t108 -5q119 -12 235 -62q141 -62 209 -211q68 -150 69 -301q0 -136 -56 -274q-69 -175 -242 -273q-23 -13 -27 -27t10 -36q39 -61 109 -176t90 -146q13 -21 50.5 -79.5t56.5 -90.5q19 -34 19 -60 q0 -16 -7 -28q-18 -34 -78 -39q-20 -1 -82 -4t-96 -6q-9 -1 -18 -1q-69 0 -117 71q-146 227 -211 323q-6 8 -16 29.5t-21.5 35t-28.5 19.5q0 -69 -2 -104q-4 -172 -10 -258q-3 -45 -23.5 -66t-64.5 -24q-18 -1 -36 -1q-100 0 -193 42q-63 29 -66 108q-3 58 -10.5 406 t-7.5 411zM33 430q2 -2 7.5 -6.5t9 -7t7.5 -2.5q55 2 160 10q7 1 20 7t17 7q-4 3 -16 14.5t-19 16.5q-4 2 -9 2t-14 -1t-16 -1v2q-94 -10 -127 -16q-4 -1 -7 -5t-7 -11t-6 -9zM39 606q1 -7 3 -11.5t7.5 -6.5t8 -2.5t11 0t9.5 0.5h37q75 2 224 6t224 6q6 0 8 2q5 4 15.5 12.5 t15.5 12.5q-26 21 -33 22q-12 2 -30.5 2t-42.5 -2l-240 -18l-4 -2v6h-178q-11 0 -17 -1t-12.5 -7.5t-5.5 -18.5zM41 291q2 -1 7.5 -6t8.5 -6l21 -3h-4q125 12 170 17q4 1 8.5 5t10 10.5t7.5 8.5q-4 2 -16 11.5t-18 9.5q-41 -2 -123 -14q-16 -2 -56 -15q-3 -1 -8.5 -8.5 t-7.5 -9.5zM51 166q3 -3 7.5 -9t8 -10t7.5 -4q0 -1 40 -1l40 1h-4h79q6 0 13 7.5t10 15.5q2 3 -5 10.5t-11 7.5q-42 2 -83 2l-83 -2q-3 0 -6 -3t-7 -8t-6 -7zM328 1227h6v-105q1 -58 13 -68q6 -5 21 -5q17 0 46 6q32 5 71 22q73 37 73 105q0 8 -1 16q-6 64 -33 119 q-37 75 -125 75q-11 0 -22 -1q-24 -2 -34 -11t-9 -32q2 0 1 -58l-1 -59zM496 438q41 -14 51 -18h-4q17 3 45 7t49.5 7.5t40.5 7.5q3 0 6.5 6t3.5 11q0 3 -4.5 7.5t-7.5 4.5q-86 -8 -129 -14q-8 -1 -16.5 -4t-19 -8t-15.5 -7zM588 295q3 -2 7 -6.5t7.5 -7t7.5 -2.5h99l-4 -5 q57 0 86 2q4 0 8 2.5t8.5 6t7.5 4.5q-23 17 -27 18q-64 9 -122 15q-30 3 -58 -3q-4 -1 -7 -5t-7 -10.5t-6 -8.5zM698 143q18 -12 21 -12q29 -2 86 -2l37 -1q37 0 37 1q21 0 41 10q3 2 5 6t4 10l3 9q-2 1 -11 4.5t-14 3.5q-15 -1 -45.5 -4t-46.5 -4t-49 -2t-49 -2 q-3 0 -6 -2.5t-7 -7.5t-6 -7z" />
<glyph unicode="S" horiz-adv-x="1531" d="M44 605q16 29 50 32q127 13 289 20h6q69 0 94 -73q20 -57 23 -70q14 -61 45 -99.5t73 -52.5q34 -11 72 -11q8 0 16 1q46 3 99 21q81 28 131 125q18 35 18 68q0 24 -10 46q-22 54 -86 74q-18 4 -37.5 6.5t-47 4.5t-38.5 3q-28 3 -83.5 8t-99 10t-81.5 13 q-153 33 -254.5 146t-126.5 270q-10 61 -10 118q0 163 84 294q150 228 412 311q81 26 170 25q123 0 264 -48q76 -27 186 -88q158 -86 197 -307q8 -46 11.5 -70.5t3 -63t-8.5 -71.5q-11 -42 -32.5 -63t-61.5 -25q-93 -8 -142 -10h-3q-40 -1 -68 23q-29 24 -37 67 q-19 92 -39 172q-4 19 -21 62q-43 96 -119 123q-27 9 -55 9q-53 0 -112 -32q-187 -103 -193 -297v-10q0 -70 40 -120q42 -53 118 -65q36 -6 75.5 -9.5t92 -6t76.5 -4.5q16 -1 41 -1q29 0 71 2q29 1 52 1q39 0 61 -4q133 -17 190 -158q43 -103 49 -213q1 -21 1 -42 q0 -87 -22 -168q-27 -101 -92 -191.5t-161 -153.5q-199 -131 -412 -131q-113 0 -231 37q-262 81 -371 385q-4 10 -13 40t-18 49.5t-22 37.5q-19 25 -3 54zM123 539q4 -2 11.5 -7t13.5 -8.5t10 -3.5q59 2 172 10q8 1 24.5 2.5t24.5 2.5q3 0 5 2t5 5.5t4 4.5q-2 2 -4.5 5 t-4.5 5t-4.5 4t-4.5 2q-37 2 -111 2l4 -4h-116q-4 0 -9 -3.5t-11 -9.5zM172 385q2 -1 5.5 -4.5t6.5 -5.5t6 -2q37 -2 111 -2h-4h104q5 0 25 20q-22 22 -27 25q-2 1 -9.5 -0.5t-10.5 -1.5q-90 -10 -103 -11q-14 -1 -42.5 -1t-43.5 -1q-3 0 -5.5 -2.5t-6.5 -7t-6 -6.5z M299 264q0 -4 4.5 -9t7.5 -5q23 -2 68 -2l-2 4v-6q78 4 117 8q5 0 30 10q-3 3 -8 11.5t-8.5 13t-7.5 4.5q-66 -2 -191 -14q-3 0 -6.5 -6t-3.5 -9zM449 145q7 -15 20 -18t25 0t26 -2l2 2q13 1 37 3t37 3q18 2 88.5 12t108.5 13q17 2 90.5 6t113.5 10q11 0 13 2q14 14 12 21 q-2 6 -8 12t-10 6q-8 0 -22.5 -4.5t-20.5 -5.5q-39 -3 -117 -8.5t-117 -8.5q-140 -12 -213 -20q-10 -1 -20.5 -4.5t-23.5 -9.5t-21 -9zM913 332q3 -14 11 -18.5t25 -3.5t20 1h12h6v-6q77 9 148 21q6 8 6 14q0 3 -5 8.5t-8 5.5q-140 0 -167 -2q-11 0 -29.5 -8.5t-18.5 -11.5z M1014 434q32 -16 37 -16q17 0 46.5 3.5t39.5 4.5q14 1 40.5 1t39.5 1q8 8 8 14q0 3 -5 8t-8 5q-29 2 -86 2h4l-2 6q-74 0 -88 -2q-4 -1 -8.5 -5.5t-9.5 -11.5t-8 -10zM1051 596q3 -2 7.5 -7t8.5 -8t8 -3h2h185h8l18 18q-15 10 -18 10h-99h-2l5 -2v6q-66 0 -99 -2q-4 0 -8 -2 t-8.5 -5.5t-7.5 -4.5z" />
<glyph unicode="T" horiz-adv-x="1376" d="M-12 1694q0 74 80 80q23 2 68 3t59 1l897 24q10 0 28 0.5t32.5 0.5t27.5 -1q38 -5 60 -25.5t22 -54.5q0 -59 -13 -215q-6 -60 -71 -73q-63 -13 -86 -13h-277q-40 0 -47.5 -7.5t-7.5 -45.5q5 -482 10 -620q4 -116 16.5 -329.5t16.5 -291.5q2 -17 1.5 -34t-1.5 -34 q-10 -67 -72 -73q-114 -15 -184 -15q-47 0 -71 22.5t-32 72.5q-6 38 -10 110q-18 388 -33 787q-1 0 -1 65l1 64l2 -11q0 189 -2 283q0 36 -7.5 43.5t-43.5 5.5q-177 -6 -178 -6q-26 0 -80 12q-81 19 -90 97q-14 103 -14 178zM479 578q2 -2 6 -7.5t7 -8.5t6 -3h80l2 2v-6 l36 -1q36 0 37 1q10 0 19 18q2 3 -2 9.5t-8 7.5q-20 8 -35 8q-82 0 -123 -2q-4 0 -8 -3t-9.5 -8t-7.5 -7zM498 428q15 -10 18 -10q29 -2 86 -2h-2h68q31 0 43 6q4 2 7 6.5t6 12t5 10.5q-3 1 -7.5 4.5t-8.5 5.5t-8 2q-38 1 -77 1l-77 -1q-17 0 -41 -12q-3 -2 -5 -5.5t-4 -9 t-3 -8.5zM512 143q0 -2 6 -7t10 -5q25 -2 74 -2l-6 -2q93 6 96 6q4 0 7.5 3t7.5 8.5t6 7.5q-2 2 -7.5 8.5t-9.5 10t-8 3.5q-55 -2 -160 -10q-6 0 -16 -21zM516 295q21 -16 25 -16q90 0 133 6q3 0 12 0.5t13 1t11.5 3.5t7.5 9.5t-1 17.5q-1 3 -51 9h-25v4q-82 -9 -102 -13 q-4 -1 -7.5 -4.5t-8 -9t-7.5 -8.5z" />
<glyph unicode="U" horiz-adv-x="1247" d="M-33 1649v9q0 58 37 89q40 31 64 33q84 11 190 14h4q44 0 66 -20q23 -20 26 -66q2 0 1 -52l-1 -52q1 -58 2.5 -213t4.5 -265t8 -213q6 -126 57 -395q11 -60 55 -129q35 -55 75 -55v0q40 0 77 51q69 95 76 254q5 123 10 261t11 306.5t9 261.5t13 222q9 88 92 96 q53 6 164 6q61 0 77 -57q19 -70 19 -115v-455l-2 6l1 -193v-108q0 -86 -1 -86q-4 -237 -43 -389q-52 -189 -187 -313q-118 -107 -290 -107q-61 0 -162 19q-207 45 -305 248q-69 140 -88 319q-34 329 -47 578q-4 76 -6.5 159.5t-4 190.5t-2.5 160zM152 504q8 -14 19.5 -17 t27.5 -1t24 1h31h-6h67q4 1 9 4t10.5 8t7.5 7q-2 2 -7.5 9t-10.5 11t-9 4q-32 4 -59 4q-19 0 -35 -2q-11 -2 -22 -6.5t-26 -11.5t-21 -10zM203 334q20 -20 24 -23h15q26 2 73 6.5t66 6.5q22 4 29 8q0 2 3 8.5t3 9.5q0 4 -4 9.5t-9 7.5l-13 3q1 0 3 -1h6h-4l-60 -5t-61.5 -5 t-48.5 -5q-4 0 -7 -3t-8 -9t-7 -8zM266 143q1 -6 8.5 -12t12.5 -6q22 2 65 7t64 7q38 4 113.5 12.5t113.5 12.5q126 13 174 20q15 2 55 15q9 5 9 10q-5 14 -11 14h-36v8q-29 0 -43 -2q-160 -16 -240 -26q-30 -4 -92 -12.5t-92 -12.5q-84 -12 -86 -12q-5 -2 -10.5 -10.5 t-4.5 -12.5zM709 309q3 -1 9.5 -4.5t11.5 -5.5t9 -2q73 3 140 12q6 1 73 17q2 0 15 14q-14 14 -21 16h-45h-4q-52 0 -166 -16q-4 -1 -7.5 -6.5t-7.5 -13t-7 -11.5zM760 592l18 -10h-6q20 1 76 4.5t84 5.5q34 4 110 16q4 1 7.5 4t8 8.5t5.5 6.5q-2 2 -7.5 8.5t-9.5 10t-8 3.5 q-72 -3 -139 -12q-78 -8 -115 -16q-4 -1 -8 -5.5t-8.5 -12.5t-7.5 -11zM766 453q3 -1 8 -4.5t9 -6t8 -2.5q33 -2 98 -2l-2 4q73 0 110 2q3 0 8 5t5 8q0 4 -4 10t-7 6q-143 0 -215 -2q-3 0 -6 -3t-6.5 -8t-5.5 -7z" />
<glyph unicode="V" horiz-adv-x="1433" d="M-4 1686v7q0 32 17 55q19 26 53 30q44 5 180 24l-4 -6h7q69 0 101 -19q32 -20 53 -79q167 -480 297 -860q3 -9 7 -19.5t9.5 -23t8.5 -19.5q12 40 16 60q19 109 57 328t58 329q6 37 20 106.5t17 83.5q18 84 102 93q31 3 65.5 7t75.5 9t66 8q22 3 43 0q41 -6 57 -31 q11 -16 10 -39q0 -12 -3 -26q-16 -66 -78 -323t-94 -396q-33 -140 -97.5 -420.5t-97.5 -421.5q-1 -5 -6 -29t-10 -36q-22 -45 -66 -60q-18 -6 -36 -6q-27 0 -54 13q-68 32 -106 106q-359 711 -572 1268q-1 3 -86 237q-10 27 -10 50zM532 633q2 -2 6 -7t7 -7.5t6 -2.5 q63 -2 190 -2l-2 2l-8 2h57h25h33.5t32 -0.5t26 -1t18.5 -0.5h7q4 0 9.5 4t12 11t9.5 10q-21 15 -27 18t-29 3h-272q-14 0 -86 -15q-3 -1 -5.5 -3.5t-5.5 -6t-4 -4.5zM594 502q3 -1 7.5 -4.5t8.5 -6t8 -2.5q49 -2 148 -2l2 -4h147q4 0 8 3.5t9.5 10.5t7.5 9q-3 3 -10 12 t-12 12q-3 2 -23 2q-191 -8 -283 -14q-3 0 -5.5 -2.5t-6.5 -7t-6 -6.5zM651 383q18 -12 21 -12q31 -2 96 -2h2h80q7 1 20 7t17 7q-4 3 -11.5 9.5t-14 11t-11.5 4.5q-79 0 -182 -7q-3 0 -5.5 -3t-6 -8t-5.5 -7z" />
<glyph unicode="W" horiz-adv-x="2072" d="M4 1606q-7 26 -7 47q1 31 15 53q24 38 88 45q75 10 136 10q60 0 89 -21.5t46 -78.5q10 -34 70 -246t94 -323q30 -97 89 -275t72 -219q1 -4 3 -8t5.5 -9t4.5 -8q2 2 8 7t10 9.5t6 8.5q70 169 115 283q59 144 86 229q26 83 125 100q27 5 54 5q77 0 147 -39q28 -15 53 -66 q22 -46 60 -131t50 -111q1 -2 19 -20q1 3 4.5 7.5t5.5 8.5t2 8q6 58 16.5 174t16.5 173q8 70 59 479q6 47 33 76.5t72 33.5q10 1 46 5.5t52 5t44.5 0.5t51.5 -6t45 -17q41 -21 51.5 -38.5t4.5 -59.5q-5 -45 -17.5 -135.5t-17.5 -135.5q-7 -61 -19.5 -184t-19.5 -184 q-38 -323 -78 -645q-6 -48 -19.5 -143.5t-19.5 -143.5q-9 -68 -30.5 -90t-88.5 -29l-123 -28q-17 -2 -33 -2q-122 0 -173 135q-34 94 -103.5 268.5t-81.5 206.5q-4 10 -16 30q-1 -2 -9 -13t-10 -17q-33 -84 -98 -252t-98 -252q-23 -58 -39 -68t-82 -10h-172q-45 0 -66 16.5 t-40 67.5q-18 50 -53 144.5t-62 170.5t-49 146q-87 273 -297 969q-4 15 -13.5 43.5t-13.5 42.5zM401 586q3 -1 9.5 -4.5t12 -6t9.5 -2.5q24 -2 47 -2l47 2q5 0 25 -1.5t29.5 2t9.5 16.5q-1 12 -8 16.5t-17 3t-21 -2t-20 0.5h-22l-2 -6l-37 1q-37 1 -37 -1q-4 0 -25 -16z M434 438q26 -21 29 -22q4 -2 9 -2t12 1t10 1q15 1 42.5 2.5t50 2.5t42.5 1q53 -1 159.5 -4t159.5 -4q4 0 10.5 5t6.5 7q0 21 -11 25q-21 8 -49 8h-209h2h-98q-94 0 -141 -2q-4 0 -8 -3.5t-9 -8.5t-8 -7zM545 256q0 -13 8 -17t18 -2.5t19 -0.5q3 -1 6.5 -1t8 0.5t7.5 0.5v-3 v7q26 1 73.5 3t86.5 4t74 5q7 1 49 22l-15 9t-18.5 10t-15.5 6q-12 3 -51 -2q-24 -2 -70.5 -6t-69.5 -6q-9 -1 -33.5 -0.5t-31.5 -1.5q-13 -3 -29 -12t-16 -15zM588 141q0 -3 4.5 -7.5t7.5 -4.5q37 -2 111 -2v4q69 0 104 2q4 0 7.5 2t8 5.5t7.5 4.5q-2 2 -5.5 7t-6.5 8t-7 4 q-31 12 -65 14h-16q-28 0 -65 -4q-47 -5 -65 -6q-9 0 -12 -6q-8 -12 -8 -21zM780 582q33 -22 35 -23q3 -1 6.5 -1t8.5 0.5t8 0.5q33 2 98 6t98 6q4 0 8 2.5t9 6t8 4.5q-2 2 -7.5 7t-9.5 8t-8 3h-110l-2 2l-56 1q-55 1 -55 -1q-4 0 -9.5 -3.5t-12 -10t-9.5 -8.5zM1266 590 q3 -1 7.5 -4.5t8.5 -5.5t8 -2q206 -3 412 -3q4 0 8 2.5t8.5 6t7.5 4.5q-3 2 -7.5 7t-8.5 8t-8 3q-66 2 -197 2h-6q-139 0 -209 -2q-4 0 -7.5 -2.5t-9 -7t-7.5 -6.5zM1315 430q3 -2 7 -5t7 -5.5t7 -4t7 -1.5q51 -2 154 -2l2 2h164q3 0 9.5 3.5t8.5 4.5q-1 2 -5 8t-6.5 8.5 t-6.5 3.5q-10 4 -35 4q-126 6 -252 9q-4 0 -12 1t-14.5 1t-10.5 -2q-6 -2 -14.5 -13t-9.5 -12zM1409 281q23 -18 27 -19h22q27 2 83 6t83 6q8 1 25.5 1t25.5 1q4 1 12 7t11 8q-2 2 -7.5 7t-9.5 8t-8 3q0 1 -55 1l-55 -1v-2h-43q-72 0 -86 -2q-4 -1 -8 -5t-9.5 -10.5 t-7.5 -8.5zM1458 143q4 -2 11.5 -7t14 -8t11.5 -3q71 0 94 6q15 5 29.5 1.5t30 2t22.5 23.5q-15 3 -43.5 9t-42.5 9l-6 4v-6q-10 -1 -28 -1.5t-32.5 -1.5t-27.5 -3q-5 -1 -11 -5t-12.5 -11t-9.5 -9z" />
<glyph unicode="X" horiz-adv-x="1476" d="M64 1737q14 29 57 39q27 7 78 12t67 8q18 3 34 3q46 0 80 -22q46 -29 83 -94q31 -57 67 -117t87 -141.5t71 -115.5q10 -15 35 -45q1 1 14 22t17 33q96 292 116 375q13 55 47 80t89 32q44 5 102 5q29 0 61 -1q38 -1 52.5 -13.5t23.5 -49.5q5 -17 5 -35q0 -31 -13 -67 q-34 -98 -121 -351.5t-135 -390.5q-8 -25 -8 -47q0 -33 18 -63q71 -113 369 -600q27 -44 31 -52q16 -31 16 -56q0 -50 -66 -73q-64 -22 -186 -45q-24 -4 -39.5 8t-32.5 37q-94 134 -249 350q-6 10 -23 27q-17 -28 -18 -31q-48 -134 -84 -239q-36 -112 -144 -115 q-19 -1 -55.5 -5t-54.5 -5q-25 0 -37 2q-59 8 -82 42q-13 19 -13 46q0 19 7 43q55 184 110 346q35 101 105 268q9 23 9 46q0 29 -15 57q-234 397 -414 710q-44 82 -57 113q-9 23 -9 42q-1 15 5 28zM389 150q3 -1 8 -4.5t9 -6t8 -2.5q29 -2 86 -2h4h86q18 0 27.5 5t5.5 22 q-1 6 -12 13t-19 7q-64 -4 -184 -16q-3 0 -19 -16zM449 279q3 -2 7.5 -6.5t8 -7.5t6.5 -3q33 2 104 10v-8q78 0 117 2q6 0 13.5 5.5t7.5 9.5q0 15 -13 24q-17 10 -34 10q-129 -8 -197 -14q-4 0 -7 -3t-7.5 -10t-5.5 -9zM551 451q0 -3 18.5 -9t30.5 -6q29 2 106.5 8t120.5 7 q31 1 95 1t96 1q10 0 25.5 6.5t15.5 11.5q0 29 -43 29h-98l6 2q-53 -3 -160 -9.5t-160 -9.5h-6q-2 0 -12 -1.5t-13.5 -3t-10 -4.5t-9 -9t-2.5 -14zM557 616q27 -16 31 -16q246 -4 368 -4q4 0 9.5 3.5t12 10t9.5 8.5q-3 2 -11 7t-14.5 7.5t-11.5 2.5q-59 2 -178 2v-4 q-183 6 -184 6q-4 0 -9.5 -3.5t-12 -10.5t-9.5 -9zM975 311q2 -2 7.5 -8.5t9 -10t7.5 -3.5q65 2 197 14q3 0 6.5 5.5t3.5 8.5t-4.5 8t-7.5 5q-33 2 -98 2h2q-11 0 -31 0.5t-36 0.5t-30 -1q-5 0 -9 -3t-10 -10t-7 -8zM1083 133q1 -2 7.5 -10.5t10.5 -13t9 -5.5q11 -3 23.5 -4 t27.5 -1t23 -1h4l2 6q44 0 67 2q9 9 9 15q0 3 -5 7.5t-8 4.5q-117 15 -141 17q-4 0 -8.5 -2.5t-11 -7.5t-9.5 -7z" />
<glyph unicode="Y" horiz-adv-x="1259" d="M0 1726q0 75 80 78q0 2 40 1l40 -1h8q8 0 24.5 1t24.5 1q65 -3 108 -27t66 -81q8 -21 182 -428q11 -30 21 -47q1 -2 9 -1.5t9 3.5q7 10 11 28q20 73 58 221t58 222q26 101 113 104h39q95 0 168 -12q58 -9 75 -38q10 -16 10 -40q0 -20 -7 -47q-9 -36 -21 -77t-26.5 -89 t-22.5 -76q-47 -161 -141.5 -482t-141.5 -482q-75 -251 -104 -346q-10 -38 -31 -84q-22 -52 -71 -52h-5q-106 9 -145 17q-42 9 -60 33q-14 20 -14 56v13q1 19 21 117q77 327 88 367q4 17 4 33q0 26 -10 51q-385 859 -434 972q-23 56 -23 92zM434 170q3 -3 7.5 -9t8 -10.5 t7.5 -5.5q43 -6 129 -14q4 0 8.5 3t11.5 8t12 8h3q-5 4 -12 11t-11 10.5t-8 4.5q-86 12 -129 14q-4 0 -8.5 -3.5t-10 -9t-8.5 -7.5zM477 319q1 -1 9.5 -6t13.5 -6q3 -1 6.5 -1t9.5 0.5t10 0.5h-2q74 7 135 15q4 0 19 10q-2 2 -6 7t-7 8t-6 3q-33 6 -76 6h-7q-48 -1 -82 -18 q-3 -2 -9 -9.5t-8 -9.5zM500 465q0 -2 6 -6t10 -4h37l4 -4q4 1 57 7t80 11q8 2 17.5 9.5t9.5 13.5q1 12 -4.5 17.5t-14.5 5.5t-18 -1q-78 -8 -117 -14q-24 -3 -55 -13q-7 -2 -12 -22zM528 621q2 -1 5.5 -4.5l6 -6t5.5 -2.5q33 -2 98 -2l-4 -2q103 6 104 6q6 0 12.5 7t6.5 12 q0 9 -19 18q-6 4 -20 4q-121 -8 -176 -14q-3 0 -19 -16z" />
<glyph unicode="Z" horiz-adv-x="1220" d="M-8 1460q3 112 22 236q4 35 40 61.5t75 26.5q13 0 84 -1q47 -1 83 -1h34q46 0 57 4v-6h107q90 4 218 14t218 14h24h8q70 0 93 -34q11 -16 11 -38q0 -28 -17 -67q-9 -20 -91 -208t-124 -287q-124 -293 -285 -682q-1 -3 -3 -9.5t-3 -9.5q-17 -46 -11 -55t52 -6q43 2 122 10 t105 10q102 8 154 8q48 0 74 -20.5t36 -67.5q25 -115 27 -198v-6q0 -50 -32 -77q-23 -20 -54 -20q-14 0 -29 4q-9 2 -17.5 4t-19 2.5t-16.5 0.5t-18 -0.5t-16.5 -1t-18.5 -2t-17 -1.5q-97 -8 -295 -16q-67 -3 -202.5 -8t-202.5 -8h-12q-68 1 -94 31q-18 21 -17 58q0 22 6 50 q5 28 31 90q64 156 193 467t194 467q8 20 25.5 61t25.5 62q17 43 11 50.5t-56 4.5q-184 -8 -276 -10q-26 -2 -52.5 -2t-52.5 2q-98 9 -98 99v5zM145 137q1 -11 8 -16t14 -5t19.5 1t16.5 2q150 -2 301 -2l301 2q24 0 50.5 2t59 5.5t50.5 4.5q31 4 20 29q-1 6 -10 10t-17 4 q-14 0 -43 -3t-43 -3q-104 -2 -313 -2h-356h-8.5h-9.5h-8.5t-8.5 -1l-7.5 -2.5t-7 -3.5t-5 -5t-3 -7.5t-0.5 -9.5zM156 254q0 -3 3 -6t7 -6l4 -2v2q50 8 57 8q116 3 350.5 9t350.5 9q55 0 65 2q4 1 7.5 5t8 11t5.5 9q-2 2 -7.5 7t-9.5 8t-8 3q-20 -1 -59 -6t-58 -6 q-107 -3 -322 -8t-323 -8q-50 0 -59 -2q-4 -1 -8 -11t-4 -18zM186 406q4 -2 11.5 -9t14 -10.5t11.5 -3.5q107 0 215 6q5 0 11 7.5t6 13.5q0 5 -6.5 11.5t-10.5 6.5q-37 2 -110 2h-2h-105q-5 -1 -11 -5t-13 -10t-11 -9zM250 565q5 -20 14 -20q120 -8 185 -10q4 0 10 7.5 t6 12.5q0 6 -5.5 13t-10.5 7h-89l-6 3q-44 0 -88 -3q-4 0 -10 -4t-6 -6z" />
<glyph unicode="[" horiz-adv-x="692" d="M25 1194q1 102 2 307t2 307q0 57 17.5 78.5t72.5 28.5q156 20 375 41q101 9 110 -98v-13q4 -73 -15.5 -94.5t-94.5 -26.5q-24 -1 -73.5 -5t-74.5 -5q-24 -1 -33.5 -12t-9.5 -35q-1 -33 -5.5 -116.5t-4.5 -129.5q3 -443 14 -798q2 -64 13.5 -181t13.5 -151q3 -37 37 -37 q77 4 116 2q49 -1 65.5 -18.5t18.5 -67.5q2 -73 -20.5 -101t-93.5 -38q-25 -4 -287 -31l4 4h-74q-36 3 -51.5 22.5t-5.5 51.5q6 17 9.5 33.5t5 36t2.5 33t0 36t-1.5 33t-2.5 36t-3 33.5q-31 450 -28 875zM70 492q4 -12 12 -15q6 -4 18 -4l2 -2q41 6 119 18q17 6 17 13v10 t-2 10t-3 10q-106 -20 -157 -30q-3 0 -5.5 -4t-0.5 -6zM86 340q1 -4 8 -9t12 -5q49 7 136 22q10 2 26 10q2 1 3 3t1.5 5.5t1.5 4.5v2q-5 10 -8 10q-90 -9 -172 -21q-3 0 -6 -9t-2 -13zM96 244q2 -2 6 -7t7 -8t6 -4q33 -6 92 -14q21 -3 43 0q6 1 12 7t6 11q0 6 -5 15t-9 10 q-1 0 -74 6l4 -4q-1 0 -33.5 1t-33.5 -1q-3 0 -21 -12zM115 96q4 -2 11.5 -7t14 -8t11.5 -3q25 1 74 6t73 6h172q2 0 11 -1t13 -0.5t8.5 4.5t4.5 13q0 3 -15.5 8t-25.5 5h-148l-2 2h-172q-4 0 -9.5 -4.5t-11.5 -11t-9 -9.5z" />
<glyph unicode="\" horiz-adv-x="931" d="M51 168q45 215 82 354q46 170 281 1020q8 28 28.5 84.5t28.5 85.5q24 85 109 94q157 15 190 15q44 0 66.5 -30t13.5 -75q-6 -32 -33 -129q-74 -242 -221 -725t-221 -725q-2 -6 -6.5 -18.5t-6.5 -18.5q-22 -58 -48 -76t-91 -20l4 -6q-10 2 -29.5 5t-34.5 6t-28 7 q-56 22 -76 58t-8 94zM106 207q0 -6 7 -13.5t12 -7.5q35 2 190 17q3 0 7 3t4 5q-5 16 -11 16q-58 4 -92 4h-4q-47 0 -96 -6q-4 0 -10.5 -6.5t-6.5 -11.5zM123 360q54 -12 70 -16v2q19 2 55 4t53 4q5 1 10.5 4.5t13 10t9.5 8.5q-3 2 -9.5 7t-12 8t-9.5 3q-65 4 -96 -2 q-5 -1 -28 -2.5t-35.5 -7.5t-20.5 -23zM156 489q0 -4 4.5 -9t7.5 -5q19 0 55 4l8 2v-6q71 10 136 21q3 1 18 16q-1 1 -3 3.5t-3.5 4t-3.5 3t-4 1.5q-20 3 -40.5 4t-44 -2t-38 -5t-43.5 -7.5t-39 -7.5q-3 0 -6.5 -6t-3.5 -11zM201 647q2 -1 17.5 -8.5t23.5 -9.5q5 -1 11.5 -1 t14 0.5t11.5 0.5h2v-6q70 11 110 20q3 1 9 9t8 10q-18 12 -19 12q-102 0 -153 -4q-5 0 -11 -3.5t-13 -10t-11 -9.5z" />
<glyph unicode="]" horiz-adv-x="638" d="M4 123q4 20 4 31q6 58 28 78t79 22h61q56 0 65 9t9 63q0 143 2 215q8 524 14 786q1 68 6.5 194t6.5 156q1 38 -6.5 45.5t-47.5 10.5q-101 4 -133 12q-36 7 -49.5 26t-15.5 58v43q3 56 23 75.5t77 20.5h129v-6h2q124 0 148 -2q73 -4 101 -38t23 -107q-6 -87 -20.5 -323.5 t-24.5 -365.5q-11 -207 -10 -323.5t7 -323t5 -323.5q0 -48 -12 -95q-10 -37 -24.5 -47t-55.5 -12h-24q-46 2 -138.5 5t-138.5 5q-57 3 -77.5 28.5t-12.5 82.5zM55 104q2 -1 7.5 -4.5t9.5 -5.5t8 -2q51 -2 153 -2l3 2q18 0 51.5 -0.5t60.5 -0.5t51 1q4 0 9.5 3.5t12 10.5 t9.5 9q-3 2 -9.5 8.5t-12 10t-9.5 3.5q-21 0 -59 -3.5t-51 -4.5q-208 -6 -209 -6q-4 0 -8 -3.5t-9 -8.5t-8 -7zM295 260q1 -17 11.5 -21.5t24 -2t25.5 -0.5v2q2 0 22 2t30 4q4 1 9 8t5 12q0 6 -6.5 12.5t-12.5 8.5q-22 6 -51 2q-5 0 -18.5 0.5t-20 -0.5t-13 -7.5t-5.5 -19.5 zM297 530q-1 -9 2.5 -14.5t8 -6t14 -1t12.5 -0.5q10 -2 31 -2l-5 2q44 4 68 8q5 2 9 7.5t3 8.5q-2 7 -7 14t-9 7q-58 4 -88 2q-11 -2 -24.5 -10t-14.5 -15z" />
<glyph unicode="^" horiz-adv-x="1003" d="M8 1386q1 2 2 10t3.5 17.5t6.5 16.5q62 121 179 346t141 272q21 40 61 84q41 44 87 41.5t81 -51.5q27 -39 43 -72l246 -522q11 -22 27 -62q34 -94 -51 -133q-55 -25 -113 -28q-68 -5 -113 73l-123 228q-18 36 -20 39q-16 24 -31 -3q-18 -36 -54.5 -107.5t-55.5 -107.5 q-10 -15 -11 -18q-22 -72 -73.5 -103t-130.5 -34q-53 -2 -78.5 27.5t-22.5 91.5v-5z" />
<glyph unicode="`" horiz-adv-x="534" d="M51 1837q-52 96 47 137q37 15 66.5 20t58 -0.5t51.5 -27.5t39 -61q17 -40 84 -166q40 -79 12.5 -121.5t-120.5 -42.5l2 2q-83 -6 -127 68q-78 126 -113 192z" />
<glyph unicode="a" horiz-adv-x="1280" d="M-25 352q15 335 209 553q167 185 396 185q45 0 92 -7q29 -8 56 -1.5t44 36.5q12 24 55 33q89 14 154 14q41 0 64 -18.5t30 -59.5q24 -136 29 -243q8 -126 43 -756q1 -16 1 -30q0 -83 -30 -117q-34 -39 -139 -43h-14q-55 0 -81 20q-30 24 -40 90q-2 18 -10 50.5t-9 37.5 q-62 -49 -69 -53q-179 -127 -354 -127q-50 0 -99 10q-233 49 -305 299q-5 20 -8.5 42.5t-6 47t-3.5 31.5zM158 84q0 -11 5 -16.5t10 -6.5t16 -1.5t14 -0.5h30q165 6 312 15q45 2 131 14q3 0 5.5 3t5.5 8t5 7q-2 1 -5 4t-5.5 5t-5.5 2q-12 2 -37 2q-51 -3 -153.5 -9.5 t-153.5 -9.5l-2 4v7q-86 0 -127 -2l-11 1q-10 0 -13 -1t-9.5 -3t-9 -7.5t-2.5 -14.5zM272 281q18 -63 64 -93q36 -24 82 -24q14 0 28 2q94 13 156 67q61 54 88 128.5t35 179.5q-7 58 -14 73q-26 57 -61 88q-36 30 -82 32q-3 0 -5 1q-44 0 -96 -35q-76 -50 -113 -94 q-94 -116 -94 -238q0 -43 12 -87zM698 219q1 -1 7 -6t10 -6q12 -2 37 -2q31 -1 92 -2t92 -2q12 -1 44.5 -4.5t49.5 -3.5q4 0 9.5 3.5t12 10t9.5 8.5q-2 2 -7.5 7t-10.5 8t-9 3q-76 3 -153 3l-4 2h-43q-78 0 -117 -2q-3 0 -6 -2.5t-7 -7.5t-6 -7zM776 338q3 -2 8 -7t9 -8.5 t8 -3.5h96h-2q78 0 104 3q4 0 9 4t11 10.5t9 9.5q-3 2 -9.5 7t-12 8.5t-9.5 3.5q-14 -1 -42.5 -6.5t-43.5 -6.5q-19 -1 -55.5 -1t-54.5 -1q-4 0 -8 -2t-9.5 -5.5t-7.5 -4.5zM823 473q5 -15 16.5 -19t23.5 -1t26 -2v2q101 16 125 20q3 0 6.5 5.5t3.5 8.5t-4.5 8t-7.5 5 q-75 -3 -129 -11q-10 -1 -60 -16z" />
<glyph unicode="b" horiz-adv-x="1202" d="M33 -68v215v551h2q4 332 12 863q2 48 18.5 66t65.5 22q71 8 164 8q82 0 94 -84q2 -20 2 -62q-2 -97 -6 -288.5t-6 -288.5q0 -11 1 -23.5t2.5 -27.5t2.5 -23q37 22 61 39q138 99 274 99q40 0 81 -9q132 -27 221 -151q110 -153 113 -338v-37q0 -167 -33 -264 q-85 -261 -318 -301q-53 -9 -102 -9q-150 0 -264 88q-17 16 -25 15.5t-16 -27.5q-6 -18 -11.5 -39t-6.5 -29t-7 -18t-7.5 -11.5t-13 -4.5t-18.5 -2.5t-30 0.5h-41h-136q-46 0 -59.5 13t-13.5 58zM70 289q3 -2 7 -6.5t7.5 -7.5t7.5 -3q39 -2 117 -2l4 -2h86q32 3 66 13 q3 1 8.5 9.5t7.5 10.5q-2 1 -6 5t-7.5 6.5t-7.5 2.5q-163 0 -245 -2q-17 0 -29 -6q-3 -2 -8.5 -9t-7.5 -9zM100 467q4 -3 11 -9t13 -9.5t11 -4.5q13 -2 80 -2l-4 -2q41 0 61 2q2 0 13.5 0.5t16 2t9.5 7t4 15.5q-1 8 -3.5 13t-8 6.5t-9 1.5t-12.5 -1.5t-12 -1.5 q-31 -4 -94 -4q-6 0 -18 4.5t-17 3.5t-41 -22zM106 154q2 -2 6 -7t7 -7.5t6 -2.5q60 -5 180.5 -15.5t181.5 -15.5q14 -2 52 3q128 10 153 10q38 0 114 -2t114 -2q4 0 8 3t8.5 8t7.5 7q-2 2 -5.5 7t-6.5 8.5t-6 3.5q-149 8 -221 10q-17 0 -52 -5t-53 -5q-67 1 -200 4t-199 4 l4 2v6q-53 0 -80 -2q-1 0 -19 -12zM109 29q0 -14 10 -19q19 -5 86 -18l6 2q12 1 25.5 1.5t22 1t15.5 1.5q6 0 11 16q0 2 -4 6.5t-7 4.5q-102 12 -153 16q-3 0 -7.5 -4.5t-4.5 -7.5zM428 482q-5 -20 -5 -41q0 -44 23 -95q12 -27 68 -96q38 -47 100 -47q29 0 62 10 q79 25 96 121q0 1 6 74l2 2q0 106 -49 176q-39 56 -99 56q-17 0 -36 -5q-63 -17 -107.5 -56t-60.5 -99zM524 23q3 -3 9 -11t11 -12t9 -4q19 -2 117 -2l6 -4q73 0 110 2q6 0 13.5 5t7.5 9q0 14 -14 23q-11 8 -29 8q-70 2 -209 2q-4 0 -31 -16zM829 324q1 -2 7.5 -10.5 t10.5 -13t9 -5.5q39 -8 117 -16q4 0 9.5 2t12 5.5t9.5 4.5q-3 4 -7.5 11.5t-8 13t-7.5 6.5q-5 1 -133 16q-1 -1 -4 -3t-7.5 -5.5t-7.5 -5.5zM834 457q3 -3 8 -9.5t8.5 -10t7.5 -3.5q88 -6 178 -6q5 0 12 6t7 10q0 6 -5.5 14.5t-9.5 8.5q-32 4 -96 8l-2 -2h-80 q-4 0 -8.5 -2.5t-10.5 -7t-9 -6.5z" />
<glyph unicode="c" horiz-adv-x="1058" d="M-12 575q3 283 155 459q103 120 257 152q50 11 98 11q102 0 198 -46q125 -58 181 -188q10 -26 10 -49q0 -44 -37 -80q-31 -29 -102 -109q-28 -31 -55 -31q-26 0 -50 29q-7 8 -17.5 25t-15.5 24q-44 60 -102 66q-6 1 -11 0q-52 0 -104 -45q-59 -53 -74 -127 q-10 -51 -10 -96q0 -187 176 -257q38 -16 73 -16q74 0 130 74q55 70 94 71h1q39 0 98 -67q48 -56 48 -94q0 -36 -40 -91q-129 -173 -301 -194q-28 -4 -56 -4q-77 0 -161 28q-188 62 -272 175t-105 301v73zM55 471q0 -6 6 -14t9 -8q53 2 159 10q3 0 8 4.5t5 7.5t-4 8.5 t-7 5.5q-14 1 -40 2t-39 2v7v-7l-40 1q-40 0 -40 -1q-4 0 -10.5 -6.5t-6.5 -11.5zM104 313q3 -2 9.5 -7t11 -7.5t8.5 -1.5q5 1 33 5t37.5 5t31.5 2t38.5 -1.5t33.5 -8.5q3 -1 7 2.5t11.5 11t12.5 11.5q-5 3 -16 11.5t-18 12.5t-13 4q-72 0 -160 -10q-5 -1 -9 -5.5t-10.5 -13 t-7.5 -10.5zM225 176q0 -3 15.5 -8.5t25.5 -5.5q80 -2 240 -2l-6 2h147q90 0 135 2q5 0 9 3t10.5 10.5t7.5 8.5q-1 1 -7.5 8t-10.5 10.5t-9 4.5q-8 2 -51 2q-50 -2 -150.5 -6t-150.5 -6q-27 -1 -81 -1t-81 -1q-3 0 -10.5 0.5t-11.5 0.5t-9.5 -2t-8 -7t-3.5 -13zM444 76 q2 -2 5.5 -7t6 -8.5t5.5 -3.5q23 -3 69 -8t68 -8h4h49q3 0 8 5t5 9q0 10 -9 19q-16 12 -26 12q-55 2 -166 2q-1 0 -19 -12z" />
<glyph unicode="d" horiz-adv-x="1181" d="M8 657l8 9q7 284 174 454q165 165 363 165q18 0 35 -1q77 -7 125 -39q19 -12 27 -7.5t8 26.5q0 88 4 264v43q0 57 53 69q50 11 99 11l143 -23q6 -2 13 -9t10.5 -13.5t10.5 -18.5t9 -16t2 -31q-4 -77 -12.5 -230.5t-12.5 -230.5q-1 -16 -2.5 -46t-2.5 -54.5t-1 -46.5 q2 -140 6 -418.5t6 -417.5v-11q-1 -95 -17 -113q-18 -20 -120 -27q-12 -1 -48.5 -4.5t-56.5 -3.5q-38 0 -59.5 22.5t-21.5 60.5q0 16 1 49t1 50q0 40 -39 18q-85 -48 -193 -48q-69 0 -147 20q-262 66 -338 358q-7 27 -11.5 57.5t-9 73.5t-6.5 59zM100 496q3 -2 9.5 -9 t12 -10.5t9.5 -3.5q61 0 123 6q4 0 9.5 2.5t12 7.5t9.5 7q-24 15 -33 16h-51h4h-68q-7 -1 -37 -16zM102 371q-1 -4 4.5 -11.5t10.5 -9.5q27 -6 59 -6q47 2 141.5 7t141.5 7q61 3 181 8.5t181 8.5q48 2 133 14q3 0 6 2.5t7 7.5t6 7q-16 16 -19 16q-60 2 -104 2t-74 -2 q-81 -5 -242.5 -16.5t-242.5 -16.5l-2 2q-111 0 -166 -2q-6 0 -12.5 -6t-8.5 -12zM268 250q0 -15 8.5 -22t17.5 -7t25 2t21 2q45 1 151 7t162 6q48 0 138 -5t127 -6q4 0 9 3.5t11.5 10l9.5 9.5q-18 18 -26 20q-7 2 -45 2h-265v2q-184 0 -276 -2q-5 0 -16.5 1t-19 1 t-15.5 -1.5t-12.5 -7t-4.5 -15.5zM342 639q-1 -8 -1 -17q0 -63 41 -118q46 -62 114 -74q13 -3 28 -3q54 0 121 36q51 25 75 61q17 25 18 60q0 14 -3 30q-1 6 -1 13.5t0.5 16t0.5 13.5l4 5h-6v98q-4 33 -16 47q-59 82 -156 82h-2q-98 -1 -158 -84q-52 -69 -59 -166zM768 510 q2 -1 7.5 -4.5t9.5 -5.5t8 -2h73l-2 -4q62 0 74 2q7 1 33 22q-3 1 -9.5 4.5t-12 5.5t-9.5 2q-98 0 -147 -2q-4 0 -8 -3t-9.5 -8t-7.5 -7zM803 88q0 -6 8 -10q52 -17 96 -17q28 0 54 7q4 1 9 7t5 9q-5 19 -14 22q-10 2 -72 7v-2q-60 -4 -76 -7q-5 0 -10 -16z" />
<glyph unicode="e" horiz-adv-x="1177" d="M70 412q-15 85 -15 164q0 264 170 458q175 201 407 201h7q160 -2 280 -94.5t166 -251.5q19 -69 19 -160q-1 -25 -23.5 -43.5t-56 -28t-67 -13.5t-62.5 -3h-2q-64 0 -134 -5t-162.5 -15t-133.5 -13q-42 -3 -52 -14.5t-12 -54.5v-10q0 -110 64 -183q60 -71 143 -70h10 q88 4 142 86q12 19 37 72q29 52 82 56q20 1 64.5 6.5t68.5 5.5q33 1 47.5 -12.5t25.5 -51.5q6 -19 6 -41q0 -44 -24 -98q-69 -150 -209 -231q-131 -76 -277 -76h-18q-156 5 -280 92q-174 124 -211 328zM115 461q3 -2 7.5 -7t8.5 -8.5t8 -3.5q22 1 92 15q24 4 80 16 q3 1 5.5 3t6 5t5.5 4q-16 16 -21 17q-4 2 -26 2h4q-120 -14 -150 -19q-4 -1 -7 -5t-7 -10.5t-6 -8.5zM168 322q17 -10 22 -15h3q94 11 139 19q4 1 8 6t8.5 13t7.5 11q-2 1 -13 7t-17 6q-54 -5 -129 -19q-4 -1 -9 -5.5t-11 -12t-9 -10.5zM264 195q2 -2 6 -7t7 -7.5t6 -2.5 q39 -2 116 -2l-4 2v-6l228 18q37 3 110.5 8.5t110.5 8.5q34 4 110 16q4 1 11.5 9t5.5 10q-10 24 -23 24l-117 -12q-211 -22 -282 -27q-27 -2 -70 -2q-11 1 -22 1h-36q-33 0 -56 -1q-13 -1 -86 -16q-2 -1 -15 -14zM406 868q-8 -27 0.5 -38t37.5 -11q70 -2 209 -2t209 2 q26 0 33 9t2 36q-15 77 -91.5 142t-152.5 65q-90 0 -157 -59.5t-90 -143.5zM455 74q3 -2 10 -7.5t12.5 -8.5t9.5 -3q27 1 79 6.5t63 6.5q140 17 145 18q4 1 8.5 6t9 13.5t7.5 11.5q-15 9 -25 14l-2 2q-84 -13 -100 -14q-166 -16 -191 -19q-4 -1 -8.5 -5.5t-9.5 -11t-8 -9.5z M840 379q9 -2 69 -17l2 3q80 4 93 6q4 1 8.5 5t10 10.5t7.5 8.5q-2 2 -6 5.5t-6.5 5.5t-6.5 4t-7 2q-26 2 -45 2t-31 -2q-8 -2 -23.5 -2.5t-25.5 -1.5t-21.5 -8t-17.5 -21z" />
<glyph unicode="f" horiz-adv-x="1036" d="M-4 764q0 58 26 84q28 26 91 26h24l-8 -8q4 0 12 -1t14.5 -1t10.5 2q26 10 29 23q5 30 9.5 86t6.5 74q2 12 6.5 50t6.5 52.5t8 49t11 52t13.5 47t18.5 49t24 43.5t31 44q148 182 353 182h7h127q42 -2 64.5 -19.5t29.5 -56.5q10 -59 10 -118q0 -14 -1 -29 q0 -28 -17.5 -46.5t-46.5 -19.5q-98 -7 -153.5 -64t-84.5 -155q-20 -75 -34 -188q-6 -38 2 -47t45 -11q17 -1 49 -1t49 -1q51 -4 70.5 -25.5t21.5 -72.5q1 -22 1 -44t-1 -44q-3 -41 -20.5 -62t-57.5 -28q-69 -11 -116 -13q-38 -3 -38 -35q0 -6 1 -14q4 -33 4.5 -44.5 t-2.5 -43.5t-4 -43q-1 -31 2 -63t9.5 -79t8.5 -63q2 -22 11.5 -76t11.5 -83v-15q0 -37 -13 -56q-15 -21 -61 -30q-88 -16 -149 -16h-13q-55 1 -81.5 25t-34.5 77q-37 259 -62 486q-6 51 -14.5 60t-59.5 15q-41 7 -71 17q-62 19 -68 82l-4 40q-4 29 -4 50zM281 340 q2 -2 4.5 -5t4.5 -5t4.5 -4t4.5 -2q37 -2 111 -2v-5q65 0 98 2q2 0 10 -0.5t11.5 0t9 2.5t8 6.5t2.5 12.5q0 16 -12.5 19t-26.5 -1q-21 -2 -44.5 -3t-52 -1.5t-44.5 -1.5l-34 1q-34 1 -34 -1q-4 0 -7 -2t-7 -5.5t-6 -4.5zM293 453q3 -3 8 -9.5t8.5 -10t7.5 -3.5q76 2 228 10 q2 0 4 2.5t4.5 6t3.5 4.5q-2 2 -4.5 5t-4.5 5t-4.5 4t-4.5 2q-37 2 -111 2h-111q-4 0 -8 -3t-8.5 -8t-7.5 -7zM334 61q3 -2 7.5 -7t8.5 -8t8 -3q78 3 154 12q11 1 22.5 3.5t26 7t21.5 6.5q6 3 6 18q0 2 -3.5 5t-6.5 3q-14 2 -31 2q-25 -2 -65.5 -5t-71 -5.5t-56.5 -5.5 q-4 0 -7 -3.5t-7.5 -10.5t-5.5 -9zM342 213q0 -3 4.5 -7.5t7.5 -4.5q29 -2 86 -2v4h99q4 0 7.5 3.5t7.5 9.5t7 9q-3 2 -7.5 7t-8.5 8.5t-8 3.5q-37 -2 -185 -17q-3 0 -6.5 -5.5t-3.5 -8.5z" />
<glyph unicode="g" horiz-adv-x="1218" d="M84 -76q1 64 29.5 95.5t93.5 43.5q53 11 88 11q76 0 94 -76q29 -131 31 -137q27 -79 53 -121q32 -49 77 -58q10 -2 21 -2q36 0 74 25q74 48 105 137q8 24 14.5 51t10.5 46.5t8 52.5t6 47.5t5.5 53t4.5 48.5l2 4v111q-17 -7 -50 -21.5t-49 -21.5q-74 -33 -152 -33h-18 q-87 4 -164.5 36t-139.5 94t-91 141q-36 97 -36 193q0 94 35 188q70 190 249 288q93 50 182 50q95 0 185 -58q6 -4 18 -12.5t18 -12.5q27 -16 27 19t-2 51q-2 12 -2 22q0 38 20 60q25 28 80 39q45 10 140 10q49 0 77.5 -28t28.5 -78q0 -44 -4.5 -126t-5.5 -114 q-15 -543 -19 -651q-12 -300 -30 -445q-28 -224 -187 -370q-35 -35 -71 -51q-132 -60 -257 -60q-75 0 -147 21q-277 82 -340 399q-12 71 -12 124v15zM133 -113q15 -12 27 -20l2 2q20 3 66.5 9.5t70.5 10.5q6 2 12 31q0 2 -9 6t-15 4q-82 -8 -123 -16q-4 -1 -8.5 -4 t-7.5 -6.5t-7.5 -8.5t-7.5 -8zM205 -295q0 -3 3.5 -7.5t6.5 -4.5h49h-4l4 -4v-6q78 12 115 20q3 1 8.5 10t7.5 11q-3 1 -7.5 4.5t-8.5 5.5t-8 2q-30 -2 -160 -17q-6 -8 -6 -14zM301 -469q16 -20 23 -27v2q14 2 30 2q18 2 90.5 12t112.5 13q48 5 136 9.5t116 6.5q7 0 104 17 q1 0 15 14q-2 2 -6 7t-7 8t-6 4q-21 3 -43 0q-30 -2 -89 -7.5t-89 -7.5q-38 -3 -113.5 -8t-113.5 -8q-90 -8 -133 -14q-5 -1 -9 -4.5t-10.5 -10.5t-7.5 -8zM475 670q-10 -26 -10 -50q0 -36 23 -66q38 -51 116 -52v2q88 3 141 98q20 34 20 75q0 8 -1 17q-5 51 -37 72 q-57 37 -104 37t-84 -37q-43 -43 -64 -96zM797 -238q2 -2 7.5 -8.5t9 -10t7.5 -3.5q13 1 27.5 3t31.5 5t27 4l-2 -6q62 0 74 2q5 1 11 4.5t13 9.5t11 9q-1 1 -9.5 8.5t-13.5 10.5t-10 3q-57 -2 -166 -14q-3 0 -6 -2.5t-6.5 -7.5t-5.5 -7zM831 104q3 -1 9.5 -4.5t12 -5.5 t9.5 -2q21 2 129 17q7 2 21 16q-16 16 -19 16h-67l2 -4q-60 0 -72 -2q-4 -1 -8.5 -6t-9 -13.5t-7.5 -11.5zM846 -59q0 -3 49 -15h23h-3v-6q72 9 101 14q4 1 9 8.5t5 12.5q0 4 -6.5 10t-11.5 6q-62 -3 -123 -12q-4 0 -17 2t-19.5 -2t-6.5 -18z" />
<glyph unicode="h" horiz-adv-x="1077" d="M6 301q-2 224 -2 448.5t2 448.5q0 80 12 240q3 44 31 71.5t74 32.5q122 15 147 17q13 1 24 1q46 0 68 -20q27 -24 27 -88q0 -54 -1 -163t-1 -163q0 -29 6 -32t29 12q2 1 28.5 18.5t41.5 24.5q77 39 149 39q41 0 80 -12q109 -34 172 -154q62 -116 72 -279q11 -188 14 -424 q0 -64 -12 -190q-6 -51 -26 -67q-17 -13 -57 -13h-16q-60 2 -178 14q-37 3 -50 18.5t-13 53.5v135v129l8 -10q-8 215 -14 326q-2 33 -25 84q-14 28 -38.5 34.5t-49.5 -12.5q-112 -90 -119 -188q-5 -55 -9.5 -156t-6.5 -133q-2 -31 -6.5 -94.5t-6.5 -95.5q-3 -66 -57 -80 q-57 -15 -111 -15q-50 0 -96 13q-69 18 -78 88q-12 94 -12 141zM47 377q4 -10 10 -12h127q36 0 74 6q4 1 7.5 5t8 10t7.5 9q-3 2 -9.5 7t-11 7.5t-8.5 2.5q-38 -2 -191 -17q-4 0 -10 -7.5t-4 -10.5zM61 231q2 -1 7.5 -4.5t9.5 -5.5t8 -2q29 -2 86 -2v-2q80 0 96 2q6 1 16 13 t13 14q-2 2 -7.5 7t-9.5 8t-8 3q-96 0 -190 -6q-4 0 -7.5 -4t-7.5 -11.5t-6 -9.5zM61 524q4 -4 11.5 -11t9.5 -9l-4 2q21 3 83 10t95 12q4 1 8 3t9 5.5t8 4.5q-14 24 -19 26q-12 6 -33 2q-94 -16 -141 -26q-4 -1 -9 -4t-10.5 -8t-7.5 -7zM62 657q0 -2 4 -4.5t8 -4.5l4 -1 l-4 2q86 8 119 13q2 0 61 12q-3 13 -11 18.5t-14.5 4.5t-17.5 -3t-16 -2h-17q-37 0 -100 -6q-10 0 -16 -29zM680 381q3 -2 9.5 -6.5t11 -7t8.5 -2.5q49 3 96 12q24 4 80 16q-9 17 -25 20t-30.5 -0.5t-30.5 3.5v2q-2 0 -38.5 -4t-55.5 -8q-4 -1 -8.5 -5t-9 -10.5t-7.5 -9.5z M682 684q4 -3 9.5 -7.5t9 -7t4.5 -3.5h4q48 0 176 14q4 0 7 2t7 5.5t6 4.5q-2 2 -5.5 7t-6.5 7.5t-6 2.5q-44 1 -89 1l-89 -1q-4 0 -9 -4t-10.5 -11.5t-7.5 -9.5zM698 233q7 -14 20 -16.5t25.5 0.5t26.5 -4h4q4 1 45 7t62 11q5 1 12 10t10 11q-3 1 -7.5 4.5t-8.5 5.5t-8 2 q-78 0 -117 -6q-10 -2 -21 -6t-24 -10.5t-19 -8.5zM705 563q-1 -3 5 -9.5t11 -6.5q62 4 178 16q3 0 6.5 7t1.5 10q-5 10 -16 10q-27 2 -80 2v-4q-10 0 -28 0.5t-32.5 0.5t-27.5 -1q-6 0 -11 -8.5t-7 -16.5z" />
<glyph unicode="i" horiz-adv-x="481" d="M0 1012v9q0 50 21 76q23 28 96 31q32 2 64 2t63 -2q101 -6 104 -108q3 -97 9.5 -291.5t9.5 -292.5v-8q0 -50 5.5 -143.5t6.5 -132.5v-10q0 -60 -24 -85q-26 -27 -93 -30q-13 -1 -26 -1q-66 0 -130 13q-50 9 -64.5 27.5t-16.5 72.5q-3 116 -9.5 350.5t-9.5 350.5 q-1 28 -3 86t-3 86zM53 1391q0 63 39.5 96t114.5 35h6q51 0 81 -31q32 -33 32 -88q0 -59 -38 -96t-98 -37v-4q-59 0 -98 35.5t-39 89.5zM72 672q0 -4 4.5 -9.5t7.5 -5.5q13 0 53 -2.5t59.5 -2.5t50.5 4.5t56 13.5q3 1 8.5 8.5t7.5 9.5q-3 1 -7.5 4.5t-8.5 5.5t-8 2 q-29 2 -86 2l-43 1q-43 1 -43 -1q-17 0 -41 -12q-8 -4 -8 -18h-2zM84 358q5 -14 16 -14q27 -2 80 -2l34 -1q34 -1 34 1l-2 4q4 0 9 2t11.5 5.5t9.5 4.5l-9.5 9.5t-11.5 10t-9 3.5q-52 0 -154 -8q-3 0 -6 -6t-2 -9zM90 510q16 -16 19 -16h79v-7q64 9 129 21l2 -2q4 1 7 5 t6.5 10.5t5.5 8.5q-3 1 -8 4.5t-9 6t-8 2.5q-101 -8 -211 -21q-2 0 -4 -2t-4.5 -5.5t-3.5 -4.5zM129 184q0 -7 18 -16q3 -1 13.5 -1.5t19.5 -0.5q54 11 82 18l2 -2q10 5 10 17q0 3 -4.5 8.5t-7.5 5.5q-78 0 -117 -2q-4 0 -9 -9.5t-7 -17.5z" />
<glyph unicode="j" horiz-adv-x="983" d="M16 57q1 62 28.5 89.5t90.5 35.5q9 1 47 6.5t58 6.5h4q51 0 76 -22q27 -23 36 -77q26 -164 31 -190q6 -37 25 -78q4 -7 10 -13.5t15 -14.5t12 -11q1 2 17 17.5t21 25.5q15 38 21 78q4 28 7 59t5.5 55.5t4 59.5t3 55.5t2.5 60t1.5 55.5t1.5 60t1 55.5t0.5 60t0.5 56.5 q1 95 16 578q2 42 20 64.5t58 29.5q96 15 155 15q87 0 99 -91q4 -39 4 -116v-322l-10 -2q6 -122 6 -252q0 -56 -1 -114q-4 -190 -28 -343q-33 -220 -180 -348q-76 -66 -165 -81q-30 -5 -59 -5q-57 0 -112 20q-81 30 -152 95q-170 154 -170 421v21zM63 96q0 -8 19 -18h4 q3 -2 12 -2q143 16 146 16q4 0 10 17q0 2 -3.5 6t-4.5 4q-111 0 -166 -2q-4 0 -10.5 -8t-6.5 -13zM92 -57q-1 -4 1 -10.5t5 -8.5q20 -12 33 -12v2q121 8 176 14q3 0 6 2.5t7 7.5t6 7q-3 1 -7.5 4.5t-8 5.5t-7.5 2q-29 2 -86 2q-74 0 -111 -2q-3 0 -7.5 -4.5t-6.5 -9.5z M180 -309q3 -2 8 -7.5t9 -8.5t8 -3q10 0 21 1t24.5 2.5t21.5 2.5q70 5 212 15.5t212 15.5l2 -6q4 0 9 2.5t11 7t9 6.5q-3 3 -7.5 8t-7.5 8.5t-7.5 7t-8.5 5.5t-9 2t-11.5 -1t-9.5 -1q-50 -4 -150.5 -12t-150.5 -12q-31 -2 -166 -17q-3 0 -19 -16zM563 645q3 -2 9.5 -7t12 -8 t9.5 -3q46 -1 92 -1l92 1q21 0 41 10l2 -2q2 1 23 22q-3 1 -8 4.5t-9 6t-8 2.5q-37 2 -110 2q-97 0 -117 -2q-4 0 -9 -4.5t-10.5 -11t-9.5 -9.5zM584 12q0 -6 5.5 -13t10.5 -7h80h80l4 2q4 0 10 6t6 10q0 6 -5 14.5t-9 8.5q-42 1 -83 1l-83 -1q-4 0 -10 -8t-6 -13zM590 1421 q2 63 37.5 92t111.5 29q41 0 71 -34t30 -81q0 -53 -37 -91t-88 -38l2 -4q-57 0 -93 36q-34 34 -34 85v6zM594 430q-4 -12 2 -19.5t20 -9.5q102 -8 168 -12h-2l23 23q-26 21 -33 22q-50 4 -154 8q-6 0 -14.5 -4t-9.5 -8zM596 252q0 -3 5 -7.5t9 -4.5q15 -2 45.5 -5.5 t46.5 -5.5q48 -4 63 -4h5l-2 4q4 0 7.5 3t10 10t7.5 8q-2 2 -6 7t-7 8t-6 3q-42 2 -83 2l-83 -2q-3 0 -7.5 -6t-4.5 -10z" />
<glyph unicode="k" horiz-adv-x="1159" d="M2 1507v15q0 46 16 62q18 20 76 20q17 1 71 4.5t83 3.5q56 0 81.5 -23.5t26.5 -77.5q0 -2 6 -454q0 -33 5 -191l6 -18l24 12q28 35 87.5 106.5t103.5 128t82 109.5q36 53 83 73.5t111 20.5q32 0 62 -6q76 -13 76 -67q0 -20 -11 -47q-9 -22 -51 -80q-183 -241 -213 -277 q-24 -29 -24 -59q0 -23 14 -47q50 -87 144 -256.5t106 -190.5q7 -12 26.5 -44.5t28.5 -51.5q14 -27 14 -51q0 -18 -8 -35q-19 -39 -72 -45q-33 -4 -70 -4q-47 0 -100 6q-61 6 -98 72q-39 68 -112 192.5t-87 147.5q-11 21 -19.5 21.5t-23.5 -17.5q-73 -81 -73 -167 q0 -13 2 -26q1 -10 1 -24q0 -28 -5 -72q-9 -91 -103 -94q-45 -2 -135 -2q-49 0 -72 21t-28 71q-4 41 -4 127v528h-13l-2 -14q0 332 -2 498q0 32 -10 202zM84 678q2 -1 7.5 -4.5t9.5 -5.5t8 -2q68 -2 202 -2l-2 -5v7h164q83 3 184 16q5 1 9 5.5t10.5 13t7.5 10.5 q-27 16 -31 16q-10 -1 -31.5 -6.5t-33.5 -5.5q-210 -9 -424 -15q-42 0 -60 -4q-4 -1 -7 -4t-7 -7.5t-6 -6.5zM113 516q26 -16 28 -16h37l-6 2v-6q14 2 39 6.5t45.5 7.5t38.5 4q123 6 362 14q31 0 37 2t12.5 8t6.5 11q0 6 -5.5 13t-9.5 7q-34 5 -62 5q-12 0 -24 -1 q-129 -4 -196 -10q-97 -8 -277 -28q-4 -1 -8.5 -4t-10 -8t-7.5 -7zM117 367q3 -2 9 -7t11.5 -8.5t9.5 -3.5q55 2 160 10q21 0 29 4l3 7q3 7 3 10t-4.5 7.5t-7.5 4.5q-33 2 -99 2h7l6 -4h-97q-4 0 -9 -3.5t-11.5 -10t-9.5 -8.5zM633 381q1 -4 8 -8t12 -4q8 0 43 10l2 -4v-6 q17 4 50 11t49 11q10 5 10 19q0 3 -4.5 7.5t-7.5 4.5q-66 -5 -154 -19q-3 0 -6 -9t-2 -13z" />
<glyph unicode="l" horiz-adv-x="473" d="M-27 408q1 90 6.5 255t6.5 205h-6l6 9q0 405 -2 608q0 64 30 104q28 37 52 37q25 1 49 1q87 0 164 -9q63 -8 63 -90l1 -120v-67q0 -53 -1 -53q-12 -610 -20 -915q-2 -49 -15 -185q-5 -60 -31 -84q-24 -22 -78 -22h-10q-65 0 -98 2q-102 6 -110 102q-8 92 -8 174 q0 24 1 48zM60 692q0 -3 5 -7.5t9 -4.5q134 -24 166 -29q8 -2 26 11q8 8 15 22q-15 10 -19 10q-22 3 -67 9.5t-68 9.5l-6 -6q-35 0 -51 -2q-3 0 -6.5 -5t-3.5 -8zM72 393q56 -18 73 -22q34 -6 68 -6q4 0 11 6.5t7 9.5q-5 24 -16 27q-12 2 -37.5 2.5t-34.5 1.5l-2 2 q-10 -7 -21 -3t-25.5 1.5t-22.5 -19.5zM72 528q21 -16 26 -16h74l-4 4l40 -1q40 -1 40 1q4 0 7.5 3.5t7.5 8.5t7 7q-2 2 -4.5 5t-4.5 5t-4.5 4t-4.5 2q-80 0 -160 -6q-4 0 -7 -2.5t-7.5 -8t-5.5 -6.5zM82 256q-2 -3 6 -10.5t14 -7.5q74 0 111 4q15 2 35 10t20 12 q-2 15 -10 18.5t-22 1.5t-19 -1q-4 1 -9.5 1t-12 -0.5t-9.5 -0.5l-4 -2l-40 1q-40 0 -40 -1q-10 0 -20 -25z" />
<glyph unicode="m" horiz-adv-x="1615" d="M8 684l2 8v400q0 100 66 139q48 28 108 28q42 0 90 -14q48 -16 52 -84q1 -14 1 -43.5t1 -44.5q0 -15 8 -47q3 3 14.5 13t16.5 16q55 71 151 104q55 20 106 20q42 1 82 -13q88 -30 146 -122q7 -11 21.5 -33t21.5 -34l57 57q132 112 250 119q10 1 19 1q149 0 217 -136 q38 -74 59 -182q16 -88 19 -207q5 -172 5 -320q0 -64 -1 -123q-2 -64 -26 -84q-19 -15 -62 -15q-13 0 -29 1q-17 2 -49 5t-49 5q-42 6 -57 24t-15 60q-4 320 -12 480q-2 59 -33 157q-11 38 -33 38q-16 0 -39 -21q-43 -43 -59 -76q-56 -114 -84 -207q-24 -79 -24 -161 q0 -15 1 -30q2 -16 0.5 -52.5t-2.5 -51.5t-5 -51.5t-5 -52.5q-5 -46 -26 -68t-66 -25q-11 -1 -27 -1q-42 0 -114 6t-84 79q-6 42 -9 80q-2 47 -5 133.5t-6 157t-7 133.5q-2 26 -6.5 54.5t-12 65.5t-10.5 54q-3 24 -16 47q-15 31 -30.5 34.5t-43.5 -17.5q-19 -15 -26 -27 q-61 -94 -93 -180q-32 -83 -32 -172v-6q2 -76 2 -153t-2 -154q0 -64 -24 -89.5t-89 -31.5q-28 -3 -51 -3q-62 -1 -90 21q-38 30 -50 131q-4 35 -4 105q-2 59 -2 178v178h-6zM31 621q3 -1 7.5 -4.5t8.5 -6t8 -2.5q29 -2 86 -2h2h86q3 0 10 3.5l9 4.5q-1 3 -3 8.5t-4 9t-5 5.5 q-20 12 -33 12q-78 -3 -154 -12q-3 0 -5.5 -2.5t-6.5 -7t-6 -6.5zM66 190q3 -2 7 -6.5t7.5 -7t7.5 -2.5q30 -2 51 -2.5t31 2.5q7 1 22 2.5t24.5 3t20.5 8.5t17 19q-54 12 -68 16l-4 -2q-80 -4 -94 -6q-4 -1 -7.5 -5.5t-7.5 -10.5t-7 -9zM68 465q2 -2 4.5 -5t4.5 -5t4.5 -4 t4.5 -2q0 -1 37 -1l37 1v-3h86q4 0 7 3t7 8.5t6 7.5q-2 2 -7.5 8.5t-9 10t-7.5 3.5q-53 -2 -154 -10q-4 0 -7 -2t-7 -5.5t-6 -4.5zM78 307q15 -15 20 -16h49h3v-6q55 8 86 14q14 5 14 16q0 4 -4.5 10.5t-7.5 6.5q-72 0 -142 -6q-3 0 -6 -3.5t-6.5 -8.5t-5.5 -7zM659 178 q2 -1 7.5 -4.5t9.5 -5.5t8 -2q27 -2 80 -2l-2 -6q66 0 80 2q5 1 11 4.5t13 9.5t11 8q-29 19 -39 25q-2 2 -7 2q-102 -8 -153 -14q-3 0 -6 -2.5t-7 -7.5t-6 -7zM676 463q0 -16 11.5 -19t32.5 -0.5t30 0.5q4 -2 30 -2h-2q24 -8 47 -8q5 0 11 6.5t8 12.5q2 5 -3.5 12.5 t-9.5 7.5q-35 3 -59 3q-12 0 -20 -1t-30 2t-34 0.5t-12 -14.5zM686 608q21 -16 25 -16q49 -2 147 -2l4 -2v-13q4 3 12.5 9.5t12.5 9.5q-2 2 -7.5 10.5t-9.5 12.5t-8 4q-38 2 -76 1.5t-77 -1.5q-5 0 -13 -6t-10 -7zM690 307q0 -3 4.5 -7.5t7.5 -4.5q23 -2 68 -2v-6q61 0 74 2 q4 1 7.5 5t7.5 10t7 9q-3 3 -8 9.5t-8.5 10t-7.5 3.5q-27 -2 -142 -17q-3 0 -6.5 -4.5t-3.5 -7.5zM1253 627q3 -3 9.5 -9t11 -10t8.5 -4q29 2 160 17q3 0 6.5 5.5t3.5 8.5t-4.5 7.5t-7.5 4.5q-27 2 -80 2l-2 2q-66 0 -80 -2q-4 0 -8 -3.5t-9.5 -10t-7.5 -8.5zM1292 477 q46 -12 56 -14l-2 -2q74 4 88 6q4 1 7.5 5.5t7 11.5t5.5 10q-3 2 -9.5 6.5t-11 7t-8.5 2.5q-35 -3 -65 -12q-7 -2 -23.5 0.5t-28 -1.5t-16.5 -20zM1311 170q1 -1 5.5 -6.5t7.5 -7.5t7 -2q30 -2 59 -2t58 2q3 0 5.5 2.5t6.5 7t6 6.5q-1 1 -5.5 6.5t-7.5 7.5t-7 2h-60l5 -6v6 h-60q-4 0 -7 -2t-7.5 -7.5t-5.5 -6.5z" />
<glyph unicode="n" horiz-adv-x="1052" d="M0 1063q0 70 31 101q32 32 106 34q49 0 74 -4q49 -9 69.5 -35t22.5 -78q1 -17 2 -52t2 -52q0 -2 9 -4.5t10 -1.5q10 9 32 41q82 106 183 147q51 20 97 20q96 0 167 -89q81 -104 108 -265q25 -149 30 -339q2 -86 2 -165q0 -94 -3 -176q0 -47 -12 -71q-29 -52 -60 -62 q-22 -7 -48 -7q-52 0 -124 26q-39 13 -43 88q-2 27 -6.5 113t-9.5 133q-18 203 -45 405q-4 34 -37 102q-9 18 -24.5 20.5t-30.5 -11.5q-19 -16 -39 -43q-91 -123 -152 -303q-14 -46 -14 -103l6 -276v-52q-6 -63 -31 -84q-22 -18 -74 -18h-16h-6q-104 6 -134 36.5t-30 133.5 v344h6l-2 -4q-16 483 -16 551zM31 449q0 -5 3.5 -10t6.5 -5q31 -5 84 -8l2 2q57 5 82 8q5 2 10.5 9.5t5.5 13.5q0 4 -5.5 11t-10.5 9q-39 5 -72 5q-59 0 -98 -17q-8 -4 -8 -18zM51 164q1 -1 5.5 -6.5t8 -8.5t7.5 -4h51l-2 -4v6q55 0 74 3q4 1 7.5 5t7.5 10t7 9q-3 3 -8 9.5 t-8.5 10t-7.5 3.5q-51 -3 -123 -13q-3 -1 -6 -4.5t-7 -8.5t-6 -7zM61 291q2 -5 9.5 -10t13.5 -5q9 0 27 3.5t22 3.5v-2v-7q15 2 52.5 8t56.5 9q5 2 9.5 9t4.5 13q0 5 -7 12t-11 7q-71 -5 -166 -19q-3 0 -7.5 -9t-3.5 -13zM70 606q0 -6 6 -14t10 -8q72 0 143 6q4 0 9.5 7.5 t5.5 12.5q0 4 -6.5 9.5t-12.5 7.5q-8 2 -65 6l-2 2q-5 -1 -31.5 -2.5t-42.5 -3.5q-5 -2 -9.5 -9.5t-4.5 -13.5zM711 594q12 -4 31.5 -11.5t25.5 -9.5h4h2q54 6 78 11q6 10 6 16q0 5 -3.5 10.5t-6.5 5.5q-46 9 -61 9h-3h-16.5t-17.5 -1t-14.5 -3.5t-14.5 -9t-10 -17.5z M717 432q0 -4 9 -8.5t22.5 -9t17.5 -6.5v2q13 2 40 4t38 4q5 2 9.5 9t4.5 13t-5.5 13.5t-10.5 9.5q-24 5 -47 5q-10 0 -19 -1h-15.5t-17 -1t-13 -4t-11 -10.5t-2.5 -19.5zM748 303q0 -5 3.5 -10.5t6.5 -5.5q13 -2 37.5 -6t33.5 -5h-4l-2 -6v6q52 5 60 7q7 2 16 20 q1 3 -3 9.5t-7 6.5q-34 2 -67.5 1.5t-67.5 -1.5q-6 -10 -6 -16z" />
<glyph unicode="o" horiz-adv-x="1134" d="M86 537q-15 85 -15 164q0 294 212 501q97 96 264 96q32 0 67 -4q237 -25 367 -213q68 -98 76 -196q4 -49 4 -97q0 -235 -107 -417q-111 -191 -331 -203q-20 -2 -62 -2h4h-22q-85 0 -161 27q-86 31 -146 86t-98.5 121.5t-51.5 136.5zM98 651q5 -15 17.5 -18.5t25.5 -0.5 t29 -3l2 -2q107 24 119 28q4 1 6 5.5t4.5 12.5t3.5 11q-2 1 -8 3t-10 3t-8 0q-48 -7 -121 -22q-10 -2 -60 -17zM250 336q3 -1 7.5 -4.5t8.5 -5.5t8 -2q41 -2 125 -2l4 4v-7q73 6 221.5 18.5t221.5 18.5q30 4 49 11q6 2 15 10.5t10 9.5q-2 1 -7.5 4.5t-9.5 5.5t-8 2 q-74 0 -111 -4q-29 -3 -119 -13t-139 -13q-42 -3 -126 -7.5t-126 -7.5q-4 0 -8 -3t-8.5 -8t-7.5 -7zM373 588q10 -74 59.5 -120.5t124.5 -55.5q14 -2 26 -2q120 0 169 137q11 31 19 64.5t15.5 78.5t10.5 58l-2 4q-17 115 -21 137q-20 115 -145 135q-18 3 -34 3 q-94 0 -149 -87q-79 -123 -79 -269q0 -41 6 -83zM444 246q3 -7 19 -23h-2q165 21 229 31q7 1 14.5 5.5t17 12.5t13.5 11q-5 1 -16 5t-19.5 6t-15.5 1q-91 -10 -223 -31q-4 -1 -11.5 -8.5t-5.5 -9.5zM827 528l45 -20v6q12 1 27 1t25 0.5t18 2.5q11 3 16 27q0 3 -7 8.5 t-13 5.5q-38 4 -57 0q-11 -4 -31 -16.5t-23 -14.5zM844 678q55 -13 59 -14v-2q74 4 88 6q4 0 9.5 8t5.5 14q0 5 -6.5 12t-10.5 7q-56 0 -71 -4q-14 -5 -27.5 -2t-27.5 -2.5t-19 -22.5z" />
<glyph unicode="p" horiz-adv-x="1222" d="M-12 401l12 492q0 42 -3 126t-3 126q0 65 34 97t97 32h4q49 0 117 -14q70 -14 73 -91q1 0 1 -77l-1 -76q0 -3 1.5 -6t3 -7t2.5 -6q2 1 9 5t9 6q90 107 182 151q90 43 172 43q106 0 197 -72q56 -43 86 -102q100 -191 100 -385q0 -132 -47 -266q-46 -136 -140.5 -221.5 t-234.5 -114.5q-45 -9 -88 -9q-96 0 -184 46q-9 4 -26.5 13t-26.5 13q-32 14 -40 10t-15 -40l-3 -10.5t-6 -5t-6 -2t-12 -1.5q-38 -3 -166 -26q-3 -1 -5.5 -4.5t-5 -9t-3.5 -7.5q15 -10 18 -10l123 12q9 1 27.5 3t27.5 3q1 -8 2.5 -21.5t2.5 -24.5t1 -21q-12 -336 -12 -342 q-3 -52 -25 -71q-20 -17 -65 -17h-10h-12q-58 7 -85 14t-45.5 26.5t-22.5 46.5q-3 22 -3 62v21v706h6zM49 -330q3 -2 9.5 -8.5t12 -10t9.5 -3.5q39 2 117 14q4 1 11 8.5t7 10.5q-2 6 -8 13t-10 7q-10 0 -31.5 -2.5t-28.5 -3.5v2q-53 0 -65 -2q-4 -1 -7.5 -5.5t-8 -10.5 t-7.5 -9zM66 184q0 -3 19 -7.5t32 -4.5q26 -2 52 -2l52 2q57 3 169.5 9t168.5 9h6l-2 -2v-6h240q25 0 49 6l3 8q3 8 3 11q0 14 -12 18q-36 8 -58 8q-364 -8 -546 -14q-46 -2 -131 -14q-2 0 -17 1t-21.5 -3.5t-6.5 -18.5zM66 346q0 -2 6 -6t10 -4q16 0 42 1t32 1l2 -4 q92 0 108 2q5 1 11 4.5t13 9.5t11 8q-3 3 -9.5 10t-12 11t-9.5 4q-64 -2 -190 -14q-8 0 -14 -23zM72 545q2 -2 5.5 -7t6.5 -8.5t6 -3.5q98 3 191 9q3 0 6.5 3t3.5 5q-5 16 -10 16q-33 2 -99 2h-86q-4 0 -7.5 -2.5t-9 -7t-7.5 -6.5zM92 684q2 -2 6 -7t7 -8t6 -3q55 -2 165 -2 q9 10 9 14q0 3 -5 7.5t-8 4.5q-27 2 -79 2h4l2 2q-58 8 -82 8q-4 0 -8 -3t-9.5 -8t-7.5 -7zM367 602l2 2v-23q0 -136 65 -223q32 -42 72 -63q28 -15 61 -15q14 0 27 2q49 9 92 56q32 37 41 61q43 103 43 204q0 100 -41 198q-35 85 -106 100q-14 3 -28 3q-56 0 -112 -50 q-117 -102 -117 -225q0 -13 1 -27zM799 360q4 -17 14 -20q5 -1 61 -6v2q42 0 62 4q11 3 20 20q2 2 -3.5 8.5t-8.5 6.5q-45 2 -135 2q-3 0 -7 -7t-3 -10z" />
<glyph unicode="q" horiz-adv-x="1159" d="M96 403q-26 93 -26 183q0 93 28 183q54 177 207 302q86 72 183 72q69 0 143 -37q23 -12 112 -72q31 -19 31 19q0 69 2 104q3 44 18 62t56 24q31 5 73 5q33 0 72 -3q78 -6 88 -94q2 -15 2 -88q-8 -442 -14 -692l-4 -4q4 -214 12 -682v-10q0 -48 -19 -73q-20 -28 -73 -38 q-27 -5 -63 -5q-16 0 -33 1q-47 3 -72 26t-31 70q-9 74 -12 147q-6 117 -14 344q-2 22 -8.5 26.5t-26.5 -7.5q-100 -74 -230 -74h-20q-79 3 -154 37.5t-138 106t-89 167.5zM115 526q0 -1 57 -12h12h2q7 0 19.5 -1t22.5 -1t18 2q11 3 25 11t14 12q-2 26 -47 22 q-38 -3 -72 -12q-10 -3 -20.5 0t-19.5 -1t-11 -20zM268 229q0 -12 13 -16q5 -2 13.5 -3.5t10.5 -2.5h-6v-4q13 1 47 6t53 6q86 3 258 8t258 8q32 0 52 5q5 2 9.5 9t4.5 13q0 5 -5 11t-11 7q-6 3 -29 3q-86 -4 -258 -12.5t-258 -12.5q0 -2 -56 -1l-55 1q-20 0 -35 -6l-3 -8 q-3 -8 -3 -11zM362 485q21 -64 65.5 -104t100.5 -41h6q55 0 104 34q51 37 71 95q6 19 28 117l-2 -2q-2 90 -23 153.5t-71 108.5q-38 34 -64.5 45t-56.5 -1t-63 -54q-38 -50 -86 -177q-20 -54 -20 -103q0 -37 11 -71zM748 385q5 -26 14 -29q1 0 74 -6l2 4l33 -1q33 -1 34 1 q4 1 9 4.5t10 9t8 7.5q-2 2 -7.5 8.5t-9.5 10t-8 3.5q-47 2 -141 2q-4 0 -11 -5.5t-7 -8.5zM795 659q0 -4 4.5 -9t7.5 -5q25 -2 74 -2v4q14 1 43 2t43 2q3 0 6.5 5.5t3.5 9.5q0 3 -4.5 7.5t-7.5 4.5q-107 0 -160 -2q-3 0 -6.5 -6t-3.5 -11zM823 84q-2 -2 3 -7t8 -5 q106 -10 184 -13q4 0 10 7.5t8 13.5q1 4 -4 12t-10 8q-14 2 -29.5 3t-35 1.5t-29.5 1.5l-2 -2h-86q-7 0 -17 -20zM838 -90q21 -16 26 -16q15 -1 28 -1q21 0 38 3q8 1 67 22q-6 16 -18.5 20.5t-25 2t-27.5 0.5l-2 2q-51 -6 -62 -9q-4 -1 -8 -5t-8.5 -10t-7.5 -9zM838 -229 l14 -15v2h133q9 0 15.5 1t11.5 6t2 14q-1 6 -12.5 12t-20.5 6q-39 0 -117 -8q-4 -1 -8.5 -4t-10 -7.5t-7.5 -6.5z" />
<glyph unicode="r" horiz-adv-x="1056" d="M-12 1137q0 77 69 92q75 14 133 14h4q52 -1 78 -25q28 -26 31 -81q1 -17 2 -52t2 -53q0 -10 1 -21t2.5 -24.5t2.5 -21.5q38 43 41 49q60 95 140 153q51 35 92 50q41 16 78 16q25 1 50 -7q60 -18 103 -75q63 -84 96 -236q6 -27 13.5 -78.5t9.5 -60.5q3 -14 3 -27 q0 -64 -62 -98q-37 -19 -62 -26q-26 -7 -45 -7q-25 0 -41 10q-29 18 -41 77q-19 92 -26 114q-13 44 -41 94q-20 34 -36.5 36t-41.5 -27q-50 -58 -64 -91q-64 -140 -114 -272q-7 -19 -11.5 -40.5t-8 -48t-3.5 -28.5l-6 4q8 -80 26 -251q1 -13 1 -24q0 -41 -17 -62 q-22 -27 -80 -31q-66 -4 -98 -4q-50 0 -76 20.5t-33 67.5q-16 106 -26 244q-21 270 -39 540q-6 94 -6 191zM88 639q0 -4 6.5 -10t11.5 -6h74l-4 -5q72 4 96 9q5 1 10.5 5t12.5 10.5t10 8.5q-4 2 -11.5 7t-14 8t-11.5 4q-20 2 -40 2l-40 -2q-56 -4 -86 -8q-5 -2 -9.5 -9.5 t-4.5 -13.5zM90 373q11 -2 34 -6.5t34 -6.5h12l-2 -6q62 0 74 2q4 1 9.5 5t11.5 10.5t9 9.5q-26 21 -32 22q-27 4 -53 4l-27 -1q-3 0 -16 -0.5t-18 -1.5t-14 -4t-14 -9.5t-8 -17.5zM102 526q0 -3 5 -7.5t8 -4.5q23 -2 67 -2h-4v-2h49q6 1 17 7t14 7q-3 2 -9.5 9t-12 10.5 t-9.5 3.5q-38 0 -116 -8q-9 -9 -9 -13z" />
<glyph unicode="s" horiz-adv-x="1181" d="M49 496q-6 33 2.5 45t42.5 20q27 6 74 14q19 3 37 3q99 0 149 -89q70 -123 234 -172q27 -8 52 -8q63 0 112 51q29 30 29 58q0 31 -36 59q-52 40 -116 62q-27 9 -82.5 22.5t-81.5 22.5q-109 34 -152 59q-77 42 -119 109.5t-46 137.5v19q0 61 20 121q24 69 72 119 q133 141 340 141q25 0 51 -2q43 -4 129 -28q204 -57 332 -281q16 -28 16 -53q0 -12 -4 -24q-11 -36 -53 -60q-70 -38 -115 -54q-39 -13 -61 -4t-44 45q-78 121 -104 152q-43 52 -106 52q-16 0 -33 -3q-31 -5 -50.5 -16.5t-27.5 -38.5q-3 -11 -3 -22q0 -38 42 -66 q47 -33 102 -58q23 -10 72 -27.5t72 -27.5q90 -40 131 -69q108 -73 130 -175q6 -27 5 -56q0 -78 -45 -165q-107 -200 -328 -241q-50 -9 -97 -9q-99 0 -185 41q-25 12 -107 66q301 25 356 29q17 1 61 3t75 4.5t61 6.5q10 0 12 2q15 15 13 20q-1 4 -8.5 9.5t-12.5 5.5 q-16 0 -33 -1t-38 -2.5t-33 -2.5q-50 -3 -157 -8.5t-161 -8.5q-41 -2 -123 -14q-43 -6 -18 -45l8 -2q-216 131 -252 334zM170 362q0 -3 4.5 -7.5t7.5 -4.5q29 -2 86 -2h-4l4 -4q49 0 74 2q3 0 5 2t5 5.5t4 4.5q-2 2 -5.5 7t-6.5 8.5t-6 3.5q-40 1 -80 1l-80 -1 q-8 -11 -8 -15zM356 676q4 -17 15 -21q14 -4 43 -4h190l4 2h191q29 0 43 2q4 0 10 17q0 2 -3.5 5t-6.5 3q-24 4 -37 4l-270 12q-41 2 -123 2q-22 0 -43 -6q-5 -2 -9.5 -7.5t-3.5 -8.5zM782 553q0 -3 4 -8.5t7 -5.5q27 -2 79 -2l2 -2l44 -1q43 0 43 1q4 0 9 3.5t8.5 7.5 t2.5 5q-5 12 -20 27q-2 2 -13 2q-76 -6 -153 -15q-3 0 -8 -4.5t-5 -7.5z" />
<glyph unicode="t" horiz-adv-x="989" d="M4 1182q0 75 22 100.5t95 32.5l123 12q20 1 27 10.5t5 28.5q-8 114 -8 172q0 55 23.5 83.5t77.5 39.5q52 10 96 10q104 0 113 -102q2 -30 2 -88t2 -76q2 -44 9.5 -51.5t53.5 -7.5l67 1h38q30 0 30 -1q51 -1 73.5 -22t27.5 -71q1 -13 4 -39t4 -40v-11q0 -92 -94 -98 q-42 -1 -83 -1l-83 1q-26 0 -37.5 -11.5t-11.5 -37.5q1 -25 1.5 -102t2.5 -119q5 -100 16 -297t16 -297v-14q0 -51 -19 -74q-22 -26 -83 -35q-1 0 -68 -6v-6q-7 1 -28 1.5t-31 2.5q-72 18 -80 77q-8 66 -8 99q-1 95 -2 285.5t-2 285.5q0 65 -8 191q-1 35 -7.5 41.5 t-43.5 7.5q-16 1 -65.5 1.5t-76.5 2.5q-41 3 -61.5 22.5t-26.5 61.5q-2 12 -2 37zM348 549q0 -5 7 -12t12 -7q59 0 94 9q8 2 25.5 -1t30 1t18.5 22q-15 3 -39.5 9t-32.5 8l-2 2q-63 -6 -96 -11q-5 -2 -11 -9t-6 -11zM358 672q0 -15 6 -18.5t20 0t17 3.5h13l6 2v-6 q18 4 52.5 11.5t51.5 11.5q3 0 7 6t4 10q0 3 -5 8t-8 5q-20 -2 -58 -6.5t-58 -6.5q-4 0 -14.5 0.5t-16.5 0t-11.5 -5.5t-5.5 -15zM360 381l17 -12l-4 2q19 1 47 3l49 3.5t39 3.5q16 3 35 14q10 10 6 21q-1 3 -7.5 6.5t-9.5 3.5q-75 -11 -155 -27q-3 -1 -5.5 -4t-6 -7.5 t-5.5 -6.5zM373 221q0 -4 6 -16l-2 -2q105 7 135 12q4 1 7.5 5.5t7 11.5t5.5 10q-2 1 -10.5 7.5t-13.5 6.5q-58 -3 -117 -12q-6 -1 -12 -9t-6 -14z" />
<glyph unicode="u" horiz-adv-x="1087" d="M22 941q0 100 13 183q4 24 16 80q1 2 3 6.5t3 6.5q15 29 81 42q30 6 56 6q30 0 56 -8q31 -9 43 -31q10 -19 10 -56v-13q-1 -44 -5.5 -125.5t-6.5 -147.5q-1 -33 -1 -64.5t1 -61.5q2 -49 8.5 -104t17 -123.5t15.5 -104.5q1 -5 3 -15.5t3 -15.5q19 -59 57 -97 q33 -32 67 -33q5 0 11 1q117 16 160 119q42 103 42 212q0 20 -1 40q-10 137 -10 231v6v320q0 48 12 64t59 26q55 13 103 16h11q67 0 83 -71q8 -33 8 -74l18 -645q3 -83 25 -295q3 -27 3 -49q0 -62 -22 -88q-30 -34 -133 -37h-16q-51 0 -69 11q-22 13 -44 67q-10 24 -32 8 q-6 -4 -18.5 -13.5t-18.5 -13.5q-78 -47 -166 -54q-18 -1 -35 -1q-68 0 -128 22q-74 28 -132 89t-80 143q-39 148 -51 291q-11 115 -15 183q-4 61 -4 148v20zM68 502q10 -15 18 -17q5 -1 11.5 -1t14 0.5t11.5 0.5l4 2v-6q43 8 92 21q2 1 8 18q0 2 -3.5 5t-4.5 3 q-94 -8 -139 -12q-3 0 -7.5 -6t-4.5 -8zM233 193q2 -7 23 -17q3 -1 6.5 -1t9 0.5t9.5 0.5v-6q4 0 13.5 1t14.5 1q45 4 140 13.5t145 13.5q38 3 113.5 8t113.5 8q21 2 56 14q4 1 20 17q-21 16 -27 16q-23 -1 -48.5 -3t-56.5 -5t-48 -4q-44 -3 -132 -8.5t-132 -8.5 q-65 -4 -179 -16q-20 0 -28 -4q-16 -11 -13 -20zM721 686q-1 -3 5 -9.5t11 -6.5q24 -2 42.5 -2t31.5 2q15 2 41 12.5t31 11.5q-7 15 -20 18.5t-25 0.5t-25 0h-6v2q-57 0 -68 -2q-13 -3 -18 -27zM754 416q1 -12 9 -17t16.5 -5t23 1t20.5 0h11q43 0 45 29q0 3 -9 6.5 t-23.5 7.5t-19.5 6v5q-16 -7 -32.5 -4t-29 -3t-11.5 -26z" />
<glyph unicode="v" horiz-adv-x="1267" d="M53 1149q-11 28 -11 50q0 55 67 77q39 13 87 13q61 0 138 -21q24 -7 47 -64q18 -45 49 -128.5t37 -98.5q45 -116 115 -289q9 -26 14 -35q8 -16 22 -37q2 5 10.5 16.5t10.5 18.5q25 71 77 212.5t77 211.5q24 69 51 154q17 59 76 59h6h31h43h42.5h30.5q65 -3 85 -32 q10 -14 10 -36q0 -23 -11 -53q-37 -100 -112.5 -301t-112.5 -301q-67 -181 -135 -385q-17 -50 -28 -66.5t-31 -22.5q-18 -5 -58 -5h-14h-31l10 2h-61q-85 0 -119 82q-41 97 -125 288t-125 287q-40 94 -162 404zM297 664q0 -4 4.5 -9.5t7.5 -5.5q6 0 31.5 -1t41 0t30.5 5 q4 1 16.5 1.5t19.5 2t13.5 8.5t7.5 19q0 1 -63 16v-2q-66 -12 -99 -20q-10 -5 -10 -14zM371 512q12 -12 20 -16q6 -2 23 -2h417q5 0 7 2q8 4 20 16q-2 2 -4.5 5t-4.5 5t-4.5 4t-4.5 2q-74 2 -222 2h-2h-98q-86 0 -129 -2q-3 0 -5.5 -2.5t-6.5 -7t-6 -6.5zM481 406 q34 -23 35 -23q10 -4 35 -4h221q21 0 29 2q12 4 12 14q0 15 -8 19q-32 12 -49 12q0 2 -58 1l-59 -1v2v-6q-28 4 -43 4h-80q-7 -1 -19.5 -9.5t-15.5 -10.5zM526 248q10 -19 27 -21.5t30 3t25 -0.5l-2 4h88q3 0 6 2.5t7 7.5t6 7q-18 12 -21 12q-20 2 -40 2l-40 -2 q-8 -1 -27.5 2t-33.5 0t-25 -16zM768 678q-1 -20 12 -25.5t29 -2t29 -1.5h2q34 0 39 2q6 2 32 23q-26 21 -30 22q-11 4 -37 0q-8 -1 -22.5 0t-25 2t-19 -4t-9.5 -16z" />
<glyph unicode="w" horiz-adv-x="1742" d="M12 1167q-2 42 11.5 59t52.5 23q74 12 156 12q18 0 36 -1q57 -2 72 -84q47 -215 90 -400q3 -11 29 -98q1 -3 18 -37q27 32 29 37q99 206 168 356q3 5 9 15.5t9 15.5q33 65 58 79q21 12 74 12q11 0 24 -1q82 -3 108 -80q9 -26 39.5 -103t48 -130t27.5 -107 q4 -23 11.5 -49.5t17 -57.5t14.5 -48q3 -8 10 -19q9 14 11 19q87 344 118 460q13 53 47 164q15 52 36 65q14 9 46 9q15 0 33 -2q41 -4 123 -4q66 0 88 -30q12 -15 12 -40q0 -23 -10 -53q-23 -73 -71 -220.5t-72 -221.5q-76 -232 -162 -508q-6 -17 -23 -56q-22 -51 -34 -59 t-68 -8h-43v-6l-8 -2q-11 2 -39.5 6.5t-49.5 7t-40 2.5q-29 0 -42 14t-22 43l-135 375q-2 5 -7 15.5t-7 15.5q-3 -3 -8.5 -9t-9 -11t-5.5 -9q-106 -250 -157 -375q-19 -46 -30.5 -52.5t-62.5 -2.5q-18 1 -50 4t-58.5 5t-50.5 3q-34 2 -47 41q-51 139 -54 148t-25 71 t-27 75.5t-24.5 69.5t-26 76t-23.5 70t-25 76t-22 71t-23 76.5t-19.5 71t-19.5 76.5q-23 89 -25 145zM205 666q-1 -6 3 -15.5t7 -9.5q82 0 123 2q4 0 9 8.5t5 14.5q0 4 -7 9t-13 7h-51h2h-60q-4 0 -10 -5.5t-8 -10.5zM238 502q3 -2 7.5 -7t8.5 -8.5t8 -3.5q45 -2 135 -2h4 v-6q139 9 271 21q5 0 26 16q-2 1 -13 7.5t-17 6.5q-82 3 -137 3q-27 0 -48 -1q-73 -2 -221 -14q-4 0 -8 -2t-8.5 -5.5t-7.5 -4.5zM289 340q1 -18 19.5 -21.5t35.5 0.5h6q35 2 104.5 6.5t104.5 6.5q33 0 49 2q5 0 10 5t5 9t-4 10.5t-7 8.5q-21 6 -43 6q-36 0 -110 -4l-2 -4 h-117h-4q-16 0 -24 -0.5t-16 -6.5t-7 -18zM346 227q2 -2 7.5 -7t10.5 -8t9 -3h2h203h8l24 24q-3 2 -7.5 7t-8.5 8.5t-8 3.5q-14 1 -30 1t-36 -0.5t-31 -0.5h-2v-2l-58 1q-58 1 -58 -1q-4 0 -8 -3.5t-9.5 -10.5t-7.5 -9zM561 668q4 -12 14 -15q12 -2 37 -2h154l2 2h2 q123 0 184 2q4 0 9.5 2.5t12 7.5t9.5 7q-18 23 -27 28h-90q-4 0 -14.5 -1t-15.5 -1h-187q-17 0 -80 -14q-10 -5 -10 -16zM932 516q2 -1 7.5 -6t8.5 -6q12 -6 29 -6q192 -4 289 -4q24 0 51 10q4 2 8.5 5.5t9.5 8t8 6.5q-3 2 -9.5 7t-11.5 7.5t-9 2.5q-55 2 -166 2l2 -4h-154 q-29 0 -43 -4q-4 -1 -7 -4t-7 -8t-6 -7zM995 383q3 -3 9.5 -10.5t9.5 -10.5q4 -2 14 -2q123 3 246 9q3 0 5.5 2.5t6.5 7t6 6.5q-3 1 -7.5 4.5t-8.5 5.5t-8 2q-39 2 -117 2l-2 2q-90 0 -135 -2q-3 0 -19 -16zM1022 227q0 -6 5.5 -13t10.5 -7q29 -2 58.5 -1.5t58.5 1.5 q5 0 11 6.5t5 9.5q-5 24 -18 27q-9 2 -57 2h2q-42 0 -60 -4q-5 -2 -10.5 -9.5t-5.5 -11.5zM1204 688q0 -20 14.5 -25t33 -2t36.5 -4l2 2q37 11 70 19q-7 17 -19.5 21t-32 2t-26.5 -1q-22 7 -50 7t-28 -19z" />
<glyph unicode="x" horiz-adv-x="1091" d="M49 1214q19 32 82 39q35 3 104.5 8.5t104.5 8.5h5q45 0 71 -49q63 -127 96 -191q2 -4 5.5 -8t9.5 -9t8 -7q2 4 10 13t10 15q54 123 82 199q26 74 106 74q39 0 117 12q15 2 28 2q35 0 60 -15q34 -22 38 -58q1 -6 0 -12q0 -31 -15 -67q-39 -77 -105 -229t-100 -221 q-20 -40 -20 -77q0 -44 28 -85q50 -77 193 -317q3 -5 10 -15.5t10 -15.5q11 -22 11 -40q0 -39 -54 -56q-12 -4 -22 -4h-107l-6 -11q-24 -7 -47 -7q-95 0 -160 120q-9 18 -16 23t-14 -1.5t-15 -25.5q-19 -44 -33.5 -70t-25.5 -41.5t-28.5 -22t-31 -8.5t-45 -5t-57.5 -7 q-14 -2 -43 -2q-60 0 -84 32q-13 17 -13 42q0 21 9 47q27 76 110 291q8 21 18.5 48t14 34t6.5 23t2 18.5t-6 17t-10.5 21.5t-19 29.5t-25.5 43.5q-66 116 -236 428q-18 34 -18 59q0 16 8 29zM283 178q1 -18 13.5 -20t25.5 2q30 4 86 8q7 1 21.5 1t21.5 1q5 1 20 16 q-1 1 -5.5 6.5t-7.5 8t-7 2.5q0 1 -34 1l-34 -1h4h-68q-12 0 -18.5 -1t-12.5 -6.5t-5 -17.5zM332 311q0 -4 17.5 -10t29.5 -6q2 0 289 12q28 1 85.5 1t86.5 1q4 0 7.5 4t9 12t7.5 11q-21 16 -26 16q0 2 -62 1l-61 -1l-4 8q-56 -3 -166.5 -9t-165.5 -9q-35 -3 -42 -13 q-5 -7 -5 -18zM406 469q2 -2 7.5 -6.5t9 -7t7.5 -2.5q47 -2 141 -2l9 2h86q56 0 67 2q4 1 7.5 4.5t8 9t7.5 8.5l-10 10t-13 9h-51q-29 -1 -88.5 -4.5t-89.5 -4.5q-11 -1 -33.5 -1t-34.5 -1q-5 -1 -30 -16zM449 610q0 -1 57 -18l-2 2q78 12 117 20q4 1 9 8l5 7q-16 16 -19 16 q-64 -3 -116 -14q-5 -1 -19.5 1t-22.5 -2t-9 -20zM729 182q0 -2 10.5 -5t26 -7t22.5 -6l-4 -2q91 16 93 16q4 1 7.5 3.5t7.5 7t7 6.5q-2 2 -7.5 7t-9.5 8t-8 3q-49 0 -88 -8q-5 -1 -21 1t-25 -2.5t-11 -21.5z" />
<glyph unicode="y" horiz-adv-x="976" d="M49 127q-4 16 -4 32q0 45 35 91q48 61 113 63q29 1 49 -13.5t41 -43.5q8 -11 26.5 -38.5t32.5 -46.5t29 -36q31 -33 75 -33h13q53 6 82 50q45 68 49 184q0 23 -29 20q-23 -2 -45 -2q-118 0 -206 54q-106 63 -160 196q-80 195 -80 373q0 68 12 133q13 79 54 110 q33 26 96 26q13 0 26 -1h6q82 -7 106 -36q17 -22 17 -73q0 -17 -2 -38q-5 -70 -5 -132q0 -106 15 -186q13 -71 46 -118.5t98 -67.5q35 -11 50 -1.5t15 46.5q-1 55 -3 116.5t-5 136.5t-4 116q0 1 -6 49q-1 19 -1 34q0 36 7 48q9 17 65 43q6 2 9 4q12 6 25.5 9.5t31 5.5 t27.5 3t32.5 1.5t28.5 0.5q48 0 68 -51q16 -46 16 -72q1 0 1 -126l-1 -126v5q1 -42 1 -84q0 -249 -46 -486q-23 -108 -53.5 -186.5t-89.5 -142.5q-128 -141 -285 -141q-21 0 -43 3q-56 7 -90 25q-187 99 -240 303zM109 166q1 -13 8.5 -16t20.5 -1t18 1h28q44 0 52 2 q6 2 13 9t7 13t-8.5 13.5t-14.5 7.5q-17 1 -32 1q-25 0 -47 -3q-13 -3 -29 -12t-16 -15zM182 20q3 -3 7.5 -8t7.5 -8.5t7.5 -7t8.5 -4.5q11 -4 51 -4h185l2 4h190q4 0 15.5 -1.5t18.5 -2t13 4t6 15.5q0 10 -6 14.5t-13.5 4t-19 -2t-16.5 -1.5q-43 2 -81 2q-32 0 -60 -1 q-32 -2 -67 -2t-75 2q-78 2 -139 13q-4 1 -10 -2t-13.5 -8t-11.5 -7zM242 545q3 -2 7.5 -7t8.5 -8.5t8 -3.5q43 -3 91 -5.5t112 -5.5t104 -5v-4q125 8 228 18q7 1 20 12t15 13q-4 2 -13.5 8.5t-16.5 10t-13 3.5q-15 0 -46 -6t-47 -6q-65 1 -194 4t-193 4q-5 0 -14 1t-17 1 t-14 -2q-5 -1 -9 -4t-10 -10t-7 -8zM582 416q2 -8 7 -16.5t11 -8.5q12 -2 74 -2v2v-6q21 3 64 8t65 8q3 0 6.5 6t3.5 11q0 4 -4.5 10t-7.5 6q-51 2 -101.5 2t-101.5 -2q-4 0 -11 -7.5t-5 -10.5z" />
<glyph unicode="z" horiz-adv-x="1064" d="M25 72q14 62 43 127q42 93 127 279.5t127 279.5q1 3 6.5 14.5t7.5 18.5q11 25 7 30.5t-32 5.5q-86 0 -129 -2h-11q-52 -1 -86 25q-36 28 -36 91q0 17 -4 43t-4 40q0 61 38 98.5t99 40.5q56 2 160 10.5t141 10.5q30 2 92 6l93 6l10 -2h135q59 -2 85 -38q15 -20 15 -48 q0 -20 -8 -45q-2 -10 -33 -68q-55 -104 -163 -310.5t-162 -309.5q-3 -5 -9.5 -15.5t-9.5 -15.5q-11 -25 -6 -32.5t31 -4.5q88 11 169 11q88 0 169 -13q62 -9 71 -63q17 -127 19 -179q1 -41 -10.5 -53.5t-51.5 -15.5q-176 -12 -241 -12h-10h-19q-155 0 -420 -29 q-23 -5 -49 -5q-18 0 -36 2q-46 6 -79 32q-39 30 -39 68q0 11 3 22zM106 70q4 -2 11.5 -7t13.5 -8.5t10 -3.5q35 1 74 3t86.5 5t73.5 4h141h-2h301q3 0 11.5 -0.5t12.5 0t10.5 1.5t10 3t6 7t2.5 12q0 8 -3 13.5t-10.5 7.5t-11.5 2.5t-15.5 0t-12.5 -0.5h-12 q-110 -2 -329.5 -6.5t-328.5 -6.5h-12q-5 -4 -27 -26zM139 197q5 -11 17 -11q16 -2 49 -2h307v-2h319q34 0 50 2q3 0 6.5 5t3.5 10q0 14 -12 18q-8 4 -29 4q-197 0 -295 2q-38 1 -106.5 2.5t-125 2.5t-106.5 1q-18 0 -72 -14q-10 -5 -6 -18zM218.5 359.5 q1.5 -10.5 4.5 -11.5q1 0 35 -6l-2 2v6q32 2 95 6t95 6q9 0 15 3q14 9 14 14q-4 15 -14 22q-10 5 -29 5q-82 -6 -160 -15q-17 -2 -53 -20q-2 -1 -0.5 -11.5zM250 506q2 -2 6 -6.5t6.5 -7.5t6.5 -5.5t7 -3.5q8 -2 52 -2q102 0 153 4q4 0 8 3.5t9.5 10.5t7.5 9q-2 2 -7.5 7 t-9.5 8t-8 3h-104l2 2l-53 1q-52 1 -52 -1q-4 0 -7.5 -3.5t-9 -10t-7.5 -8.5z" />
<glyph unicode="{" horiz-adv-x="909" d="M14 1044q-3 30 10 56.5t37 38.5q32 16 62 22q88 20 123 76t28 164q-4 41 -16 123q-11 77 7.5 161.5t63.5 163t129.5 139t192.5 80.5q28 7 49 7q47 1 77 -27.5t32 -75.5v-49l6 -6v-37q-2 -59 -14 -77t-66 -38q-92 -35 -126 -85t-34 -150q0 -32 1.5 -96t1.5 -95 q0 -183 -127 -290q-27 -21 -13 -56q66 -160 8 -360q-6 -23 -20 -68t-20 -67q-10 -30 -13 -60q-6 -73 17.5 -101.5t97.5 -37.5q33 -3 59 -12q23 -8 35 -23q30 -40 7.5 -117t-68.5 -94q-100 -37 -204.5 -7.5t-170.5 112.5q-68 87 -62 186q5 74 35 248q6 35 22.5 104.5 t22.5 104.5q12 73 -14.5 117t-97.5 69q-27 9 -41 21t-17 36zM145 272q16 -16 19 -16q125 -8 190 -10q2 0 23 16q-2 2 -6 9.5t-7.5 11.5t-7.5 4q0 1 -52 1l-52 -1l-2 4q-57 0 -86 -2q-3 0 -6 -2.5t-7 -7.5t-6 -7zM147 444q3 -2 9 -7t11 -8t9 -3q86 -3 172 0q4 0 9 6.5t5 11.5 q0 6 -4.5 14.5t-7.5 8.5h-96q-47 0 -78 -4q-6 -1 -16.5 -9.5t-12.5 -9.5zM176 578q5 -27 47 -23h31q13 -1 35 4.5t35 7t36 -9.5q2 -2 10.5 4.5t8.5 9.5q-2 8 -7.5 17.5t-9.5 9.5h-79v4q-7 0 -19.5 1t-22.5 1t-18 -2q-13 -3 -30 -11.5t-17 -12.5zM279 125q3 -1 9.5 -4.5 t11.5 -5.5t9 -2q142 4 215 8q5 0 11 7t6 13q0 5 -6.5 12t-10.5 7h-98h2q-14 -1 -39 -1.5t-45.5 -1.5t-38.5 -3q-4 -1 -8.5 -5.5t-10 -12.5t-7.5 -11z" />
<glyph unicode="|" horiz-adv-x="497" d="M-6 725v305h6q0 5 1 15.5t1 15.5q12 405 21 817v51q3 34 23.5 54.5t53.5 21.5q41 2 123 2q121 0 142 -121q10 -63 10.5 -133t-4 -158t-4.5 -133q0 -32 -5 -202q-12 -626 -20 -934q-3 -124 -20 -230q-7 -53 -30 -72t-79 -24q-32 -4 -51 -4q-148 6 -154 151q-6 195 -14 578 zM37 786q2 -1 9.5 -6.5t12.5 -5.5q29 -2 86 -2h5q57 0 86 2q4 0 8 2t8.5 5.5t7.5 4.5q-3 3 -10 13t-12 12q-12 4 -41 4q-18 -1 -53 -4t-52 -4q-31 0 -37 -2q-4 -1 -7 -4t-6 -8t-5 -7zM47 604q3 -1 9.5 -4.5t12 -5.5t9.5 -2q21 0 69 6l5 -4q83 0 120 2q3 0 19 16q-2 2 -6 7 t-7 7.5t-6 2.5q-134 0 -202 -2q-4 0 -7.5 -4t-8 -10t-7.5 -9zM63 449q0 -4 5 -9.5t8 -5.5q33 -2 98 -2h-6l-6 -2q65 0 98 2q4 0 8 2.5t9.5 7.5t7.5 7q-2 2 -6 9t-7.5 11.5t-7.5 5.5q-119 18 -194 -12q0 -1 -3.5 -6.5t-3.5 -7.5zM68 123q2 -2 5.5 -7t6.5 -7.5t6 -2.5 q0 -2 40 -1l40 1v-2q53 0 80 2q4 0 8 2.5t8.5 6t7.5 4.5q-2 2 -4.5 5t-4.5 5t-4.5 4t-4.5 2q-86 3 -172 0q-2 0 -4 -2t-4.5 -5.5t-3.5 -4.5zM70 285q3 -1 18 -9.5t23 -9.5h67l-6 4h96q4 0 9 3.5t10.5 8.5t9.5 7q-3 2 -9.5 8.5t-12 10t-9.5 3.5q-55 -2 -160 -10 q-6 -1 -36 -16z" />
<glyph unicode="}" horiz-adv-x="790" d="M12 1862q-17 65 4 131q14 39 43.5 57t67.5 8q142 -37 237 -110.5t132 -202.5q6 -21 9.5 -44.5t6 -59t4.5 -50.5h-2q-27 -194 -43 -264q-15 -72 23 -119q51 -59 124 -116q63 -50 68 -117q3 -49 -41 -72q-80 -42 -111.5 -105.5t-23.5 -162.5q13 -144 10 -275 q-3 -147 -100 -241q-146 -139 -314 -60q-79 37 -73 117q10 98 14 117q9 42 32 58.5t68 13.5h7q85 -8 111.5 21t13.5 114q-15 107 -29 176q-36 168 74 315q14 20 12 27t-10 14q-64 50 -82 119t-13 164q1 20 5 82t4.5 82t-0.5 82q-2 52 -37 135q-42 88 -127 102q-48 8 -64 64z M123 205q33 -16 37 -17q5 -1 11.5 -1t13.5 0.5t10 0.5q18 2 89.5 8t110.5 9q9 0 19 0.5t19 1t15 6.5t5 18q-1 21 -23 23.5t-39 -2.5q-34 -3 -233 -29q-5 -1 -11 -4t-13 -7.5t-11 -6.5zM307 637q0 -3 4.5 -8.5t7.5 -5.5q53 -2 160 -2q1 0 13 12q-16 16 -19 16q0 1 -37 1 l-37 -1h-4v2q-53 0 -80 -2q-8 -8 -8 -12z" />
<glyph unicode="&#xa3;" horiz-adv-x="1372" d="M66 1022q9 20 49 29q49 9 102 12q21 1 29 10.5t8 30.5q0 11 1 48.5t1.5 55t3.5 45.5t8 50q64 307 307 385q213 68 375 -72q148 -131 224 -346q10 -31 10 -103q0 -52 -56 -59q-98 -12 -147 -16q-48 -4 -65.5 8t-36.5 59q-50 124 -80 166q-38 57 -82 54t-70 -64 q-9 -22 -17 -49.5t-12 -47.5t-10.5 -54t-9.5 -50q-3 -13 5.5 -17.5t23.5 -4.5l55 1q55 1 55 -1q30 0 74 -7q64 -12 76 -79q1 -5 3 -15.5t3 -15.5q11 -85 -17.5 -119t-113.5 -37h-68l6 -8q-12 1 -36.5 2t-36.5 2q-24 1 -34.5 -9t-12.5 -34q-4 -112 -15 -176q-13 -79 -47 -209 q-7 -19 -3.5 -29.5t28.5 -9.5q41 -1 51 1t50.5 -1.5t50 -3.5t50 -5t50 -6t50 -7t50.5 -7q55 -8 170 -4q71 3 111 54q13 16 26 24q35 23 68.5 8.5t36.5 -55.5q4 -57 0 -172q-1 -30 -18.5 -50.5t-49.5 -41.5q-179 -119 -418 -72q-21 4 -348 74q-119 25 -270 -47q-3 -2 -9.5 -6 t-9.5 -6q-67 -39 -94 -2q-31 41 4 96q113 163 156 420q10 67 18 200q1 41 -5.5 48.5t-45.5 7.5h-24q-81 -6 -123 65q-47 78 -4 162zM172 190q20 -10 25 -10q14 1 39.5 6.5t39.5 6.5q181 8 553 20l7 -8q188 0 282 2h9h9.5t8.5 0.5t8.5 1.5t7.5 2t7.5 4l5 6t4 8t2.5 11 q0 1 -10 4.5t-24.5 6.5t-23.5 3q-147 -2 -436 -10q-75 -2 -430 -17q-39 0 -66 -8q-4 -1 -7 -5.5t-6 -12.5t-5 -11zM254 569q5 -14 10 -14q33 -2 98 -2h5h88q3 0 32 18q-2 1 -13 7t-17 6q-55 2 -166 2q-17 0 -29 -6q-8 -4 -8 -11zM270 381q4 -2 10 -7t10.5 -8.5t8.5 -3.5 q32 2 129 15q9 0 21 8q4 3 24 23l-16 12l2 2q-55 -6 -158 -14q-6 0 -8 -2q-4 -4 -11.5 -12.5t-11.5 -12.5zM803 113q3 -1 7.5 -4.5t8.5 -6t8 -2.5q12 1 86 11v-2h105q4 0 7.5 2.5t9 7t7.5 6.5q-3 3 -9 9.5t-11.5 11t-9.5 4.5q-82 -3 -191 -13q-3 0 -6 -4t-6.5 -10.5 t-5.5 -9.5z" />
<glyph unicode="&#xa8;" horiz-adv-x="700" d="M94 1427q-3 58 31 97t90 41v-2q47 1 78 -28t31 -75q0 -51 -37 -90.5t-86 -40.5q-43 -2 -74.5 26.5t-32.5 71.5zM473 1458q1 45 38.5 81t82.5 36h4q41 0 65.5 -29.5t22.5 -75.5q-1 -49 -33 -81.5t-78 -32.5q-44 0 -73.5 29.5t-28.5 72.5z" />
<glyph unicode="&#xad;" horiz-adv-x="1120" d="M129 731q-6 53 14.5 78.5t73.5 28.5q41 3 87 5t102.5 4t87.5 3q73 3 220.5 9t221.5 9q59 4 88 0q44 -5 69.5 -30.5t28.5 -69.5q4 -61 -10 -92q-15 -30 -59 -49q-30 -11 -86 -15q-198 -12 -578 -32q-21 -1 -63 -4.5t-64 -4.5l-2 -6q-54 -3 -78.5 15.5t-36.5 70.5 q-12 56 -16 80z" />
<glyph unicode="&#xaf;" horiz-adv-x="669" d="M23 1726q-17 64 0 109q19 52 69 55q31 2 95 6.5t96 6.5v-13l4 6q20 0 56 0.5t66 0.5t56 -1q72 -3 90 -71q15 -54 -5 -90.5t-73 -40.5q-143 -13 -385 -21q-53 -3 -69 53z" />
<glyph unicode="&#xb4;" horiz-adv-x="434" d="M0 1677v4q14 36 27 52q49 71 102 135q13 17 37 20q29 6 80.5 -18.5t66.5 -50.5q29 -53 -8 -90q-116 -111 -166 -148q-46 -33 -92.5 -1.5t-46.5 97.5z" />
<glyph unicode="&#xb8;" horiz-adv-x="608" d="M10 121q10 68 78 78q8 1 18 1t22 -0.5t19 -0.5h-4q83 -8 162 45q6 3 19 20q-21 16 -27 17q-94 20 -143 26q-54 6 -76.5 51t8.5 88q7 10 22 17.5t27 7.5q150 6 271 -63q48 -28 69.5 -74.5t19 -92t-21.5 -87.5q-34 -72 -121 -113q-75 -35 -217 -39q-34 0 -82 27 q-53 26 -43 92z" />
<glyph unicode="&#xc0;" d="M8 72v43l6 -4q5 14 15.5 38t18.5 44t13 38q27 91 74.5 254.5t87.5 298t78 252.5q92 292 279 633q23 42 51.5 60t73.5 14q28 -3 60 -3t71.5 1.5t60.5 1.5q49 0 60 -8t28 -54q15 -42 73.5 -203t86.5 -249q86 -273 131 -572q10 -65 98 -573q10 -53 -41 -53q-148 -3 -266 2 q-34 1 -50.5 20t-21.5 58q-3 21 -5 44.5t-4 52t-3 44.5q-5 53 -16.5 64.5t-63.5 11.5h-381q-30 0 -45 -11.5t-22 -40.5q-10 -38 -58 -174q-14 -41 -24.5 -49.5t-46.5 -7.5q-95 2 -283 14q-7 0 -19.5 6t-15.5 7zM80 137q2 -2 7.5 -8.5t9 -10t7.5 -3.5h111v2h80q29 0 41 6 q12 4 12 22q0 5 -6 11t-10 6q-152 0 -228 -2q-4 0 -7.5 -3.5t-8.5 -10t-8 -9.5zM115 264q0 -4 6.5 -9t11.5 -5q37 -2 111 -2h49q55 0 67 2q6 1 16 9.5t13 10.5q-5 4 -15.5 12.5t-15.5 12.5q-2 2 -8 2h-196q-19 0 -27 -8q-12 -12 -12 -25zM174 410q0 -6 7.5 -14.5t13.5 -8.5 q37 -3 73 0q11 1 63 7.5t79 6.5q180 -4 540 -16q20 -1 61 -6t62 -6q77 -3 154 0q8 0 18.5 8.5t11.5 15.5q3 17 -6.5 22t-25.5 5q-59 4 -185 8q-78 3 -233.5 9.5t-233.5 9.5l-2 2v-7h-209q-57 -2 -167 -14q-6 -2 -13.5 -9t-7.5 -13zM254 551q7 -18 25 -25q4 -2 9 -2t11.5 1 t9.5 1q159 6 160 6h670q42 0 49 3q4 2 8.5 6.5t7.5 8.5l7.5 10t7.5 9q-1 0 -15.5 6.5t-21.5 6.5h-430h-4h-406q-28 0 -74 -11q-5 -2 -10 -9.5t-4 -10.5zM502.5 2188.5q11.5 36.5 60.5 56.5t87 22.5t72 -19.5t56 -73q17 -40 84 -166q40 -79 12.5 -121.5t-120.5 -42.5l2 2 q-83 -6 -127 68q-78 126 -113 192q-25 45 -13.5 81.5zM577.5 646.5q5.5 -9.5 26.5 -9.5h111v-4q117 5 141 8q35 4 43 14.5t0 42.5q-31 146 -45 195q-19 73 -70 233q-1 3 -22 29q-2 -4 -7 -12.5t-7 -12.5q-62 -171 -168 -454q-8 -20 -2.5 -29.5zM1018 268q2 -2 7.5 -8t9 -9.5 t7.5 -4.5q81 -9 166 -15q25 0 29 2q7 3 27 23q-1 1 -7.5 8t-10.5 10.5t-9 4.5q-20 4 -43 7t-50.5 6t-43.5 5l4 2v-6q-51 0 -60 -2q-4 -1 -8.5 -4.5t-10 -10t-7.5 -8.5zM1057 131q2 -2 6 -5t6.5 -5.5t6.5 -4.5t7 -3q78 -9 160 -15q26 -4 43 2q12 6 17 29q0 3 -7.5 10t-13.5 8 q-70 12 -141 21h8v-6q-56 0 -66 -2q-4 -1 -8.5 -5.5t-10 -12.5t-7.5 -11z" />
<glyph unicode="&#xc1;" d="M8 72v43l6 -4q5 14 15.5 38t18.5 44t13 38q27 91 74.5 254.5t87.5 298t78 252.5q92 292 279 633q23 42 51.5 60t73.5 14q28 -3 60 -3t71.5 1.5t60.5 1.5q49 0 60 -8t28 -54q15 -42 73.5 -203t86.5 -249q86 -273 131 -572q10 -65 98 -573q10 -53 -41 -53q-148 -3 -266 2 q-34 1 -50.5 20t-21.5 58q-3 21 -5 44.5t-4 52t-3 44.5q-5 53 -16.5 64.5t-63.5 11.5h-381q-30 0 -45 -11.5t-22 -40.5q-10 -38 -58 -174q-14 -41 -24.5 -49.5t-46.5 -7.5q-95 2 -283 14q-7 0 -19.5 6t-15.5 7zM80 137q2 -2 7.5 -8.5t9 -10t7.5 -3.5h111v2h80q29 0 41 6 q12 4 12 22q0 5 -6 11t-10 6q-152 0 -228 -2q-4 0 -7.5 -3.5t-8.5 -10t-8 -9.5zM115 264q0 -4 6.5 -9t11.5 -5q37 -2 111 -2h49q55 0 67 2q6 1 16 9.5t13 10.5q-5 4 -15.5 12.5t-15.5 12.5q-2 2 -8 2h-196q-19 0 -27 -8q-12 -12 -12 -25zM174 410q0 -6 7.5 -14.5t13.5 -8.5 q37 -3 73 0q11 1 63 7.5t79 6.5q180 -4 540 -16q20 -1 61 -6t62 -6q77 -3 154 0q8 0 18.5 8.5t11.5 15.5q3 17 -6.5 22t-25.5 5q-59 4 -185 8q-78 3 -233.5 9.5t-233.5 9.5l-2 2v-7h-209q-57 -2 -167 -14q-6 -2 -13.5 -9t-7.5 -13zM254 551q7 -18 25 -25q4 -2 9 -2t11.5 1 t9.5 1q159 6 160 6h670q42 0 49 3q4 2 8.5 6.5t7.5 8.5l7.5 10t7.5 9q-1 0 -15.5 6.5t-21.5 6.5h-430h-4h-406q-28 0 -74 -11q-5 -2 -10 -9.5t-4 -10.5zM528 1958v4q13 34 27 51q49 71 102 135q14 18 37 21q29 6 81 -19t67 -51q29 -53 -8 -90q-111 -107 -166 -147 q-46 -33 -93 -1t-47 97zM577.5 646.5q5.5 -9.5 26.5 -9.5h111v-4q117 5 141 8q35 4 43 14.5t0 42.5q-31 146 -45 195q-19 73 -70 233q-1 3 -22 29q-2 -4 -7 -12.5t-7 -12.5q-62 -171 -168 -454q-8 -20 -2.5 -29.5zM1018 268q2 -2 7.5 -8t9 -9.5t7.5 -4.5q81 -9 166 -15 q25 0 29 2q7 3 27 23q-1 1 -7.5 8t-10.5 10.5t-9 4.5q-20 4 -43 7t-50.5 6t-43.5 5l4 2v-6q-51 0 -60 -2q-4 -1 -8.5 -4.5t-10 -10t-7.5 -8.5zM1057 131q2 -2 6 -5t6.5 -5.5t6.5 -4.5t7 -3q78 -9 160 -15q26 -4 43 2q12 6 17 29q0 3 -7.5 10t-13.5 8q-70 12 -141 21h8v-6 q-56 0 -66 -2q-4 -1 -8.5 -5.5t-10 -12.5t-7.5 -11z" />
<glyph unicode="&#xc3;" d="M8 72v43l6 -4q5 14 15.5 38t18.5 44t13 38q27 91 74.5 254.5t87.5 298t78 252.5q92 292 279 633q23 42 51.5 60t73.5 14q28 -3 60 -3t71.5 1.5t60.5 1.5q49 0 60 -8t28 -54q15 -42 73.5 -203t86.5 -249q86 -273 131 -572q10 -65 98 -573q10 -53 -41 -53q-148 -3 -266 2 q-34 1 -50.5 20t-21.5 58q-3 21 -5 44.5t-4 52t-3 44.5q-5 53 -16.5 64.5t-63.5 11.5h-381q-30 0 -45 -11.5t-22 -40.5q-10 -38 -58 -174q-14 -41 -24.5 -49.5t-46.5 -7.5q-95 2 -283 14q-7 0 -19.5 6t-15.5 7zM80 137q2 -2 7.5 -8.5t9 -10t7.5 -3.5h111v2h80q29 0 41 6 q12 4 12 22q0 5 -6 11t-10 6q-152 0 -228 -2q-4 0 -7.5 -3.5t-8.5 -10t-8 -9.5zM115 264q0 -4 6.5 -9t11.5 -5q37 -2 111 -2h49q55 0 67 2q6 1 16 9.5t13 10.5q-5 4 -15.5 12.5t-15.5 12.5q-2 2 -8 2h-196q-19 0 -27 -8q-12 -12 -12 -25zM174 410q0 -6 7.5 -14.5t13.5 -8.5 q37 -3 73 0q11 1 63 7.5t79 6.5q180 -4 540 -16q20 -1 61 -6t62 -6q77 -3 154 0q8 0 18.5 8.5t11.5 15.5q3 17 -6.5 22t-25.5 5q-59 4 -185 8q-78 3 -233.5 9.5t-233.5 9.5l-2 2v-7h-209q-57 -2 -167 -14q-6 -2 -13.5 -9t-7.5 -13zM254 551q7 -18 25 -25q4 -2 9 -2t11.5 1 t9.5 1q159 6 160 6h670q42 0 49 3q4 2 8.5 6.5t7.5 8.5l7.5 10t7.5 9q-1 0 -15.5 6.5t-21.5 6.5h-430h-4h-406q-28 0 -74 -11q-5 -2 -10 -9.5t-4 -10.5zM328 1976q-3 140 84 213q85 73 180 15q30 -18 102 -82q13 -10 35.5 -33t34.5 -33q26 -20 43 -15t31 36q11 27 22 77 q13 66 34.5 85.5t72.5 13.5q46 -6 67 -35.5t21 -87.5v-6v-4q0 -181 -150 -250q-140 -63 -239 33q-30 29 -88 90q-28 32 -43 -8q-2 -6 -6.5 -18.5t-6.5 -18.5q-31 -75 -102 -66q-30 5 -60.5 34.5t-31.5 59.5zM577.5 646.5q5.5 -9.5 26.5 -9.5h111v-4q117 5 141 8 q35 4 43 14.5t0 42.5q-31 146 -45 195q-19 73 -70 233q-1 3 -22 29q-2 -4 -7 -12.5t-7 -12.5q-62 -171 -168 -454q-8 -20 -2.5 -29.5zM1018 268q2 -2 7.5 -8t9 -9.5t7.5 -4.5q81 -9 166 -15q25 0 29 2q7 3 27 23q-1 1 -7.5 8t-10.5 10.5t-9 4.5q-20 4 -43 7t-50.5 6t-43.5 5 l4 2v-6q-51 0 -60 -2q-4 -1 -8.5 -4.5t-10 -10t-7.5 -8.5zM1057 131q2 -2 6 -5t6.5 -5.5t6.5 -4.5t7 -3q78 -9 160 -15q26 -4 43 2q12 6 17 29q0 3 -7.5 10t-13.5 8q-70 12 -141 21h8v-6q-56 0 -66 -2q-4 -1 -8.5 -5.5t-10 -12.5t-7.5 -11z" />
<glyph unicode="&#xc4;" d="M8 72v43l6 -4q5 14 15.5 38t18.5 44t13 38q27 91 74.5 254.5t87.5 298t78 252.5q92 292 279 633q23 42 51.5 60t73.5 14q28 -3 60 -3t71.5 1.5t60.5 1.5q49 0 60 -8t28 -54q15 -42 73.5 -203t86.5 -249q86 -273 131 -572q10 -65 98 -573q10 -53 -41 -53q-148 -3 -266 2 q-34 1 -50.5 20t-21.5 58q-3 21 -5 44.5t-4 52t-3 44.5q-5 53 -16.5 64.5t-63.5 11.5h-381q-30 0 -45 -11.5t-22 -40.5q-10 -38 -58 -174q-14 -41 -24.5 -49.5t-46.5 -7.5q-95 2 -283 14q-7 0 -19.5 6t-15.5 7zM80 137q2 -2 7.5 -8.5t9 -10t7.5 -3.5h111v2h80q29 0 41 6 q12 4 12 22q0 5 -6 11t-10 6q-152 0 -228 -2q-4 0 -7.5 -3.5t-8.5 -10t-8 -9.5zM115 264q0 -4 6.5 -9t11.5 -5q37 -2 111 -2h49q55 0 67 2q6 1 16 9.5t13 10.5q-5 4 -15.5 12.5t-15.5 12.5q-2 2 -8 2h-196q-19 0 -27 -8q-12 -12 -12 -25zM174 410q0 -6 7.5 -14.5t13.5 -8.5 q37 -3 73 0q11 1 63 7.5t79 6.5q180 -4 540 -16q20 -1 61 -6t62 -6q77 -3 154 0q8 0 18.5 8.5t11.5 15.5q3 17 -6.5 22t-25.5 5q-59 4 -185 8q-78 3 -233.5 9.5t-233.5 9.5l-2 2v-7h-209q-57 -2 -167 -14q-6 -2 -13.5 -9t-7.5 -13zM254 551q7 -18 25 -25q4 -2 9 -2t11.5 1 t9.5 1q159 6 160 6h670q42 0 49 3q4 2 8.5 6.5t7.5 8.5l7.5 10t7.5 9q-1 0 -15.5 6.5t-21.5 6.5h-430h-4h-406q-28 0 -74 -11q-5 -2 -10 -9.5t-4 -10.5zM397 1944q-3 58 31 96.5t90 40.5v-2q47 1 78 -28t31 -75q0 -51 -37 -90.5t-86 -40.5q-43 -2 -74.5 27t-32.5 72z M577.5 646.5q5.5 -9.5 26.5 -9.5h111v-4q117 5 141 8q35 4 43 14.5t0 42.5q-31 146 -45 195q-19 73 -70 233q-1 3 -22 29q-2 -4 -7 -12.5t-7 -12.5q-62 -171 -168 -454q-8 -20 -2.5 -29.5zM776 1974q1 45 38.5 81t82.5 36h4q41 0 65.5 -29t22.5 -75q-1 -49 -32.5 -82 t-77.5 -33q-44 0 -74 29.5t-29 72.5zM1018 268q2 -2 7.5 -8t9 -9.5t7.5 -4.5q81 -9 166 -15q25 0 29 2q7 3 27 23q-1 1 -7.5 8t-10.5 10.5t-9 4.5q-20 4 -43 7t-50.5 6t-43.5 5l4 2v-6q-51 0 -60 -2q-4 -1 -8.5 -4.5t-10 -10t-7.5 -8.5zM1057 131q2 -2 6 -5t6.5 -5.5 t6.5 -4.5t7 -3q78 -9 160 -15q26 -4 43 2q12 6 17 29q0 3 -7.5 10t-13.5 8q-70 12 -141 21h8v-6q-56 0 -66 -2q-4 -1 -8.5 -5.5t-10 -12.5t-7.5 -11z" />
<glyph unicode="&#xc5;" d="M8 72v43l6 -4q5 14 15.5 38t18.5 44t13 38q27 91 74.5 254.5t87.5 298t78 252.5q92 292 279 633q23 42 51.5 60t73.5 14q28 -3 60 -3t71.5 1.5t60.5 1.5q49 0 60 -8t28 -54q15 -42 73.5 -203t86.5 -249q86 -273 131 -572q10 -65 98 -573q10 -53 -41 -53q-148 -3 -266 2 q-34 1 -50.5 20t-21.5 58q-3 21 -5 44.5t-4 52t-3 44.5q-5 53 -16.5 64.5t-63.5 11.5h-381q-30 0 -45 -11.5t-22 -40.5q-10 -38 -58 -174q-14 -41 -24.5 -49.5t-46.5 -7.5q-95 2 -283 14q-7 0 -19.5 6t-15.5 7zM80 137q2 -2 7.5 -8.5t9 -10t7.5 -3.5h111v2h80q29 0 41 6 q12 4 12 22q0 5 -6 11t-10 6q-152 0 -228 -2q-4 0 -7.5 -3.5t-8.5 -10t-8 -9.5zM115 264q0 -4 6.5 -9t11.5 -5q37 -2 111 -2h49q55 0 67 2q6 1 16 9.5t13 10.5q-5 4 -15.5 12.5t-15.5 12.5q-2 2 -8 2h-196q-19 0 -27 -8q-12 -12 -12 -25zM174 410q0 -6 7.5 -14.5t13.5 -8.5 q37 -3 73 0q11 1 63 7.5t79 6.5q180 -4 540 -16q20 -1 61 -6t62 -6q77 -3 154 0q8 0 18.5 8.5t11.5 15.5q3 17 -6.5 22t-25.5 5q-59 4 -185 8q-78 3 -233.5 9.5t-233.5 9.5l-2 2v-7h-209q-57 -2 -167 -14q-6 -2 -13.5 -9t-7.5 -13zM254 551q7 -18 25 -25q4 -2 9 -2t11.5 1 t9.5 1q159 6 160 6h670q42 0 49 3q4 2 8.5 6.5t7.5 8.5l7.5 10t7.5 9q-1 0 -15.5 6.5t-21.5 6.5h-430h-4h-406q-28 0 -74 -11q-5 -2 -10 -9.5t-4 -10.5zM508 2019q6 95 52.5 141t125.5 46q76 0 131.5 -47t56.5 -121q1 -70 -59 -131.5t-129 -61.5q-70 0 -126 54.5t-52 119.5z M577.5 646.5q5.5 -9.5 26.5 -9.5h111v-4q117 5 141 8q35 4 43 14.5t0 42.5q-31 146 -45 195q-19 73 -70 233q-1 3 -22 29q-2 -4 -7 -12.5t-7 -12.5q-62 -171 -168 -454q-8 -20 -2.5 -29.5zM643 2040q-1 -23 14.5 -40t32.5 -11q9 3 17 14t10 22q3 19 -16.5 36t-43.5 16h2 l-8 -15q-8 -14 -8 -22zM1018 268q2 -2 7.5 -8t9 -9.5t7.5 -4.5q81 -9 166 -15q25 0 29 2q7 3 27 23q-1 1 -7.5 8t-10.5 10.5t-9 4.5q-20 4 -43 7t-50.5 6t-43.5 5l4 2v-6q-51 0 -60 -2q-4 -1 -8.5 -4.5t-10 -10t-7.5 -8.5zM1057 131q2 -2 6 -5t6.5 -5.5t6.5 -4.5t7 -3 q78 -9 160 -15q26 -4 43 2q12 6 17 29q0 3 -7.5 10t-13.5 8q-70 12 -141 21h8v-6q-56 0 -66 -2q-4 -1 -8.5 -5.5t-10 -12.5t-7.5 -11z" />
<glyph unicode="&#xc7;" horiz-adv-x="1220" d="M10 774q-29 275 80 549q127 323 434 395q162 39 328 -8q57 -15 63 -74q14 -149 15 -196q3 -83 -80 -58q-106 31 -141 39q-150 31 -238 -94q-84 -118 -90 -248l-12 -264q-3 -117 51 -266q12 -40 49 -90q34 -42 63 -48t78 19q45 22 113 82q25 23 71.5 71t71.5 70 q42 38 66.5 35.5t58.5 -47.5q72 -93 88 -111q37 -42 8 -71q-23 -23 -66 -68t-69.5 -73t-65.5 -64.5t-73 -65.5q-126 -107 -289 -98l-2 4q-287 14 -418 295q-70 153 -94 385zM102 621q0 -4 8.5 -7.5t23 -7t16.5 -4.5q99 11 141 19q4 1 8.5 4t7.5 6t7.5 8t7.5 8q-3 2 -10 7.5 t-13 8.5t-10 3q-26 -1 -73.5 -6.5t-59.5 -6.5q-2 0 -14.5 -0.5t-16.5 -1.5t-11.5 -4t-10 -9.5t-1.5 -16.5zM154 502q3 -2 7.5 -7t8.5 -8.5t8 -3.5h86l4 -4q72 0 86 2q4 1 9 5t10.5 10.5t9.5 9.5q-3 2 -9.5 8.5t-12 10t-9.5 3.5h-159q-11 0 -15 -2zM215 328q4 -2 11.5 -7 t14 -8.5t11.5 -3.5q80 -2 240 -2l-9 2v-6q179 9 357 21q4 0 16.5 -0.5t19.5 0t12.5 7.5t4.5 21q-1 12 -7.5 17.5t-12.5 5.5t-18 -1t-15 -1q-79 -1 -226 -6.5t-180 -6.5q-20 -1 -84.5 -1.5t-99.5 -2.5q-5 0 -11 -4.5t-13 -12.5t-11 -11zM313 -362q4 32 25 52t53 25h60h-5 q83 -8 162 45q5 3 19 21q-19 14 -27 16q-105 22 -143 27q-54 6 -76.5 51t8.5 88q7 10 22 17.5t27 7.5q149 6 271 -64q48 -28 69.5 -74.5t19 -92t-21.5 -87.5q-33 -71 -121 -112q-75 -35 -217 -39q-36 0 -82 26q-53 26 -43 93zM360 193q-2 -3 5.5 -11.5t13.5 -9.5 q40 -9 110 -20l-6 6v6q152 8 228 14q5 0 11 3t15 9.5t11 8.5q-6 4 -18.5 12t-18.5 12h-9q-43 3 -153.5 -5t-153.5 3q-10 0 -12 -2q-21 -21 -23 -26zM807 502q2 -9 7.5 -18t10.5 -9q74 -3 148 0q4 0 9 8.5t7 16.5q1 3 -5 9.5t-11 6.5q0 2 -37 1l-37 -1v2h-74q-6 0 -13 -6.5 t-5 -9.5z" />
<glyph unicode="&#xc8;" horiz-adv-x="1161" d="M0 1098v536v62q2 50 19.5 71t66.5 27q105 13 190 16q74 4 482 19q90 4 135 8q61 5 90 -19t33 -83q5 -76 2 -172q-2 -47 -20.5 -71t-63.5 -34q-70 -17 -176 -28q-110 -10 -264 -17q-48 -3 -57 -11t-9 -52q-2 -123 -2 -369q0 -37 9.5 -45.5t47.5 -7.5q39 1 108 7t93 7 q90 8 135 8q44 0 64 -20t22 -64q3 -65 0 -127q-3 -53 -25.5 -75t-76.5 -25q-53 -2 -160 -6t-160 -6q-42 -1 -49.5 -9t-9.5 -51l-6 -135q0 -37 35 -37q19 0 58 -1t58 -1q40 1 114 2.5t134.5 2.5t114.5 1q71 0 95.5 -28t16.5 -101q-2 -23 -5 -68t-5 -67q-5 -55 -27 -76.5 t-75 -21.5q-88 -1 -264.5 -1t-264.5 -1q-38 0 -81 -1t-95.5 -2.5t-81.5 -2.5q-7 0 -21.5 -1t-21.5 -1q-39 3 -55.5 19t-19.5 54q-16 274 -17 303q-2 0 -1 298l1 298zM61 604q2 -2 7.5 -7t9.5 -8t8 -3q0 -2 43 -1l43 1l4 -4v-7q81 10 146 21q4 1 7.5 4.5t7.5 9t7 8.5 q-3 2 -9.5 9t-12 10.5t-9.5 3.5q-62 -2 -196 -10q-27 0 -31 -2q-4 -3 -8.5 -7t-9 -9.5t-7.5 -8.5zM74 266q2 -3 5.5 -10.5t6 -12t6.5 -5.5q41 -9 80 -9q43 2 129 7.5t129 7.5q70 2 209 2h246q55 0 67 2q6 1 27 22q-2 2 -6 7t-7 8t-7 5.5t-7 2.5q-126 8 -190 8 q-35 0 -215 -10l-6 2l-105 1q-104 0 -104 -1q-78 -2 -234 -14q-4 0 -8 -2.5t-8.5 -6t-7.5 -4.5zM74 432q3 -1 9.5 -4.5t11.5 -5.5t9 -2q10 0 21.5 1t25 2.5t21.5 2.5v-2v-6q106 12 154 20q4 0 9 5t5 8q-4 17 -12 22q-8 4 -31 4q-98 -4 -147 -8q-33 -4 -58 -12q-4 -2 -7 -6 t-6 -10t-5 -9zM119 131q3 -2 7.5 -6.5t7.5 -7t7.5 -5t8.5 -3.5q12 -3 51 -3h307v5q35 0 98.5 -0.5t116 -0.5t98.5 1q18 0 86 14q4 1 10.5 9.5t4.5 10.5q-16 21 -25 21q-17 0 -49 -4t-49 -4q-199 -2 -596 -2q-43 0 -51 -2q-5 -1 -10.5 -4.5t-13 -10t-9.5 -8.5zM348 2202 q-52 96 47 137q49 20 87 22.5t72 -19.5t56 -73q17 -40 84 -166q40 -79 12.5 -121.5t-120.5 -42.5l2 3q-84 -6 -127 67q-74 120 -113 193z" />
<glyph unicode="&#xc9;" horiz-adv-x="1161" d="M0 1098v536v62q2 50 19.5 71t66.5 27q105 13 190 16q74 4 482 19q90 4 135 8q61 5 90 -19t33 -83q5 -76 2 -172q-2 -47 -20.5 -71t-63.5 -34q-70 -17 -176 -28q-110 -10 -264 -17q-48 -3 -57 -11t-9 -52q-2 -123 -2 -369q0 -37 9.5 -45.5t47.5 -7.5q39 1 108 7t93 7 q90 8 135 8q44 0 64 -20t22 -64q3 -65 0 -127q-3 -53 -25.5 -75t-76.5 -25q-53 -2 -160 -6t-160 -6q-42 -1 -49.5 -9t-9.5 -51l-6 -135q0 -37 35 -37q19 0 58 -1t58 -1q40 1 114 2.5t134.5 2.5t114.5 1q71 0 95.5 -28t16.5 -101q-2 -23 -5 -68t-5 -67q-5 -55 -27 -76.5 t-75 -21.5q-88 -1 -264.5 -1t-264.5 -1q-38 0 -81 -1t-95.5 -2.5t-81.5 -2.5q-7 0 -21.5 -1t-21.5 -1q-39 3 -55.5 19t-19.5 54q-16 274 -17 303q-2 0 -1 298l1 298zM61 604q2 -2 7.5 -7t9.5 -8t8 -3q0 -2 43 -1l43 1l4 -4v-7q81 10 146 21q4 1 7.5 4.5t7.5 9t7 8.5 q-3 2 -9.5 9t-12 10.5t-9.5 3.5q-62 -2 -196 -10q-27 0 -31 -2q-4 -3 -8.5 -7t-9 -9.5t-7.5 -8.5zM74 266q2 -3 5.5 -10.5t6 -12t6.5 -5.5q41 -9 80 -9q43 2 129 7.5t129 7.5q70 2 209 2h246q55 0 67 2q6 1 27 22q-2 2 -6 7t-7 8t-7 5.5t-7 2.5q-126 8 -190 8 q-35 0 -215 -10l-6 2l-105 1q-104 0 -104 -1q-78 -2 -234 -14q-4 0 -8 -2.5t-8.5 -6t-7.5 -4.5zM74 432q3 -1 9.5 -4.5t11.5 -5.5t9 -2q10 0 21.5 1t25 2.5t21.5 2.5v-2v-6q106 12 154 20q4 0 9 5t5 8q-4 17 -12 22q-8 4 -31 4q-98 -4 -147 -8q-33 -4 -58 -12q-4 -2 -7 -6 t-6 -10t-5 -9zM119 131q3 -2 7.5 -6.5t7.5 -7t7.5 -5t8.5 -3.5q12 -3 51 -3h307v5q35 0 98.5 -0.5t116 -0.5t98.5 1q18 0 86 14q4 1 10.5 9.5t4.5 10.5q-16 21 -25 21q-17 0 -49 -4t-49 -4q-199 -2 -596 -2q-43 0 -51 -2q-5 -1 -10.5 -4.5t-13 -10t-9.5 -8.5zM360 2052v4 q13 34 27 51q55 78 102 136q13 17 37 20q29 6 81 -19t67 -51q29 -53 -8 -90q-111 -107 -166 -147q-46 -33 -93 -1t-47 97z" />
<glyph unicode="&#xcb;" horiz-adv-x="1161" d="M0 1098v536v62q2 50 19.5 71t66.5 27q105 13 190 16q74 4 482 19q90 4 135 8q61 5 90 -19t33 -83q5 -76 2 -172q-2 -47 -20.5 -71t-63.5 -34q-70 -17 -176 -28q-110 -10 -264 -17q-48 -3 -57 -11t-9 -52q-2 -123 -2 -369q0 -37 9.5 -45.5t47.5 -7.5q39 1 108 7t93 7 q90 8 135 8q44 0 64 -20t22 -64q3 -65 0 -127q-3 -53 -25.5 -75t-76.5 -25q-53 -2 -160 -6t-160 -6q-42 -1 -49.5 -9t-9.5 -51l-6 -135q0 -37 35 -37q19 0 58 -1t58 -1q40 1 114 2.5t134.5 2.5t114.5 1q71 0 95.5 -28t16.5 -101q-2 -23 -5 -68t-5 -67q-5 -55 -27 -76.5 t-75 -21.5q-88 -1 -264.5 -1t-264.5 -1q-38 0 -81 -1t-95.5 -2.5t-81.5 -2.5q-7 0 -21.5 -1t-21.5 -1q-39 3 -55.5 19t-19.5 54q-16 274 -17 303q-2 0 -1 298l1 298zM61 604q2 -2 7.5 -7t9.5 -8t8 -3q0 -2 43 -1l43 1l4 -4v-7q81 10 146 21q4 1 7.5 4.5t7.5 9t7 8.5 q-3 2 -9.5 9t-12 10.5t-9.5 3.5q-62 -2 -196 -10q-27 0 -31 -2q-4 -3 -8.5 -7t-9 -9.5t-7.5 -8.5zM74 266q2 -3 5.5 -10.5t6 -12t6.5 -5.5q41 -9 80 -9q43 2 129 7.5t129 7.5q70 2 209 2h246q55 0 67 2q6 1 27 22q-2 2 -6 7t-7 8t-7 5.5t-7 2.5q-126 8 -190 8 q-35 0 -215 -10l-6 2l-105 1q-104 0 -104 -1q-78 -2 -234 -14q-4 0 -8 -2.5t-8.5 -6t-7.5 -4.5zM74 432q3 -1 9.5 -4.5t11.5 -5.5t9 -2q10 0 21.5 1t25 2.5t21.5 2.5v-2v-6q106 12 154 20q4 0 9 5t5 8q-4 17 -12 22q-8 4 -31 4q-98 -4 -147 -8q-33 -4 -58 -12q-4 -2 -7 -6 t-6 -10t-5 -9zM119 131q3 -2 7.5 -6.5t7.5 -7t7.5 -5t8.5 -3.5q12 -3 51 -3h307v5q35 0 98.5 -0.5t116 -0.5t98.5 1q18 0 86 14q4 1 10.5 9.5t4.5 10.5q-16 21 -25 21q-17 0 -49 -4t-49 -4q-199 -2 -596 -2q-43 0 -51 -2q-5 -1 -10.5 -4.5t-13 -10t-9.5 -8.5zM229 2038 q-3 58 31 96.5t90 40.5v-2q47 2 78 -27t31 -75q0 -51 -37 -91t-86 -41q-43 -2 -74.5 27t-32.5 72zM608 2068q1 45 38.5 81t82.5 36h4q41 0 65.5 -29t22.5 -75q-1 -49 -32.5 -82t-77.5 -33q-44 0 -74 29.5t-29 72.5z" />
<glyph unicode="&#xcc;" horiz-adv-x="536" d="M39 1675q-5 41 14.5 73.5t57.5 39.5q107 19 204 16q43 -1 64.5 -22t30.5 -66q6 -27 6 -80q15 -574 33 -1149q2 -52 7 -156.5t7 -156.5q3 -71 -28 -103t-91 -30q-127 0 -162 4q-42 6 -69 36.5t-33 76.5q-15 111 -17 184q-6 207 -14 621q0 62 -3.5 374.5t-6.5 337.5z M76 2169q-52 96 47 137q49 20 87 22.5t72 -19.5t56 -73q15 -34 84 -165q40 -79 12 -121.5t-121 -42.5l2 2q-84 -6 -127 67q-67 109 -112 193zM115 508q3 -2 11 -8t11 -6q106 9 217 24q3 0 6 2.5t7 7.5t6 7q-14 14 -21 14h-59l2 -2v6q-84 -9 -160 -21q-4 -1 -7 -5t-7 -10.5 t-6 -8.5zM121 647q0 -2 8 -5t14 -3q30 3 203 23q8 0 31 10v2q-5 4 -11.5 9.5t-10 8t-7.5 2.5q-125 10 -219 -16q-8 -3 -8 -31zM143 354q3 -1 9.5 -4.5t12 -5.5t9.5 -2q10 1 31 5t31 5q22 3 67.5 8.5t67.5 8.5q3 1 6 4t6.5 7.5t5.5 6.5q-2 1 -6 4.5t-7 5.5t-7 2q0 1 -34 1 l-34 -1h4h-51q-44 -6 -92 -18q-4 -1 -7 -5t-7 -12zM174 188q16 -16 19 -16q1 -2 34 -1l33 1h2v-6q16 3 44.5 7.5t52 8.5t44.5 8q4 1 7 5t6.5 10.5t5.5 9.5q-3 1 -9.5 4.5t-11 5.5t-8.5 2q-43 -2 -129 -10q-48 -4 -74 -8q-3 -1 -8.5 -10t-7.5 -11z" />
<glyph unicode="&#xcd;" horiz-adv-x="536" d="M39 1675q-5 41 14.5 73.5t57.5 39.5q107 19 204 16q43 -1 64.5 -22t30.5 -66q6 -27 6 -80q15 -574 33 -1149q2 -52 7 -156.5t7 -156.5q3 -71 -28 -103t-91 -30q-127 0 -162 4q-42 6 -69 36.5t-33 76.5q-15 111 -17 184q-6 207 -14 621q0 62 -3.5 374.5t-6.5 337.5z M88 2019v4q14 36 27 52q49 71 102 135q13 17 37 20q29 6 80.5 -18.5t66.5 -50.5q29 -53 -8 -90q-116 -111 -166 -148q-46 -33 -92.5 -1.5t-46.5 97.5zM115 508q3 -2 11 -8t11 -6q106 9 217 24q3 0 6 2.5t7 7.5t6 7q-14 14 -21 14h-59l2 -2v6q-84 -9 -160 -21q-4 -1 -7 -5 t-7 -10.5t-6 -8.5zM121 647q0 -2 8 -5t14 -3q30 3 203 23q8 0 31 10v2q-5 4 -11.5 9.5t-10 8t-7.5 2.5q-125 10 -219 -16q-8 -3 -8 -31zM143 354q3 -1 9.5 -4.5t12 -5.5t9.5 -2q10 1 31 5t31 5q22 3 67.5 8.5t67.5 8.5q3 1 6 4t6.5 7.5t5.5 6.5q-2 1 -6 4.5t-7 5.5t-7 2 q0 1 -34 1l-34 -1h4h-51q-44 -6 -92 -18q-4 -1 -7 -5t-7 -12zM174 188q16 -16 19 -16q1 -2 34 -1l33 1h2v-6q16 3 44.5 7.5t52 8.5t44.5 8q4 1 7 5t6.5 10.5t5.5 9.5q-3 1 -9.5 4.5t-11 5.5t-8.5 2q-43 -2 -129 -10q-48 -4 -74 -8q-3 -1 -8.5 -10t-7.5 -11z" />
<glyph unicode="&#xcf;" horiz-adv-x="536" d="M-125 2005q-3 58 31 96.5t90 40.5v-2q47 1 77.5 -27.5t30.5 -74.5q0 -51 -36.5 -90.5t-85.5 -40.5q-43 -2 -74.5 26.5t-32.5 71.5zM-43 1675q-5 41 14.5 73.5t57.5 39.5q107 19 204 16q43 -1 64.5 -22t30.5 -66q6 -27 6 -80q15 -574 33 -1149q2 -52 7 -156.5t7 -156.5 q3 -71 -28 -103t-91 -30q-127 0 -162 4q-42 6 -69 36.5t-33 76.5q-13 101 -16 184q-9 310 -15 621q0 62 -3.5 374.5t-6.5 337.5zM33 508q3 -2 11 -8t11 -6q106 9 217 24q3 0 6 2.5t7 7.5t6 7q-14 14 -21 14h-59l2 -2v6q-84 -9 -160 -21q-4 -1 -7 -5t-7 -10.5t-6 -8.5z M39 647q0 -2 8 -5t14 -3q30 3 203 23q8 0 31 10v2q-5 4 -11.5 9.5t-10 8t-7.5 2.5q-125 10 -219 -16q-8 -3 -8 -31zM61 354q3 -1 9.5 -4.5t12 -5.5t9.5 -2q10 1 31 5t31 5q22 3 67 8.5t68 8.5q3 1 6 4t6.5 7.5t5.5 6.5q-2 1 -6 4.5t-7 5.5t-7 2q0 1 -34 1l-34 -1h4h-51 q-44 -6 -92 -18q-4 -1 -7 -5t-7 -12zM92 188q16 -16 19 -16q1 -2 34 -1l33 1h2v-6q16 3 44.5 7.5t52.5 8.5t45 8q4 1 7 5t6 10.5t5 9.5q-3 1 -9.5 4.5t-11 5.5t-8.5 2q-43 -2 -129 -10q-46 -4 -73 -8q-3 -1 -9 -10t-8 -11zM254 2036q1 45 38.5 80.5t82.5 35.5h4 q41 0 65.5 -29t22.5 -75q-1 -49 -33 -82t-78 -33q-44 0 -74 30t-28 73z" />
<glyph unicode="&#xd1;" horiz-adv-x="1300" d="M20 1655q0 70 28 100.5t99 38.5h25q87 4 126.5 -5.5t65.5 -39.5t62 -109q225 -487 334 -718q5 -13 12.5 -26.5t19 -31t15.5 -24.5q1 11 4.5 42.5t3.5 49.5v350l-12 395q0 76 47 113q26 20 132 25.5t134 -11.5q38 -22 41 -73q12 -140 12 -142q30 -870 35 -1052 q6 -181 0 -363q-2 -59 -21 -81.5t-77 -31.5q-53 -9 -213 -18q-53 -3 -84 51q-53 87 -88 156q-88 166 -260 498q-3 5 -8.5 16t-8.5 16q-2 5 -16 23q-6 -24 -6 -25q0 -34 4 -104q25 -436 29 -529q3 -57 -17.5 -82t-77.5 -32q-111 -12 -221 -15q-42 0 -56.5 17t-16.5 61 q-5 127 -17.5 381t-17.5 381q-3 66 -8 393q-3 203 -3 406zM80 457q0 -5 3.5 -11t6.5 -6q23 -2 68 -2h-4v6v-6q64 9 129 21q4 1 8 4t8.5 7.5t7.5 6.5q-3 1 -7.5 4.5t-8.5 5.5t-8 2q-63 -4 -197 -16q-6 -10 -6 -16zM84 598l18 -12h2q97 18 158 32q3 1 9 9t8 10q-21 11 -23 10 q-35 -5 -156 -29q-3 -1 -8.5 -9.5t-7.5 -10.5zM111 297l24 -16l2 4q29 2 94 6.5t97 7.5q4 1 9.5 5t11.5 10.5t9 9.5q-2 1 -15.5 10.5t-20.5 9.5q-18 -1 -50.5 -7t-42.5 -7q-9 -1 -25 -1t-29 -1t-25 -4q-6 -1 -12 -4.5t-16 -13t-11 -9.5zM123 160q10 -2 30.5 -6.5t30.5 -6.5 q3 -1 6.5 -1t8.5 0.5t8 0.5v-2v-6q118 19 145 25q3 1 5.5 4.5t6 9t5.5 8.5q-3 1 -8 4.5t-9 6t-8 2.5q-68 -5 -160 -19q-6 -1 -21.5 1.5t-25.5 -1t-14 -20.5zM250 2050q-3 140 84 213q84 72 180 14q30 -18 102 -82q12 -10 34.5 -32.5t35.5 -32.5q26 -20 43 -15.5t31 35.5 q10 26 22 78q13 66 34.5 85.5t72.5 13.5q46 -6 67 -35.5t21 -87.5v-6v-5q0 -180 -150 -249q-141 -64 -239 32q-30 29 -88 90q-28 32 -43 -8q-2 -6 -6.5 -18.5t-6.5 -18.5q-30 -75 -102 -65q-30 5 -60.5 34.5t-31.5 59.5zM610 637q16 -16 19 -16q67 -3 135 -3q56 3 168.5 9.5 t169.5 9.5h20t22.5 0.5t14.5 7.5t6 21q-1 19 -23.5 21t-39.5 -3q-38 -2 -114 -7t-114 -7q-41 -3 -122.5 -8.5t-122.5 -8.5q-3 0 -19 -16zM666 508q2 -2 4.5 -5t4.5 -5t4.5 -4t4.5 -2q53 -3 104 -3l3 -2q50 3 150.5 8.5t150.5 8.5q25 2 71 18q6 3 6 19q0 2 -3.5 5t-6.5 3 q-45 4 -67 2q-168 -8 -252 -14q-30 -2 -160 -17q-3 0 -5 -2t-5 -5.5t-4 -4.5zM756 365q2 -2 5.5 -7t6.5 -7.5t6 -2.5q0 -2 43 -1l43 1l4 -8q45 3 135.5 9t135.5 9q10 0 12 2q4 4 7.5 8.5t7 10t5.5 8.5q-2 2 -8 7.5t-10 8.5t-8 3q-16 -1 -46.5 -6.5t-45.5 -6.5 q-27 -1 -81.5 0t-80.5 0q-20 -1 -117 -16q-3 0 -5 -2t-5 -5.5t-4 -4.5zM836 193l16 -21l2 4q90 2 242 6q26 0 30 2t8.5 5.5t9.5 9.5t7 8q-3 2 -9.5 7t-12 8t-9.5 3q-15 0 -42 -4.5t-38 -5.5q-28 -1 -85.5 -2t-86.5 -2q-5 0 -10.5 -3t-12 -8t-9.5 -7z" />
<glyph unicode="&#xd2;" horiz-adv-x="1372" d="M16 879q17 368 138 604q51 102 129 196q102 122 274 144q147 20 221 4q360 -77 455 -428q62 -226 41 -457q-27 -275 -68 -416q-51 -184 -166 -319q-147 -177 -360 -197q-156 -15 -293 66q-250 148 -319 461q-9 39 -16.5 86t-11.5 79.5t-10.5 89t-9.5 82.5zM115 616 q0 -4 8.5 -8t23.5 -8.5t21 -7.5v-2v6q145 8 221 14q11 2 24.5 11t14.5 16q1 9 -3.5 13.5t-9 5t-14 1t-12.5 0.5h-24q-33 -2 -98.5 -6t-98.5 -6q-3 0 -17 -0.5t-19 -1.5t-11 -8t-6 -19zM166 434l24 -24l-4 2q88 10 95 10q27 3 82 8t83 8q14 2 20.5 9.5t2.5 19.5q-1 6 -10 11 t-15 5q-15 -1 -43 -5t-43 -5q-27 -3 -82 -8t-83 -8q-5 -1 -9 -4.5t-10.5 -10.5t-7.5 -8zM299 266q29 -12 31 -12h30v2q12 1 37 3t37 3q40 4 120 12.5t120 12.5q49 5 147.5 15t147.5 15q14 2 35 15q10 9 6 20q-3 5 -17 10q-9 3 -22 3q-44 -5 -132 -16.5t-132 -16.5 t-132.5 -14.5t-132.5 -14.5q-75 -8 -116 -14q-5 -1 -9 -4.5t-10.5 -10.5t-7.5 -8zM471 2200q-52 96 47 137q49 20 87 22.5t72 -19.5t56 -73q17 -40 84 -166q40 -79 12.5 -121.5t-120.5 -42.5l2 2q-83 -6 -127 68q-74 120 -113 193zM483 139q35 -12 37 -12h37l2 10v-6 q94 11 197 27q34 4 49 8q10 5 10 14q0 8 -14 13q-10 2 -31 2q-26 -3 -79.5 -9.5t-80.5 -9.5q-65 -8 -94 -14q-5 -1 -10.5 -4.5t-13 -10t-9.5 -8.5zM512 723q26 -142 90 -242q31 -49 73 -52t79 40q31 39 49 82q82 198 76 418h4l1 55q2 55 -1 55q-15 155 -90 230 q-40 39 -99.5 39t-95.5 -39q-51 -53 -78 -140q-58 -189 -8 -446zM860 461q25 -20 29 -23l2 2q102 15 147 25q4 1 21 24q-3 1 -8 4.5t-9 6t-8 2.5q-87 -7 -145 -17q-4 -1 -9 -5t-11 -10zM905 623q8 -15 22.5 -18.5t28.5 -1t31 -3.5l6 -4q88 17 101 20q3 1 14 23 q-15 10 -18 10q-74 0 -111 -4q-10 -2 -74 -22z" />
<glyph unicode="&#xd3;" horiz-adv-x="1372" d="M16 879q17 368 138 604q51 102 129 196q102 122 274 144q147 20 221 4q360 -77 455 -428q62 -226 41 -457q-27 -275 -68 -416q-51 -184 -166 -319q-147 -177 -360 -197q-156 -15 -293 66q-250 148 -319 461q-9 39 -16.5 86t-11.5 79.5t-10.5 89t-9.5 82.5zM115 616 q0 -4 8.5 -8t23.5 -8.5t21 -7.5v-2v6q145 8 221 14q11 2 24.5 11t14.5 16q1 9 -3.5 13.5t-9 5t-14 1t-12.5 0.5h-24q-33 -2 -98.5 -6t-98.5 -6q-3 0 -17 -0.5t-19 -1.5t-11 -8t-6 -19zM166 434l24 -24l-4 2q88 10 95 10q27 3 82 8t83 8q14 2 20.5 9.5t2.5 19.5q-1 6 -10 11 t-15 5q-15 -1 -43 -5t-43 -5q-27 -3 -82 -8t-83 -8q-5 -1 -9 -4.5t-10.5 -10.5t-7.5 -8zM299 266q29 -12 31 -12h30v2q12 1 37 3t37 3q40 4 120 12.5t120 12.5q49 5 147.5 15t147.5 15q14 2 35 15q10 9 6 20q-3 5 -17 10q-9 3 -22 3q-44 -5 -132 -16.5t-132 -16.5 t-132.5 -14.5t-132.5 -14.5q-75 -8 -116 -14q-5 -1 -9 -4.5t-10.5 -10.5t-7.5 -8zM483 139q35 -12 37 -12h37l2 10v-6q94 11 197 27q34 4 49 8q10 5 10 14q0 8 -14 13q-10 2 -31 2q-26 -3 -79.5 -9.5t-80.5 -9.5q-65 -8 -94 -14q-5 -1 -10.5 -4.5t-13 -10t-9.5 -8.5z M483 2050v4q13 34 27 51q55 78 102 136q13 17 37 20q29 6 81 -19t67 -51q29 -52 -9 -90q-115 -110 -165 -147q-46 -33 -93 -1t-47 97zM512 723q26 -142 90 -242q31 -49 73 -52t79 40q31 39 49 82q82 198 76 418h4l1 55q2 55 -1 55q-15 155 -90 230q-40 39 -99.5 39 t-95.5 -39q-51 -53 -78 -140q-58 -189 -8 -446zM860 461q25 -20 29 -23l2 2q102 15 147 25q4 1 21 24q-3 1 -8 4.5t-9 6t-8 2.5q-87 -7 -145 -17q-4 -1 -9 -5t-11 -10zM905 623q8 -15 22.5 -18.5t28.5 -1t31 -3.5l6 -4q88 17 101 20q3 1 14 23q-15 10 -18 10q-74 0 -111 -4 q-10 -2 -74 -22z" />
<glyph unicode="&#xd5;" horiz-adv-x="1372" d="M16 879q17 368 138 604q51 102 129 196q102 122 274 144q147 20 221 4q360 -77 455 -428q62 -226 41 -457q-27 -275 -68 -416q-51 -184 -166 -319q-147 -177 -360 -197q-156 -15 -293 66q-250 148 -319 461q-9 39 -16.5 86t-11.5 79.5t-10.5 89t-9.5 82.5zM115 616 q0 -4 8.5 -8t23.5 -8.5t21 -7.5v-2v6q145 8 221 14q11 2 24.5 11t14.5 16q1 9 -3.5 13.5t-9 5t-14 1t-12.5 0.5h-24q-33 -2 -98.5 -6t-98.5 -6q-3 0 -17 -0.5t-19 -1.5t-11 -8t-6 -19zM166 434l24 -24l-4 2q88 10 95 10q27 3 82 8t83 8q14 2 20.5 9.5t2.5 19.5q-1 6 -10 11 t-15 5q-15 -1 -43 -5t-43 -5q-27 -3 -82 -8t-83 -8q-5 -1 -9 -4.5t-10.5 -10.5t-7.5 -8zM283 2068q-3 140 84 213q85 73 180 15q30 -18 102 -82q13 -10 35.5 -33t34.5 -33q26 -20 43 -15t31 36q11 26 22 78q13 66 34.5 85t72.5 13q46 -6 67 -35.5t21 -87.5v-6v-4 q0 -181 -150 -250q-140 -63 -239 33q-38 36 -89 90q-28 32 -43 -8q-2 -6 -6 -18.5t-6 -18.5q-31 -75 -102 -66q-30 5 -60.5 34.5t-31.5 59.5zM299 266q29 -12 31 -12h30v2q12 1 37 3t37 3q40 4 120 12.5t120 12.5q49 5 147.5 15t147.5 15q14 2 35 15q10 9 6 20q-3 5 -17 10 q-9 3 -22 3q-44 -5 -132 -16.5t-132 -16.5t-132.5 -14.5t-132.5 -14.5q-75 -8 -116 -14q-5 -1 -9 -4.5t-10.5 -10.5t-7.5 -8zM483 139q35 -12 37 -12h37l2 10v-6q94 11 197 27q34 4 49 8q10 5 10 14q0 8 -14 13q-10 2 -31 2q-26 -3 -79.5 -9.5t-80.5 -9.5q-65 -8 -94 -14 q-5 -1 -10.5 -4.5t-13 -10t-9.5 -8.5zM512 723q26 -142 90 -242q31 -49 73 -52t79 40q31 39 49 82q82 198 76 418h4l1 55q2 55 -1 55q-15 155 -90 230q-40 39 -99.5 39t-95.5 -39q-51 -53 -78 -140q-58 -189 -8 -446zM860 461q25 -20 29 -23l2 2q102 15 147 25q4 1 21 24 q-3 1 -8 4.5t-9 6t-8 2.5q-87 -7 -145 -17q-4 -1 -9 -5t-11 -10zM905 623q8 -15 22.5 -18.5t28.5 -1t31 -3.5l6 -4q88 17 101 20q3 1 14 23q-15 10 -18 10q-74 0 -111 -4q-10 -2 -74 -22z" />
<glyph unicode="&#xd6;" horiz-adv-x="1372" d="M16 879q17 368 138 604q51 102 129 196q102 122 274 144q147 20 221 4q360 -77 455 -428q62 -226 41 -457q-27 -275 -68 -416q-51 -184 -166 -319q-147 -177 -360 -197q-156 -15 -293 66q-250 148 -319 461q-9 39 -16.5 86t-11.5 79.5t-10.5 89t-9.5 82.5zM115 616 q0 -4 8.5 -8t23.5 -8.5t21 -7.5v-2v6q145 8 221 14q11 2 24.5 11t14.5 16q1 9 -3.5 13.5t-9 5t-14 1t-12.5 0.5h-24q-33 -2 -98.5 -6t-98.5 -6q-3 0 -17 -0.5t-19 -1.5t-11 -8t-6 -19zM166 434l24 -24l-4 2q88 10 95 10q27 3 82 8t83 8q14 2 20.5 9.5t2.5 19.5q-1 6 -10 11 t-15 5q-15 -1 -43 -5t-43 -5q-27 -3 -82 -8t-83 -8q-5 -1 -9 -4.5t-10.5 -10.5t-7.5 -8zM299 266q29 -12 31 -12h30v2q12 1 37 3t37 3q40 4 120 12.5t120 12.5q49 5 147.5 15t147.5 15q14 2 35 15q10 9 6 20q-3 5 -17 10q-9 3 -22 3q-44 -5 -132 -16.5t-132 -16.5 t-132.5 -14.5t-132.5 -14.5q-75 -8 -116 -14q-5 -1 -9 -4.5t-10.5 -10.5t-7.5 -8zM352 2036q-3 58 31 96.5t90 40.5v-2q47 1 78 -28t31 -75q0 -51 -37 -90.5t-86 -40.5q-43 -2 -74.5 27t-32.5 72zM483 139q35 -12 37 -12h37l2 10v-6q94 11 197 27q34 4 49 8q10 5 10 14 q0 8 -14 13q-10 2 -31 2q-26 -3 -79.5 -9.5t-80.5 -9.5q-65 -8 -94 -14q-5 -1 -10.5 -4.5t-13 -10t-9.5 -8.5zM512 723q26 -142 90 -242q31 -49 73 -52t79 40q31 39 49 82q82 198 76 418h4l1 55q2 55 -1 55q-15 155 -90 230q-40 39 -99.5 39t-95.5 -39q-51 -53 -78 -140 q-58 -189 -8 -446zM731 2066q1 45 38.5 81t82.5 36h4q41 0 65.5 -29t22.5 -75q-1 -49 -32.5 -82t-77.5 -33q-44 0 -74 29.5t-29 72.5zM860 461q25 -20 29 -23l2 2q102 15 147 25q4 1 21 24q-3 1 -8 4.5t-9 6t-8 2.5q-87 -7 -145 -17q-4 -1 -9 -5t-11 -10zM905 623 q8 -15 22.5 -18.5t28.5 -1t31 -3.5l6 -4q88 17 101 20q3 1 14 23q-15 10 -18 10q-74 0 -111 -4q-10 -2 -74 -22z" />
<glyph unicode="&#xd9;" horiz-adv-x="1247" d="M-33 1649q-3 65 37 98q40 31 64 33q84 11 190 14q47 1 70 -19.5t26 -66.5q2 0 1 -52l-1 -52q1 -58 2.5 -213t4.5 -265t8 -213q6 -126 57 -395q11 -60 55 -129q34 -54 74.5 -54.5t77.5 50.5q69 95 76 254q5 123 10 261t11 306.5t9 261.5t13 222q9 88 92 96q53 6 164 6 q61 0 77 -57q19 -70 19 -115v-455l-2 6l1 -193q1 -194 -1 -194q-4 -237 -43 -389q-52 -189 -187 -313q-118 -107 -290 -107q-61 0 -162 19q-207 45 -305 248q-69 140 -88 319q-34 329 -47 578q-4 76 -6.5 159.5t-4 190.5t-2.5 160zM152 504q8 -14 19.5 -17t27.5 -1t24 1h31 h-6h67q4 1 9 4t10.5 8t7.5 7q-2 2 -7.5 9t-10.5 11t-9 4q-55 7 -94 2q-11 -2 -22 -6.5t-26 -11.5t-21 -10zM203 334q20 -20 24 -23h15q26 2 73 6.5t66 6.5q22 4 29 8q0 2 3 8.5t3 9.5q0 4 -4 9.5t-9 7.5l-13 3q1 0 3 -1h6h-4l-60 -5t-61.5 -5t-48.5 -5q-4 0 -7 -3t-8 -9 t-7 -8zM266 143q1 -6 8.5 -12t12.5 -6q22 2 65 7t64 7q38 4 113.5 12.5t113.5 12.5q126 13 174 20q15 2 55 15q9 5 9 10q-5 14 -11 14h-36v8q-29 0 -43 -2q-160 -16 -240 -26q-30 -4 -92 -12.5t-92 -12.5q-84 -12 -86 -12q-5 -2 -10.5 -10.5t-4.5 -12.5zM360 2159 q-52 96 48 137q49 20 87 22.5t72 -19.5t56 -73q17 -40 84 -166q40 -80 12 -122t-121 -42l2 2q-83 -6 -127 68q-74 120 -113 193zM709 309q3 -1 9.5 -4.5t11.5 -5.5t9 -2q73 3 140 12q6 1 73 17q2 0 15 14q-14 14 -21 16h-45h-4q-52 0 -166 -16q-4 -1 -7.5 -6.5t-7.5 -13 t-7 -11.5zM760 592l18 -10h-6q20 1 76 4.5t84 5.5q34 4 110 16q4 1 7.5 4t8 8.5t5.5 6.5q-2 2 -7.5 8.5t-9.5 10t-8 3.5q-72 -3 -139 -12q-78 -8 -115 -16q-4 -1 -8 -5.5t-8.5 -12.5t-7.5 -11zM766 453q3 -1 8 -4.5t9 -6t8 -2.5q33 -2 98 -2l-2 4q73 0 110 2q3 0 8 5t5 8 q0 4 -4 10t-7 6q-143 0 -215 -2q-3 0 -6 -3t-6.5 -8t-5.5 -7z" />
<glyph unicode="&#xda;" horiz-adv-x="1247" d="M-33 1649q-3 65 37 98q40 31 64 33q84 11 190 14q47 1 70 -19.5t26 -66.5q2 0 1 -52l-1 -52q1 -58 2.5 -213t4.5 -265t8 -213q6 -126 57 -395q11 -60 55 -129q34 -54 74.5 -54.5t77.5 50.5q69 95 76 254q5 123 10 261t11 306.5t9 261.5t13 222q9 88 92 96q53 6 164 6 q61 0 77 -57q19 -70 19 -115v-455l-2 6l1 -193q1 -194 -1 -194q-4 -237 -43 -389q-52 -189 -187 -313q-118 -107 -290 -107q-61 0 -162 19q-207 45 -305 248q-69 140 -88 319q-34 329 -47 578q-4 76 -6.5 159.5t-4 190.5t-2.5 160zM152 504q8 -14 19.5 -17t27.5 -1t24 1h31 h-6h67q4 1 9 4t10.5 8t7.5 7q-2 2 -7.5 9t-10.5 11t-9 4q-55 7 -94 2q-11 -2 -22 -6.5t-26 -11.5t-21 -10zM203 334q20 -20 24 -23h15q26 2 73 6.5t66 6.5q22 4 29 8q0 2 3 8.5t3 9.5q0 4 -4 9.5t-9 7.5l-13 3q1 0 3 -1h6h-4l-60 -5t-61.5 -5t-48.5 -5q-4 0 -7 -3t-8 -9 t-7 -8zM266 143q1 -6 8.5 -12t12.5 -6q22 2 65 7t64 7q38 4 113.5 12.5t113.5 12.5q126 13 174 20q15 2 55 15q9 5 9 10q-5 14 -11 14h-36v8q-29 0 -43 -2q-160 -16 -240 -26q-30 -4 -92 -12.5t-92 -12.5q-84 -12 -86 -12q-5 -2 -10.5 -10.5t-4.5 -12.5zM373 2009v4 q14 36 26 51q48 69 103 136q13 17 37 20q29 6 80.5 -19t66.5 -51q29 -53 -8 -90q-111 -107 -166 -147q-46 -33 -92.5 -1.5t-46.5 97.5zM709 309q3 -1 9.5 -4.5t11.5 -5.5t9 -2q73 3 140 12q6 1 73 17q2 0 15 14q-14 14 -21 16h-45h-4q-52 0 -166 -16q-4 -1 -7.5 -6.5 t-7.5 -13t-7 -11.5zM760 592l18 -10h-6q20 1 76 4.5t84 5.5q34 4 110 16q4 1 7.5 4t8 8.5t5.5 6.5q-2 2 -7.5 8.5t-9.5 10t-8 3.5q-72 -3 -139 -12q-78 -8 -115 -16q-4 -1 -8 -5.5t-8.5 -12.5t-7.5 -11zM766 453q3 -1 8 -4.5t9 -6t8 -2.5q33 -2 98 -2l-2 4q73 0 110 2 q3 0 8 5t5 8q0 4 -4 10t-7 6q-143 0 -215 -2q-3 0 -6 -3t-6.5 -8t-5.5 -7z" />
<glyph unicode="&#xdc;" horiz-adv-x="1247" d="M-33 1649q-3 65 37 98q40 31 64 33q84 11 190 14q47 1 70 -19.5t26 -66.5q2 0 1 -52l-1 -52q1 -58 2.5 -213t4.5 -265t8 -213q6 -126 57 -395q11 -60 55 -129q34 -54 74.5 -54.5t77.5 50.5q69 95 76 254q5 123 10 261t11 306.5t9 261.5t13 222q9 88 92 96q53 6 164 6 q61 0 77 -57q19 -70 19 -115v-455l-2 6l1 -193q1 -194 -1 -194q-4 -237 -43 -389q-52 -189 -187 -313q-118 -107 -290 -107q-61 0 -162 19q-207 45 -305 248q-69 140 -88 319q-34 329 -47 578q-4 76 -6.5 159.5t-4 190.5t-2.5 160zM152 504q8 -14 19.5 -17t27.5 -1t24 1h31 h-6h67q4 1 9 4t10.5 8t7.5 7q-2 2 -7.5 9t-10.5 11t-9 4q-55 7 -94 2q-11 -2 -22 -6.5t-26 -11.5t-21 -10zM203 334q20 -20 24 -23h15q26 2 73 6.5t66 6.5q22 4 29 8q0 2 3 8.5t3 9.5q0 4 -4 9.5t-9 7.5l-13 3q1 0 3 -1h6h-4l-60 -5t-61.5 -5t-48.5 -5q-4 0 -7 -3t-8 -9 t-7 -8zM242 1995q-3 58 30.5 96.5t89.5 40.5v-2q47 2 78 -27t31 -75q0 -51 -37 -91t-86 -41q-43 -1 -73.5 27.5t-32.5 71.5zM266 143q1 -6 8.5 -12t12.5 -6q22 2 65 7t64 7q38 4 113.5 12.5t113.5 12.5q126 13 174 20q15 2 55 15q9 5 9 10q-5 14 -11 14h-36v8q-29 0 -43 -2 q-160 -16 -240 -26q-30 -4 -92 -12.5t-92 -12.5q-84 -12 -86 -12q-5 -2 -10.5 -10.5t-4.5 -12.5zM621 2025q1 45 38 81t82 36h4q41 0 66 -29t23 -75q-1 -49 -33 -82t-78 -33q-44 0 -73.5 29.5t-28.5 72.5zM709 309q3 -1 9.5 -4.5t11.5 -5.5t9 -2q73 3 140 12q6 1 73 17 q2 0 15 14q-14 14 -21 16h-45h-4q-52 0 -166 -16q-4 -1 -7.5 -6.5t-7.5 -13t-7 -11.5zM760 592l18 -10h-6q20 1 76 4.5t84 5.5q34 4 110 16q4 1 7.5 4t8 8.5t5.5 6.5q-2 2 -7.5 8.5t-9.5 10t-8 3.5q-72 -3 -139 -12q-78 -8 -115 -16q-4 -1 -8 -5.5t-8.5 -12.5t-7.5 -11z M766 453q3 -1 8 -4.5t9 -6t8 -2.5q33 -2 98 -2l-2 4q73 0 110 2q3 0 8 5t5 8q0 4 -4 10t-7 6q-143 0 -215 -2q-3 0 -6 -3t-6.5 -8t-5.5 -7z" />
<glyph unicode="&#xdd;" horiz-adv-x="1259" d="M0 1726q0 75 80 78q0 2 40 1l40 -1h8q8 0 24.5 1t24.5 1q65 -3 108 -27t66 -81q8 -21 182 -428q11 -30 21 -47q1 -2 9 -1.5t9 3.5q7 10 11 28q20 73 58 221t58 222q26 101 113 104q120 3 207 -12q58 -9 75.5 -38t2.5 -87q-9 -36 -21 -77t-26.5 -89t-22.5 -76 q-47 -161 -141.5 -482t-141.5 -482q-75 -251 -104 -346q-10 -38 -31 -84q-23 -55 -76 -52q-106 9 -145 17q-42 9 -59.5 33t-14.5 69q1 19 21 117q77 327 88 367q11 43 -6 84q-385 859 -434 972q-23 56 -23 92zM410 2021v4q15 38 26 52q43 62 103 135q13 17 36 20 q29 6 81 -18.5t67 -50.5q29 -53 -8 -90q-116 -111 -166 -148q-46 -33 -92.5 -1.5t-46.5 97.5zM434 170q3 -3 7.5 -9t8 -10.5t7.5 -5.5q43 -6 129 -14q4 0 8.5 3t11.5 8t12 8h3q-5 4 -12 11t-11 10.5t-8 4.5q-86 12 -129 14q-4 0 -8.5 -3.5t-10 -9t-8.5 -7.5zM477 319 q1 -1 9.5 -6t13.5 -6q3 -1 6.5 -1t9.5 0.5t10 0.5h-2q74 7 135 15q4 0 19 10q-2 2 -6 7t-7 8t-6 3q-36 6 -83.5 5.5t-81.5 -17.5q-3 -2 -9 -9.5t-8 -9.5zM500 465q0 -2 6 -6t10 -4h37l4 -4q4 1 57 7t80 11q8 2 17.5 9.5t9.5 13.5q1 12 -4.5 17.5t-14.5 5.5t-18 -1 q-78 -8 -117 -14q-24 -3 -55 -13q-7 -2 -12 -22zM528 621q2 -1 5.5 -4.5l6 -6t5.5 -2.5q33 -2 98 -2l-4 -2q103 6 104 6q6 0 12.5 7t6.5 12q0 9 -19 18q-6 4 -20 4q-121 -8 -176 -14q-3 0 -19 -16z" />
<glyph unicode="&#xe0;" horiz-adv-x="1280" d="M-25 352q15 335 209 553q199 221 488 178q29 -8 56 -1.5t44 36.5q12 24 55 33q89 14 154 14q41 0 64 -18.5t30 -59.5q24 -136 29 -243q8 -126 43 -756q6 -108 -28.5 -147t-139.5 -43q-66 -3 -95.5 20.5t-39.5 89.5q-2 18 -10 50.5t-9 37.5q-62 -49 -69 -53 q-229 -163 -453 -117q-233 49 -305 299q-5 20 -8.5 42.5t-6 47t-3.5 31.5zM158 84q0 -11 5 -16.5t10 -6.5t16 -1.5t14 -0.5h30q165 6 312 15q45 2 131 14q3 0 5.5 3t5.5 8t5 7q-2 1 -5 4t-5.5 5t-5.5 2q-12 2 -37 2q-51 -3 -153.5 -9.5t-153.5 -9.5l-2 4v7q-86 0 -127 -2 l-11 1q-10 0 -13 -1t-9.5 -3t-9 -7.5t-2.5 -14.5zM272 281q17 -63 63.5 -93.5t110.5 -21.5q94 13 156 67q61 54 88 128.5t35 179.5q-7 58 -14 73q-26 57 -61 87.5t-81.5 33t-101.5 -34.5q-76 -50 -113 -94q-127 -157 -82 -325zM385 1530q-52 96 47 137q49 20 87 22.5 t72 -19.5t56 -73q15 -34 84 -165q40 -80 12.5 -122t-120.5 -42l2 2q-84 -6 -127 67q-74 120 -113 193zM698 219q1 -1 7 -6t10 -6q12 -2 37 -2q31 -1 92 -2t92 -2q12 -1 44.5 -4.5t49.5 -3.5q4 0 9.5 3.5t12 10t9.5 8.5q-2 2 -7.5 7t-10.5 8t-9 3q-76 3 -153 3l-4 2h-43 q-78 0 -117 -2q-3 0 -6 -2.5t-7 -7.5t-6 -7zM776 338q3 -2 8 -7t9 -8.5t8 -3.5h96h-2q78 0 104 3q4 0 9 4t11 10.5t9 9.5q-3 2 -9.5 7t-12 8.5t-9.5 3.5q-14 -1 -42.5 -6.5t-43.5 -6.5q-19 -1 -55.5 -1t-54.5 -1q-4 0 -8 -2t-9.5 -5.5t-7.5 -4.5zM823 473q5 -15 16.5 -19 t23.5 -1t26 -2v2q101 16 125 20q3 0 6.5 5.5t3.5 8.5t-4.5 8t-7.5 5q-75 -3 -129 -11q-10 -1 -60 -16z" />
<glyph unicode="&#xe1;" horiz-adv-x="1280" d="M-25 352q15 335 209 553q199 221 488 178q29 -8 56 -1.5t44 36.5q12 24 55 33q89 14 154 14q41 0 64 -18.5t30 -59.5q24 -136 29 -243q8 -126 43 -756q6 -108 -28.5 -147t-139.5 -43q-66 -3 -95.5 20.5t-39.5 89.5q-2 18 -10 50.5t-9 37.5q-62 -49 -69 -53 q-229 -163 -453 -117q-233 49 -305 299q-5 20 -8.5 42.5t-6 47t-3.5 31.5zM158 84q0 -11 5 -16.5t10 -6.5t16 -1.5t14 -0.5h30q165 6 312 15q45 2 131 14q3 0 5.5 3t5.5 8t5 7q-2 1 -5 4t-5.5 5t-5.5 2q-12 2 -37 2q-51 -3 -153.5 -9.5t-153.5 -9.5l-2 4v7q-86 0 -127 -2 l-11 1q-10 0 -13 -1t-9.5 -3t-9 -7.5t-2.5 -14.5zM272 281q17 -63 63.5 -93.5t110.5 -21.5q94 13 156 67q61 54 88 128.5t35 179.5q-7 58 -14 73q-26 57 -61 87.5t-81.5 33t-101.5 -34.5q-76 -50 -113 -94q-127 -157 -82 -325zM397 1380v4q14 36 27 52q50 70 102 135 q13 17 37 20q29 6 81 -18.5t67 -50.5q29 -52 -9 -90q-6 -5 -30.5 -29.5t-34.5 -33.5t-30 -27.5t-36.5 -32t-33.5 -25.5q-46 -33 -93 -1t-47 97zM698 219q1 -1 7 -6t10 -6q12 -2 37 -2q31 -1 92 -2t92 -2q12 -1 44.5 -4.5t49.5 -3.5q4 0 9.5 3.5t12 10t9.5 8.5q-2 2 -7.5 7 t-10.5 8t-9 3q-76 3 -153 3l-4 2h-43q-78 0 -117 -2q-3 0 -6 -2.5t-7 -7.5t-6 -7zM776 338q3 -2 8 -7t9 -8.5t8 -3.5h96h-2q78 0 104 3q4 0 9 4t11 10.5t9 9.5q-3 2 -9.5 7t-12 8.5t-9.5 3.5q-14 -1 -42.5 -6.5t-43.5 -6.5q-19 -1 -55.5 -1t-54.5 -1q-4 0 -8 -2t-9.5 -5.5 t-7.5 -4.5zM823 473q5 -15 16.5 -19t23.5 -1t26 -2v2q101 16 125 20q3 0 6.5 5.5t3.5 8.5t-4.5 8t-7.5 5q-75 -3 -129 -11q-10 -1 -60 -16z" />
<glyph unicode="&#xe3;" horiz-adv-x="1280" d="M-25 352q15 335 209 553q199 221 488 178q29 -8 56 -1.5t44 36.5q12 24 55 33q89 14 154 14q41 0 64 -18.5t30 -59.5q24 -136 29 -243q8 -126 43 -756q6 -108 -28.5 -147t-139.5 -43q-66 -3 -95.5 20.5t-39.5 89.5q-2 18 -10 50.5t-9 37.5q-62 -49 -69 -53 q-229 -163 -453 -117q-233 49 -305 299q-5 20 -8.5 42.5t-6 47t-3.5 31.5zM158 84q0 -11 5 -16.5t10 -6.5t16 -1.5t14 -0.5h30q165 6 312 15q45 2 131 14q3 0 5.5 3t5.5 8t5 7q-2 1 -5 4t-5.5 5t-5.5 2q-12 2 -37 2q-51 -3 -153.5 -9.5t-153.5 -9.5l-2 4v7q-86 0 -127 -2 l-11 1q-10 0 -13 -1t-9.5 -3t-9 -7.5t-2.5 -14.5zM197 1399q-3 140 84 213q84 72 180 14q30 -18 102 -82q12 -10 34.5 -32.5t35.5 -32.5q26 -20 43 -15.5t31 35.5q11 26 22 78q13 66 34.5 85t72.5 13q46 -6 67 -35.5t21 -87.5v-6v-4q0 -181 -150 -250q-140 -63 -239 33 q-38 36 -89 90q-28 32 -43 -8q-2 -6 -6 -18.5t-6 -18.5q-30 -75 -102 -65q-30 5 -60.5 34.5t-31.5 59.5zM272 281q17 -63 63.5 -93.5t110.5 -21.5q94 13 156 67q61 54 88 128.5t35 179.5q-7 58 -14 73q-26 57 -61 87.5t-81.5 33t-101.5 -34.5q-76 -50 -113 -94 q-127 -157 -82 -325zM698 219q1 -1 7 -6t10 -6q12 -2 37 -2q31 -1 92 -2t92 -2q12 -1 44.5 -4.5t49.5 -3.5q4 0 9.5 3.5t12 10t9.5 8.5q-2 2 -7.5 7t-10.5 8t-9 3q-76 3 -153 3l-4 2h-43q-78 0 -117 -2q-3 0 -6 -2.5t-7 -7.5t-6 -7zM776 338q3 -2 8 -7t9 -8.5t8 -3.5h96h-2 q78 0 104 3q4 0 9 4t11 10.5t9 9.5q-3 2 -9.5 7t-12 8.5t-9.5 3.5q-14 -1 -42.5 -6.5t-43.5 -6.5q-19 -1 -55.5 -1t-54.5 -1q-4 0 -8 -2t-9.5 -5.5t-7.5 -4.5zM823 473q5 -15 16.5 -19t23.5 -1t26 -2v2q101 16 125 20q3 0 6.5 5.5t3.5 8.5t-4.5 8t-7.5 5q-75 -3 -129 -11 q-10 -1 -60 -16z" />
<glyph unicode="&#xe4;" horiz-adv-x="1280" d="M-25 352q15 335 209 553q199 221 488 178q29 -8 56 -1.5t44 36.5q12 24 55 33q89 14 154 14q41 0 64 -18.5t30 -59.5q24 -136 29 -243q8 -126 43 -756q6 -108 -28.5 -147t-139.5 -43q-66 -3 -95.5 20.5t-39.5 89.5q-2 18 -10 50.5t-9 37.5q-62 -49 -69 -53 q-229 -163 -453 -117q-233 49 -305 299q-5 20 -8.5 42.5t-6 47t-3.5 31.5zM158 84q0 -11 5 -16.5t10 -6.5t16 -1.5t14 -0.5h30q165 6 312 15q45 2 131 14q3 0 5.5 3t5.5 8t5 7q-2 1 -5 4t-5.5 5t-5.5 2q-12 2 -37 2q-51 -3 -153.5 -9.5t-153.5 -9.5l-2 4v7q-86 0 -127 -2 l-11 1q-10 0 -13 -1t-9.5 -3t-9 -7.5t-2.5 -14.5zM266 1366q-3 58 31 96.5t90 40.5v-2q47 2 78 -27t31 -75q0 -51 -37 -90.5t-86 -40.5q-43 -2 -74.5 26.5t-32.5 71.5zM272 281q17 -63 63.5 -93.5t110.5 -21.5q94 13 156 67q61 54 88 128.5t35 179.5q-7 58 -14 73 q-26 57 -61 87.5t-81.5 33t-101.5 -34.5q-76 -50 -113 -94q-127 -157 -82 -325zM645 1397q1 45 38.5 80.5t82.5 35.5h4q41 0 65.5 -29t22.5 -75q-1 -49 -32.5 -82t-77.5 -33q-44 0 -74 30t-29 73zM698 219q1 -1 7 -6t10 -6q12 -2 37 -2q31 -1 92 -2t92 -2q12 -1 44.5 -4.5 t49.5 -3.5q4 0 9.5 3.5t12 10t9.5 8.5q-2 2 -7.5 7t-10.5 8t-9 3q-76 3 -153 3l-4 2h-43q-78 0 -117 -2q-3 0 -6 -2.5t-7 -7.5t-6 -7zM776 338q3 -2 8 -7t9 -8.5t8 -3.5h96h-2q78 0 104 3q4 0 9 4t11 10.5t9 9.5q-3 2 -9.5 7t-12 8.5t-9.5 3.5q-14 -1 -42.5 -6.5t-43.5 -6.5 q-19 -1 -55.5 -1t-54.5 -1q-4 0 -8 -2t-9.5 -5.5t-7.5 -4.5zM823 473q5 -15 16.5 -19t23.5 -1t26 -2v2q101 16 125 20q3 0 6.5 5.5t3.5 8.5t-4.5 8t-7.5 5q-75 -3 -129 -11q-10 -1 -60 -16z" />
<glyph unicode="&#xe5;" horiz-adv-x="1280" d="M-25 352q15 335 209 553q199 221 488 178q29 -8 56 -1.5t44 36.5q12 24 55 33q89 14 154 14q41 0 64 -18.5t30 -59.5q24 -136 29 -243q8 -126 43 -756q6 -108 -28.5 -147t-139.5 -43q-66 -3 -95.5 20.5t-39.5 89.5q-2 18 -10 50.5t-9 37.5q-62 -49 -69 -53 q-229 -163 -453 -117q-233 49 -305 299q-5 20 -8.5 42.5t-6 47t-3.5 31.5zM158 84q0 -11 5 -16.5t10 -6.5t16 -1.5t14 -0.5h30q165 6 312 15q45 2 131 14q3 0 5.5 3t5.5 8t5 7q-2 1 -5 4t-5.5 5t-5.5 2q-12 2 -37 2q-51 -3 -153.5 -9.5t-153.5 -9.5l-2 4v7q-86 0 -127 -2 l-11 1q-10 0 -13 -1t-9.5 -3t-9 -7.5t-2.5 -14.5zM272 281q17 -63 63.5 -93.5t110.5 -21.5q94 13 156 67q61 54 88 128.5t35 179.5q-7 58 -14 73q-26 57 -61 87.5t-81.5 33t-101.5 -34.5q-76 -50 -113 -94q-127 -157 -82 -325zM377 1442q11 186 178 186q76 0 131.5 -47 t56.5 -121q1 -70 -59 -131t-129 -61q-70 0 -126 54.5t-52 119.5zM512 1462q-1 -23 14.5 -40t32.5 -11q9 3 17 14.5t10 22.5q3 19 -16.5 35.5t-43.5 15.5h2l-8 -15q-8 -14 -8 -22zM698 219q1 -1 7 -6t10 -6q12 -2 37 -2q31 -1 92 -2t92 -2q12 -1 44.5 -4.5t49.5 -3.5 q4 0 9.5 3.5t12 10t9.5 8.5q-2 2 -7.5 7t-10.5 8t-9 3q-76 3 -153 3l-4 2h-43q-78 0 -117 -2q-3 0 -6 -2.5t-7 -7.5t-6 -7zM776 338q3 -2 8 -7t9 -8.5t8 -3.5h96h-2q78 0 104 3q4 0 9 4t11 10.5t9 9.5q-3 2 -9.5 7t-12 8.5t-9.5 3.5q-14 -1 -42.5 -6.5t-43.5 -6.5 q-19 -1 -55.5 -1t-54.5 -1q-4 0 -8 -2t-9.5 -5.5t-7.5 -4.5zM823 473q5 -15 16.5 -19t23.5 -1t26 -2v2q101 16 125 20q3 0 6.5 5.5t3.5 8.5t-4.5 8t-7.5 5q-75 -3 -129 -11q-10 -1 -60 -16z" />
<glyph unicode="&#xe7;" horiz-adv-x="1058" d="M-12 575q3 283 155 459q103 120 257 152.5t296 -35.5q125 -58 181 -188q30 -75 -27 -129q-31 -29 -102 -109q-55 -61 -105 -2q-7 8 -17.5 25t-15.5 24q-44 60 -102 65.5t-115 -44.5q-59 -53 -74 -127q-52 -266 166 -353q121 -50 203 58q55 70 94 71t99 -67 q46 -54 47.5 -91t-39.5 -94q-129 -173 -301 -194q-103 -14 -217 24q-188 62 -272 175t-105 301v73zM55 471q0 -6 6 -14t9 -8q53 2 159 10q3 0 8 4.5t5 7.5t-4 8.5t-7 5.5q-14 1 -40 2t-39 2v7v-7l-40 1q-40 0 -40 -1q-4 0 -10.5 -6.5t-6.5 -11.5zM104 313q3 -2 9.5 -7 t11 -7.5t8.5 -1.5q5 1 33 5t37.5 5t31.5 2t38.5 -1.5t33.5 -8.5q3 -1 7 2.5t11.5 11t12.5 11.5q-5 3 -16 11.5t-18 12.5t-13 4q-72 0 -160 -10q-5 -1 -9 -5.5t-10.5 -13t-7.5 -10.5zM219 -461q10 68 78 78h59h-4q83 -8 162 45q4 2 18 21q-20 15 -26 16q-104 22 -144 27 q-54 6 -76 51t9 88q17 24 49 24q149 6 270 -63q48 -28 70 -74.5t19.5 -92t-21.5 -87.5q-34 -72 -121 -113q-75 -35 -217 -39q-34 0 -82 27q-53 26 -43 92zM225 176q0 -3 15.5 -8.5t25.5 -5.5q80 -2 240 -2l-6 2h147q90 0 135 2q5 0 9 3t10.5 10.5t7.5 8.5q-1 1 -7.5 8 t-10.5 10.5t-9 4.5q-8 2 -51 2q-50 -2 -150.5 -6t-150.5 -6q-27 -1 -81 -1t-81 -1q-3 0 -10.5 0.5t-11.5 0.5t-9.5 -2t-8 -7t-3.5 -13zM444 76q2 -2 5.5 -7t6 -8.5t5.5 -3.5q23 -3 69 -8t68 -8h4h49q3 0 8 5t5 9q0 10 -9 19q-16 12 -26 12q-55 2 -166 2q-1 0 -19 -12z" />
<glyph unicode="&#xe8;" horiz-adv-x="1177" d="M70 412q-66 370 155 622q178 204 414 201q160 -2 280 -94.5t166 -251.5q19 -69 19 -160q-1 -25 -23.5 -43.5t-56 -28t-67 -13.5t-62.5 -3h-2q-64 0 -134 -5t-162.5 -15t-133.5 -13q-42 -3 -52 -14.5t-12 -54.5q-3 -117 64 -193q64 -75 152.5 -70.5t142.5 86.5 q12 19 37 72q29 52 82 55q20 1 64.5 7t68.5 6q33 1 47.5 -12.5t25.5 -51.5q18 -58 -18 -139q-69 -150 -208.5 -231t-295.5 -76t-280 92q-174 124 -211 328zM115 461q3 -2 7.5 -7t8.5 -8.5t8 -3.5q22 1 92 15q24 4 80 16q3 1 5.5 3t6 5t5.5 4q-16 16 -21 17q-4 2 -26 2h4 q-120 -14 -150 -19q-4 -1 -7 -5t-7 -10.5t-6 -8.5zM168 322q17 -10 22 -15h3q94 11 139 19q4 1 8 6t8.5 13t7.5 11q-2 1 -13 7t-17 6q-54 -5 -129 -19q-4 -1 -9 -5.5t-11 -12t-9 -10.5zM264 195q2 -2 6 -7t7 -7.5t6 -2.5q39 -2 116 -2l-4 2v-6l228 18q37 3 110.5 8.5 t110.5 8.5q34 4 110 16q4 1 11.5 9t5.5 10q-10 24 -23 24l-117 -12q-211 -22 -282 -27q-34 -2 -92 -1.5t-92 -0.5q-13 -1 -86 -16q-2 -1 -15 -14zM403 1599q-52 97 48 138q49 20 87 22.5t72 -19.5t56 -73q17 -40 84 -166q40 -79 12 -121.5t-121 -42.5l2 2q-83 -6 -127 68 q-78 126 -113 192zM406 868q-8 -27 0.5 -38t37.5 -11q70 -2 209 -2t209 2q26 0 33 9t2 36q-15 77 -91.5 142t-152.5 65q-90 0 -157 -59.5t-90 -143.5zM455 74q3 -2 10 -7.5t12.5 -8.5t9.5 -3q27 1 79 6.5t63 6.5q140 17 145 18q4 1 8.5 6t9 13.5t7.5 11.5q-15 9 -25 14l-2 2 q-84 -13 -100 -14q-166 -16 -191 -19q-4 -1 -8.5 -5.5t-9.5 -11t-8 -9.5zM840 379q9 -2 69 -17l2 3q80 4 93 6q4 1 8.5 5t10 10.5t7.5 8.5q-2 2 -6 5.5t-6.5 5.5t-6.5 4t-7 2q-51 4 -76 0q-8 -2 -23.5 -2.5t-25.5 -1.5t-21.5 -8t-17.5 -21z" />
<glyph unicode="&#xe9;" horiz-adv-x="1177" d="M70 412q-66 370 155 622q178 204 414 201q160 -2 280 -94.5t166 -251.5q19 -69 19 -160q-1 -25 -23.5 -43.5t-56 -28t-67 -13.5t-62.5 -3h-2q-64 0 -134 -5t-162.5 -15t-133.5 -13q-42 -3 -52 -14.5t-12 -54.5q-3 -117 64 -193q64 -75 152.5 -70.5t142.5 86.5 q12 19 37 72q29 52 82 55q20 1 64.5 7t68.5 6q33 1 47.5 -12.5t25.5 -51.5q18 -58 -18 -139q-69 -150 -208.5 -231t-295.5 -76t-280 92q-174 124 -211 328zM115 461q3 -2 7.5 -7t8.5 -8.5t8 -3.5q22 1 92 15q24 4 80 16q3 1 5.5 3t6 5t5.5 4q-16 16 -21 17q-4 2 -26 2h4 q-120 -14 -150 -19q-4 -1 -7 -5t-7 -10.5t-6 -8.5zM168 322q17 -10 22 -15h3q94 11 139 19q4 1 8 6t8.5 13t7.5 11q-2 1 -13 7t-17 6q-54 -5 -129 -19q-4 -1 -9 -5.5t-11 -12t-9 -10.5zM264 195q2 -2 6 -7t7 -7.5t6 -2.5q39 -2 116 -2l-4 2v-6l228 18q37 3 110.5 8.5 t110.5 8.5q34 4 110 16q4 1 11.5 9t5.5 10q-10 24 -23 24l-117 -12q-211 -22 -282 -27q-34 -2 -92 -1.5t-92 -0.5q-13 -1 -86 -16q-2 -1 -15 -14zM406 868q-8 -27 0.5 -38t37.5 -11q70 -2 209 -2t209 2q26 0 33 9t2 36q-15 77 -91.5 142t-152.5 65q-90 0 -157 -59.5 t-90 -143.5zM416 1450v4q14 36 26 51q43 62 103 135q14 18 37 21q29 6 80.5 -19t66.5 -51q29 -53 -8 -90q-111 -107 -166 -147q-46 -33 -92.5 -1.5t-46.5 97.5zM455 74q3 -2 10 -7.5t12.5 -8.5t9.5 -3q27 1 79 6.5t63 6.5q140 17 145 18q4 1 8.5 6t9 13.5t7.5 11.5 q-15 9 -25 14l-2 2q-84 -13 -100 -14q-166 -16 -191 -19q-4 -1 -8.5 -5.5t-9.5 -11t-8 -9.5zM840 379q9 -2 69 -17l2 3q80 4 93 6q4 1 8.5 5t10 10.5t7.5 8.5q-2 2 -6 5.5t-6.5 5.5t-6.5 4t-7 2q-51 4 -76 0q-8 -2 -23.5 -2.5t-25.5 -1.5t-21.5 -8t-17.5 -21z" />
<glyph unicode="&#xeb;" horiz-adv-x="1177" d="M70 412q-66 370 155 622q178 204 414 201q160 -2 280 -94.5t166 -251.5q19 -69 19 -160q-1 -25 -23.5 -43.5t-56 -28t-67 -13.5t-62.5 -3h-2q-64 0 -134 -5t-162.5 -15t-133.5 -13q-42 -3 -52 -14.5t-12 -54.5q-3 -117 64 -193q64 -75 152.5 -70.5t142.5 86.5 q12 19 37 72q29 52 82 55q20 1 64.5 7t68.5 6q33 1 47.5 -12.5t25.5 -51.5q18 -58 -18 -139q-69 -150 -208.5 -231t-295.5 -76t-280 92q-174 124 -211 328zM115 461q3 -2 7.5 -7t8.5 -8.5t8 -3.5q22 1 92 15q24 4 80 16q3 1 5.5 3t6 5t5.5 4q-16 16 -21 17q-4 2 -26 2h4 q-120 -14 -150 -19q-4 -1 -7 -5t-7 -10.5t-6 -8.5zM168 322q17 -10 22 -15h3q94 11 139 19q4 1 8 6t8.5 13t7.5 11q-2 1 -13 7t-17 6q-54 -5 -129 -19q-4 -1 -9 -5.5t-11 -12t-9 -10.5zM264 195q2 -2 6 -7t7 -7.5t6 -2.5q39 -2 116 -2l-4 2v-6l228 18q37 3 110.5 8.5 t110.5 8.5q34 4 110 16q4 1 11.5 9t5.5 10q-10 24 -23 24l-117 -12q-211 -22 -282 -27q-34 -2 -92 -1.5t-92 -0.5q-13 -1 -86 -16q-2 -1 -15 -14zM285 1436q-3 58 31 96.5t90 40.5v-2q47 1 77.5 -28t30.5 -75q0 -51 -37 -90.5t-86 -40.5q-43 -1 -73.5 27.5t-32.5 71.5z M406 868q-8 -27 0.5 -38t37.5 -11q70 -2 209 -2t209 2q26 0 33 9t2 36q-15 77 -91.5 142t-152.5 65q-90 0 -157 -59.5t-90 -143.5zM455 74q3 -2 10 -7.5t12.5 -8.5t9.5 -3q27 1 79 6.5t63 6.5q140 17 145 18q4 1 8.5 6t9 13.5t7.5 11.5q-15 9 -25 14l-2 2q-84 -13 -100 -14 q-166 -16 -191 -19q-4 -1 -8.5 -5.5t-9.5 -11t-8 -9.5zM664 1466q1 45 38 81t82 36h4q41 0 66 -29t23 -75q-1 -49 -33 -82t-78 -33q-44 0 -74 29.5t-28 72.5zM840 379q9 -2 69 -17l2 3q80 4 93 6q4 1 8.5 5t10 10.5t7.5 8.5q-2 2 -6 5.5t-6.5 5.5t-6.5 4t-7 2q-51 4 -76 0 q-8 -2 -23.5 -2.5t-25.5 -1.5t-21.5 -8t-17.5 -21z" />
<glyph unicode="&#xf1;" horiz-adv-x="1052" d="M0 1059q-1 73 31 105t106 34q49 0 74 -4q49 -9 69.5 -35t22.5 -78q1 -17 2 -52t2 -52q0 -2 9 -4.5t10 -1.5q10 9 32 41q82 106 183 147q159 63 264 -69q81 -104 108 -265q25 -150 30 -339.5t-1 -340.5q0 -47 -12 -71q-29 -52 -60 -62q-64 -20 -172 19q-39 13 -43 88 q-2 27 -6.5 113t-9.5 133q-18 203 -45 405q-4 34 -37 102q-9 18 -24.5 20.5t-30.5 -11.5q-19 -16 -39 -43q-91 -123 -152 -303q-14 -46 -14 -103l6 -276v-52q-6 -63 -31 -84t-90 -18h-6q-104 6 -134 36.5t-30 133.5v344h6l-2 -4q-12 362 -16 547zM31 449q0 -5 3.5 -10 t6.5 -5q31 -5 84 -8l2 2q57 5 82 8q5 2 10.5 9.5t5.5 13.5q0 4 -5.5 11t-10.5 9q-110 15 -170 -12q-8 -4 -8 -18zM51 164q1 -1 5.5 -6.5t8 -8.5t7.5 -4h51l-2 -4v6q55 0 74 3q4 1 7.5 5t7.5 10t7 9q-3 3 -8 9.5t-8.5 10t-7.5 3.5q-51 -3 -123 -13q-3 -1 -6 -4.5t-7 -8.5 t-6 -7zM61 291q2 -5 9.5 -10t13.5 -5q9 0 27 3.5t22 3.5v-2v-7q15 2 52.5 8t56.5 9q5 2 9.5 9t4.5 13q0 5 -7 12t-11 7q-71 -5 -166 -19q-3 0 -7.5 -9t-3.5 -13zM70 606q0 -6 6 -14t10 -8q72 0 143 6q4 0 9.5 7.5t5.5 12.5q0 4 -6.5 9.5t-12.5 7.5q-8 2 -65 6l-2 2 q-5 -1 -31.5 -2.5t-42.5 -3.5q-5 -2 -9.5 -9.5t-4.5 -13.5zM106 1432q-3 140 84 213q85 72 181 14q30 -18 102 -82q12 -10 34.5 -33t35.5 -33q26 -20 42.5 -15t30.5 36q13 32 23 78q13 66 34 85t72 13q46 -6 67.5 -35.5t21.5 -87.5v-6v-4q0 -181 -150 -250q-141 -64 -240 33 q-30 29 -88 90q-28 32 -43 -8q-2 -6 -6 -18.5t-6 -18.5q-31 -75 -102 -66q-30 5 -61 35t-32 60zM711 594q12 -4 31.5 -11.5t25.5 -9.5h4h2q54 6 78 11q6 10 6 16q0 5 -3.5 10.5t-6.5 5.5q-51 10 -64 9h-16.5t-17.5 -1t-14.5 -3.5t-14.5 -9t-10 -17.5zM717 432q0 -4 9 -8.5 t22.5 -9t17.5 -6.5v2q13 2 40 4t38 4q5 2 9.5 9t4.5 13t-5.5 13.5t-10.5 9.5q-34 7 -66 4h-15.5t-17 -1t-13 -4t-11 -10.5t-2.5 -19.5zM748 303q0 -5 3.5 -10.5t6.5 -5.5q13 -2 37.5 -6t33.5 -5h-4l-2 -6v6q52 5 60 7q7 2 16 20q1 3 -3 9.5t-7 6.5q-67 3 -135 0 q-6 -10 -6 -16z" />
<glyph unicode="&#xf2;" horiz-adv-x="1134" d="M86 537q-72 402 197 665q116 114 331 92q237 -25 367 -213q68 -98 76 -196q26 -295 -103 -514q-111 -191 -331 -203q-20 -2 -62 -2h4q-97 -4 -183.5 27t-146 86t-98 121.5t-51.5 136.5zM98 651q5 -15 17.5 -18.5t25.5 -0.5t29 -3l2 -2q107 24 119 28q4 1 6 5.5t4.5 12.5 t3.5 11q-2 1 -8 3t-10 3t-8 0q-48 -7 -121 -22q-10 -2 -60 -17zM250 336q3 -1 7.5 -4.5t8.5 -5.5t8 -2q41 -2 125 -2l4 4v-7q73 6 221.5 18.5t221.5 18.5q30 4 49 11q6 2 15 10.5t10 9.5q-2 1 -7.5 4.5t-9.5 5.5t-8 2q-74 0 -111 -4q-29 -3 -119 -13t-139 -13 q-42 -3 -126 -7.5t-126 -7.5q-4 0 -8 -3t-8.5 -8t-7.5 -7zM373 588q10 -74 59.5 -120.5t124.5 -55.5q141 -16 195 135q11 31 19 64.5t15.5 78.5t10.5 58l-2 4q-17 115 -21 137q-20 115 -145 135q-118 18 -183 -84q-101 -157 -73 -352zM391 1663q-52 96 47 137q37 15 66.5 20 t58 -0.5t51.5 -27.5t39 -61q17 -40 84 -166q40 -79 12.5 -121.5t-120.5 -42.5l2 2q-84 -6 -127 67q-74 120 -113 193zM444 246q3 -7 19 -23h-2q165 21 229 31q7 1 14.5 5.5t17 12.5t13.5 11q-5 1 -16 5t-19.5 6t-15.5 1q-91 -10 -223 -31q-4 -1 -11.5 -8.5t-5.5 -9.5z M827 528l45 -20v6q12 1 27 1t25 0.5t18 2.5q11 3 16 27q0 3 -7 8.5t-13 5.5q-38 4 -57 0q-11 -4 -31 -16.5t-23 -14.5zM844 678q55 -13 59 -14v-2q74 4 88 6q4 0 9.5 8t5.5 14q0 5 -6.5 12t-10.5 7q-56 0 -71 -4q-14 -5 -27.5 -2t-27.5 -2.5t-19 -22.5z" />
<glyph unicode="&#xf3;" horiz-adv-x="1134" d="M86 537q-72 402 197 665q116 114 331 92q237 -25 367 -213q68 -98 76 -196q26 -295 -103 -514q-111 -191 -331 -203q-20 -2 -62 -2h4q-97 -4 -183.5 27t-146 86t-98 121.5t-51.5 136.5zM98 651q5 -15 17.5 -18.5t25.5 -0.5t29 -3l2 -2q107 24 119 28q4 1 6 5.5t4.5 12.5 t3.5 11q-2 1 -8 3t-10 3t-8 0q-48 -7 -121 -22q-10 -2 -60 -17zM250 336q3 -1 7.5 -4.5t8.5 -5.5t8 -2q41 -2 125 -2l4 4v-7q73 6 221.5 18.5t221.5 18.5q30 4 49 11q6 2 15 10.5t10 9.5q-2 1 -7.5 4.5t-9.5 5.5t-8 2q-74 0 -111 -4q-29 -3 -119 -13t-139 -13 q-42 -3 -126 -7.5t-126 -7.5q-4 0 -8 -3t-8.5 -8t-7.5 -7zM373 588q10 -74 59.5 -120.5t124.5 -55.5q141 -16 195 135q11 31 19 64.5t15.5 78.5t10.5 58l-2 4q-17 115 -21 137q-20 115 -145 135q-118 18 -183 -84q-101 -157 -73 -352zM403 1513v5q13 34 27 51q50 71 102 135 q13 17 37 20q29 6 81 -18.5t67 -50.5q29 -53 -8 -90q-116 -111 -166 -148q-46 -33 -93 -1t-47 97zM444 246q3 -7 19 -23h-2q165 21 229 31q7 1 14.5 5.5t17 12.5t13.5 11q-5 1 -16 5t-19.5 6t-15.5 1q-91 -10 -223 -31q-4 -1 -11.5 -8.5t-5.5 -9.5zM827 528l45 -20v6 q12 1 27 1t25 0.5t18 2.5q11 3 16 27q0 3 -7 8.5t-13 5.5q-38 4 -57 0q-11 -4 -31 -16.5t-23 -14.5zM844 678q55 -13 59 -14v-2q74 4 88 6q4 0 9.5 8t5.5 14q0 5 -6.5 12t-10.5 7q-56 0 -71 -4q-14 -5 -27.5 -2t-27.5 -2.5t-19 -22.5z" />
<glyph unicode="&#xf5;" horiz-adv-x="1134" d="M86 537q-72 402 197 665q116 114 331 92q237 -25 367 -213q68 -98 76 -196q26 -295 -103 -514q-111 -191 -331 -203q-20 -2 -62 -2h4q-97 -4 -183.5 27t-146 86t-98 121.5t-51.5 136.5zM98 651q5 -15 17.5 -18.5t25.5 -0.5t29 -3l2 -2q107 24 119 28q4 1 6 5.5t4.5 12.5 t3.5 11q-2 1 -8 3t-10 3t-8 0q-48 -7 -121 -22q-10 -2 -60 -17zM203 1532q-3 140 84 213q84 72 180 14q30 -18 102 -82q13 -10 35.5 -32.5t34.5 -32.5q26 -20 43 -15.5t31 35.5q11 26 22 78q13 66 34.5 85t72.5 13q46 -6 67 -35t21 -87v-7v-4q0 -181 -150 -250 q-140 -63 -239 33q-30 29 -88 90q-28 32 -43 -8q-2 -6 -6.5 -18.5t-6.5 -18.5q-30 -75 -102 -65q-30 5 -60.5 34.5t-31.5 59.5zM250 336q3 -1 7.5 -4.5t8.5 -5.5t8 -2q41 -2 125 -2l4 4v-7q73 6 221.5 18.5t221.5 18.5q30 4 49 11q6 2 15 10.5t10 9.5q-2 1 -7.5 4.5 t-9.5 5.5t-8 2q-74 0 -111 -4q-29 -3 -119 -13t-139 -13q-42 -3 -126 -7.5t-126 -7.5q-4 0 -8 -3t-8.5 -8t-7.5 -7zM373 588q10 -74 59.5 -120.5t124.5 -55.5q141 -16 195 135q11 31 19 64.5t15.5 78.5t10.5 58l-2 4q-17 115 -21 137q-20 115 -145 135q-118 18 -183 -84 q-101 -157 -73 -352zM444 246q3 -7 19 -23h-2q165 21 229 31q7 1 14.5 5.5t17 12.5t13.5 11q-5 1 -16 5t-19.5 6t-15.5 1q-91 -10 -223 -31q-4 -1 -11.5 -8.5t-5.5 -9.5zM827 528l45 -20v6q12 1 27 1t25 0.5t18 2.5q11 3 16 27q0 3 -7 8.5t-13 5.5q-38 4 -57 0 q-11 -4 -31 -16.5t-23 -14.5zM844 678q55 -13 59 -14v-2q74 4 88 6q4 0 9.5 8t5.5 14q0 5 -6.5 12t-10.5 7q-56 0 -71 -4q-14 -5 -27.5 -2t-27.5 -2.5t-19 -22.5z" />
<glyph unicode="&#xf6;" horiz-adv-x="1134" d="M86 537q-72 402 197 665q116 114 331 92q237 -25 367 -213q68 -98 76 -196q26 -295 -103 -514q-111 -191 -331 -203q-20 -2 -62 -2h4q-97 -4 -183.5 27t-146 86t-98 121.5t-51.5 136.5zM98 651q5 -15 17.5 -18.5t25.5 -0.5t29 -3l2 -2q107 24 119 28q4 1 6 5.5t4.5 12.5 t3.5 11q-2 1 -8 3t-10 3t-8 0q-48 -7 -121 -22q-10 -2 -60 -17zM250 336q3 -1 7.5 -4.5t8.5 -5.5t8 -2q41 -2 125 -2l4 4v-7q73 6 221.5 18.5t221.5 18.5q30 4 49 11q6 2 15 10.5t10 9.5q-2 1 -7.5 4.5t-9.5 5.5t-8 2q-74 0 -111 -4q-29 -3 -119 -13t-139 -13 q-42 -3 -126 -7.5t-126 -7.5q-4 0 -8 -3t-8.5 -8t-7.5 -7zM272 1499q-3 58 31 96.5t90 40.5v-2q47 2 78 -27t31 -75q0 -51 -37 -90.5t-86 -40.5q-43 -2 -74.5 26.5t-32.5 71.5zM373 588q10 -74 59.5 -120.5t124.5 -55.5q141 -16 195 135q11 31 19 64.5t15.5 78.5t10.5 58 l-2 4q-17 115 -21 137q-20 115 -145 135q-118 18 -183 -84q-101 -157 -73 -352zM444 246q3 -7 19 -23h-2q165 21 229 31q7 1 14.5 5.5t17 12.5t13.5 11q-5 1 -16 5t-19.5 6t-15.5 1q-91 -10 -223 -31q-4 -1 -11.5 -8.5t-5.5 -9.5zM651 1530q1 45 38.5 81t82.5 36h4 q41 0 65.5 -29.5t22.5 -75.5q-1 -49 -32.5 -82t-77.5 -33q-44 0 -74 30t-29 73zM827 528l45 -20v6q12 1 27 1t25 0.5t18 2.5q11 3 16 27q0 3 -7 8.5t-13 5.5q-38 4 -57 0q-11 -4 -31 -16.5t-23 -14.5zM844 678q55 -13 59 -14v-2q74 4 88 6q4 0 9.5 8t5.5 14q0 5 -6.5 12 t-10.5 7q-56 0 -71 -4q-14 -5 -27.5 -2t-27.5 -2.5t-19 -22.5z" />
<glyph unicode="&#xf9;" horiz-adv-x="1087" d="M22.5 941q0.5 100 12.5 183q4 24 16 80q1 2 3 6.5t3 6.5q15 29 80.5 42t112.5 -2q31 -9 43 -31.5t10 -68.5q-1 -44 -5.5 -125.5t-6.5 -148t0 -125.5q2 -49 8.5 -104t17 -123.5t15.5 -104.5q1 -5 3 -15.5t3 -15.5q19 -60 57 -97.5t78 -31.5q117 16 160 119q50 121 41 252 q-10 137 -10 231v6v320q0 48 12 64t59 26q55 13 103 16q77 6 94 -71q8 -33 8 -74l18 -645q3 -83 25 -295q11 -102 -19.5 -136.5t-132.5 -37.5q-63 -2 -84.5 11t-44.5 67q-10 24 -32 8q-6 -4 -18.5 -13.5t-18.5 -13.5q-78 -47 -166 -54t-162.5 21t-132.5 89t-80 143 q-39 148 -51 291q-10 115 -14.5 183t-4 168zM68 502q10 -15 18 -17q5 -1 11.5 -1t14 0.5t11.5 0.5l4 2v-6q43 8 92 21q2 1 8 18q0 2 -3.5 5t-4.5 3q-94 -8 -139 -12q-3 0 -7.5 -6t-4.5 -8zM233 193q2 -7 23 -17q3 -1 6.5 -1t9 0.5t9.5 0.5v-6q4 0 13.5 1t14.5 1 q45 4 140 13.5t145 13.5q38 3 113.5 8t113.5 8q21 2 56 14q4 1 20 17q-21 16 -27 16q-23 -1 -48.5 -3t-56.5 -5t-48 -4q-44 -3 -132 -8.5t-132 -8.5q-65 -4 -179 -16q-20 0 -28 -4q-16 -11 -13 -20zM330 1665q-52 96 47 137q37 15 66.5 20t58 -0.5t51.5 -27.5t39 -61 q17 -40 84 -166q40 -79 12 -121.5t-121 -42.5l2 2q-83 -6 -127 68q-71 115 -112 192zM721 686q-1 -3 5 -9.5t11 -6.5q49 -4 74 0q15 2 41 12.5t31 11.5q-7 15 -20 18.5t-25 0.5t-25 0h-6v2q-57 0 -68 -2q-13 -3 -18 -27zM754 416q1 -12 9 -17t16.5 -5t23 1t20.5 0 q54 -4 56 29q0 3 -9 6.5t-23.5 7.5t-19.5 6v5q-16 -7 -32.5 -4t-29 -3t-11.5 -26z" />
<glyph unicode="&#xfa;" horiz-adv-x="1087" d="M22.5 941q0.5 100 12.5 183q4 24 16 80q1 2 3 6.5t3 6.5q15 29 80.5 42t112.5 -2q31 -9 43 -31.5t10 -68.5q-1 -44 -5.5 -125.5t-6.5 -148t0 -125.5q2 -49 8.5 -104t17 -123.5t15.5 -104.5q1 -5 3 -15.5t3 -15.5q19 -60 57 -97.5t78 -31.5q117 16 160 119q50 121 41 252 q-10 137 -10 231v6v320q0 48 12 64t59 26q55 13 103 16q77 6 94 -71q8 -33 8 -74l18 -645q3 -83 25 -295q11 -102 -19.5 -136.5t-132.5 -37.5q-63 -2 -84.5 11t-44.5 67q-10 24 -32 8q-6 -4 -18.5 -13.5t-18.5 -13.5q-78 -47 -166 -54t-162.5 21t-132.5 89t-80 143 q-39 148 -51 291q-10 115 -14.5 183t-4 168zM68 502q10 -15 18 -17q5 -1 11.5 -1t14 0.5t11.5 0.5l4 2v-6q43 8 92 21q2 1 8 18q0 2 -3.5 5t-4.5 3q-94 -8 -139 -12q-3 0 -7.5 -6t-4.5 -8zM233 193q2 -7 23 -17q3 -1 6.5 -1t9 0.5t9.5 0.5v-6q4 0 13.5 1t14.5 1 q45 4 140 13.5t145 13.5q38 3 113.5 8t113.5 8q21 2 56 14q4 1 20 17q-21 16 -27 16q-23 -1 -48.5 -3t-56.5 -5t-48 -4q-44 -3 -132 -8.5t-132 -8.5q-65 -4 -179 -16q-20 0 -28 -4q-16 -11 -13 -20zM342 1516v4q13 34 27 51q49 71 102 135q13 17 37 20q29 6 80.5 -18.5 t66.5 -50.5q29 -53 -8 -90q-116 -111 -166 -148q-46 -33 -92.5 -1t-46.5 98zM721 686q-1 -3 5 -9.5t11 -6.5q49 -4 74 0q15 2 41 12.5t31 11.5q-7 15 -20 18.5t-25 0.5t-25 0h-6v2q-57 0 -68 -2q-13 -3 -18 -27zM754 416q1 -12 9 -17t16.5 -5t23 1t20.5 0q54 -4 56 29 q0 3 -9 6.5t-23.5 7.5t-19.5 6v5q-16 -7 -32.5 -4t-29 -3t-11.5 -26z" />
<glyph unicode="&#xfc;" horiz-adv-x="1087" d="M22.5 941q0.5 100 12.5 183q4 24 16 80q1 2 3 6.5t3 6.5q15 29 80.5 42t112.5 -2q31 -9 43 -31.5t10 -68.5q-1 -44 -5.5 -125.5t-6.5 -148t0 -125.5q2 -49 8.5 -104t17 -123.5t15.5 -104.5q1 -5 3 -15.5t3 -15.5q19 -60 57 -97.5t78 -31.5q117 16 160 119q50 121 41 252 q-10 137 -10 231v6v320q0 48 12 64t59 26q55 13 103 16q77 6 94 -71q8 -33 8 -74l18 -645q3 -83 25 -295q11 -102 -19.5 -136.5t-132.5 -37.5q-63 -2 -84.5 11t-44.5 67q-10 24 -32 8q-6 -4 -18.5 -13.5t-18.5 -13.5q-78 -47 -166 -54t-162.5 21t-132.5 89t-80 143 q-39 148 -51 291q-10 115 -14.5 183t-4 168zM68 502q10 -15 18 -17q5 -1 11.5 -1t14 0.5t11.5 0.5l4 2v-6q43 8 92 21q2 1 8 18q0 2 -3.5 5t-4.5 3q-94 -8 -139 -12q-3 0 -7.5 -6t-4.5 -8zM211 1501q-3 58 31 96.5t90 40.5v-2q47 1 77.5 -27.5t30.5 -74.5q0 -51 -37 -90.5 t-86 -40.5q-43 -2 -74 26.5t-32 71.5zM233 193q2 -7 23 -17q3 -1 6.5 -1t9 0.5t9.5 0.5v-6q4 0 13.5 1t14.5 1q45 4 140 13.5t145 13.5q38 3 113.5 8t113.5 8q21 2 56 14q4 1 20 17q-21 16 -27 16q-23 -1 -48.5 -3t-56.5 -5t-48 -4q-44 -3 -132 -8.5t-132 -8.5 q-65 -4 -179 -16q-20 0 -28 -4q-16 -11 -13 -20zM590 1532q1 45 38.5 81t82.5 36h4q41 0 65.5 -29.5t22.5 -75.5q-1 -49 -33 -81.5t-78 -32.5q-44 0 -74 29.5t-28 72.5zM721 686q-1 -3 5 -9.5t11 -6.5q49 -4 74 0q15 2 41 12.5t31 11.5q-7 15 -20 18.5t-25 0.5t-25 0h-6v2 q-57 0 -68 -2q-13 -3 -18 -27zM754 416q1 -12 9 -17t16.5 -5t23 1t20.5 0q54 -4 56 29q0 3 -9 6.5t-23.5 7.5t-19.5 6v5q-16 -7 -32.5 -4t-29 -3t-11.5 -26z" />
<glyph unicode="&#xfd;" horiz-adv-x="976" d="M49 127q-17 61 31 122.5t113 63.5q29 1 49 -13.5t41 -43.5q8 -11 26.5 -38.5t32.5 -46.5t29 -36q35 -38 88 -32.5t82 49.5q45 68 49 184q0 23 -29 20q-146 -12 -251.5 51.5t-159.5 196.5q-110 269 -68 506q13 79 53.5 110t122.5 25h6q82 -7 105.5 -36t15.5 -111 q-14 -191 10 -318q13 -71 46 -118.5t98 -67.5q35 -11 50 -1.5t15 46.5q-1 55 -3 116.5t-5 136.5t-4 116q0 1 -6 49q-4 65 5.5 82t65.5 43q6 2 9 4q12 6 25.5 9.5t31 5.5t27.5 3t32.5 1.5t28.5 0.5q48 0 68 -51q16 -46 16 -72q1 0 1 -126l-1 -126v5q9 -294 -45 -570 q-23 -108 -53.5 -186.5t-89.5 -142.5q-146 -160 -328 -138q-56 7 -90 25q-187 99 -240 303zM109 166q1 -13 8.5 -16t20.5 -1t18 1h28q44 0 52 2q6 2 13 9t7 13t-8.5 13.5t-14.5 7.5q-44 3 -79 -2q-13 -3 -29 -12t-16 -15zM182 20q3 -3 7.5 -8t7.5 -8.5t7.5 -7t8.5 -4.5 q11 -4 51 -4h185l2 4h190q4 0 15.5 -1.5t18.5 -2t13 4t6 15.5q0 10 -6 14.5t-13.5 4t-19 -2t-16.5 -1.5q-79 3 -141.5 0.5t-141 0t-139.5 13.5q-4 1 -10 -2t-13.5 -8t-11.5 -7zM242 545q3 -2 7.5 -7t8.5 -8.5t8 -3.5q43 -3 91 -5.5t112 -5.5t104 -5v-4q125 8 228 18 q7 1 20 12t15 13q-4 2 -13.5 8.5t-16.5 10t-13 3.5q-15 0 -46 -6t-47 -6q-65 1 -194 4t-193 4q-5 0 -14 1t-17 1t-14 -2q-5 -1 -9 -4t-10 -10t-7 -8zM307 1462v4q14 36 27 52q50 70 102 135q13 17 37 20q29 6 81 -18.5t67 -50.5q29 -53 -9 -91q-111 -107 -166 -147 q-46 -33 -92.5 -1.5t-46.5 97.5zM582 416q2 -8 7 -16.5t11 -8.5q12 -2 74 -2v2v-6q21 3 64 8t65 8q3 0 6.5 6t3.5 11q0 4 -4.5 10t-7.5 6q-101 3 -203 0q-4 0 -11 -7.5t-5 -10.5z" />
<glyph unicode="&#xff;" horiz-adv-x="976" d="M49 127q-17 61 31 122.5t113 63.5q29 1 49 -13.5t41 -43.5q8 -11 26.5 -38.5t32.5 -46.5t29 -36q35 -38 88 -32.5t82 49.5q45 68 49 184q0 23 -29 20q-146 -12 -251.5 51.5t-159.5 196.5q-110 269 -68 506q13 79 53.5 110t122.5 25h6q82 -7 105.5 -36t15.5 -111 q-14 -191 10 -318q13 -71 46 -118.5t98 -67.5q35 -11 50 -1.5t15 46.5q-1 55 -3 116.5t-5 136.5t-4 116q0 1 -6 49q-4 65 5.5 82t65.5 43q6 2 9 4q12 6 25.5 9.5t31 5.5t27.5 3t32.5 1.5t28.5 0.5q48 0 68 -51q16 -46 16 -72q1 0 1 -126l-1 -126v5q9 -294 -45 -570 q-23 -108 -53.5 -186.5t-89.5 -142.5q-146 -160 -328 -138q-56 7 -90 25q-187 99 -240 303zM109 166q1 -13 8.5 -16t20.5 -1t18 1h28q44 0 52 2q6 2 13 9t7 13t-8.5 13.5t-14.5 7.5q-44 3 -79 -2q-13 -3 -29 -12t-16 -15zM176 1448q-3 58 31 96.5t90 40.5v-2q47 2 78 -27 t31 -75q0 -51 -37 -90.5t-86 -40.5q-43 -2 -74.5 26.5t-32.5 71.5zM182 20q3 -3 7.5 -8t7.5 -8.5t7.5 -7t8.5 -4.5q11 -4 51 -4h185l2 4h190q4 0 15.5 -1.5t18.5 -2t13 4t6 15.5q0 10 -6 14.5t-13.5 4t-19 -2t-16.5 -1.5q-79 3 -141.5 0.5t-141 0t-139.5 13.5q-4 1 -10 -2 t-13.5 -8t-11.5 -7zM242 545q3 -2 7.5 -7t8.5 -8.5t8 -3.5q43 -3 91 -5.5t112 -5.5t104 -5v-4q125 8 228 18q7 1 20 12t15 13q-4 2 -13.5 8.5t-16.5 10t-13 3.5q-15 0 -46 -6t-47 -6q-65 1 -194 4t-193 4q-5 0 -14 1t-17 1t-14 -2q-5 -1 -9 -4t-10 -10t-7 -8zM555 1479 q1 45 38.5 80.5t82.5 35.5h4q41 0 65.5 -29t22.5 -75q-1 -49 -33 -82t-78 -33q-44 0 -74 30t-28 73zM582 416q2 -8 7 -16.5t11 -8.5q12 -2 74 -2v2v-6q21 3 64 8t65 8q3 0 6.5 6t3.5 11q0 4 -4.5 10t-7.5 6q-101 3 -203 0q-4 0 -11 -7.5t-5 -10.5z" />
<glyph unicode="&#x178;" horiz-adv-x="1259" d="M0 1726q0 75 80 78q0 2 40 1l40 -1h8q8 0 24.5 1t24.5 1q65 -3 108 -27t66 -81q8 -21 182 -428q11 -30 21 -47q1 -2 9 -1.5t9 3.5q7 10 11 28q20 73 58 221t58 222q26 101 113 104q120 3 207 -12q58 -9 75.5 -38t2.5 -87q-9 -36 -21 -77t-26.5 -89t-22.5 -76 q-47 -161 -141.5 -482t-141.5 -482q-75 -251 -104 -346q-10 -38 -31 -84q-23 -55 -76 -52q-106 9 -145 17q-42 9 -59.5 33t-14.5 69q1 19 21 117q77 327 88 367q11 43 -6 84q-385 859 -434 972q-23 56 -23 92zM279 2007q-3 58 30.5 96.5t89.5 40.5v-2q47 2 78 -27t31 -75 q0 -51 -37 -90.5t-86 -40.5q-43 -2 -74 26.5t-32 71.5zM434 170q3 -3 7.5 -9t8 -10.5t7.5 -5.5q43 -6 129 -14q4 0 8.5 3t11.5 8t12 8h3q-5 4 -12 11t-11 10.5t-8 4.5q-86 12 -129 14q-4 0 -8.5 -3.5t-10 -9t-8.5 -7.5zM477 319q1 -1 9.5 -6t13.5 -6q3 -1 6.5 -1t9.5 0.5 t10 0.5h-2q74 7 135 15q4 0 19 10q-2 2 -6 7t-7 8t-6 3q-36 6 -83.5 5.5t-81.5 -17.5q-3 -2 -9 -9.5t-8 -9.5zM500 465q0 -2 6 -6t10 -4h37l4 -4q4 1 57 7t80 11q8 2 17.5 9.5t9.5 13.5q1 12 -4.5 17.5t-14.5 5.5t-18 -1q-78 -8 -117 -14q-24 -3 -55 -13q-7 -2 -12 -22z M528 621q2 -1 5.5 -4.5l6 -6t5.5 -2.5q33 -2 98 -2l-4 -2q103 6 104 6q6 0 12.5 7t6.5 12q0 9 -19 18q-6 4 -20 4q-121 -8 -176 -14q-3 0 -19 -16zM657 2038q1 45 38.5 80.5t82.5 35.5h4q41 0 65.5 -29t22.5 -75q-1 -49 -32.5 -82t-77.5 -33q-44 0 -74 30t-29 73z" />
<glyph unicode="&#x2dc;" horiz-adv-x="1349" d="M32.5 1215.5q-0.5 13.5 8.5 35t10 27.5q56 185 279 278q61 25 121.5 13.5t113.5 -56.5q33 -29 94 -94q49 -50 92.5 -66.5t93 2t105.5 77.5q11 12 21 26.5t23 36t18 29.5q28 44 83.5 64t102.5 1q29 -11 46 -39.5t13 -62.5q-12 -76 -39 -147t-70 -137t-108.5 -118 t-146.5 -81q-11 -4 -109 -25h4q-116 3 -206 90q-24 23 -71.5 70t-72.5 69q-32 31 -56 31t-58 -29q-7 -6 -74 -73q-62 -68 -131 -23q-23 14 -74 74q-12 14 -12.5 27.5z" />
<glyph unicode="&#x2000;" horiz-adv-x="1180" />
<glyph unicode="&#x2001;" horiz-adv-x="2361" />
<glyph unicode="&#x2002;" horiz-adv-x="1180" />
<glyph unicode="&#x2003;" horiz-adv-x="2361" />
<glyph unicode="&#x2004;" horiz-adv-x="787" />
<glyph unicode="&#x2005;" horiz-adv-x="590" />
<glyph unicode="&#x2006;" horiz-adv-x="393" />
<glyph unicode="&#x2007;" horiz-adv-x="393" />
<glyph unicode="&#x2008;" horiz-adv-x="295" />
<glyph unicode="&#x2009;" horiz-adv-x="472" />
<glyph unicode="&#x200a;" horiz-adv-x="131" />
<glyph unicode="&#x2010;" horiz-adv-x="1120" d="M129 731q-6 53 14.5 78.5t73.5 28.5q41 3 87 5t102.5 4t87.5 3q73 3 220.5 9t221.5 9q59 4 88 0q44 -5 69.5 -30.5t28.5 -69.5q4 -61 -10 -92q-15 -30 -59 -49q-30 -11 -86 -15q-198 -12 -578 -32q-21 -1 -63 -4.5t-64 -4.5l-2 -6q-54 -3 -78.5 15.5t-36.5 70.5 q-12 56 -16 80z" />
<glyph unicode="&#x2011;" horiz-adv-x="1120" d="M129 731q-6 53 14.5 78.5t73.5 28.5q41 3 87 5t102.5 4t87.5 3q73 3 220.5 9t221.5 9q59 4 88 0q44 -5 69.5 -30.5t28.5 -69.5q4 -61 -10 -92q-15 -30 -59 -49q-30 -11 -86 -15q-198 -12 -578 -32q-21 -1 -63 -4.5t-64 -4.5l-2 -6q-54 -3 -78.5 15.5t-36.5 70.5 q-12 56 -16 80z" />
<glyph unicode="&#x2012;" horiz-adv-x="1120" d="M129 731q-6 53 14.5 78.5t73.5 28.5q41 3 87 5t102.5 4t87.5 3q73 3 220.5 9t221.5 9q59 4 88 0q44 -5 69.5 -30.5t28.5 -69.5q4 -61 -10 -92q-15 -30 -59 -49q-30 -11 -86 -15q-198 -12 -578 -32q-21 -1 -63 -4.5t-64 -4.5l-2 -6q-54 -3 -78.5 15.5t-36.5 70.5 q-12 56 -16 80z" />
<glyph unicode="&#x2013;" horiz-adv-x="1148" d="M128 731q-6 53 15 78.5t76 28.5q42 3 89.5 5t105.5 4t90 3q75 3 227 9l228 9q60 4 90 0q46 -5 72 -30.5t29 -69.5q4 -61 -10 -92q-16 -30 -61 -49q-31 -11 -88 -15q-204 -12 -595 -32q-22 -1 -65 -4.5t-66 -4.5l-2 -6q-55 -3 -80.5 15.5t-37.5 70.5q-12 56 -17 80z" />
<glyph unicode="&#x2014;" horiz-adv-x="2173" d="M130 731q-13 53 29.5 78.5t151.5 28.5q84 3 179 5t211 4t180 3q150 3 453.5 9t455.5 9q122 4 182 0q90 -5 142.5 -30.5t58.5 -69.5q8 -61 -20 -92q-31 -30 -122 -49q-62 -11 -177 -15q-407 -12 -1189 -32q-43 -1 -129.5 -4.5t-132.5 -4.5l-4 -6q-111 -3 -161.5 15.5 t-74.5 70.5q-25 56 -33 80z" />
<glyph unicode="&#x2018;" horiz-adv-x="393" d="M2 1866q0 62 21.5 85.5t87.5 35.5q47 12 49 12q100 9 112 -88q4 -38 19 -228h-6l-2 -6l1 -77q2 -76 -1 -76q-6 -71 -74.5 -113t-132.5 -14q-13 6 -25.5 22t-17.5 31q-20 76 -23 139q-11 161 -8 277z" />
<glyph unicode="&#x2019;" horiz-adv-x="374" d="M4 1800h2v31q0 80 43 113.5t119 11.5q29 -9 53 -45q15 -20 19 -64q20 -230 28 -354q4 -61 -20.5 -89t-89.5 -34q-109 -12 -121 105q-19 174 -33 325z" />
<glyph unicode="&#x201c;" horiz-adv-x="708" d="M78 1556q-1 55 21.5 80t78.5 31q32 4 49 4q49 0 71.5 -18t29.5 -66l4 -2q2 -18 33 -299v-92q-2 -37 -15.5 -56.5t-44.5 -25.5q-54 -12 -117 -2q-24 3 -41.5 21t-23.5 45q-18 93 -21 122q-20 172 -24 258zM375 1542v25q-2 82 41 122t125 33q89 -9 98 -94 q7 -71 18.5 -195.5t14.5 -150.5v-22h-4q7 -89 -15.5 -112.5t-98.5 -38.5q-4 -1 -7 -1.5t-6 -1.5q-83 -16 -107 65q-16 51 -26 121q-17 119 -33 250z" />
<glyph unicode="&#x201d;" horiz-adv-x="714" d="M84 1536q1 45 32.5 79.5t74.5 44t88 -6.5q53 -22 53 -88h-2q2 -51 2 -154h6q-15 -181 -19 -221q-4 -42 -29 -67t-61 -27q-40 -2 -80.5 22t-50.5 56q-10 27 -10 49q-5 261 -4 313zM451 1386q1 14 6.5 85.5t11.5 111.5q15 99 113 90h-2q59 -5 84 -30t24 -80 q-3 -167 -16 -375q-6 -90 -103 -96q-48 -3 -74 17t-32 69q-2 15 -12 208z" />
<glyph unicode="&#x202f;" horiz-adv-x="472" />
<glyph unicode="&#x205f;" horiz-adv-x="590" />
<glyph unicode="&#x20ac;" horiz-adv-x="1419" d="M45.5 885q-28.5 57 3.5 100q18 21 57 29q56 10 105 4q42 -5 66.5 10.5t37.5 56.5q10 35 68 134q67 119 188 184q284 155 578 135q89 -6 122 -73.5t-14 -143.5q-19 -31 -45.5 -42t-66.5 -13q-151 -4 -201 -9q-103 -9 -196 -59q-86 -45 -134 -137q-14 -29 17 -29 q18 1 54.5 3t55.5 3q52 3 157 10.5t157 10.5q95 3 123 -76q17 -44 -1.5 -76.5t-64.5 -38.5q-12 -2 -74 -2q-72 -2 -217.5 -6t-218.5 -6q-35 -1 -50 -24.5t-1 -55.5q7 -14 29 -18q25 -4 73 -4q66 -1 197 -3.5t197 -3.5q49 -1 71.5 -20.5t30.5 -65.5q16 -101 -76 -110 q-35 -4 -73 -4.5t-89.5 1t-74.5 1.5v6v4h-203q-18 0 -23.5 -8t4.5 -23q64 -93 138.5 -144t175.5 -48q32 1 184 16q41 4 59 2q30 -5 44.5 -19.5t15.5 -43.5q3 -71 0 -142q-3 -64 -72 -94q-130 -54 -248 -37q-464 66 -614 498q-17 54 -70 45q-32 -4 -51 -4q-41 0 -62 15.5 t-30 52.5q-9 41 5.5 77.5t47.5 49.5q18 7 86 16q29 3 29 31t-33 28q-10 0 -29 -0.5t-33.5 -0.5t-27.5 1q-55 3 -83.5 60zM348 506q1 -18 17.5 -20.5t31.5 1.5q19 2 56 6.5t55 6.5q8 1 24.5 2t24.5 2q3 0 6.5 3t3.5 5q-5 16 -10 16q-15 1 -43.5 2t-42.5 2l-2 -2h-74 q-15 0 -22 -0.5t-16 -6t-9 -17.5zM416 416q2 -6 8 -13t12 -8q1 0 68 -6l-4 4q24 -4 37 -2q3 0 28 10l-3 9t-4 10t-5 6q-46 27 -123 12q-5 -2 -10 -10t-4 -12zM508 274q2 -2 4.5 -5t4.5 -5t4.5 -4t4.5 -2q156 0 234 2q8 10 8 14q0 3 -4.5 8t-7.5 5q-39 2 -117 2h4 q-74 0 -111 -2q-4 0 -8 -2.5t-8.5 -6t-7.5 -4.5zM672 170q2 -2 4.5 -5t4.5 -5t4.5 -4t4.5 -2h80v-4l234 18q75 8 116 14q32 5 72 19q6 3 6 18q0 2 -3.5 5t-6.5 3q-34 4 -51 2q-145 -13 -322 -30q-22 -2 -129 -17q-3 0 -5 -2t-5 -5.5t-4 -4.5z" />
<glyph unicode="&#x25fc;" horiz-adv-x="1320" d="M0 0v1321h1321v-1321h-1321z" />
</font>
</defs>
</svg>
